<svg className='marlin' xmlns="http://www.w3.org/2000/svg"  viewBox="0 0 630.08 248.82">
    <g  id="Layer_2">
        <g id="Layer_1-2" >
            <g id="jo3bq3.tif">
                <path className="marlin-cls-1"
                    d="M9.59,248.82c.3-2.08,1.86-2,3.09-2.37,13-4.2,24.67-11.91,34.68-21.94,8-8,16.47-15.29,23.64-24.81,8.6-11.43,17.47-22.64,25.59-34.58,1.68-2.47,4-3.92,5.8-6.19-2.2-6.34-6.83,1.4-9.49-2.21-1.52,3.05-3.82-.55-6.26,1.25-3.61,2.67-5.64,6.48-8.14,9.9-2,2.75-3.41,7.55-6.51,7s-2.74-5.78-3.9-9c-.13-.12-.38-.28-.37-.34a6.66,6.66,0,0,1,.37-.82l1.07-4.61L69,160l-3,2.4c-2.15,6.75-6.13,12-9.92,17.6-2.73,4-4.44,9-6.51,13.59-3,6.55-8.27,11.11-11.23,17.57-4.47,9.78-12.48,15.83-18.45,24-3.06,4.2-8,6.59-12.29,9.53-2.28,1.57-1.67,2.7-.09,4.12Z" />
                <path className="marlin-cls-1"
                    d="M440.3,95.72c-3.33-8.33-3.2-17.76-6-26.2-5.45-16.62-9.86-33.67-20.53-47.63-5-6.55-9.54-13.66-15-19.75-.84-.94-1.6-3-3.23-1.76-1.38,1-.82,3-.59,4.34.63,3.76,1.09,7.47,1.37,11.32.87,11.63-2.78,22.62-2.75,34.08,0,4.55-4.57,5.56-6.25,9.16-2.7,5.79-8.5,6.46-13,9.29-7.68,4.81-16.84,4.72-24.34,10.36-2.76,2.07-6.45-.78-9.94.16-8.7,2.35-17.52,4.11-26.33,5.88-11.17,2.24-21.92,6.54-33.12,8.85-5.13,1.06-10.83-.48-15.52,3.13-5.79,4.46-12.83,4.49-19,5-10.06.87-19.41,5.34-29.42,5.93-2.17.12-4.17,2.76-6.37,3.91-5.45,2.85-11.76,4.37-16.23,8.56-4.09,3.84-8.18,4.58-12.79,5.75-5.39,1.35-9.38-2.88-14.2-3.37-3.19,2.63-5.11-1.73-7.79-1.89l-.77,1.07.6,1.52c.77.18,1.58.31,2,1.3a5.6,5.6,0,0,1,4.51,2.78c-7.38,2-14.09,2.36-19.84-3.73l0-.07c-2.17,2.21-7.27,1.28-5.86,7.34.28,1.19-.65.62-.9.64-10.68.8-21.36,2.55-32.06.76-6.27-1-9.7-6.89-13.76-11.73C78.12,102.91,63.67,84.4,46.65,69.14,35.34,59,23.24,50,8.91,46.19c-3-.8-5.87-1.33-8.86-.45A2.43,2.43,0,0,0,1.49,48.5c10.18,5.34,18.33,14,26.36,22.55a195.6,195.6,0,0,1,27.33,36.79c1.91,3.36,4.33,6.21,6.38,9.44,3.8,6,2.78,12.65,3.48,19.21.8,7.47-2,15.11,1.08,22.35.81.92,2.78-2.15,2.9,1.14l.14.12c1-1.67,3.75.47,3.92-2.15.28-4.11-2.36-8.66,1.57-12.18,0,0-.37-1.22-.7-1.34-3.85-1.36-3-6.4-2.44-7.86,1.54-4.27-.83-7.78-.39-11.61-.9-.2-2.14.41-2.54-1.08-.22-.8.34-1.7,1-1.56,1.14.24,1.34,1.53,1.5,2.69,2.84.29,3.57,3.14,4.83,5.35.62,1.08,1.16,3,2.47,2.12s1-2.85.05-4.1c-2.34-3.21-3.4-7.54-6.87-9.89,2.72-1.48,4.09.38,5.31,2.23,1.62,2.45,3.1,5,4.57,7.62,1.29,2.28,2,4.46,5.43,3,2.59-1.11,6.62.21,8.72,1.48,4.85,2.94,9.86,2.86,14.84,3.85l0,0c3.1-2.15,6.23-1.89,9.24.13,1.25.85,2.77,1.58,3.69.63,2.67-2.8,4.46-1.26,6.15,1.18.85,1.22,2,1.94,3,1.36,2.92-1.75,5.3.08,7.84,1.07,1.49-.92,3.36-3.51,3.6,1.09.65-1.77,1.48-3.09,3.31-3.65,1.4-.43,3.43-.56,3.54-3.18-1.58.47-3.52-.73-4.79.93-1.75,2.29-2.89.31-4.3-.42,12.84-2.74,25.6-5.43,38.66-4.93,1.35.06,1.61,1,1.6,2.32,6.32.68,12.43-2.9,18.81-1.3.44-2.73,0-7.46,3.8-2,.94,1.36,2.56.9,3.79.5a82.48,82.48,0,0,0,8.06-3.15c2-.91,4.8-.6,5.18-4.39.14-1.46,1.62-.84,2.5-1.19,3.88-1.51,7.75.37,11.84-.35,6.64-1.17,12.94-4.2,20.35-3,6.87,1.15,14.59-.43,21.71-2.81l2.52-.26c2.35-4.56,6-1.89,9-2,8.73-.21,16.89-4.42,25.61-4.49a32.18,32.18,0,0,0,8-.81c8.42-2.25,16.56-6.24,25.51-5.16,1.23.15,2.53-.8,3.83-1.06,5.93-1.2,11.36-5.59,17.93-2.83s13.09,2.36,18.41-4.19c1.93-2.37,3.28-1,3.86,1.57a26.6,26.6,0,0,1,.31,4l1.47,0c1.09-3.12,3.42-3.23,5.83-3.37,4.28-.24,8.55-.74,12.83-.88,1.24,0,2,.16,1.38-1.63s-.75-3.45,1.28-3.23c2.78.3,7-2.68,8.07,1,1.34,4.59,3.55,2.81,5.83,3.26C433.24,96.16,436.83,93.09,440.3,95.72ZM64,104l1,1.16a2.57,2.57,0,0,1,1,2.33l1,1.17,1,1.17a2.72,2.72,0,0,1,1,2.33l.27.43c-.08-.15-.16-.31-.25-.46-.33-.78-.66-1.55-1-2.33l-1-1.18-1-1.16-1-2.34-1-1.17a1.05,1.05,0,0,1-.34-.2s0-.18-.07-.28Zm-2-3.55-1-1.17-2-.24c.09-.22.15-.62.27-.64A1.42,1.42,0,0,1,61,99.3l1,1.17.23.48Zm247-3.46-1-1.17a3.3,3.3,0,0,1-3-2.35l-.2-.48.22.45c1.41.08,2.91,0,3,2.32l1,1.17.23.53ZM420,47.9c-.42-.41-1.26-.7-.37-1.53l.39,1.51.73,1.28-.38.29Zm-34.3,24.55c3.71,1.92,3.92,6.32,5.49,9.75a15.26,15.26,0,0,1-5.44-9.8c-.45-.4-1.32-.67-.35-1.51Zm16.18,8.11c-2.46-3.57-4.39-7.42-4.64-12.11,2.56,3.54,5,7.15,4.59,12.17l.26.44ZM317.12,98.14c-3.26-1.2-5.15-4-6.93-7.86,4.41.94,6.1,3.91,7,7.83l.21.44Zm-228.86,28c-1.79,3.37-3.28,1.79-4.86-.31-1.13-1.52-1.1-2.56.51-3.53,2.69-1.61,3.48.5,4.21,2.76a4.62,4.62,0,0,1,.1,1.13,1.07,1.07,0,0,1,.4.15c.06.06.06.22.08.34ZM401.82,37.4a10.34,10.34,0,0,1,1.77,2,2.83,2.83,0,0,0,4,1.42c2.36-1,.49-3,.4-4.42A13.61,13.61,0,0,0,405,29.15,18.6,18.6,0,0,1,401.12,19c4.93,6.59,8.67,13.06,10.69,20.7,2.29,4.27,2.7,10.13,4.91,13.46,3.2,4.81,3.31,10.33,5.53,14.88,2.64,5.39-.37,7-2.72,9.32-3.59,3.53-7.4,1.71-9.11-3.64A50.47,50.47,0,0,0,407.21,66c-2-3.9-3.16-8.39-4.22-11.36,1.4-4.53,4,4.53,4.75-2.25l.05-2c.33-1.34.66-2.68,1-4-5.53.32-6.65-3.91-6.92-9l-.23-.41Zm-1,23.62c4.51,5.83,7.63,12.56,8,18.17C405.07,74,400.57,69.31,400.78,61ZM386,85.19c-3.82-3-5.72-7.19-6.49-12.12C383.34,76.06,384.5,80.74,386,85.19Zm8.76-5.07c-1.73-2.71-3.49-5.4-5.16-8.16-.44-.71-1.12-1.69-.24-2.53A1.58,1.58,0,0,1,392,70C393.64,73,395.27,76,394.78,80.12ZM426,68.9q-2.53-8.24-5.06-16.48C424.51,57.22,425.82,63,426,68.9Z" />
                <path className="marlin-cls-2"
                    d="M281.86,188.09c3.65-1.65,7.55-.72,11.29-1.5.05-2,1.25-1.94,2.47-2,5.13-.31,10.29-1.1,15.39-.77,2.2.15,5.43-1.08,6.85,2.64,1.78.52,3.56.86,5.3-.16,2.8-3,6.37-2.72,9.76-2.89,14-.73,28.05.93,42.11.21,6.59-.33,13.21-1,19.91-.71,5.57.27,11.21-3.86,17.19-1.74,2.77,1,7.08-1.58,7.73,4.4a1.66,1.66,0,0,0,2.14-.9c.07-3,2.18-2.06,3.63-2.63,3.29-1.3,8,.65,9.82-2.76,2.25-4.14,4.42-6,8.58-5.78,1.33.07,3.07-1.06,4.56-1.79a29.52,29.52,0,0,1,12-3.08c-1.81,2.56-4.3,1.35-4.82,5.74,1.82-4.06,7.57,1.33,6.53-6.7-.15-1.15,6.07-3.63,9.47-5.08,2.16-.91,3.3.81,3.91,3.2.42,1.65,1.87,1.33,3,1.36,2.34.06,4.68.07,7,.11,2.33-1.17,4.24-3.37,6.89-3.73-.75-4.35-4.31-1-6.27-3.22l17.09-3.74c2.89-.63,5.71-2.05,8.75-1.16,1.31-1.48,3-.7,4.54-1.13.91-5.54,5-4.07,8.05-4.91l.24-2.63-1.8-.27c-4.49-.1-8.85,3.4-13.44.66l.06,0c-2.43,2.31-5.5,1.8-8.29,2.54-10.13,2.69-20.29,5.29-30.36,8.27a7.72,7.72,0,0,1-5.28-.39c-.73-.27-1.31-.76-.88-1.61.28-.56,1.28-1.3,1.48-1.14,4.69,3.6,8.8-.26,13.11-1.3,7.3-1.75,13.95-6.45,21.64-6.57,1,0,2.42-.22,2.2-1.67-.65-4.16,1.37-4.35,3.93-4,2.32.35,5.2-.73,6.19,3.15,4-1.27,7.87-3.36,12.35-2.45,1.14.23,3.94.24,4-3l-.18-1.57-5.77,0c-1.28.26-2.57.68-3.63-.65a1.46,1.46,0,0,1-2,0c-.68.84-1.36,1.12-2.06,0-4.35.37-8.74,1-12.56-2.38h-6c-4.48-.39-8.5,3.08-13.05,2.13a5.55,5.55,0,0,1-.48,2.72,5.37,5.37,0,0,1-4.9,4.13c-2.83.19-1.22-2.8-1.74-4.33s-1.9-1.95-3.13-2.46c-.38,1.37.52,3.12-1.12,4.43-1.37-1.59-2.42-5.7-5-1.46-.35.57-1.58.73-2.34.6-3.49-.62-6.07,1-8.34,3.94-1.25,1.6-7.47,1.65-8.13.27-3.16-6.57-6.73-7.64-12.31-3.69-1.44,1-2.78,1.71-4.66,1-3.76-1.37-5.29,1.14-5.39,5.1-.06,2.19.26,4.38.44,6.87-2.87-1.25-3.24-5.86-6.79-5.56-6.82.59-8.59-4-8.1-10.91a24.71,24.71,0,0,0-.7-5.12c-1.09-2.8,2.89-5,.69-7.93-.64.28-1.32.81-1.72-.39-2.48,1.46-2.39,4.14-1.66,6.41a4.89,4.89,0,0,1-.29,4.16c2.67,3.14.68,7.45,1.9,10.73,1.46,3.9-.3,2.9-2.26,3.11-3.73.41-7.92-.62-10.71,3.63l18,7.16c1.92-.47,2.91,2.46,3.63,2.37,5.84-.75,5.4,5,5.94,8.37.56,3.5-1.78,6.61-4.91,8.15-4.31,2.4-8.4,1.66-12.14-1.49-4.27-3.6-9-6.23-13.57-9.23L369.24,158h-.38l-.35-.15-2.9-.22c-2.05.77-4,1.14-5.27-1.58l-1.86-.67q-7.86-.06-15.73-.14c-2,0-3.71.22-4.59-3-.73-2.68-3-2.38-3.78.29-.77,2.46-1.08,2.3-3,1.1-1.51-.94-5-4.44-5.69,2.58-2.27-4.28-5.21-5.39-8.91-4.65a5.84,5.84,0,0,1-3.73-.85c-3.48-4.21-4,.07-4.87,2.24-.53,1.26,0,3.61-2,3-1.34-.39-3.1-1.92-2.8-3.57.69-3.86-1.19-7.65.09-11.41.31-1,.88-1.91.38-3l-2.95-.31c-1.15.83-.76,2.29-1.06,3.47,0,3.61,2.24,7.37-.5,11.07-.61-1.64-.18-3.89-2.36-3.87h0c-.67,3.84-2.65.88-3.7.65-2.45-.52-3.28-.05-2.33,2.82,2.28-1.49,4.24-1.68,5.84,2.38h-5.86l-.43.28.42-.29,0-2.31c-2.28-.24-5.24,1.81-6.73-.33-2.47-3.55-3.36-1-4.81.7-.49.57-.84,1.87-2.08.78,1.57-3.42-2-7.5,1.05-10.87-1.12-1.3,1.27-5.38-2.64-4.45.56,4.66-.14,9.18-.93,13.73-.27,1.54-.66,2.94-2.1,2.31-6.15-2.73-12.94-1.25-19.17-4.82-3.37-1.94-3.69-3.25-2.8-6.51-.11-1.45-.23-2.89-.34-4.33l-1.6-1.07a7,7,0,0,1-.05,1,51.86,51.86,0,0,0-1.16,9.08c-.1,1.54.43,4-3.19,3.94-6.19,0-12.56-1-18.73,1.15a9.92,9.92,0,0,1,.1-5.25l-.05-2.08-.12-1.28a35,35,0,0,1,2-11.44c-.16-2.17-.55-4.7-2.55-5s-1.35,2.53-2,3.91c1.47,5.1-.47,10.06-.51,15.1.54,5,.17,8.45-5.66,8.26-3.65-.13-7.27-1.42-10.69-1-4.41.47-4.2-1.81-3.81-5.16-.25-.81-.22-2.13-1.2-2-1.58.22-.74,2-1.16,3.06,0,1.83,1.33,4.24-2.11,4.16-6-.14-12.11-.59-18.08.93a11.28,11.28,0,0,1-3.25-.1c-3.78-.08-7.89-1.09-12.11,2.66,6,1.65,11.42,1.56,14.69,7.16l1.92.09c1.23-1,2.51-.65,3.84-.27,16,4.6,32.33,7.41,48.61,10.43,8.13,1.51,16.2,3.47,24.3,5.23-8.71,3.31-17.79-2.25-26.26,2.65a4.57,4.57,0,0,1-.13,1c3.12,1.74,5.8,5.14,10.06,2.93-1.81,4.32-.1,7.58,4,8.67.63-.92,1.25-1.9,2.42-1.68.18,0,.47.63.4.84-.44,1.49-1.68.84-2.55,1.19-.65,2.23-3.82,1.84-3.8,5.79,3.06-4.08,6.43.2,9.48-1.6.47-.58,1.32-1.06,1.58-.38.38,1-.73.64-1.16.94l-1.17,2.2c5.49,1,7.78-5.36,12.09-7.1.64-1.42,1.38-2.61,3.08-1.61-1.16.4-1.69,2.14-3.11,1.58l-.07,3.63c5.57.62,7.61-5.69,11.55-8.31C276.61,188.74,278.14,186.5,281.86,188.09ZM472.42,150.7l.72-.74.23.49-1,.22c-.75,1.27-1.93,1.05-3,1.16l-.39.27.43-.22C470.12,150.49,471.35,150.88,472.42,150.7Zm-24.94,9c-7.55-3.83-7.56-3.83-8.18-10.73-.29-3.27,2.19-3.49,3.84-4.52,1.26-.77,1.89.12,1.93,1.53C445.2,150.56,448,154.44,447.48,159.7ZM337,158.2c1.45.4,1.21,1.68,1.71,2.33,2.22,2.9-.49,8.67,4.4,10.08.41.12.07,1.66-.54,1.89-1.5.58-2.9,2-4.71.7a3.43,3.43,0,0,1-1.2-4.44c1.33-3.54.73-5.43-3.56-5C335.75,162.63,336.21,160.16,337,158.2Zm152-9.83c-4.17,1.62-8.36.68-12.54.27A17.66,17.66,0,0,1,488.94,148.37Z" />
                <path className="marlin-cls-3"
                    d="M440.3,95.72c-3.47-2.63-7.06.44-10.62-.25-2.28-.45-4.49,1.33-5.83-3.26-1.07-3.67-5.29-.69-8.07-1-2-.22-1.87,1.56-1.28,3.23s-.14,1.59-1.38,1.63c-4.28.14-8.55.64-12.83.88-2.41.14-4.74.25-5.82,3.37.46,1,1.09,2.52-.63,2.23-4.58-.78-5.79,1.6-5.33,6.42.13,1.37-.69,2.87-1.07,4.31.61,3.44-3.21,5.74-1.79,9.39l1,1.1c1.66,1.17,3.32,1,5.23.75a111.36,111.36,0,0,0,18.09-3l1.67-10.1a27.33,27.33,0,0,1,1.42,11.29c4.74-.77,9.48-1.56,14.22-2.29.76-.12,2.23-.22,2,.82-1.55,6.48,5.49,4,6.27,8.11.05.27,2.41,1.53,3.61.4s-.32-1.94-.63-2.88c-.67-2.05.31-2.6,1.74-3.29s3-2.07.24-3.39c-1.72-.83-1.19-3-2.16-4.31-2,0-2.79,2.48-5.16,3.1.76-6,4.7-10.53,4.48-16.4,2.94-2.72,5.61.23,8.41.53l.24-2.47a12.45,12.45,0,0,0-5.19-3.7l-.94-1.29Z" />
                <path className="marlin-cls-4"
                    d="M179.07,164.11c-3.27-5.6-8.74-5.51-14.69-7.16,4.22-3.75,8.33-2.74,12.11-2.66a11.28,11.28,0,0,0,3.25.1c6-1.52,12-1.07,18.08-.93,3.44.08,2.09-2.33,2.11-4.16-6,.67-11.88-1.36-17.84-1.08-3,.15-3.13-2-3.13-4.47l-1.91-.17c-.72,1.1-.72,3.62-2.49,2.81-4-1.82-8.86,1.92-12.27-2.9a1,1,0,0,0-1.69.3c-1.18,2.64-2.61,1.18-4.17.67-2.46-.8-4.81-1.66-7.53.14-1.37.91-4.86,2.51-5-2.45-.24-4.6-2.11-2-3.6-1.09.44,2.1.47,4.49-2,3.88a62.82,62.82,0,0,0-17.59-1.62c-4.25.19-8.6-1-12.79-.4s-8.27.81-12.41,1.19c7.62,1.19,9.21,2.66,8,7.66,4.28.59,8.68-.87,12.87,1.09,5.78.88,11.6,1.56,17.34,2.73,2.1.43,6.12-1.08,5.09,4.54,0,.22,1,.93,1.57,1,5.49,1,9.51,5.12,13.84,8.56a4.77,4.77,0,0,0,4.3,1c5.35-1.44,10.91-2.09,15.76-5.47-8.33-1.28-16.34-4.15-24.47-6.47L141.13,157c3.16-1.64,5.94-.91,8.6.67,8.19.5,16,3.27,24,5.21,1.1.27,2.83,0,3.23,2.06l0,0Zm-63.66-16.3c8-1.21,9.12-.93,10.9,3.42C122.8,148.41,119.24,150.86,115.41,147.81Zm24.49,2.43c.15-1.87,1.54-1.77,2.56-2,1.7-.38,1.17,1.26,1.18,2.18,0,1.16-.22,2.37-1.53,2.34S140.13,151.67,139.9,150.24Z" />
                <path className="marlin-cls-5"
                    d="M116.35,152.86c-4.19-2-8.59-.5-12.87-1.09,1.26-5-.33-6.47-8-7.66,4.14-.38,8.29-.63,12.41-1.19s8.54.59,12.79.4a62.82,62.82,0,0,1,17.59,1.62c2.5.61,2.47-1.78,2-3.88-2.54-1-4.92-2.82-7.84-1.07-1,.58-2.17-.14-3-1.36-1.69-2.44-3.48-4-6.15-1.18-.92,1-2.44.22-3.69-.63-3-2-6.14-2.28-9.24-.13h4.93c-1.68,1-3.37,1.56-4.91,0-5-1-10-.91-14.84-3.85-2.1-1.27-6.13-2.59-8.72-1.48-3.43,1.47-4.14-.71-5.43-3-1.47-2.58-3-5.17-4.57-7.62-1.22-1.85-2.59-3.71-5.31-2.23,3.47,2.35,4.53,6.68,6.87,9.89.9,1.25,1.24,3.22-.05,4.1s-1.85-1-2.47-2.12c-1.26-2.21-2-5.06-4.83-5.35l0-.05c-.44,3.83,1.93,7.34.39,11.61C71,138,70.1,143.07,74,144.43c.33.12.75,1.3.7,1.34-3.93,3.52-1.29,8.07-1.57,12.18-.17,2.62-3,.48-3.92,2.15-.36,1.54-.71,3.08-1.07,4.61l0,0c.82.4,1,.8,0,1.22l0,0c1.16,3.18.91,8.39,3.9,9s4.5-4.21,6.51-7c2.5-3.42,4.53-7.23,8.14-9.9,2.44-1.8,4.74,1.8,6.26-1.25,2.66,3.61,7.29-4.13,9.49,2.21C106.07,153.91,111.59,154.57,116.35,152.86ZM78,161l.92-1.26,1.1-2.25c.21-.2.54-.6.61-.55.55.43.14.76-.15,1.08l-1.05,2.32-.95,1.22c-.22.21-.58.65-.66.6C77.15,161.63,77.59,161.28,78,161Zm-1.61,4-1,1.19-1.12,2.24c-.19.21-.51.64-.55.61-.57-.47-.1-.73.2-1L75,165.67l.93-1.23c.22-.22.57-.66.63-.62C77.14,164.31,76.69,164.63,76.34,165Zm8.55-13.47c2-1.56,4.91.43,5.18-1.59.23-1.78-.44-3,1.66-2.19a3.89,3.89,0,0,1,2.09,3.7c-.07,2.44-2,1.61-3.11,1.51A40.67,40.67,0,0,1,84.89,151.48Zm12.52-11.63c-3.52,2.27-7.2,1.11-10.88,1,1.94-.76,4.46,0,4.84-3.52C93,139.33,95.31,138.86,97.41,139.85Z" />
                <path className="marlin-cls-4"
                    d="M485.67,167.25c-2.35,0-4.69-.05-7-.11-1.14,0-2.59.29-3-1.36-.61-2.39-1.75-4.11-3.91-3.2-3.4,1.45-9.62,3.93-9.47,5.08,1,8-4.71,2.64-6.53,6.7.52-4.39,3-3.18,4.82-5.74a29.52,29.52,0,0,0-12,3.08c-1.49.73-3.23,1.86-4.56,1.79-4.16-.22-6.33,1.64-8.58,5.78-1.86,3.41-6.53,1.46-9.82,2.76-1.45.57-3.56-.42-3.63,2.63,8.93-1.14,17.89-2.07,26.79-3.48,6.91-1.09,13.75-2.77,20.61-4.19.91-2.57,2.79-3.18,4.87-4.24C478,170.83,483.18,172.56,485.67,167.25Z" />
                <path className="marlin-cls-4"
                    d="M231.48,182.24c8.47-4.9,17.55.66,26.26-2.65-8.1-1.76-16.17-3.72-24.3-5.23-16.28-3-32.59-5.83-48.61-10.43-1.33-.38-2.61-.77-3.84.27,0,.76,0,1.52,0,2.27l42.47,9.31c-4.33,2-8.28,1.08-12.63,2.45,2.74,3.15,5.45,3.17,8.24,2.92C223.22,181.14,227.26,183.09,231.48,182.24Z" />
                <path className="marlin-cls-4"
                    d="M251.35,199.43c-3,1.8-6.42-2.48-9.48,1.6,0-3.95,3.15-3.56,3.8-5.79l-.27-.35c-4.09-1.09-5.8-4.35-4-8.67-4.26,2.21-6.94-1.19-10.06-2.93-3.71-.26-4.14,2.54-4.07,5.82,2,.93,2.59,3.33,4,4.89,3.75-.33,3.51,3.06,4,5.75l1.15,8.27c2.54.16,3.27,4.29,5,4.19,3.76-.21,4,2.11,4.08,5.18,3.93-1,6.4-5,10.12-6.44,0-1.76,0-3.52,0-5.28l-1.1-.09.09,0c-.86,1.33-2.13,1.16-3.34,1.22-1.17-.11-1.58-1-1.62-2.2l-3.25,1c-.39-.26-1.15-.67-1.12-.78.36-1.26,1.35-1.39,2.32-1.52l-.09.06,1.55-1.24,1.55,0,0,.08,1.17-2.2Z" />
                <path className="marlin-cls-4"
                    d="M419.86,185.56c-.65-6-5-3.42-7.73-4.4-6-2.12-11.62,2-17.19,1.74-6.7-.33-13.32.38-19.91.71-14.06.72-28.08-.94-42.11-.21-3.39.17-7-.15-9.76,2.89,17.62.44,35.25,1.06,52.87.41,11.56-.43,23.11-1.34,34.67-1.94,1.38-.08,3-1.07,4.14.87l1.13.05c1-1.48,2-1.13,3,.07A3.6,3.6,0,0,0,419.86,185.56Z" />
                <path className="marlin-cls-3"
                    d="M529.7,137.45l.18,1.57,1.15.13c.11-1,.39-2,1.38-2.07,7.93-.28,15.87-.66,23.63,1.91l3.15-.08c.61-1,1.24-1,1.9-.06,21.25-.71,42.51-1.46,63.77-2,2-.05,3.39-1.51,5.22-1.85-33.47-.12-66.92,1.12-100.36-.22C529.71,135.64,529.71,136.55,529.7,137.45Z" />
                <path className="marlin-cls-1"
                    d="M446.3,100.67c-.08.83-.16,1.65-.25,2.47l.75,1c6,.34,8.06,2.29,8.41,8.09,1.27-.17,2.16.7,3.08,1.49,2.67,0,5.28.09,6.87,3.18l.17.2c1.48-.22,2.41.57,2.92,2.13l.14.11c2.24,0,4.59-.7,6.6,1s1.76,2.82-.78,3.05c1.9,4,7.34,3.62,8.2,8.91,1.48-2.8,3.85-3,6.13-2.2,3.12,1.15,6.1,2.84,9.13,4.3h6l-.06-2.16c-8.56-2.73-16.35-7.43-24.15-12.25-10.12-6.25-20.2-12.57-30.31-18.86A3.2,3.2,0,0,0,446.3,100.67Z" />
                <path className="marlin-cls-5"
                    d="M416,185.68l-1.13-.05c-16.45,9.67-34,15.81-51.62,21.76-2.38.8-4.75,1.64-7.12,2.46l1.31,1.4,8.06-1.22v.16c.66-1.7,1.87-1.46,3.09-1.16l-.08.08c1.19-1.24,2.39-3,3.51.07,7-6.28,15.63-6.89,23.71-9.42l1.1-.33c.83-3,2.95-3.05,5.1-3.08,5.56-1.61,10.26-5.21,15-8.74C416.58,187,416.28,186.32,416,185.68Z" />
                <path className="marlin-cls-4"
                    d="M513.52,144.47c-1-3.88-3.87-2.8-6.19-3.15-2.56-.39-4.58-.2-3.93,4,.22,1.45-1.18,1.66-2.2,1.67-7.69.12-14.34,4.82-21.64,6.57-4.31,1-8.42,4.9-13.11,1.3-.2-.16-1.2.58-1.48,1.14-.43.85.15,1.34.88,1.61a7.72,7.72,0,0,0,5.28.39c10.07-3,20.23-5.58,30.36-8.27,2.79-.74,5.86-.23,8.29-2.54C510,144.25,512.14,145.12,513.52,144.47Z" />
                <path className="marlin-cls-5"
                    d="M236.42,208c-.38-2.75-.77-5.51-1.15-8.27l-1.62-.06c.47,10.09-2.19,19.11-8,27.91,6.68-.32,11.34-3.53,16.1-6.39-.39-.81-.62-2.11-1.2-2.36C236,216.82,235.85,212.63,236.42,208Z" />
                <path className="marlin-cls-3"
                    d="M485.67,167.25c-2.49,5.31-7.63,3.58-11.4,5.5-2.08,1.06-4,1.67-4.87,4.24,12.28-2.12,23-9,34.17-14.69-4-3.37-7.3,1.24-11,1.22C489.91,163.88,488,166.08,485.67,167.25Z" />
                <path className="marlin-cls-4"
                    d="M281.86,188.09c-3.72-1.59-5.25.65-7.72,2.29-3.94,2.62-6,8.93-11.55,8.31a9.31,9.31,0,0,0-2,7.92,40.21,40.21,0,0,0,11.81-10.3A27.42,27.42,0,0,1,281.86,188.09Z" />
                <path className="marlin-cls-4"
                    d="M492.56,163.52c3.71,0,7-4.59,11-1.22,3-2,6.58-3.16,8.56-6.9-3-.89-5.86.53-8.75,1.16l-17.09,3.74C488.25,162.52,491.81,159.17,492.56,163.52Z" />
                <path className="marlin-cls-3"
                    d="M524.72,149.36c-3.05.84-7.14-.63-8.05,4.91,9-3.58,18.31-6,27.51-9.13H523c.06.44.13.88.19,1.32l1.8.27c2-1.43,4-.75,6.63-.38C529.25,148.68,526.7,148.16,524.72,149.36Z" />
                <path className="marlin-cls-5"
                    d="M503.63,132.23l.06,2.16c3.82,3.38,8.21,2.75,12.56,2.38h2.06a1.46,1.46,0,0,0,2,0c1.25-.09,2.54-.47,3.63.65l5.77,0c0-.9,0-1.81,0-2.72Z" />
                <path className="marlin-cls-3"
                    d="M260.6,206.61a9.31,9.31,0,0,1,2-7.92c0-1.21.05-2.42.07-3.63l0,0c-4.31,1.74-6.6,8.06-12.09,7.1l0-.08-1,2.45c0,1.23.45,2.09,1.62,2.2.88-1.27,2.09-1.33,3.34-1.22l-.09,0c-.18-.83.28-1.17.83-1.45l1-.49-.5,1.08a1.64,1.64,0,0,1-.23.95c0,1.76,0,3.52,0,5.28Z" />
                <path className="marlin-cls-3"
                    d="M395.7,199.76c-8.08,2.53-16.74,3.14-23.71,9.42l-3.51-.07.08-.08c.41,1.06-.43,1.1-.89,1.45,0,.62,0,1.24-.07,1.85C377.15,208.69,386.87,205.55,395.7,199.76Z" />
                <path className="marlin-cls-4"
                    d="M556,139c-7.76-2.57-15.7-2.19-23.63-1.91-1,0-1.27,1.06-1.38,2.07C539.38,141.22,547.71,140.51,556,139Z" />
                <path className="marlin-cls-3"
                    d="M236.42,208c-.57,4.61-.43,8.8,4.16,10.83.58.25.81,1.55,1.2,2.36,1.94-.37,2.72-2.27,3.76-3.82-.07-3.07-.32-5.39-4.08-5.18C239.69,212.31,239,208.18,236.42,208Z" />
                <path className="marlin-cls-1"
                    d="M159.8,117.9c-6.69-4.35-7.47-4-14.15,5.84l0,.07c3.38-1.64,6.74-.66,10.11,0-.84-3.89,1.49-1.78,2.66-1.88l.77-1.06c-.62-.72-1.8-1.15-1.53-2.35C157.8,118.13,159.07,118.1,159.8,117.9Z" />
                <path className="marlin-cls-5"
                    d="M149.78,158.8c8.13,2.32,16.14,5.19,24.47,6.47.88-.22,1.89.88,2.67-.35-.39-2.09-2.12-1.79-3.22-2.06-8-1.94-15.78-4.71-24-5.21C149.75,158,149.77,158.42,149.78,158.8Z" />
                <path className="marlin-cls-4"
                    d="M317.86,186.45c-1.42-3.72-4.65-2.49-6.85-2.64-5.1-.33-10.26.46-15.39.77-1.22.07-2.42,0-2.47,2C301.39,186.32,309.62,185.61,317.86,186.45Z" />
                <path className="marlin-cls-3"
                    d="M227.28,189.11c-.07-3.28.36-6.08,4.07-5.82a4.57,4.57,0,0,0,.13-1c-4.22.85-8.26-1.1-12.43-1.09C220.31,185.86,224.33,186.75,227.28,189.11Z" />
                <path className="marlin-cls-1" d="M357.41,211.25l-1.31-1.4-15.29,4A38,38,0,0,0,357.41,211.25Z" />
                <path className="marlin-cls-3" d="M360.51,212.82c-3.84,1.75-8,2.56-12,5.45,4.61-.06,8.26-1.83,12-3.35Z" />
                <path className="marlin-cls-3"
                    d="M159.8,117.9c-.73.2-2,.23-2.1.63-.27,1.2.91,1.63,1.53,2.35,2.68.15,4.6,4.51,7.79,1.88C165.7,119,162,119.85,159.8,117.9Z" />
                <path className="marlin-cls-4"
                    d="M523.16,146.46c-.06-.44-.13-.88-.19-1.32l-13.25,2C514.31,149.86,518.67,146.36,523.16,146.46Z" />
                <path className="marlin-cls-4"
                    d="M360.51,212.82l-.06,2.1c2.55-.23,5.08-.55,7.15-2.59,0-.61,0-1.23.07-1.85l-2.2-.29V210C364.49,212.57,362,211.58,360.51,212.82Z" />
                <path className="marlin-cls-3"
                    d="M233.65,199.69l1.62.06c-.49-2.69-.25-6.08-4-5.75C232.27,195.78,233.47,197.45,233.65,199.69Z" />
                <path className="marlin-cls-3" d="M401.9,196.35c-2.15,0-4.27.11-5.1,3.08A9.8,9.8,0,0,0,401.9,196.35Z" />
                <path className="marlin-cls-3"
                    d="M416,185.68c.31.64.61,1.29.92,1.93.84-.39,2-.36,2.06-1.86C418,184.55,417,184.2,416,185.68Z" />
                <path className="marlin-cls-5" d="M69,160c-.12-3.29-2.09-.22-2.9-1.14l-.05,3.54Z" />
                <path className="marlin-cls-5"
                    d="M181,166.47c0-.75,0-1.51,0-2.27l-1.92-.09-2.16.78C177.73,167.27,179.74,165.5,181,166.47Z" />
                <path className="marlin-cls-4" d="M561.09,138.85c-.66-1-1.29-1-1.9.06Z" />
                <path className="marlin-cls-1" d="M440.17,95.68l.94,1.29A1.13,1.13,0,0,0,440.17,95.68Z" />
                <path className="marlin-cls-5" d="M68.09,164.71a6.66,6.66,0,0,0-.37.82c0,.06.24.22.37.34l0,0v-1.22Z" />
                <path className="marlin-cls-3"
                    d="M223,131.09c.65-1.38.09-4.18,2-3.91s2.39,2.81,2.55,5c3.66,1.68,7.32.09,11-.13,4.22-.26,8.37-.9,10.27,5l1.6,1.06a26.48,26.48,0,0,0,3.38-3.4c4.15-5.84,10.49-6,15.55-5.37,7.33.93,14.19,1.41,21.21-1.53A7.8,7.8,0,0,1,301,133l2.92.38c2.4-4.95,6.24-6.29,10.81-5.71,3.55.44,6.86,2.14,10.74,1.15,2.1-.54,5.55.18,5.86,4.52,3.21-2.16.27-6.11,1.9-8.75.64-1,.76-2.87,2.2-2.68,1.64.21.81,1.93,1.13,3,.62,2.07.2,4.16.71,6.14,4.15-3.49,9.31-1,13.68-3.07,2.41-1.16,4.19-.22,5.75,1.87,2.23-3.75-1.82-9.46,2.92-12.67.68,3.85-1.1,7.61.41,11.18a7.89,7.89,0,0,0,6.6-1.9,5.33,5.33,0,0,1,6.11-1.15c3,1.34,5.86.53,8.76-.13a5.17,5.17,0,0,1,2-3.66c.32-3.16.65-6.33,1-9.49-.21-9.77,2.35-13.26,8.55-11.67a26.6,26.6,0,0,0-.31-4c-.58-2.59-1.93-3.94-3.86-1.57-5.32,6.55-11.74,7-18.41,4.19s-12,1.63-17.93,2.83c-1.3.26-2.6,1.21-3.83,1.06-8.95-1.08-17.09,2.91-25.51,5.16a32.18,32.18,0,0,1-8,.81c-8.72.07-16.88,4.28-25.61,4.49-3,.07-6.69-2.6-9,2,2.18,2.29,1.28,4.76.3,7.22-.32.81-.91,1.16-1.61.78-2.5-1.36-.57-3.66-.83-5.51-.11-.75-.25-1.49-.38-2.23-7.12,2.38-14.84,4-21.71,2.81-7.41-1.24-13.71,1.79-20.35,3-4.09.72-8-1.16-11.84.35-.88.35-2.36-.27-2.5,1.19-.38,3.79-3.16,3.48-5.18,4.39a82.48,82.48,0,0,1-8.06,3.15c-1.23.4-2.85.86-3.79-.5-3.77-5.44-3.36-.71-3.8,2-.1.93-.24,1.86-.3,2.8-.1,1.66-1.85,3.37-.6,4.81s2.73-.82,4.08-.84c5.12-.08,8.61-5.77,13.62-5.38C219.94,133.49,221.24,132,223,131.09Z" />
                <path className="marlin-cls-5"
                    d="M223,131.09c-1.72.93-3,2.4-5.38,2.22-5-.39-8.5,5.3-13.62,5.38-1.35,0-2.75,2.38-4.08.84s.5-3.15.6-4.81c.06-.94.2-1.87.3-2.8-6.38-1.6-12.49,2-18.81,1.3-4,2.38-.63,7.55-3,10.53,0,2.46.11,4.62,3.13,4.47,6-.28,11.84,1.75,17.84,1.08.42-1-.42-2.84,1.16-3.06,1-.13.95,1.19,1.2,2,6.73-.47,13.72,2.33,20.16-2.05C222.49,141.15,224.43,136.19,223,131.09Z" />
                <path className="marlin-cls-3"
                    d="M407.74,52.4c-.75,6.78-3.35-2.28-4.75,2.25,1.06,3,2.21,7.46,4.22,11.36a50.47,50.47,0,0,1,3.21,7.75c1.71,5.35,5.52,7.17,9.11,3.64,2.35-2.29,5.36-3.93,2.72-9.32C420,63.53,419.92,58,416.72,53.2c-2.21-3.33-2.62-9.19-4.9-13.46-2.13.27-1.48,1.73-1.19,3.27s.58,3.6-1.86,3.36c-.32,1.35-.65,2.69-1,4,4.12,3.49,5.62,8.31,5.13,14.15Z" />
                <path className="marlin-cls-5"
                    d="M144,142.15c.09,5,3.58,3.36,5,2.45,2.72-1.8,5.07-.94,7.53-.14,1.56.51,3,2,4.17-.67a1,1,0,0,1,1.69-.3c3.41,4.82,8.3,1.08,12.27,2.9,1.77.81,1.77-1.71,2.49-2.81,1.51-7.74,0-11.34-4.58-10.24-3.69.9-8.2,0-10.41,5.13-3.5-1.72-6.8-4.31-10.9-3.54-.13,0-.24.26-.36.39-.11,2.62-2.14,2.75-3.54,3.18C145.43,139.06,144.6,140.38,144,142.15Z" />
                <path className="marlin-cls-3"
                    d="M150.8,135.32c.12-.13.23-.36.36-.39,4.1-.77,7.4,1.82,10.9,3.54,2.21-5.09,6.72-4.23,10.41-5.13,4.57-1.1,6.09,2.5,4.58,10.24l1.91.17c2.38-3-1-8.15,3-10.53,0-1.27-.25-2.26-1.6-2.32-13.06-.5-25.82,2.19-38.66,4.93,1.41.73,2.55,2.71,4.3.42C147.28,134.59,149.22,135.79,150.8,135.32Z" />
                <path className="marlin-cls-5"
                    d="M408.77,46.37c2.44.24,2.18-1.71,1.86-3.36s-.94-3,1.19-3.27c-2-7.64-5.77-14.11-10.7-20.7A18.6,18.6,0,0,0,405,29.15a13.61,13.61,0,0,1,2.91,7.23c.09,1.44,2,3.44-.4,4.42a2.83,2.83,0,0,1-4-1.42,10.34,10.34,0,0,0-1.77-2l0,0C402.12,42.46,403.24,46.69,408.77,46.37Z" />
                <path className="marlin-cls-3"
                    d="M155.8,123.82c-3.37-.67-6.73-1.65-10.11,0,5.75,6.09,12.46,5.75,19.84,3.73a5.6,5.6,0,0,0-4.51-2.78l-.24.28c-2.25,2.8-3.54.37-5-1.22Z" />
                <path className="marlin-cls-4"
                    d="M393,100.38c-6.2-1.59-8.76,1.9-8.55,11.67,1.47-1.15,1.66,1.92,3,1.24.38-1.44,1.2-2.94,1.07-4.31-.46-4.82.75-7.2,5.33-6.42,1.72.29,1.09-1.21.63-2.23Z" />
                <path className="marlin-cls-3" d="M400.78,61c-.21,8.29,4.29,13,8,18.17C408.41,73.58,405.29,66.85,400.78,61Z" />
                <path className="marlin-cls-5" d="M386,85.19c-1.52-4.45-2.68-9.13-6.49-12.12C380.3,78,382.2,82.21,386,85.19Z" />
                <path className="marlin-cls-4"
                    d="M407.74,52.4l5.18,12.15c.49-5.84-1-10.66-5.13-14.15C407.78,51.07,407.76,51.73,407.74,52.4Z" />
                <path className="marlin-cls-3"
                    d="M394.78,80.12C395.27,76,393.64,73,392,70a1.58,1.58,0,0,0-2.6-.53c-.88.84-.2,1.82.24,2.53C391.29,74.72,393.05,77.41,394.78,80.12Z" />
                <path className="marlin-cls-5" d="M426,68.9c-.17-6-1.48-11.68-5.06-16.48Q423.45,60.67,426,68.9Z" />
                <path className="marlin-cls-5"
                    d="M88.22,126.18a4.62,4.62,0,0,0-.1-1.13c-.73-2.26-1.52-4.37-4.21-2.76-1.61,1-1.64,2-.51,3.53,1.58,2.1,3.07,3.68,4.86.31Z" />
                <path className="marlin-cls-4"
                    d="M278,115.55c.13.74.27,1.48.38,2.23.26,1.85-1.67,4.15.83,5.51.7.38,1.29,0,1.61-.78,1-2.46,1.88-4.93-.3-7.22Z" />
                <path className="marlin-cls-5" d="M317.15,98.11c-.86-3.92-2.55-6.89-7-7.83,1.78,3.9,3.67,6.66,6.93,7.86Z" />
                <path className="marlin-cls-3" d="M401.8,80.62c.4-5-2-8.63-4.59-12.17.25,4.69,2.18,8.54,4.64,12.11Z" />
                <path className="marlin-cls-3" d="M385.72,72.4a15.26,15.26,0,0,0,5.44,9.8c-1.57-3.43-1.78-7.83-5.49-9.75Z" />
                <path className="marlin-cls-5"
                    d="M71.08,125c-.16-1.16-.36-2.45-1.5-2.69-.66-.14-1.22.76-1,1.56.4,1.49,1.64.88,2.54,1.08Z" />
                <path className="marlin-cls-3" d="M158.46,121.94c-1.17.1-3.5-2-2.66,1.88h0l3,.09.29-.45Z" />
                <path className="marlin-cls-5" d="M308.09,95.75c-.14-2.3-1.64-2.24-3-2.32l0,0a3.3,3.3,0,0,0,3,2.35Z" />
                <path className="marlin-cls-5" d="M61,99.3a1.42,1.42,0,0,0-1.65-.91c-.12,0-.18.42-.27.64l2,.24Z" />
                <path className="marlin-cls-3" d="M161,124.76c-.38-1-1.19-1.12-2-1.3l-.29.45,2,1.13Z" />
                <path className="marlin-cls-5" d="M420,47.88l-.39-1.51c-.89.83-.05,1.12.37,1.53Z" />
                <path className="marlin-cls-5" d="M65.07,105.11l1,2.34,0,0a2.57,2.57,0,0,0-1-2.33Z" />
                <path className="marlin-cls-3" d="M385.67,72.45l-.3-1.56c-1,.84-.1,1.11.35,1.51Z" />
                <path className="marlin-cls-5" d="M420,47.9l.37,1.55.38-.29L420,47.88Z" />
                <path className="marlin-cls-5" d="M69.07,112.15a2.72,2.72,0,0,0-1-2.33l0,0c.34.78.67,1.55,1,2.33Z" />
                <path className="marlin-cls-5" d="M66.07,107.45l1,1.16,0,0-1-1.17Z" />
                <path className="marlin-cls-5" d="M308,95.81l1,1.17.05-.06-1-1.17Z" />
                <path className="marlin-cls-5" d="M401.82,37.4l-.2-.45.23.41Z" />
                <path className="marlin-cls-5" d="M67.08,108.61l1,1.18,0,0-1-1.17Z" />
                <path className="marlin-cls-5" d="M305,93.43l-.22-.45.2.48Z" />
                <path className="marlin-cls-5" d="M309.05,97l.28.47c-.08-.17-.15-.35-.23-.53Z" />
                <path className="marlin-cls-3" d="M401.85,80.56l.21.5-.26-.44Z" />
                <path className="marlin-cls-5" d="M317.12,98.14l.24.41-.21-.44Z" />
                <path className="marlin-cls-5" d="M69.09,112.12c.09.15.17.31.25.46l-.27-.43Z" />
                <path className="marlin-cls-5" d="M62,100.47,61,99.3l0,0,1,1.17Z" />
                <path className="marlin-cls-5" d="M65,105.15,64,104l0,0,1,1.17Z" />
                <path className="marlin-cls-5" d="M64,104l-.37-.53c0,.1,0,.23.07.28a1.05,1.05,0,0,0,.34.2Z" />
                <path className="marlin-cls-5" d="M88.26,126.13l.44.54c0-.12,0-.28-.08-.34a1.07,1.07,0,0,0-.4-.15Z" />
                <path className="marlin-cls-5" d="M62,100.44l.2.51-.23-.48Z" />
                <path className="marlin-cls-4"
                    d="M303.45,141c-1.28,3.76.6,7.55-.09,11.41-.3,1.65,1.46,3.18,2.8,3.57,2,.61,1.48-1.74,2-3,.91-2.17,1.39-6.45,4.87-2.24a5.84,5.84,0,0,0,3.73.85c3.7-.74,6.64.37,8.91,4.65.72-7,4.18-3.52,5.69-2.58,1.93,1.2,2.24,1.36,3-1.1.83-2.67,3.05-3,3.78-.29.88,3.21,2.62,3,4.59,3q7.88.09,15.73.14c-6.64-4.27-14.85-3.71-21.58-9.28,3.58-2.71,7.09-1.17,10.43-1.3,1.13-1.12,2.48-.94,3.82-.89a200.82,200.82,0,0,1,40.38,6c2.23,0,3.8,3.09,6.31,1.8,2.79-4.25,7-3.22,10.71-3.63,2-.21,3.72.79,2.26-3.11-1.22-3.28.77-7.59-1.9-10.73-1.8.31-2.45-2.2-4.43-2.1-3.67.19-6.77,3.63-11.18,1.43-1.44-.71-5.84-2.16-8.51.61v10.16c-2.77-1.71-1.7-4.12-2.62-5.63-4.82-2.14-9.73-3.29-15-2.57-2.23.31-4.57-1.45-6,2.62-1.1,3.11-.68-2-1.92-1.05l-2.61-3.21c-4.74-.35-9.54,2.88-14.25-.5-1-.7-1.39.81-1.68,1.56a6.38,6.38,0,0,1-3.3,3.29c-.23,1.65.1,3.87-1.87,4.18-1.7.27-.81-2.24-1.77-3-.55-.42-1.13-.79-1.7-1.19-5.75-2.1-11.46-4.69-17.63-2.31C310.78,138.05,307.12,139.55,303.45,141Z" />
                <path className="marlin-cls-5"
                    d="M482.41,132.28c-.86-5.29-6.3-4.91-8.2-8.9-1.87-1.48-4.56-1.41-5.82-4.08l-.14-.11c-1.31-.09-2.66-.11-2.92-2.13l-.17-.2c-2.56-.29-5.28-.1-6.87-3.18-.92-.79-1.81-1.66-3.08-1.49-1.74.24-3.24-3.25-4.4-1.6-3,4.28-6.28,2.35-9.62,1.65-1.66.49-1.7,2.66-2.86,3.67,1,1.26.44,3.48,2.16,4.31,2.72,1.32,1.26,2.65-.24,3.39s-2.41,1.24-1.74,3.29c.31.94,1.81,1.76.63,2.88s-3.56-.13-3.61-.4c-.78-4.1-7.82-1.63-6.27-8.11.25-1-1.22-.94-2-.82-4.74.73-9.48,1.52-14.22,2.29l-.48,1.39c2.2,2.93-1.78,5.13-.69,7.93,1.61-.23,3.69,2.33,4.65.36,2.76-5.7,6.83-1.26,10.15-2.22,1.43-.4,3,.24,2,2.8-.58,1.47-1.07,3.32.94,3.58,1.67.22,4.71,1.13,4.88-1,.42-5.12,3.59-3.27,5.51-3.39,4.55-.3,9.06,1.45,13.73-.93,1.69-.86,4.57-2.48,6.66-.69,3.91,3.35,6.86,2,9.86-1.59.8-1,2.28-2.44,3.49-1a3.62,3.62,0,0,1-.07,4.7c-2,2.08-.45,2.84.72,3.89,1.23.51,2.6.92,3.13,2.46s-1.09,4.52,1.74,4.33a5.37,5.37,0,0,0,4.9-4.13,5.55,5.55,0,0,0,.48-2.72C483.66,135.26,481.65,134.73,482.41,132.28ZM479,139.35a2.77,2.77,0,0,1-.38-.94,2.61,2.61,0,0,1,.4-.87,1.25,1.25,0,0,1,0,1.81Z" />
                <path className="marlin-cls-4"
                    d="M474.37,136.57c-1.17-1-2.76-1.81-.72-3.89a3.62,3.62,0,0,0,.07-4.7c-1.21-1.4-2.69.08-3.49,1-3,3.59-6,4.94-9.86,1.59-2.09-1.79-5-.17-6.66.69-4.67,2.38-9.18.63-13.73.93-1.92.12-5.09-1.73-5.51,3.39-.17,2.09-3.21,1.18-4.88,1-2-.26-1.52-2.11-.94-3.58,1-2.56-.53-3.2-2-2.8-3.32,1-7.39-3.48-10.15,2.22-1,2-3-.59-4.65-.36a24.71,24.71,0,0,1,.7,5.12c-.49,6.92,1.28,11.5,8.1,10.91,3.55-.3,3.92,4.31,6.79,5.56-.18-2.49-.5-4.68-.44-6.87.1-4,1.63-6.47,5.39-5.1,1.88.69,3.22,0,4.66-1,5.58-3.95,9.15-2.88,12.31,3.69.66,1.38,6.88,1.33,8.13-.27,2.27-2.92,4.85-4.56,8.34-3.94.76.13,2,0,2.34-.6,2.62-4.24,3.67-.13,5,1.46C474.89,139.69,474,137.94,474.37,136.57Zm-18.49-3c3.31-1.34,5,1.48,7,3.09C460.25,136.79,457.72,136.55,455.88,133.59Z" />
                <path className="marlin-cls-5"
                    d="M301,133a7.8,7.8,0,0,0-10.53-5.26c-7,2.94-13.88,2.46-21.21,1.53-5.06-.63-11.4-.47-15.55,5.37a26.48,26.48,0,0,1-3.38,3.4c.11,1.45.23,2.89.34,4.34l9.41-6.17c1.59,1.58-1.39,6.61,3.36,5.77,2.45-.44,6.91-.4,7-1.21.62-4.46,3.48-2.25,5.21-3.1,3.91-.93,1.52,3.15,2.63,4.45,2.7,1,5.3,1.91,4.66-3.38-.16-1.34.72-1.11,1.51-1.57,4.24-2.53,9-2.22,13.41-4.13.17,5.2-6,4.27-6.55,9.43,3-1.82,5.65-3,8.48-1.35.3-1.18-.09-2.64,1.06-3.47C300.92,136.14,301,134.59,301,133Zm-38.27,5.19-.42-.9a3.77,3.77,0,0,1,.82-.05c.08,0,.22.39.19.43A4.3,4.3,0,0,1,262.74,138.23Z" />
                <path className="marlin-cls-3"
                    d="M369.24,158l25.59,9.08c-.11-4.3,2.27-6.38,6-5.31,3.14.91,6,3.15,9.42,2.77-.93-3.71-4.8-3.08-6.39-5.8a2.16,2.16,0,0,0-2.14-1.05c-1,1.33-1.51,1.06-1.49-.67-2.42-2.5-6.2-.82-8.48-3.74-7.7-1.47-15.17-4.34-23-5.15-2.25,2.67-.69,4.47,1.18,5.91C372.7,156.21,371.33,157.15,369.24,158Z" />
                <path className="marlin-cls-4"
                    d="M275.68,137.71c-1.73.85-4.59-1.36-5.21,3.1-.11.81-4.57.77-7,1.21-4.75.84-1.77-4.19-3.36-5.77l-9.41,6.17c-.89,3.26-.57,4.57,2.8,6.51,6.23,3.57,13,2.09,19.17,4.82,1.44.63,1.83-.77,2.1-2.31C275.54,146.89,276.24,142.37,275.68,137.71Z" />
                <path className="marlin-cls-4"
                    d="M299.82,141.16c-2.83-1.66-5.45-.47-8.48,1.35.58-5.16,6.72-4.23,6.55-9.43-4.44,1.91-9.17,1.6-13.41,4.13-.79.46-1.67.23-1.51,1.57.64,5.29-2,4.37-4.66,3.38-3.05,3.37.53,7.45-1,10.87,1.24,1.09,1.59-.21,2.08-.78,1.45-1.71,2.34-4.25,4.81-.7,1.49,2.14,4.45.09,6.73.33l.05-.06c-.95-2.87-.12-3.34,2.33-2.82,1.05.23,3,3.19,3.7-.65l-.2-.39.19.4c2.18,0,1.75,2.23,2.36,3.87C302.06,148.53,299.78,144.77,299.82,141.16Z" />
                <path className="marlin-cls-5"
                    d="M248.74,137c-1.9-5.89-6.05-5.25-10.27-5-3.64.22-7.3,1.81-11,.13a35,35,0,0,0-2,11.44c.1.12.28.25.28.37a5.59,5.59,0,0,1-.16.91l.06,2.08c4.44.39,8.72-2.07,13.22-1,2.17.51,3.76-.13,4.65-2.92.83-2.59,1.79-5.56,5.1-5A7,7,0,0,0,248.74,137Z" />
                <path className="marlin-cls-5"
                    d="M384.79,134.25c2.67-2.77,7.07-1.32,8.51-.61,4.41,2.2,7.51-1.24,11.18-1.43,2-.1,2.63,2.41,4.43,2.1a4.89,4.89,0,0,0,.29-4.16c-.73-2.27-.82-5,1.66-6.41-.06-.86-.07-1.75-.89-2.19a111.36,111.36,0,0,1-18.09,3c-1.91.2-3.57.42-5.23-.75l-.13,0q-.45,3-.89,6Z" />
                <path className="marlin-cls-5"
                    d="M303.45,141c3.67-1.47,7.33-3,11-4.38,6.17-2.38,11.88.21,17.63,2.31,1.58-2.18-1.13-3.6-.75-5.57-.31-4.34-3.76-5.06-5.86-4.52-3.88,1-7.19-.71-10.74-1.15-4.57-.58-8.41.76-10.81,5.71,0,1.52-.07,3.05-.1,4.58C304.33,139.11,303.76,140,303.45,141Z" />
                <path className="marlin-cls-5"
                    d="M410.23,164.57c-3.42.38-6.28-1.86-9.42-2.77-3.71-1.07-6.09,1-6,5.31,4.56,3,9.3,5.63,13.57,9.23,3.74,3.15,7.83,3.89,12.14,1.49-2.07-2.32-6.88-2.92-3.75-8.46.59-1-.32-2.07-1.45-2.52C413.61,166.18,411.93,165.34,410.23,164.57Z" />
                <path className="marlin-cls-5"
                    d="M369.24,158c2.09-.88,3.46-1.82.68-4-1.87-1.44-3.43-3.24-1.18-5.91-1.26-1.3-2.89-.65-4.28-1.09-5.62-1.77-11.59.24-17.13-2.23-3.34.13-6.85-1.41-10.43,1.3,6.73,5.57,14.94,5,21.58,9.28l1.86.67c1.8-1.17,3.38.29,5.05.55,1.19-.06,2.45-.41,3.12,1.25l.35.15Z" />
                <path className="marlin-cls-4"
                    d="M410.23,164.57c1.7.77,3.38,1.61,5.11,2.28,1.13.45,2,1.48,1.45,2.52-3.13,5.54,1.68,6.14,3.75,8.46,3.13-1.54,5.47-4.65,4.91-8.15-.54-3.34-.1-9.12-5.94-8.37-.72.09-1.71-2.84-3.63-2.37.1,3.3-1.83,2.54-3.4,2.17-2.89-.7-5.76-1.55-8.64-2.34C405.43,161.49,409.3,160.86,410.23,164.57Z" />
                <path className="marlin-cls-4"
                    d="M248.69,138c-3.31-.55-4.27,2.42-5.1,5-.89,2.79-2.48,3.43-4.65,2.92-4.5-1.08-8.78,1.38-13.22,1a9.82,9.82,0,0,0-.11,5.25c6.17-2.13,12.54-1.17,18.73-1.15,3.62,0,3.09-2.4,3.19-3.94A51.86,51.86,0,0,1,248.69,138Z" />
                <path className="marlin-cls-4"
                    d="M222.45,146.19c-6.44,4.38-13.43,1.58-20.16,2.05-.39,3.35-.6,5.63,3.81,5.16,3.42-.37,7,.92,10.69,1C222.62,154.64,223,151.16,222.45,146.19Z" />
                <path className="marlin-cls-6"
                    d="M447.48,159.7c.56-5.26-2.28-9.14-2.41-13.72,0-1.41-.67-2.3-1.93-1.53-1.65,1-4.13,1.25-3.84,4.52C439.92,155.87,439.93,155.87,447.48,159.7Z" />
                <path className="marlin-cls-5"
                    d="M403.84,158.77c2.88.79,5.75,1.64,8.64,2.34,1.57.37,3.5,1.13,3.4-2.17l-18-7.16c-2.51,1.29-4.08-1.8-6.31-1.8.07,1.11.13,2.22.2,3.33,2.28,2.92,6.06,1.24,8.47,3.73l1.5.68A2.16,2.16,0,0,1,403.84,158.77Z" />
                <path className="marlin-cls-3"
                    d="M482.41,132.28c-.76,2.45,1.25,3,2.21,4.23,4.55,1,8.57-2.52,13.05-2.13-3-1.46-6-3.15-9.13-4.3C486.26,129.24,483.89,129.48,482.41,132.28Z" />
                <path className="marlin-cls-6"
                    d="M337,158.2c-.74,2-1.2,4.43-3.9,5.6,4.29-.47,4.89,1.42,3.56,5a3.43,3.43,0,0,0,1.2,4.44c1.81,1.26,3.21-.12,4.71-.7.61-.23,1-1.77.54-1.89-4.89-1.41-2.18-7.18-4.4-10.08C338.16,159.88,338.4,158.6,337,158.2Z" />
                <path className="marlin-cls-4"
                    d="M488.94,148.37a17.66,17.66,0,0,0-12.54.27C480.58,149.05,484.77,150,488.94,148.37Z" />
                <path className="marlin-cls-4"
                    d="M410,121.55c.82.44.83,1.33.89,2.19.4,1.2,1.08.67,1.72.39l.48-1.39a27.33,27.33,0,0,0-1.42-11.29Z" />
                <path className="marlin-cls-4" d="M290.89,151.88l0,2.31h5.87c-1.6-4.06-3.56-3.87-5.84-2.38Z" />
                <path className="marlin-cls-4" d="M524.72,149.36c2-1.2,4.53-.68,6.87-3-2.66-.37-4.67-1-6.63.38Z" />
                <path className="marlin-cls-4" d="M303.83,138c0-1.53.07-3.06.1-4.58L301,133c0,1.55-.09,3.1-.13,4.65Z" />
                <path className="marlin-cls-4"
                    d="M365.39,156.64c-1.67-.26-3.25-1.72-5.05-.55,1.27,2.72,3.22,2.35,5.27,1.58A3.94,3.94,0,0,0,365.39,156.64Z" />
                <path className="marlin-cls-4"
                    d="M245.67,195.24c.87-.35,2.11.3,2.55-1.19.07-.21-.22-.81-.4-.84-1.17-.22-1.79.76-2.42,1.68Z" />
                <path className="marlin-cls-3" d="M262.66,195.06c1.42.56,1.95-1.18,3.11-1.58-1.7-1-2.44.19-3.08,1.61Z" />
                <path className="marlin-cls-3"
                    d="M365.39,156.64a3.94,3.94,0,0,1,.22,1l2.9.22C367.84,156.23,366.58,156.58,365.39,156.64Z" />
                <path className="marlin-cls-3"
                    d="M523.93,137.41c-1.09-1.12-2.38-.74-3.63-.65C521.36,138.09,522.65,137.67,523.93,137.41Z" />
                <path className="marlin-cls-4" d="M469.37,151.83c1.09-.11,2.27.11,3-1.16l0,0c-1.07.18-2.3-.21-3,1.18Z" />
                <path className="marlin-cls-4" d="M472.39,150.67l1-.22-.23-.49-.72.74Z" />
                <path className="marlin-cls-4" d="M251.77,200c.43-.3,1.54.06,1.16-.94-.26-.68-1.11-.2-1.58.38Z" />
                <path className="marlin-cls-4" d="M225.66,144.88a5.59,5.59,0,0,0,.16-.91c0-.12-.18-.25-.28-.37Z" />
                <path className="marlin-cls-3" d="M518.31,136.76h-2.06C517,137.88,517.63,137.6,518.31,136.76Z" />
                <path className="marlin-cls-4" d="M290.91,154.19l-.42.29.43-.28Z" />
                <path className="marlin-cls-4" d="M469.41,151.88l-.43.22.39-.27Z" />
                <path className="marlin-cls-4"
                    d="M438.33,115.91c1.16-1,1.2-3.18,2.86-3.67-.26-2.62,2.61-4.13,1.82-6.94l-5.36-2.69c.22,5.87-3.72,10.38-4.48,16.4C435.54,118.39,436.35,115.86,438.33,115.91Z" />
                <path className="marlin-cls-2"
                    d="M387.44,113.29c-1.34.68-1.53-2.39-3-1.24-.32,3.16-.65,6.33-1,9.49a2,2,0,0,0,2.21,1.13h0C384.23,119,388.05,116.73,387.44,113.29Z" />
                <path className="marlin-cls-2"
                    d="M437.65,102.61,443,105.3l3.78-1.2-.75-1C443.26,102.84,440.59,99.89,437.65,102.61Z" />
                <path className="marlin-cls-2" d="M386.65,123.78l-1-1.1h0l.84,1.09Z" />
                <path className="marlin-cls-2"
                    d="M115.41,147.81c3.83,3.05,7.39.6,10.9,3.42C124.53,146.88,123.41,146.6,115.41,147.81Z" />
                <path className="marlin-cls-3" d="M149.78,158.8c0-.38,0-.77-.05-1.15-2.66-1.58-5.44-2.31-8.6-.67Z" />
                <path className="marlin-cls-2"
                    d="M139.9,150.24c.23,1.43.87,2.48,2.21,2.52s1.55-1.18,1.53-2.34c0-.92.52-2.56-1.18-2.18C141.44,148.47,140.05,148.37,139.9,150.24Z" />
                <path className="marlin-cls-3"
                    d="M84.89,151.48a40.67,40.67,0,0,0,5.82,1.43c1.11.1,3,.93,3.11-1.51a3.89,3.89,0,0,0-2.09-3.7c-2.1-.82-1.43.41-1.66,2.19C89.8,151.91,86.86,149.92,84.89,151.48Z" />
                <path className="marlin-cls-3"
                    d="M97.41,139.85c-2.1-1-4.41-.52-6-2.51-.38,3.54-2.9,2.76-4.84,3.52C90.21,141,93.89,142.12,97.41,139.85Z" />
                <path className="marlin-cls-1" d="M110.43,136.66c1.54,1.59,3.23,1,4.91,0h-4.93Z" />
                <path className="marlin-cls-1"
                    d="M80,157.43c-.37.76-.73,1.51-1.1,2.26l.51.61L80.43,158C80.27,157.8,80.12,157.62,80,157.43Z" />
                <path className="marlin-cls-1" d="M75,165.67,73.91,168l.35.4,1.12-2.24C75.24,166,75.1,165.83,75,165.67Z" />
                <path className="marlin-cls-1" d="M76.34,165c.35-.32.8-.64.19-1.13-.06,0-.41.4-.63.62Z" />
                <path className="marlin-cls-1" d="M78,160.94c-.36.34-.8.69-.18,1.17.08,0,.44-.39.66-.6Z" />
                <path className="marlin-cls-1" d="M75.38,166.14l1-1.19-.44-.51L75,165.67C75.1,165.83,75.24,166,75.38,166.14Z" />
                <path className="marlin-cls-1" d="M68.06,164.68v1.22C69,165.48,68.88,165.08,68.06,164.68Z" />
                <path className="marlin-cls-1" d="M73.91,168c-.3.28-.77.54-.2,1,0,0,.36-.4.55-.61Z" />
                <path className="marlin-cls-1" d="M78.87,159.69c-.31.42-.61.84-.92,1.25l.48.57.95-1.22Z" />
                <path className="marlin-cls-1"
                    d="M80.43,158c.29-.32.7-.65.15-1.08-.07,0-.4.35-.61.55C80.12,157.62,80.27,157.8,80.43,158Z" />
                <path className="marlin-cls-2" d="M249.68,204.56l1-2.45-1.55,0-1.55,1.24.09-.06-1.2,2.3Z" />
                <path className="marlin-cls-3"
                    d="M246.43,205.57l1.2-2.3c-1,.13-2,.26-2.32,1.52C245.28,204.9,246,205.31,246.43,205.57Z" />
                <path className="marlin-cls-2"
                    d="M254.64,205.54c-1.25-.11-2.46,0-3.34,1.22C252.51,206.7,253.78,206.87,254.64,205.54Z" />
                <path className="marlin-cls-3" d="M247.54,203.33l1.55-1.24Z" />
                <path className="marlin-cls-2"
                    d="M255.65,205.67a1.64,1.64,0,0,0,.23-.95c-.17-.2-.34-.39-.5-.59-.55.28-1,.62-.83,1.45Z" />
                <path className="marlin-cls-3"
                    d="M446.8,104.1,443,105.3c.78,2.81-2.09,4.32-1.83,6.94,3.34.7,6.64,2.63,9.62-1.65,1.16-1.65,2.66,1.84,4.4,1.6C454.86,106.39,452.83,104.44,446.8,104.1Z" />
                <path className="marlin-cls-3"
                    d="M468.39,119.3c1.26,2.67,3.95,2.6,5.82,4.08,2.54-.24,2.8-1.33.78-3.06S470.63,119.27,468.39,119.3Z" />
                <path className="marlin-cls-3"
                    d="M458.29,113.68c1.59,3.08,4.31,2.89,6.87,3.18C463.57,113.77,461,113.64,458.29,113.68Z" />
                <path className="marlin-cls-3"
                    d="M465.33,117.06c.26,2,1.61,2,2.92,2.13C467.74,117.63,466.81,116.84,465.33,117.06Z" />
                <path className="marlin-cls-6"
                    d="M365.47,210.19l2.2.29c.46-.35,1.3-.39.89-1.45C367.34,208.73,366.13,208.49,365.47,210.19Z" />
                <path className="marlin-cls-6" d="M368.48,209.11l3.51.07C370.87,206.13,369.67,207.87,368.48,209.11Z" />
                <path className="marlin-cls-2" d="M255.88,204.72l.5-1.08-1,.49C255.54,204.33,255.71,204.52,255.88,204.72Z" />
                <path className="marlin-cls-5"
                    d="M359.27,137.78c1.24-1,.82,4.16,1.92,1.05,1.45-4.07,3.79-2.31,6-2.62,5.23-.72,10.14.43,15,2.57a15.65,15.65,0,0,0,.45-6.74c-1.89-1.95-.21-4.68-1.12-6.84-2.9.66-5.72,1.47-8.76.13a5.33,5.33,0,0,0-6.11,1.15,7.89,7.89,0,0,1-6.6,1.9A28.27,28.27,0,0,1,359.27,137.78Z" />
                <path className="marlin-cls-5"
                    d="M337.43,138.92a6.38,6.38,0,0,0,3.3-3.29c.29-.75.71-2.26,1.68-1.56,4.71,3.38,9.51.15,14.25.5,0-1.57,0-3.13,0-4.7-1.56-2.09-3.34-3-5.75-1.87-4.37,2.1-9.53-.42-13.68,3.07Z" />
                <path className="marlin-cls-2"
                    d="M337.43,138.92l-.15-7.85c-.51-2-.09-4.07-.71-6.14-.32-1.05.51-2.77-1.13-3-1.44-.19-1.56,1.65-2.2,2.68-1.63,2.64,1.31,6.59-1.9,8.75-.38,2,2.33,3.39.75,5.57.57.4,1.15.77,1.7,1.19,1,.72.07,3.23,1.77,3C337.53,142.79,337.2,140.57,337.43,138.92Z" />
                <path className="marlin-cls-2"
                    d="M356.71,129.87c0,1.57,0,3.13,0,4.7l2.61,3.21a28.27,28.27,0,0,0,.77-9.4c-1.51-3.57.27-7.33-.41-11.18C354.89,120.41,358.94,126.12,356.71,129.87Z" />
                <path className="marlin-cls-4"
                    d="M381.51,125.2c.91,2.16-.77,4.89,1.12,6.84.09-2.35,1.28-2.8,3-2.32q.44-3,.89-6l-.84-1.09a2,2,0,0,1-2.21-1.13A5.17,5.17,0,0,0,381.51,125.2Z" />
                <path className="marlin-cls-1" d="M160.78,125l-2-1.13-3-.09C157.24,125.41,158.53,127.84,160.78,125Z" />
                <path className="marlin-cls-1"
                    d="M391.73,153.31c-.07-1.11-.13-2.22-.2-3.33a200.82,200.82,0,0,0-40.38-6c-1.34,0-2.69-.23-3.82.89,5.54,2.47,11.51.46,17.13,2.23,1.39.44,3-.21,4.28,1.09C376.56,149,384,151.84,391.73,153.31Z" />
                <path className="marlin-cls-2"
                    d="M385.63,129.72c-1.72-.48-2.91,0-3,2.32a15.65,15.65,0,0,1-.45,6.74c.91,1.51-.16,3.92,2.61,5.63V134.25Z" />
                <path className="marlin-cls-1"
                    d="M479,139.35a1.25,1.25,0,0,0,0-1.81,2.61,2.61,0,0,0-.4.87A2.77,2.77,0,0,0,479,139.35Z" />
                <path className="marlin-cls-5"
                    d="M455.88,133.59c1.84,3,4.37,3.2,7,3.09C460.84,135.07,459.19,132.25,455.88,133.59Z" />
                <path className="marlin-cls-4" d="M262.74,138.23a4.3,4.3,0,0,0,.59-.52s-.11-.42-.19-.43a3.77,3.77,0,0,0-.82.05Z" />
                <path className="marlin-cls-4" d="M401.7,157.72l-1.5-.68C400.19,158.78,400.68,159.05,401.7,157.72Z" />
                <path className="marlin-cls-2" d="M297,148.36l-.19-.4.2.39Z" />
            </g>
        </g>
    </g>
</svg>