<svg xmlns="http://www.w3.org/2000/svg" viewBox="0 0 225 56.12">
    <path
        d="M0 8.74l6.7 3.86a.66.66 0 011-.43A36.67 36.67 0 0112.85 14a68.66 68.66 0 017.74 2.7l.12-.5c-1.3-.7-2.95-1-4-2 1.64.55 3.42.87 4.74 1.86l.55.07c.08-.52-.43-.68-.89-.92a8.61 8.61 0 01-2.51-1.34l-.14-.13.18.1c2.33.21 3.89 1.64 6 2.22.2.05.3.32.45.49l1.3.46c1.38 0 2.36 1 3.8.89 0-.28-.18-.41-.51-.56a118 118 0 00-19.3-7.25A70.67 70.67 0 000 8.22zm14.69 4.56c-2.38-.19-9-2.4-9.86-3.3a56.24 56.24 0 019.86 3.3zM166.86 53.52c-2.05.36-3.15 2-5.33 2.23-.2 0-.27.24 0 .37h4.73a1.6 1.6 0 01.05-.21c-.27-.5-1-.14-1.42-.45 2.38-.36 2.38-.36 1.97-1.94zM122.62 48.69c1.24 0 2.42.47 3.68.27a37.37 37.37 0 015.62.43c2.68.27 5.37.58 8.05.89 2.09.25 4.21.42 6.3.7s4-.56 6 .25a4 4 0 00.81.09c2.34.45 4.72-.38 7 0 2.74.45 5.47-.4 8.17.15a.82.82 0 00.49-.06c1.81-.92 3.84-.71 5.85-.66.64-.46 1.32-.85.67-1.67-.24-.3.18-.88.73-.72 1.15.33 2.22.85 3.6 1.4-2.31-.2-2.31-.2-2.17 1a15.44 15.44 0 005.71-.37v-.92c1.21.81 2.46.13 3.51 0s2.9.1 3.25 1.07c.45-.21.72.68 1.23.13-.13-.66.54-.35.87-.39a32.51 32.51 0 004.3-.21c-.45-.54-.95-.65-1.89-.59-2.47.14-4.55-1-6.84-1.54-.06 0-.08-.15-.11-.23-.36.16-.08.73-.84.68-.12-1 .86-2 0-3-.19.76.36 1.75-1.15 2.09a.9.9 0 01.06.22.69.69 0 01.13 0v.07l-.14-.12a.78.78 0 01-.69-.27l-.36-.28-.37-.27c-.45-.14-.68-.39-.7-.76l-.33-.27-.37-.33c-.81-.76-.88-1.86-2-2.49l-1-.27a.84.84 0 00.37.69c.61.54 1.79 1 .21 1.75-.47.22.11.49.36.69.42.36 1.1.09 1.75.47-1.6.21-1.22.82-.56 1.4-.59.31-1.11-.33-1.24-.15-.89 1.28-1.83.16-2.69 0-.48-.07-.82-.32-.92.25.12.06.47-.12.36.19l-.35-.19a10.31 10.31 0 00-4-1.83c-.35-.06-.74-.23-.59-.49.87-1.55-.8-2.1-2-2.77-.43-.25-.56-.46-.57-.8a2 2 0 01-2.05-.77 2.31 2.31 0 01-2-1.1.7.7 0 00-1-.37l-.4-.35h.11c-1.42-.28-2.38-1.8-4.24-.91a.9.9 0 01-.28-.26c-.3-.64-1.07-.43-1.67-.59-1.93-.52-2.93 1.52-5 1-.4-.11-.75-.68-1.37-.41-1.61.7-2.63-1-4.16-.59-.25-.67-1.84-.29-1.71-1.09.21-1.36-.61-1.53-2.05-1.33-.3 0-.64-.17-1-.19-2.8-.15-5.67-.95-8.27.55a1.19 1.19 0 01-1 0c-.54-.16-.91 0-1.06.43a8.16 8.16 0 01-.45 1l.58.25c.47.19.69.46.27.8s-.7.09-1-.13-.45-.38-.4-.66c-.65-.36-2.43.07-1.62-1.34.11-.19-.38-.21-.65-.17a16 16 0 00-1.71.28c-.54.13-.93.57-1.18-.35-.19-.68-.9-.41-1 .26l.08.11-.08-.11c-.43.12-.74-.51-1-.24-.57.71-1.28.22-1.92.26.68-.37-.36-1 .44-1.44.51-.27.06-.54-.37-.58-2.13-.17-4.27-.28-6.4-.49-1.61-.16-3.3.21-4.94.15a65 65 0 01-9.16-.75c-1-.17-1.8.41-2.69.22-2.59-.53-5.28.18-7.89-.57-2.18-.62-4.5.42-6.83-.07a15 15 0 00-2.69-.57c-2.32-.06-4.64 0-7-.19-4.84-.33-9.67-.7-14.54-.59-.89.61-1.76-.25-2.65 0-1.93.1-3.85-.68-5.78 0 0 .65-.7 1.68.7 1.72 1.87.06 3.37.79 5.08 1.09a27.22 27.22 0 016 .34c2.7.5 5.31 1.22 8 1.68a28.35 28.35 0 017.23 1.85l.13-.07-.14.06c1.16-.23 1.71.75 2.74.78 1.55 0 2.82.77 4.27 1.06.66.14.16.48.14.73.9 0 1.7.52 2.64.23l.16-.32.12.07-.25.27a.31.31 0 000 .19c1.3.11 2.52-.4 3.94.49 1 .61 3.13 0 4.3 1.12 0 0 .11-.06.14 0 1.76.56 3.81.43 5.45 1.21 1.27.6 2.66.47 4 .65 1 .15 2 .28 2.13 1.31.11.19.33.2.56.17l.2-.84c.53.77 1.5.64 2.27.86l.36-.18a.73.73 0 01.09.09l-.43.11v1.03h.67c.86-1 1.57-1.13 2.84-.28.57.37 1 .87 1.9.31.29-.18 1.08-.22.78.48l1.56.26c.44-.21.81-.87 1.41-.14a.34.34 0 01-.34.38l.44.77c.39-.11.58-.61 1.08-.41.18.08.14.45.2.68zM136.18 40c.11-.56.49-.55 1-.27a19.93 19.93 0 003.66.27c4-.42 7.8.5 11.69.81a2.09 2.09 0 011.28.55c.2.19.58.32.12.58-.23.12-.1.62-.77.26s-1.05.13-1.74.32c.83.45 1.33 1.12 2.26.85.45-.13 1-.15.87.11-.21.55.68 1.48-.25 1.55a21.12 21.12 0 01-4.36.39c-.62-.07-1.35-.31-1.38.56a.57.57 0 01-.8.45c-1.28-.56-2.73-.23-4.07-.4-2.64-.32-5.36-.26-7.91-1.12-1.92-.64-4.11-.58-6.07-1.1-1.07-.28-2.71 0-3.14-1.25 0-.06-.32-.12-.44-.09-1.41.37-2.88.07-4.25.23-1.15.12-2.06.81-2.52-.58-.09-.24-1-.2-.87-.62a1.18 1.18 0 011.25-.69c.73.07 1-.56 1.61-.56.34.24-.68.55 0 .68a13.23 13.23 0 002.94.25c1.66-.08 3.3-.31 4.94-.48 2.32-.28 4.71-.08 6.95-.7zm-5.3 7.95a.75.75 0 01.71-.48c2 0 4.08-.34 6.08.23.42.11 1.09-.15 1.13.48-1-.41-.81 1-1.61.64-1.38-.58-2.79-.09-4.17-.18-.94-.09-1.21-.86-2.14-.73zm-2.1-10.19c.77-.43.85.28 1 .53.2.43-.53.59-.8.55-.62-.08-1.42-.4-1.45-.8s.73-.24 1.25-.32zm-40 .49c-.22-.4-.3-.74-.56-1s-1-.19-.29-.62c.37-.21.76-.62 1.29-.36s.33.62-.06.84.11.64-.34 1.1zm52.3-1c-.28-.35-.8.47-.78 0 0-.86 1.22-.43 1.82-.72.25-.12.82 0 .62.33-.26.5-.92.57-1.62.36zm-25.68-1.37a.58.58 0 01.66-.45c.34 0 .68.15.69.44s-.35.4-.68.42-.64-.09-.67-.41zm16.81 11.19c-.21-.16-.73.11-.73-.31a.52.52 0 01.56-.51c.41 0 .5.28.6.49s-.06.38-.43.33zM92.81 33.7a.85.85 0 01.27-.09.6.6 0 01.25.1.79.79 0 01-.26.08 1.15 1.15 0 01-.26-.09zm6.42 8.23s0-.07.06-.08.08 0 .13 0l-.09.12zM194.58 17.25a47.38 47.38 0 00-6.49-5.35 103.57 103.57 0 00-14.49-9.29c-3-1.52-6.14-2.67-9.93-2.13a16.31 16.31 0 01-3.34-.27c-1 0-2-.64-2.82.42-.13.18-1.41-.22-1.7 0-1.68 1.27-3.75.29-5.5.7-1.6.38-3.32.07-4.65.39s-2.68.38-3.92.75a9.41 9.41 0 01-2.08.3 16.61 16.61 0 00-6.11 1.58 5.37 5.37 0 01-2.78.65 11.87 11.87 0 00-7 1.39 17.27 17.27 0 01-4.7 1.19C116 8 113 8.91 109.8 8.7c-1.47 1.34-3.81.91-5.66 1.36-2.23.55-4.44 1.54-7 1.42-1.4-.06-2.68.89-4.18.39-.53 1.51-2.79.37-3.87 1.47-.54.55-2.39.36-3.64.51A14.83 14.83 0 0080 15.32a.66.66 0 01-.32.06c-1 0-2.09-.38-2.77.53-3.15-.67-5.68 1.54-8.82 1.07-1.33-.2-2.52.51-3.8.72-3.61.59-7.21 1.2-10.85 1.7-1.25.18-1.55.51-1.31 1.44.41 1.55 1.72 2.7 2.71 4a2.18 2.18 0 002 .74c.93-.52 1.94.52 2.86-.09l-.2-.36-.34-.26-.35-.25-.34-.25c-.43 0-.66-.19-.66-.52h-.13v-.07l.16.1.68.51.33.25.34.26.33.26.21.36a27 27 0 004.59-.29c-.94-.77-2.24-1.28-2.87-2.27-1-.45-1.94-.86-2.32-1.78.64.74 2.45.34 2.53 1.61a6.11 6.11 0 013.26 2.41h1a16 16 0 013.66-.3c.34 0 .73 0 .89-.27s-.22-.43-.42-.62a28.16 28.16 0 00-3.48-2.14 1.88 1.88 0 00-1.6-.53c.82.68.33 2 2 2.29.35.07.8.28.59.65s-.86.23-1.15.08a21.72 21.72 0 01-4.62-3.57l1.52.29v-.25l-.11-.05v-.06l.14.1 1.35.26a2.49 2.49 0 00-.23-.59c-.17-.25-.62-.49-.19-.76a1.48 1.48 0 01.92.11 8.75 8.75 0 011.27.61c1.25.72 2.48 1.46 3.74 2.16.47.26 1.36.15 1.5.65.48 1.63 2.15 1.22 3.41 1.06 4.52-.6 9.13-.61 13.64-1.23 1.59-.21 3.18-.12 4.77-.34a42.73 42.73 0 017.92-.7 103.45 103.45 0 0010.43-.46c2.11-.13 4.22-.28 6.33-.36 4-.16 7.92-.27 11.88-.42a3.34 3.34 0 001.85-.5 1.67 1.67 0 01-1.6-1.31c.93.34 1.49.67 1.6 1.31.6.09 1.19.22 1.79.25s1.52.08 1.57-.74c-.63-.05-1-.31-1-.79a1 1 0 01-1.06-.73 35.45 35.45 0 01-6.35-3.64c-2-1.23-3.9-2.51-5.87-3.75-.4-.25-.67-.45-.33-.84a.61.61 0 01.84-.08c2 1.07 4.19 2 5.59 3.62a6.35 6.35 0 002 1.35 10.58 10.58 0 014.24 3.27c.6.08 1 .29 1 .8.66 0 1 .28 1 .75 1 .12 1.92.89 3.09.39a4.77 4.77 0 00-2.17-2c-2.21-1.19-3.68-3-5.82-4.23-.53-.31-1-.68-.94-1.27-2.53-.38-3.74-2.12-5.64-3.15-.17-.09-.29-.36.1-.52s.81-.26 1 .07c.47.79 1.51 1.09 2.24 1.65s2 .93 2.43 1.84a17.82 17.82 0 015.34 3.38 45.73 45.73 0 005.02 3.69c.43.25.86.58 1.29.23s-.15-.73-.48-1-.67-.57-1-.85l-.7-.49a17.45 17.45 0 01-4.3-2.52 29.09 29.09 0 00-4.63-3.31c-1.18-.77-1.77-2-3.38-2.4-.5-.12-.73-.36-.72-.75 0-.22.08-.45.43-.45s1 .13 1.12.45c.32.78 1.3 1 2 1.45.43.24 1.33 1.12 2.08.1l-.32-.26-.35-.25c-1.13 0-1.6-.6-2.45-1.36a3.75 3.75 0 012.52 1.31l.33.26.35.25 4.63 2.64.14-.11a8.21 8.21 0 00-2.51-2 9.13 9.13 0 01-2.35-1.81c-.16-.2-.43-.47 0-.65.27-.11.46.07.68.24a37.25 37.25 0 006.4 4c.06-1.23-1.26-1.38-2-1.9-.3-.22-.94-.25-.54-.69s.7-.12 1 .07c2.59 1.55 4.85 3.39 7.57 4.82s4.64 3.9 8.14 5a52.87 52.87 0 006.32 1.29c.79.16 1.5 0 1.62-.55s-.61-1-1.25-1a4.14 4.14 0 01-2.3-.94c-3.39-2.27-6.84-4.49-10.2-6.79a27.67 27.67 0 01-5.06-4 .82.82 0 01-.72-.28l-.23-.38-.13-.24.32.11.36.26a.69.69 0 01.66.24 46.23 46.23 0 018 4.79c3.12 2.37 6.69 4.32 9.84 6.65.5.37 1.3 1.29 2 .77s-.86-.81-1.05-1.37a1.07 1.07 0 01-.68-.51 3.62 3.62 0 01-1.45-.57c-1.92-1-2.83-2.62-4.51-3.74q-4.51-3-9.07-6c-.49-.32-.68-.66-.22-1.26 1 .55 1.95 1.1 3 1.61S149.74 9 151 9h.07c-.07-.52-.68-.75-1-1.1-.68-.65-1.75-1-2.08-1.92l-.13-.17.23.09c.48 0 .74.34 1.12.49a2.39 2.39 0 002.12.13l-.34-.25c-.1-.08-.25-.16 0-.25 0 0 .15.07.22.11l.35.26c1.38.21 2 1.3 3.23 1.65l.13-.12a5.06 5.06 0 00-.67-.72c-.4-.29-1.12-.58-.68-1s1 .14 1.53.29c.7.21 1.08.82 2.11 1-.32-.83-1.47-1.18-1.46-2.19a23.16 23.16 0 013.53 2c2.89 2.44 6.53 4.2 9.73 6.34 1.43 1 2.84 1.93 3.41 3.39.7-.11 1.14.28 1.67.49s1.43.58 1.79.06-.38-1-1-1.17a11.48 11.48 0 01-3.35-1.89c-1.87-1.35-3.72-2.72-5.67-4-2.16-1.42-4.48-2.69-6.61-4.13a13.19 13.19 0 01-3.52-2.79c3 1.08 5 3.26 7.92 4.45a42 42 0 017.27 4.37c2.46 1.63 5 3.15 7.71 4.75.12-.68-.31-.87-.6-1.1a71.39 71.39 0 00-8-5.34c-1.25-.74-2.76-1.44-3.8-2.17a37.72 37.72 0 01-3.08-2.29c-.35-.3-.76-.66-.37-1.14a14.59 14.59 0 015.64 2.66c.38.31.44.26 1.2-.14-1.21-1-2.91-1.71-4.27-3.12 1 .34 1.5-.47 2.34.14 1.77 1.27 4 2.08 5.66 3.5a1.56 1.56 0 001.34.49c-.38-.83-1.8-1.1-2-2.3A14.69 14.69 0 00176 7.71c0-1.08-2-.78-2.25-1.91 1.35.26 2.46.92 3.92.78.45 0 1.68.24 1.85 1l.35.27a32.2 32.2 0 017.23 4.48c-.69.37-1.08-.11-1.57-.08l-.08.06c-.09.59-1.07 1.12-.08 1.79.74.51 1.23 1.23 2 1.71.55.35 1 1.4 1.87.8s-.67-.86-1-1.35c-.17-.27-.95-.45-.51-.79s.91.11 1.2.36a25.45 25.45 0 003.11 2.8c1.18.77 1.66.72 2.54-.38zm-25.9-13.44l.34.25c.17.05.52.06.35.25s-.36 0-.49-.15l-.35-.25-.11-.18zM67.59 18.71L68 19c.62.2.94-.34 1.64-.4-.26.64.17 1 .68 1.38 1 .7 2 1.4 2.91 2.11.23.17.58.38.34.65a.73.73 0 01-.9 0c-1.69-1.15-3.77-2-4.74-3.69l-.32-.28-.13-.11zM170.36 4.83l.35.25a1.16 1.16 0 011 .75l.35.27.14.24-.35-.09-.31-.25a1.33 1.33 0 01-1-.77L170.2 5c-.06-.06-.19-.15-.17-.17s.23-.07.33 0zm-34.87 1.09l.33.26.34.25.34.26a33.64 33.64 0 014.87 2.08 1 1 0 01.33.29 8.12 8.12 0 003.3 2.64 45.88 45.88 0 018.11 5.43 8 8 0 012.2 2.41 4.71 4.71 0 01-.85-.18c-3.86-2-7-4.71-10.71-6.83-1.69-1-3.2-2.12-4.89-3.09-1.15-.67-2.73-1.28-2.36-2.75l-.34-.26-.33-.26-.34-.25-.08-.1zM60.83 24.09l.14.14-.17-.11-.34-.25a1.16 1.16 0 01-1-.49.71.71 0 01-.7-.51 1.86 1.86 0 01-1.28-.82h-.11v-.06l.12.11a2 2 0 011.41.72c.37.06.62.21.69.5a1.24 1.24 0 011 .56zM110.48 10l.34.25.34.26a.84.84 0 01.68.25c1 .31 1.8 1.19 3.09 1 .26-.52-1.11-.7-.34-1.2.28-.18.73 0 1 .23 2.58 1.85 5.18 3.69 7.77 5.54.08.08.23.16 0 .25s-.15-.08-.22-.11c-2.09-.13-3-1.69-5-2.41.91 1.71 3.06 2.33 4.06 3.66-.59.34-.91.05-1.26-.15-3-1.71-5.84-3.59-8.6-5.53a1.4 1.4 0 01-.57-1.28.78.78 0 01-.67-.26l-.34-.26-.33-.25-.08-.1zm-9.2 3.39c-.12-.07-.26-.15 0-.25 0 0 .15.07.23.11l.35.25a3.22 3.22 0 012.18.4c1.44 1.18 3.37 2 4.68 3.25.24.23.66.49 1 .33.82-.41.84 0 .83.41s-.51.77-1.11.72a2.71 2.71 0 01-1.17-.46 63.41 63.41 0 01-6.61-4.5zm6.5-2.11l-.32-.05.08-.11.24.16.07.1zm-51.36 11.8c.11.08.45-.1.35.19l-.34-.19-.08-.1zm23.31-6.14l-.44-.1.09-.1.37.19.34.24a28.87 28.87 0 015.52 3.08c.24.14.59.34.34.62s-.52.14-.75 0c-1.87-1.1-4-2-5.15-3.67zm37.19-.27l.25.25-.17.08-.1-.31-.36-.24c-2 0-2.6-1.76-4.89-2.12l3.9 2.72c.94.67.7 1.19-.28 1.72-1.43.79-2.39-.23-3-.68-2.9-2-5.56-4.25-9-5.85-.37-.17-.63-.42-.38-.73s.57-.15.87 0a17.31 17.31 0 013.57 2c1.54 1.46 3.66 2.34 5.42 3.57a3.41 3.41 0 002.56.82 36.62 36.62 0 00-6.42-4.41c-.77-.43-1-1-.8-1.33a1.46 1.46 0 012-.21 60 60 0 016.52 4.48zM153.4 4.12c1.17 0 1.66.46 1.39 1.3-.31-.52-1-.8-1.4-1.29l-.06-.1zm-51.6 11.71a6.16 6.16 0 012.67 1.83l.12.18-.25-.09a4.81 4.81 0 01-2.75-1.75 2 2 0 01-1-.54c-.94-.24-1.45-1.32-2.14-1.28-1.44.1-1.06-.56-1.19-1.07l-.13-.11.24.09a7 7 0 013.42 2.25 1.64 1.64 0 011.01.49zm24.59.29a6 6 0 013.13 2.49c-1.15-.67-3-.73-3.2-2.21h-.22c-.6 0-1.23.11-1.67-.37-1.21-1.34-3.08-2.16-4.61-3.25-1.25-.9-2.79-1.63-3.26-3a.27.27 0 01-.11 0v-.06l.14.11c1.6 0 2.45.78 3.55 1.6a35.21 35.21 0 014.94 4.05c.42.17 1.02.25 1.31.64zm-40.57 2.09a5.36 5.36 0 013.69 2.51c-1.41-.72-3.51-.82-3.69-2.5-1.42 0-2-.73-2.83-1.79a5.14 5.14 0 012.83 1.78zm6 1.32a25.41 25.41 0 01-6.11-4A9.45 9.45 0 0192 19.44l.11.19zM74 20.26c.26-.64-.74-1-.67-1.54l-.15-.1h.08l.07.09c1.31.14 2 1.21 3.37 1.27-.16-1-1.79-1.36-1.86-2.81l6.61 4.51-.31.27a6.07 6.07 0 01-3.2-1.45 1.28 1.28 0 00-1.24-.5 2 2 0 00.34.42c.54.43 1.21 1 .72 1.48s-1.06-.43-1.73-.37c-.08.27.11.91-.55.62a17 17 0 01-4.73-3.5c1.57.04 2.07 1.19 3.25 1.61zm23.37-2.36l-.16.15c.34.7.1 1.3-.74 1.64a2.43 2.43 0 01-2-.46 23.12 23.12 0 01-4.31-3c-.1-.08-.24-.17 0-.27 0 0 .15.08.23.12l2.07.73c.77-1.42 1.36-.09 1.77.15.72.42 1.26.66 2 .05-.21-.39-.86-.57-.91-1l-.09-.19.23.08c1.2.16 1.6 1.15 2.66 1.48.31.1.79.41.54.69s-.88-.17-1.29-.17zM76.7 17c3 .79 4.61 2.7 6.57 4.34A22.3 22.3 0 0176.7 17zm19.86-2l.37-.33a41 41 0 015.39 3.59l-.49.44zm65.76-12.47a7.43 7.43 0 002.2.37c.39 0 .62.17.61.47s0 .48-.17.6a.83.83 0 01-.91-.1 4.24 4.24 0 01-1.73-1.34zM92 16.06a.85.85 0 01-.27-.13s0-.14.06-.21l.37.16zm13.22 2.25h-.12c-.02 0 0-.08 0-.11l.2.07z" />
    <path
        d="M58.14 33.82c-1.71-.3-3.21-1-5.08-1.09-1.4 0-.72-1.07-.7-1.72a1.52 1.52 0 00-.91-.25 58.21 58.21 0 01-7.8-.9c3-.77 6.08-.05 9.12-.12 2.55-1.37 5.49-.49 8.22-.8.14 0-.11.36-.17.55.55 0 1.26-.17 1.41.51h.93a1.11 1.11 0 011.29-1c2.34.32 4.76-.34 7.09.41.46.15 1.52.48 2.06-.25-.62-.33.39-1-.5-1.38-.37-.17.09-.91.92-.81.45.05 1 .09 1.26.5.49.8-.71.89-1 1.36a2.32 2.32 0 001.71.66c1.21 0 2.4 0 3.59-.06s2.41.62 3.86.09c1.24-.45 3.17.44 3.91-1.13.06-.12.25 0 .42 0a7.48 7.48 0 003.65.31 5.35 5.35 0 013.4.07c.28.13.86.25.89 0 .15-1.19 1.28-.47 1.55-.33a2.24 2.24 0 002.82-.31c.53-.43.89.09 1.18.36s.65.65 1 .2c1.25-1.48 3.09-1.11 4.82-.89a2 2 0 001.9-.48c.72-.76 1.46-1.06 2.28-.06a1.15 1.15 0 001.46.26 1.21 1.21 0 011.59.09 1.36 1.36 0 001.38.15c1.6-.47 3-.48 3.67 1-.8.4-1.87-.13-2.75.42 3.34.24 3.34.24 6-.91a6.24 6.24 0 01.76-.28c.3-.09.75.06.67.18-.72 1.16 1.24 1.51 1.2 2.48 0-.85 1.57-.74 1.47-1.38-.13-.85.58-.76 1.19-1s1.28-.06 1.9-.12 2.13.33 1-.94c-.38-.45.36-.75.61-1.1a.38.38 0 01.57-.05c.28.32.77.94.7 1-1.47.88.53 1 .57 1 1.2.21.19-.41.38-.59a1.56 1.56 0 01.69-.3 4.37 4.37 0 012.77.33 3.43 3.43 0 003.7-.82l-1.14-.07c.54-.48.88-.36 1.16.05.3.09.55.29.93.14a4.5 4.5 0 013.89-.05c.17.06.3.12.38 0 .63-1.14 2.13-.73 3.2-1 1.68-.37 2.68.3 2.35 1.31a1.06 1.06 0 001-.54c.56-1 1.74-1.1 2.88-1.09a4.64 4.64 0 002.77-.68s.19 0 .25.05c.5.3-.44.74 0 .92a43.21 43.21 0 018.84-1.42l-.2.83c1.61-.23 1.16.5.71 1.21.73 0 1.36-.39 1.77 0a6.67 6.67 0 002.91 1c.29.07.78 0 .83.33s-.49.39-.8.54c-.07 1.15 1.06.67 1.77.75.23-1.57.93-1.87 2.59-1.1.32.15.84.51 1 .28.58-.93 2.64-.89 2.48-2.25a1.42 1.42 0 01-1.36-.67 7.34 7.34 0 011.28-.05c3.64.51 7.3 1 10.89 1.63.69.13 1.33-.47 1.92.11s1.44.6 2.13.91c2.24 1 5 1.44 6.31 3.46.68 1.1 2.48 1.58 2.76 2.89l.25.19c.32 0 .41.13.07.28-.36.6-1.15-.19-1.66.36 1.15.81 2.06 1.94 3.57 2.26.84.18 1.25.34 1.49.9.12.29.27.6-.08.82-.65.42-1.13-.1-1.62-.27-1-.35-1.54.22-1.18.6 1 1.05-.49.86-.85 1.22.37 1.08.23 1.17-2 1.26 1.24.45 2.81 0 4.38 1-2.49-.17-4.12 1-6.34.92.9.44.22.92.24 1.38h.35l1.3-.6c.85-.93 2.32-.57 3.44-.94a4.61 4.61 0 013.48 0c.88-.06 1.71-.49 2.64-.24a4.18 4.18 0 001.63-.58 2.43 2.43 0 00-.67-2c-1.06 0-1.16-.82-1.67-1.29-1-1-.93-2.11-1-3.23a1.38 1.38 0 011.21-1.72c.71-.19 1.33-.58.92-1.27-1.61-2.73-3.13-5.52-6.23-7.55 0 .28.3.61-.09.82s-.7-.09-1-.28c-.55-.41-1.07-.83-1.6-1.24a9.94 9.94 0 00-2.25-1.24 7.89 7.89 0 01-3-1.7l-.52-.06a4.39 4.39 0 01-1.65-.11c-1.68-.38-3.37-.71-5.06-1.06 0 .07-.07.16-.13.23-.28.3-.86.55-.5 1s.73-.13 1.11-.14a9.12 9.12 0 013.33.6.84.84 0 01.33 1.36c-.15.22-.27.53-.69.45-.7-.14-.36-.62-.45-1a1.11 1.11 0 01-1.74 0c-.2-.19-.47-.61-.93-.29s.13.5.32.71.37.55-.09.59c-.77.07-1.68.33-2.06-.6-.26-.66 0-2-1.93-1.11-.31.15-.28-.29-.47-.41-1-.67-3.69-1.14-4.12-.61a3.52 3.52 0 01-1.06.85c-.92-1.13-1.24.33-1.93.34l1.5.12c-.82.15-1.82.69-2.06-.47 0-.12-.26-.27-.45-.32-1.82-.52-3.85-.44-5.62-1.12a.39.39 0 00-.27.08c-1.3 1.47-3.19.2-4.77.57-.82.18-1.76-.31-2.84 0-.52.15-1.42.72-1.95.34-1.15-.82-2.17-.35-3.24 0a1.49 1.49 0 01-1.38-.21c-.64-.45-1.25-.67-1.49.27 0 .2-.23.27-.48.22-2.19-.47-4.43 0-6.68-.22-1.62-.16-3.17-.86-5-.48-1.07.23-2.44.2-3.35.46-1.18.33.74 1.42.11 2.23-1.67-1.23-1.72-1.24-2.88-.45.46.23 1.26-.11 1.57.57a11.88 11.88 0 01-4.6-.58 18.94 18.94 0 003.06-.9c.57-.13 1-.36.91-.74s-.73-.49-1.36-.38a20 20 0 01-4.74.6c-1.91-.17-3.55.45-5.25.71a8.79 8.79 0 01-2.59.24 14.44 14.44 0 00-4.82 0c-.85.15-1.72.2-2.58.3 0-1.13-1.64-.75-1.75-.69-.89.46-2-.3-2.77.39-.39.36-1.06.91-1.41.66-.79-.56.53-.73.67-1.17v-.24c-1.66.37-3.43-.15-5.08.39s-3-.78-4.66-.11a19.28 19.28 0 01-2.88.54c-.9.22-1.78-.34-2.32-.1-2 .89-4.14.56-6.19.86a45.57 45.57 0 00-5.77 1c-1.38.38-2.9 1.06-4.68.61a3 3 0 00-1.69-.26 7.6 7.6 0 01-5 .14 1.48 1.48 0 00-1.07 0 5.52 5.52 0 01-2.59.44 12.31 12.31 0 00-3.26-.06 19.58 19.58 0 01-4.59.12c-2.14.07-4.23.55-6.39.5a2.56 2.56 0 01-2.1-.57 2.47 2.47 0 00-1.32.11c-2.44 1.25-4.87.85-7.3 0-1.13-.41-2.19-1.12-3.55-.4a.4.4 0 01-.61-.23c-.32-.9-1.21-1.32-2.21-1.78a5.11 5.11 0 01-2.49-2.28L36 20.7c-.17-.2-.49-.13-.72-.21-1.28-.47-3-.57-3.45-1.87l-1.72-.72c-1.41.1-2.39-.9-3.77-.9 2.56 1.8 5.72 2.91 8.67 4.21 2.27 1 2.86 1.42 1.86 3.1 0 .05.21.19.32.28l.54.21-.14.16-.45-.33h-.33c-.75 0-1.94-.24-2.17 0-.49.56-.17 1.29.58 1.8a.27.27 0 01.11.1c.15.33.19.67-.45.4-.36-.14-.59 0-.83 0a10.31 10.31 0 01-2.8-.44c-.42-.14 0-1-.85-1.14l-.07-.11.08.1h1.33c-.26-.39-.79-.4-1.25-.54-1-.29-2.13-.26-2.84-1-.51-.05-1.12.1-1.47-.43l1.13-.1c-.11-.17-.23-.33-.34-.49l-.65.06a15.17 15.17 0 01-4.1-.76c-.5-.11-1-.46-1.5 0h.1l.05-.07.36.26h.47l-.16.19a4.72 4.72 0 001.13.49c1.55.27 3 .63 3.68 1.86 1.54-.12 1.75.93 2.41 1.58a4.71 4.71 0 00.91 1c1.76 1.12.31 2.33.27 3.5h.1c3.07-.15 6.13-.73 9.35-.34-1 1.17-2.74.71-3.83 1.35.46.68 1.11.4 1.69.23 0 .38-.24.43-.49.53-1.33.51-2.66 1-4 1.56l3.37-.52a.55.55 0 01.64-.19l.09.09-.72.12c-.39.37-1.2.52-1 1.41 1.48-1 3.18-.45 4.77-.65l.71-.26a.22.22 0 01.35 0 2.73 2.73 0 01.69-.33 42.19 42.19 0 0110.36-.65c.28 0 .29.22.34.38l5.81.53c-.06-.02-.04-.15-.03-.33zm140.53-9.2l-2 .9c.09-.63.21-1.06 1-1.15-.18-.61.43-.77.92-.66.79.18-.11.61.08.93.62 0 1.26.07 1.53-.6a.87.87 0 01-.59 1.37c-.68.16-.81-.41-.94-.79zM68.45 27.23a5.76 5.76 0 012.48-.66c-.72.74-1.65.57-2.48.66zm128.05-1l-.27.09c0-.07-.13-.15-.1-.2s.16-.07.25-.1zm-72.22-2.56a.58.58 0 01.14 0v.09a.58.58 0 01-.14 0s-.01-.07 0-.1zm81.23 11.27v-.11h.2s0 .07-.06.1-.1.01-.14 0z" />
    <path
        d="M198.18 22.06h.88c0-.16.06-.4.3-.36.47.07.23.39.27.62l4 1.82.24.14.34-.09a5.66 5.66 0 00-2.47-1.95 31.22 31.22 0 01-6-4.54c-.46 0-.55-.53-1.07-.5-.88 1.1-1.36 1.15-2.53.42a25.45 25.45 0 01-3.11-2.8c-.29-.25-.68-.76-1.2-.36s.34.52.51.79c.31.49 1.74.8 1 1.35s-1.32-.45-1.87-.8c-.76-.48-1.25-1.2-2-1.71-1-.67 0-1.2.08-1.79l-.32-.26-.38-.23-.33-.26-.14-.17.23.1.35.24.32.28.35.24c.49 0 .88.45 1.57.08a32.2 32.2 0 00-7.23-4.48l-.23.15.2.38.32.26c.06.05.17.13.16.15s-.21 0-.29-.05l-.36-.24c-.26-.16-.52-.31-.76-.48a1.13 1.13 0 01-.22-.27h.61l.22-.19c-.17-.8-1.4-1.08-1.85-1-1.46.14-2.57-.52-3.92-.78.15 1.16 2.15.86 2.15 1.94.11.1.44.16.1.34l-.1-.34a14.69 14.69 0 01-3.43-1.46c.23 1.2 1.65 1.47 2 2.3a1.56 1.56 0 01-1.34-.49c-1.62-1.42-3.89-2.23-5.66-3.5-.84-.61-1.34.2-2.34-.14 1.36 1.41 3.06 2.08 4.27 3.12-.76.4-.82.45-1.2.14A14.59 14.59 0 00162.73 5c-.39.48 0 .84.37 1.14a37.72 37.72 0 003.08 2.29c1 .73 2.55 1.43 3.8 2.17A71.39 71.39 0 01178 16c.29.23.72.42.6 1.1-2.74-1.6-5.25-3.12-7.71-4.75a42 42 0 00-7.27-4.37c-2.92-1.19-4.87-3.37-7.92-4.45a13.19 13.19 0 003.52 2.79c2.13 1.44 4.45 2.71 6.61 4.13 1.95 1.28 3.8 2.65 5.67 4a11.48 11.48 0 003.35 1.89c.61.19 1.31.72 1 1.17s-1.2.18-1.79-.06-1-.6-1.67-.49c.14 1.25 1.81 1.71 2.58 2.67a2.24 2.24 0 01-2.75-.81c-.11.62.42 1.22-.57 1.18-1.53-.05-3.09 0-4.2-1.05a1.29 1.29 0 00-1.13-.46c-.13.45.68.67.44 1.3-1.07-.44-2.53-.2-3.2-1.18s-1.36-.89-2.31-.37c.19.56 1.67.91 1.05 1.37s-1.51-.4-2-.77c-3.15-2.33-6.72-4.28-9.84-6.65a46.23 46.23 0 00-8-4.79.79.79 0 00-.17.2 27.67 27.67 0 005.06 4c3.36 2.3 6.81 4.52 10.2 6.79a4.14 4.14 0 002.3.94c.64 0 1.38.47 1.25 1s-.83.71-1.62.55a52.87 52.87 0 01-6.32-1.29c-3.5-1.13-5.28-3.52-8.14-5s-5-3.27-7.57-4.82c-.33-.19-.74-.38-1-.07s.24.47.54.69c.71.52 2 .67 2 1.9a37.25 37.25 0 01-6.4-4c-.22-.17-.41-.35-.68-.24-.45.18-.18.45 0 .65a9.13 9.13 0 002.35 1.81 8.21 8.21 0 012.51 2l.33.26.36.25c0 .05.16.14.15.16s-.22 0-.31 0l-.33-.26-.34-.25-4.82-2.67h-.08c-.75 1-1.65.14-2.08-.1-.72-.4-1.7-.67-2-1.45-.15-.28-.65-.45-1.14-.45s-.42.23-.43.45c0 .39.22.63.72.75 1.61.4 2.2 1.63 3.38 2.4a29.09 29.09 0 014.63 3.4 17.45 17.45 0 004.34 2.54l.14-.11c-.09-.27-.38-.65-.24-.8.33-.35.77 0 1.16.08s.83.41 1.2.09-.07-.54-.27-.78c0-.05-.16-.14-.14-.16s.22-.05.32 0c.81 0 1.23.51 1.79.83.73.42 1.13 1.18 2.18 1.29-1-1.73-3.39-2.65-4.33-4.42 2.24 1.17 4.3 2.49 6.47 3.69 1.17.65 1.37 1.29.64 2.17-.58-.06-.86-.52-1.44-.42v1.2c-1-.51-1.52-1.32-2.68-1.49-.23.31.56.77-.17 1-.54.15-.89-.22-1.29-.46-.81-.48-1.28-1.33-2.53-1.34l-.08.06c.33.28.68.56 1 .85s1.06.58.48 1-.86 0-1.29-.23a45.73 45.73 0 01-5.22-3.72 17.82 17.82 0 00-5.34-3.38l-.14.11c-.09.59.41 1 .94 1.27 2.14 1.26 3.61 3 5.82 4.23a4.77 4.77 0 012.17 2c-1.17.5-2.07-.27-3.09-.39h-.05c0 .82-.85.78-1.57.74s-1.19-.16-1.79-.25a3.34 3.34 0 01-1.85.5c-4 .15-7.92.26-11.88.42-2.11.08-4.22.23-6.33.36a103.45 103.45 0 01-10.43.46 42.73 42.73 0 00-7.92.7c-1.59.22-3.18.13-4.77.34-4.51.62-9.12.63-13.64 1.23-1.26.16-2.93.57-3.41-1.06-.14-.5-1-.39-1.5-.65-1.26-.7-2.49-1.44-3.74-2.16a8.75 8.75 0 00-1.33-.55 1.48 1.48 0 00-.92-.11c-.43.27 0 .51.19.76a2.49 2.49 0 01.23.59c.21 0 .32.09.33.26a1.88 1.88 0 011.6.53A28.16 28.16 0 0170 24c.2.19.6.33.42.62s-.55.28-.89.27a16 16 0 00-3.66.3c-.46.76-1.84.3-2.34 1a19.58 19.58 0 004.59-.12 12.31 12.31 0 013.26.06 5.52 5.52 0 002.59-.44 1.48 1.48 0 011.07 0 7.6 7.6 0 005-.14 3 3 0 011.82.25c1.78.45 3.3-.23 4.68-.61a45.57 45.57 0 015.77-1c2-.3 4.23 0 6.19-.86.54-.24 1.42.32 2.32.1a19.28 19.28 0 002.88-.54c1.64-.67 3.11.62 4.66.11s3.42 0 5.08-.39c0 .08.08.17 0 .24-.14.44-1.46.61-.67 1.17.35.25 1-.3 1.41-.66.74-.69 1.88.07 2.77-.39.11-.06 1.78-.44 1.75.69.86-.1 1.73-.15 2.58-.3a14.44 14.44 0 014.82 0 8.79 8.79 0 002.6-.36c1.7-.26 3.34-.88 5.25-.71a20 20 0 004.74-.6c.63-.11 1.21-.11 1.36.38s-.34.61-.91.74a18.94 18.94 0 01-3.06.9 11.88 11.88 0 004.6.58c-.31-.68-1.11-.34-1.57-.57 1.16-.79 1.21-.78 2.88.45.63-.81-1.29-1.9-.11-2.23.91-.26 2.28-.23 3.35-.46 1.79-.38 3.34.32 5 .48 2.25.23 4.49-.25 6.68.22.25.05.43 0 .48-.22.24-.94.85-.72 1.49-.27a1.49 1.49 0 001.38.21c1.07-.31 2.09-.78 3.24 0 .53.38 1.43-.19 1.95-.34 1.08-.31 2 .18 2.84 0 1.58-.37 3.47.9 4.77-.57a.39.39 0 01.27-.08c1.77.68 3.8.6 5.62 1.12.19 0 .42.2.45.32.24 1.16 1.24.62 2.06.47l-1.5-.12c.69 0 1-1.47 1.93-.34a3.52 3.52 0 001.06-.85c.43-.53 3.11-.06 4.12.61.19.12.16.56.47.41 2-.92 1.67.45 1.93 1.11.38.93 1.29.67 2.06.6.46 0 .31-.35.09-.59s-.8-.37-.32-.71.73.1.93.29a1.11 1.11 0 001.74 0c0-.18.1-.36.16-.55 0 0 .11 0 .12.07.09.22 0 .38-.26.49.09.34-.25.82.45 1 .42.08.54-.23.69-.45a.84.84 0 00-.33-1.36 9.12 9.12 0 00-3.33-.6c-.38 0-.7.62-1.11.14s.22-.67.5-1c.06-.07.08-.16.13-.23-.53-.12-1.23.05-1.65-.75a37.12 37.12 0 018.58 1.52c.05 0 0 .16 0 .24zm-15-11.33l.35.25c.06 0 .18.14.17.16s-.22 0-.31-.05l-.34-.26c-.06-.05-.18-.13-.17-.15s.23-.03.31.05zm-2.07-1.5l.47.42s-.09.06-.13.06c-.33 0-.38-.22-.41-.42l-.15-.16zm-3.47 1.61a.71.71 0 01-.67-.52 3.74 3.74 0 01-2.14-1.64c1.1.57 1.93.85 2.27 1.54.35.08.61.22.7.5l.34.25a29.68 29.68 0 018.49 5.7c.18.19.61.38.34.63s-.7 0-1-.15c-2.93-1.82-5.33-4-8-6.06zm-39.41 2.72c.51.28 1.16.43 1.51 1.09-.77-.27-1.48-.34-1.65-1 0-.05-.17-.13-.15-.15s.21-.01.3.06zm44.89 3.81c-4.52-3-9.65-5.5-13.93-9.07.74.21 1.09-.34 1.58-.06a60.82 60.82 0 0112.36 9.13zm1 .35c.14.17.26.26.28.35s0 .27-.25.18c-.09 0-.19-.11-.19-.17s.04-.18.17-.36zm-64.68 5.35l-.27-.11a1.06 1.06 0 01.25-.11.7.7 0 01.26.1zm29.9-4.28l.1.05-.19.07v-.08a.34.34 0 01.1-.04z" />
    <path
        d="M195.65 17.75a31.22 31.22 0 006 4.54 5.66 5.66 0 012.47 1.95 7.55 7.55 0 012 1.12c1.15-.1 2.06.57 3.43.72-.65-1-1.47-1.84-1.27-2.9.16 0 .39 0 .46.05 1.56 1.46 3.74 2.76 3.33 4.89-.22 1.14 1.64 2.19.11 3.3 1.7.4.73 1.48 1 2.25.44 1.36-.74 2.55-.84 3.91-.09 1.15.74 2.09.52 3.17 1.18-.17 1.26 1.1 2.36 1 .2-6.11-.71-12.07-4.13-17.68-2.63-4.32-7.54-5.93-13.4-6.36.09.22.63.2.5.56a3.3 3.3 0 01-1.31-.41c-.41-.01-.78-.25-1.23-.11zm4.72 2l-.57-.17.13-.16.42.34c.13.1.45.15.12.34zM183.13 50.35a15.48 15.48 0 01-5.72.37c-1 1.12-1.33 1.12-2.82 0-2-.05-4-.26-5.85.66a.82.82 0 01-.49.06c-2.7-.55-5.43.3-8.17-.15-2.28-.37-4.66.46-7 0a4 4 0 01-.81-.09c-2-.81-4 0-6-.25s-4.21-.45-6.3-.7c-2.68-.31-5.37-.62-8.05-.89a37.37 37.37 0 00-5.62-.36c2 .91 4.35 1 6.57 1.28A211 211 0 00164.39 52h3.54c1.39 0 .52.44.32.76.25.11.29.2 0 .26a1.65 1.65 0 01-1.39.53c.41 1.58.41 1.58-2 1.94.39.31 1.15-.05 1.42.45a23 23 0 009-3.17 6.72 6.72 0 013.67-1.27c2.68 0 5.35-.29 8-.48a2.69 2.69 0 001.63-.5 32 32 0 00-5.45-.17zm-11.82 1.94l-.2.12.18-.14.33-.2.12.13zm-1.82.67l.24-.05v.08zM196.29 50a32.51 32.51 0 01-4.3.21c-.33 0-1-.27-.87.39a16.47 16.47 0 004.49.15c5.18-.11 10.34-.32 15.25-1.75 1-.29 2.2-.4 2.69-1.31v-.72c-1.45.44-2.68 1.19-4.35 1.34-1.09.1-2.2.16-3.3.32-3.18.48-6.28 1.37-9.61 1.37zM37.56 21.45a5.11 5.11 0 002.49 2.28c1 .46 1.89.88 2.21 1.78a.4.4 0 00.61.23c1.36-.72 2.42 0 3.55.4 2.43.88 4.86 1.28 7.3 0-5.06.61-8.85-1.53-12.79-3.37a9.32 9.32 0 00-3.37-1.32z" />
    <path
        d="M213.58 47v.72c1.53-.39 2.72-1.63 2.63-2.77 0-.55-.45-.79-1.16-.91a32.74 32.74 0 00-4.09-.13l1-.51c-.93-.25-1.76.18-2.64.24a2 2 0 01-1.61.45h-.09a1.18 1.18 0 01-1.13.26c-1.3.9-3.07 1.15-4.49 1.88-.23.12-.51-.08-.62-.3-.28.07-.18.26-.2.4l.32.41h.52c2.18-.8 4.27-1.8 6.78-2l.48-.11h.53a7.58 7.58 0 014-.2c.85.1.9.27.71.94v.48a1.83 1.83 0 01-.94 1.15zM63.48 26.17c.5-.72 1.88-.26 2.34-1h-1.6a27 27 0 01-4.59.29c-.92.61-1.93-.43-2.86.09-.38.6-1.25.16-1.77.48a2.56 2.56 0 002.05.61c2.2.08 4.29-.4 6.43-.47zM183.13 50.35a32 32 0 015.45.14c.08-.14.18-.17.31 0h1c-.35-1-2.14-1.24-3.25-1.07s-2.3.84-3.51 0zM31.86 18.62c.5 1.3 2.17 1.4 3.45 1.87.23.08.55 0 .72.22a10 10 0 00-4.17-2.09zM215.22 41.78c-1.1.07-1.18-1.2-2.36-1a2.43 2.43 0 01.67 2c.79-.11 1.58-.23 1.69-1zM196.88 17.89a3.3 3.3 0 001.31.41c.13-.36-.41-.34-.5-.56-.31-.07-.62-.15-.81.15z" />
    <path
        d="M188.85 50.47c-.13-.14-.23-.11-.31 0a1.55 1.55 0 00.31 0zM89.18 40.48c-.94.29-1.74-.27-2.64-.23-1.31-.36-2.7 0-4-.29a1.19 1.19 0 01-1.06.56l-.34.26-.34.25-.33.26-.34.26-.34.26-.32.26-.21.12.14-.17.33-.26.34-.25.33-.26.34-.26.34-.26.34-.25c.29-.4-1.37-.45-.31-1a18.06 18.06 0 00-2.65-.55c-.33.43-.88.29-1.37.31l-.21.1.13-.16a3.78 3.78 0 00-2.71 0c-.35.11-1 .47-.91-.2.08-1.16-.76-.53-1.2-.36-.79.31-1.46.74-1.73-.36-.09-.35-.58-.34-1-.12s-.67.37-1 0c-.43-.65-1.06-.19-1.6-.18l-.33.27-.21.11.14-.16.35-.25c.07-1.47-1.58-.78-2.47-1.12l.31-.94a7.73 7.73 0 00-4.89 1v.75c.71.42.11.7-.21 1s-1.18.74-1.48 1.3c.41.14 1.08-.3 1.14.62.05.7 1.46.17 2.25.25.21 0 .4.09.36.29a1.37 1.37 0 01-.28 0c-.16.43-.15.86.63.54a5.21 5.21 0 012.25-.12c.32-.05.83-.15.85.11 0 .45-.49.28-.85.25-.27.13-.29.5-.18.48 1.13-.13 2.07.42 3.15.41-.09-.82 2.48-2.71 3.88-2.85l.33-.27.14-.06-.14.06.08.27c.41 0 .84 0 .93.44.15.11.27.22 0 .31l-.35.27-.35.26-.35.27-.35.27-.35.26-.35.27-.35.27-.36.26a.85.85 0 010 .23.77.77 0 00.18.1 3 3 0 001.31-.43c.28-.14.61-.44 1-.13s-.06.53-.15.79c.16.45.26 1 1.15.5.31-.28.62-.57 1-.84s.68-.57 1.11-.36 0 .58-.09.87-.27.63-.4.94c.63.27 1-.12 1.5-.31 0-1.14 1.3-1.07 2.16-1.52.39.94-.75 1.31-1 2 1.11-.36 2 1 3.16.23a4.37 4.37 0 013-2l.33-.25c.3-1.79 1.15-2.18 3.25-1-1.81-.35-2.3.59-3.22 1l-.33.25c-.93.71-.67 1.89-1.75 2.54 1.14.16 2.29.34 3.44.47.64.08 1.34-.47 1.9.4.21.33 1.39-.32 2.12-.54a1 1 0 011-.56c0-.22.06-.39.32-.49a8.14 8.14 0 011.7-2.09c-1.22-.52-2.6-.86-3.42-1.81a.31.31 0 010-.19zm-23 .79l-.17.1.15-.11.34-.26.33-.26.18-.11-.15.14-.34.25zm.88-2.27c-.74.91-2.21 1.16-2.71 2.12-.09.17-.39.14-.59 0s-.25-.33-.11-.46A4.49 4.49 0 0167.06 39zM30 31a12.07 12.07 0 00-6.73 2.49c-.29.19-.58.57-.84.57-2-.07-3.2.89-4.54 1.83A38.1 38.1 0 0114 37.58C10.5 39.45 6.62 41 3.63 43.36a13.68 13.68 0 00-1.35 1.13c-.43.46-1.36.94-.89 1.5s1.43.36 2.22.31a111.91 111.91 0 0016.62-2.61q3.45-.77 6.75-1.84a2.6 2.6 0 001.53-1c-.74-.22-1.43.2-2.17.1l-1 .21c-.06.32-.29.43-.7.31l-1 .2c-.28.6-1.07.55-1.67.69-2.35.55-4.72 1-7.08 1.57-1.23.27-2.36.88-3.79.51 2.48-.31 4.4-1.61 6.78-2.07h1c.42-.66 1.3-.82 2.08-1.09v-.49l-5.28 1.67c.76-1.26 2.51-1 3.43-2.06l-10.4 2.45c-.05.13-.13.14-.23 0l-.75.15a3.62 3.62 0 01-2.54.38 3.45 3.45 0 012.47-.82.22.22 0 01.14-.08c0-.1.08-.14.2-.12a5 5 0 011.82-.4.46.46 0 01.54-.14l.19-.07c0-.12.07-.16.22-.1l1.14-.14c-.35-.28.92-.57 0-.85l-1.45.2a3.13 3.13 0 01-2.46.23 6.9 6.9 0 012.48-.56 72.65 72.65 0 009.72-2.87l-5 .87a4.56 4.56 0 01-2.42.57 2.3 2.3 0 012.05-.89l.11-.06c.1-.21.31-.22.55-.18l1.1-.39a.21.21 0 01.26-.09 54 54 0 007.15-1.9c-1-.55-1.92.47-3.1.07 1.25-.66 2.64-.7 3.79-1.19-.42-.27-1.05.12-1.5-.3a9.77 9.77 0 014.07-.88l.21-.21c-.21-.35-.86-.15-1.41-.56 1.2-.07 1.67-.86 2.69-.75.21-.48 1-.35 1.32-.75zM5.63 44.73c-.07-.32.16-.4.35-.45l8.43-2.13c.27-.07.6-.17.7.11s-.23.45-.55.55c-1.77.51-3.52 1.07-5.31 1.51a8.18 8.18 0 01-3.62.41z" />
    <path
        d="M109.7 45.59c-.23 0-.45 0-.56-.17-.84.66-1.78.22-2.59 0-4.46-.93-8.88-1.92-13.32-2.88.49 1.51-1.11 1.63-2.33 2a.37.37 0 01-.32.49c.11.45.63 1-.37 1.25.35.55.74.13 1.12 0a3.31 3.31 0 01.49-.5c.36-.23.62-.67 1.24-.48.16.05.4.26.36.36a1 1 0 01-1 .83l.09.23c1.17-.45 2.23.48 3.4.14.4-.12.58.21.72.41.37.51.75.36 1.17.06-.62-.56.14-.66.52-.87a.58.58 0 01.81.15c.42.52.07.77-.49 1a5.77 5.77 0 004.37.82l1.67-1c.4.9-.57 1.34-.94 1.95 1.19 0 2.4-.1 3.17.81l3-1.52 1.71-1.3c-.41-.11-1.19 0-.93-.6s1-.19 1.55-.2v-.53a4.87 4.87 0 01-2.54-.45zm-10.38.08a.92.92 0 01.1.2s-.08.08-.11.07a.66.66 0 01-.19-.09zm-5.9-1l.06.06h-.08zM78.44 38.94a18.06 18.06 0 012.65.55l1.43.47c1.32.25 2.71-.07 4 .29 0-.25.52-.59-.14-.73-1.45-.29-2.72-1-4.27-1.06-1 0-1.58-1-2.74-.78a28.35 28.35 0 00-7.23-1.85c-2.73-.46-5.34-1.18-8-1.68a27.22 27.22 0 00-6-.34v.75h1.09a.64.64 0 01.67.17 15.25 15.25 0 014.89 1.12 3.78 3.78 0 011.8.13c3.95.89 7.91 1.88 11.85 2.96zM52.28 33.75c-.05-.16-.06-.36-.34-.38a42.19 42.19 0 00-10.36.63 2.73 2.73 0 00-.69.33h-.35c-.09.31-.39.31-.71.26-.18.62-1 .81-1.45 1.25-.52 1.07-1.83 1.34-3 1.73l-.34.07c-.16.35-.54.32-.91.29L28.69 40l.13.46a14.17 14.17 0 005.29-1.57 71.32 71.32 0 0111.76-4.49 19.09 19.09 0 016.41-.65zM108.12 51.45a6.34 6.34 0 012.37 2.08c.11.2 1.07-.55 1.52.13.88-.3 1.93-.43 2.22-1.31l-.37-.33c-.78.11-1 .91-1.81.92-.46-.25.68-.83-.36-.86-.46 0-.69.71-1.41.35.36-.6 1.45-.89 1.21-1.7-.54-.45-.33-.79.3-1l.34-.25.32-.27.34-.25.69-.51.34-.24.35-.25c0-.31.84-.92-.47-.76l-1.57.31c-.74.6-1.13 1.48-2.32 1.74a7.24 7.24 0 00-1.69 2.2zM20.76 22.11c.52-.43 1-.08 1.5 0a15.17 15.17 0 004.1.76l-.36-.28c-.29 0-.59.06-.67-.25a.92.92 0 01-1-.26 2.18 2.18 0 01-1.4-.46l-.44-.12c.05-.05.13-.15.15-.15s.25.12.38.18l1 .13.3-.29a57.48 57.48 0 00-5.91-2.12 3.15 3.15 0 01-1.85-1h-2.24a7.21 7.21 0 003.29 1.6c.8.18 2.34.16 2.22 1.43-.04.3.42.72.93.83z" />
    <path
        d="M64.71 35.88a15.25 15.25 0 00-4.89-1.12c-.14.5-.73.72-1.12 1.06-1 .87-2.51 1.24-3.38 2.2-.11.3-.21.59-.32.88 1.43 0 1.84-1.26 3.11-1.47l.33-.25c.32-.45.68-.79 1.33-.26a7.73 7.73 0 014.94-1.04zM114.23 52.35c-.29.88-1.34 1-2.22 1.31 0 .49-.57 1 .12 1.44.06-.2 0-.44.38-.51a2.53 2.53 0 011.84-1 .5.5 0 01.52-.25 2.21 2.21 0 012.06-1c-.14-.28 0-.35.35-.27-.27-.31 0-.44.31-.58a.28.28 0 01.38.06c-.21-.35 0-.41.36-.28-.2-.68.84-.74 1.06-1.21a.82.82 0 01-.75-.88.94.94 0 01-.3 0 1 1 0 010 .24 1.66 1.66 0 01-1.39.83.75.75 0 01-.63.48l-.36.26a.9.9 0 01-.69.53c-.14.22-.28.45-.69.27.08.25-.06.32-.37.25z" />
    <path
        d="M112.51 55.14a20.32 20.32 0 0010.11-6.45c-.71-.13-.9.37-1.29.63a13.15 13.15 0 01-3.11 1.93c0 .21-.08.3-.36.28.07.19-.12.27-.29.35s-.14.28-.4.17c.06.23-.12.27-.35.27a2.2 2.2 0 01-2.06 1c.17.11.18.23 0 .35a3.34 3.34 0 01-2.39.93zM10.4 15.39c.57 1 2.45.79 3 1.8a4.64 4.64 0 013.12 1c1.16-.24 2.17.42 3.35.28-2.33-1.09-4.95-1.72-7.22-2.84zM12.85 14a36.67 36.67 0 00-5.2-1.81.66.66 0 00-1 .43c.49 0 1.06-.11 1 .5l.65.29c.69-.21 1.15.21 1.72.34.93.23 1.61 1 2.73.82.09-.21.1-.4.1-.57zM55.32 38c.87-1 2.41-1.33 3.38-2.2.39-.34 1-.56 1.12-1.06a.64.64 0 00-.67-.17 13.91 13.91 0 01-4.07 2.29c-.08.42-1.64 1 .24 1.14z" />
    <path
        d="M12.84 14.55c-1.12.14-1.8-.59-2.73-.82-.57-.13-1-.55-1.72-.34.23.54.39 1.12 1.27 1.29a8.65 8.65 0 013.53.9l.72.16c.44-.07.49-.29.4-.58l-.19-.09-.23-.07-.74-.19c-.15.07-.21 0-.2-.1zM58.11 37.43c-1.27.21-1.68 1.47-3.11 1.47.05.2-.09.28-.33.3-.62 1 .63.49.78.44.56-.21 1-.56 1.72-.2a1.93 1.93 0 001.24-1c-.48-.25-.13-.68-.3-1.01zM71.32 40c-1.4.14-4 2-3.88 2.85a.91.91 0 01.75-.3c1.01-.89 2.61-1.33 3.13-2.55zM82.06 45.35c1.08-.65.82-1.83 1.75-2.54a4.37 4.37 0 00-3 2c.81-.34.89.29 1.25.54zM108.12 51.45a7.24 7.24 0 011.69-2.25v-.44l-3 1.52a3.7 3.7 0 011.31 1.17zM55.08 36.88a13.91 13.91 0 004.07-2.29h-1.09c-1.16.63-2.49 1.15-2.98 2.29zM77.65 44.6c.21-.66 1.35-1 1-2-.86.45-2.21.38-2.16 1.52.65-.26.72.4 1.16.48z" />
    <path
        d="M58.45 38.45a1.93 1.93 0 01-1.24 1c0 .27-.61.64.2.8a.66.66 0 01.7-.28c.3-.56 1-.85 1.48-1.3s.92-.59.21-1a.87.87 0 01-.67.51.67.67 0 01-.66.25zM75 44.46c.13-.31.25-.63.4-.94s.61-.62.09-.87-.81.12-1.11.36-.64.56-1 .84c.78-.18 1.04.41 1.62.61zM103.65 49.47c.37-.61 1.34-1 .94-1.95l-1.67 1c.14.36-.01.85.73.95zM16.55 18.21a4.64 4.64 0 00-3.12-1 1.65 1.65 0 00.88 1.06zM92.33 46.6a1 1 0 001-.83c0-.1-.2-.31-.36-.36-.62-.19-.88.25-1.24.48a3.31 3.31 0 00-.49.5c.41.05.87-.21 1.09.21zM98.55 47.7c.56-.21.91-.46.49-1a.58.58 0 00-.81-.15c-.38.21-1.14.31-.52.87.4-.1.6.12.84.28zM13.19 15.58a8.65 8.65 0 00-3.53-.9l.74.71 2.29.27zM72.23 43.35c.09-.26.51-.5.15-.79s-.71 0-1 .13a3 3 0 01-1.31.43l.3.23zM28.77 26.5c-.66-.65-.87-1.7-2.41-1.58.7.61 1.19 1.42 2.41 1.58zM28.82 40.49c0-.15-.08-.3-.13-.46-.87.15-1.87.1-2.35.88.74.1 1.43-.32 2.17-.1z" />
    <path
        d="M70.38 43.35l-.3-.23a.77.77 0 01-.18-.1l-.31-.2a2.1 2.1 0 00-1.4-.28.91.91 0 00-.75.3c.49.19 1.41-.5 1.57.53.07.39.9.23 1.37-.02zM90.17 46.37c1-.27.48-.8.37-1.25a1 1 0 00-1 .56zM26.69 43.83a1 1 0 00-.34-1c-.45.2-.15.55-.32.79l.68.26zM64.47 42c.36 0 .89.2.85-.25 0-.26-.53-.16-.85-.11zM166.86 53.54a1.65 1.65 0 001.39-.53 1.18 1.18 0 00-1.39.53zM26 43.58c-1.15.18-.22.53-.07.82 0-.28 0-.55.05-.83zM7.74 13.1c0-.61-.52-.51-1-.5a1.77 1.77 0 001 .5zM61.59 41.18a1.37 1.37 0 00.28 0c0-.2-.15-.26-.36-.29.03.11.05.19.08.29zM112.51 55.14v-.55c-.37.07-.32.31-.38.51z" />
    <path
        d="M26.69 43.83l.15.35c.05 0 .14-.1.14-.15s-.06-.25-.29-.2zM58.11 40a.66.66 0 00-.7.28c.28-.02.59-.03.7-.28zM21.55 22.57l.16-.19h-.47zM54.71 39.23c.24 0 .38-.1.33-.3-.28-.01-.31.14-.33.3zM21.27 22.33l-.36-.26c-.08.25.09.27.36.26zM168.21 53c.33-.06.29-.15 0-.26 0 .06-.08.11-.11.16s.08.1.11.1zM13.19 15.58l-.5.08c2.27 1.12 4.89 1.75 7.22 2.84-1.18.14-2.19-.52-3.35-.28a3.15 3.15 0 001.85 1 57.48 57.48 0 015.91 2.12c1.74.6 3.64.95 5.12 1.94l.66.27c.47 0 .95 0 1 .52a1.81 1.81 0 011.39.45 1.71 1.71 0 01-1.45-.41 1.42 1.42 0 01-1-.48l-.64-.28h-1c.13.3.82.24.76.69l-1.42-.19c.71.71 1.88.68 2.84 1 .46.14 1 .15 1.25.54l.44.13-.1.09-.38-.18h-1.33c.83.18.43 1 .85 1.14a10.31 10.31 0 002.8.44c.24 0 .47-.15.83 0 .64.27.6-.07.45-.4a.27.27 0 00-.11-.1c-.75-.51-1.07-1.24-.58-1.8.23-.26 1.42 0 2.17 0h.33c-.11-.09-.35-.23-.32-.28 1-1.68.41-2.1-1.86-3.1-2.95-1.3-6.11-2.41-8.67-4.21L25 16.55l.37 1.05c.45 0 .92.08 1 .52.49 0 .92.13 1 .55 1.55.22 2.73.69 2.62 2.1l.13.12-.17-.09a19.17 19.17 0 01-5.46-2.49 5 5 0 01-2.31-.87c-.76-.43-.34-.66.35-.77l-.53-.54-.55-.07-.21.18c0 .08 0 .16.07.25v.07c.05.17 0 .26-.27.28l-.43-.16A68.66 68.66 0 0012.85 14v.57l.11.11c.11 0 .17 0 .2.1l.74.19.23.12.19.09A66.64 66.64 0 0121 17.57a31 31 0 016.47 3.12c.68.13 1.41.19 1.7.81 1.51.22 2.57 1 4.16 1.67-2.81 0-3.88-.4-4.3-1.58a3 3 0 01-1.69-.77h-.94l.39.44c.15.06.51 0 .36.23s-.36 0-.48-.11A30.38 30.38 0 0120.31 19c-.06-.28.16-.31.45-.29h.86c-2.28-1.43-5.22-1.86-7.71-3zM14.69 13.3A56.24 56.24 0 004.83 10c.87.9 7.48 3.11 9.86 3.3z" />
    <path
        d="M25.41 17.6L25 16.55c-.15-.17-.25-.44-.45-.49-2.1-.58-3.66-2-6-2.22a8.61 8.61 0 002.51 1.34c.46.24 1 .4.89.92l.67.54a.92.92 0 01.66.5c.8-.11 1.24.46 1.9.6a.85.85 0 00.23-.14zM21.41 16.06c-1.32-1-3.1-1.31-4.74-1.86 1.09 1 2.74 1.28 4 2l.34.09h.15z" />
    <path
        d="M21.05 16.27l-.34-.09-.12.5.43.16.27-.28v-.08zM18.6 13.84l-.18-.1.14.13zM174.44 28.94c-.71-.08-1.84.4-1.77-.75-1.19.77-2.33.18-3.27-.25-1.44-.66-2.17-.54-2.45.73-.08.35-.33.25-.57.28a33.89 33.89 0 00-7.63 1.75c-.32.1-1 .4-1.05.14-.34-1.06-1.17-.4-1.78-.36-1.39.1-2.78.25-4.16.37-.61 0-1.35-.33-1.8 0-1.36 1-3.07.8-4.67 1 0 .36.66.07.68.48-1.2-.16-2.58 1-3.6-.39a1 1 0 00-.59.11c-.82.65-1.8.45-2.82.44-1.85 0-3.67-.28-5.5-.39-3.8-.21-7.49.82-11.38.37-2.68-.3-5.46-.35-8.21-.46a2.34 2.34 0 01-2-.25 31.4 31.4 0 01-6.14-.44 2.14 2.14 0 00-.94 0c-.32 1-1.43.5-1.8.34-1.63-.68-3.25.19-5-.14a40.17 40.17 0 00-4.36-.15c-2.45-.14-5-.73-7.32-.5-3 .29-5.79-.23-8.67-.39H77c-2.14.1-4.29 0-6.43-.08a70.71 70.71 0 01-7.42-.4h-.3c-.13.21-.25.19-.37 0h-.27c-3.14-.14-6.31.12-9.44-.25-3 .07-6.1-.65-9.12.12a58.21 58.21 0 007.8.9 1.52 1.52 0 01.91.25c1.93-.68 3.85.1 5.78 0 .9-1.08 1.77.06 2.65 0 4.87-.11 9.7.26 14.54.59 2.31.16 4.63.13 7 .19a15 15 0 012.69.57c2.33.49 4.65-.55 6.83.07 2.61.75 5.3 0 7.89.57.89.19 1.73-.39 2.69-.22a65 65 0 009.16.75c1.64.06 3.33-.31 4.94-.15 2.13.21 4.27.32 6.4.49.43 0 .88.31.37.58-.8.43.24 1.07-.44 1.44.64 0 1.35.45 1.92-.26.22-.27.53.36 1 .24.12-.67.83-.94 1-.26.25.92.64.48 1.18.35a16 16 0 011.71-.28c.27 0 .76 0 .65.17-.81 1.41 1 1 1.62 1.34l.54-.26a8.16 8.16 0 00.45-1c.15-.46.52-.59 1.06-.43a1.19 1.19 0 001 0c2.6-1.5 5.47-.7 8.27-.55.32 0 .66.23 1 .19 1.44-.2 2.26 0 2.05 1.33-.13.8 1.46.42 1.71 1.09 1.53-.38 2.55 1.29 4.16.59.62-.27 1 .3 1.37.41 2.07.56 3.07-1.48 5-1 .6.16 1.37 0 1.67.59a.9.9 0 00.28.26c1.86-.89 2.82.63 4.24.91a8.87 8.87 0 00-4.26-3.24.65.65 0 01-.65-.24c-1.16-.49-2.79-.1-3.65-1.08a5.55 5.55 0 00-3.29-1.48c-.55-.11-1.21-.11-1.4-.73l.71-.13a39.6 39.6 0 0113 .91 21.46 21.46 0 017.22 3 .53.53 0 01.68.26c.22 0 .36.07.34.26.9-.09 1.25.66 2 .77-.05-.68 1.64-1.59-.46-2-.14 0-.32-.35-.28-.39.77-.6 1.45-1.54 2.51-1.55a1.8 1.8 0 011.61 1.63 24.28 24.28 0 01.12 5.18c.92.73 1.19 1.74 1.91 2.55 1.12.63 1.19 1.73 2 2.49l.37.33.33.27c.37.18.71.37.7.76l.37.27.36.28.62.05c1.51-.34 1-1.33 1.15-2.09a6.48 6.48 0 01-2.78-1.81c1.23.06 1.65.75 2.43.93a2.41 2.41 0 00-1.42-1.77c-.43-.19-.28-.79-.5-1.2-.56-1-.4.63-1.24.11-1.36-.84-2.85-1.48-3.11-2.92a20 20 0 01-.48-5.76c0-.29.16-.8.31-.82 1.23-.11.81-.88 1.05-1.38-.93-.25-.21-.46 0-.68l.3-1-.31-.21-1.93.05-1 .07v.41c-.11.69-.54.65-1.12.29a3.26 3.26 0 01-2.51-.78z" />
    <path
        d="M136.18 40c-2.24.66-4.63.46-6.94.7-1.64.17-3.28.4-4.94.48a13.23 13.23 0 01-2.94-.25c-.7-.13.32-.44 0-.68-.63 0-.88.63-1.61.56a1.18 1.18 0 00-1.25.69c-.16.42.78.38.87.62.46 1.39 1.37.7 2.52.58 1.37-.16 2.84.14 4.25-.23.12 0 .42 0 .44.09.43 1.28 2.07 1 3.14 1.25 2 .52 4.15.46 6.07 1.1 2.55.86 5.27.8 7.91 1.12 1.34.17 2.79-.16 4.07.4a.57.57 0 00.8-.45c0-.87.76-.63 1.38-.56a21.12 21.12 0 004.36-.39c.93-.07 0-1 .25-1.55.1-.26-.42-.24-.87-.11-.93.27-1.43-.4-2.26-.85.69-.19 1.22-.61 1.74-.32s.54-.14.77-.26c.46-.26.08-.39-.12-.58a2.09 2.09 0 00-1.28-.55c-3.89-.31-7.69-1.23-11.69-.81a19.93 19.93 0 01-3.66-.27c-.19.32-.61.27-1.01.27zM209.76 44.68h-.53l-.48.11c-2.51.16-4.6 1.16-6.78 2 1 .9 2.3.35 3 0 2.36-1.19 4.83-.86 7.37-.51-4.35.42-8.6 1.26-13 1.5.7-.39 1.9-.09 2.11-1-.11-.14-.22-.27-.32-.41-2.14.19-4.3 0-5.82-1.15-.95-.75-2.37-.27-3.14-1.12a10.57 10.57 0 00-4.73-3 6.17 6.17 0 00.05 3.41c.42 1.11 0 2.14 0 3.21 0 .08.05.22.11.23 2.29.52 4.37 1.68 6.84 1.54.94-.06 1.44.05 1.89.59 3.33 0 6.43-.89 9.64-1.37 1.1-.16 2.21-.22 3.3-.32 1.67-.15 2.9-.9 4.35-1.34a1.83 1.83 0 00.92-1.07v-.48a4.9 4.9 0 00-2.65-.56 3.65 3.65 0 01-2.13-.26zm-20.91 1.48l-.14-.14.19.1.13.13zm1.05.47c1.75 0 3.12.72 4.63 1.21a13.45 13.45 0 01-4.65-1.19l-.15-.12zM177 47.93c.1-.57.44-.32.92-.25.86.12 1.8 1.24 2.69 0 .13-.18.65.46 1.24.15-.66-.58-1-1.19.56-1.4-.65-.38-1.33-.11-1.75-.47-.25-.2-.83-.47-.36-.69 1.58-.74.4-1.21-.21-1.75a.84.84 0 01-.37-.69c-.85-.43-1.89-.8-1-1.79-1-.18-.9.65-1.64 1.11a6.57 6.57 0 00-1.44-3.92 4 4 0 01-2.41-.48 1.75 1.75 0 01-1.39-.56 1.76 1.76 0 00-2.25-.23c-.07 1.63 2.23 1.24 3.27 2.2A3.69 3.69 0 00170 42c0 .34.14.55.57.8 1.16.67 2.83 1.22 2 2.77-.15.26.24.43.59.49a10.31 10.31 0 014 1.83z" />
    <path
        d="M170 42a3.69 3.69 0 012.92-2.93c-1-1-3.34-.57-3.27-2.2-.13-.06-.45.12-.38-.18l.37.19a1.76 1.76 0 012.25.23 1.75 1.75 0 001.39.56c0-.27.07-.54.1-.81-.26 0-.38-.06-.34-.26-.34.08-.59 0-.68-.26-.69.07-1.12-.44-1.76-.46-.79.21-1.11-.37-1.66-.57-2.55-.35-4.9-1.18-7.37-1.73-1.61-.34-3.17-1-4.87-.7.25.9 2.18-.38 1.83 1.15-.17.78 1.53.94 1.21 1.84a.65.65 0 00.65.24c.43-.21.75-1 1.38-.15.17.24.22.11.43 0 .91-.57.46.23.64.4a7.63 7.63 0 003.16 2.31c1.25.55 2.54 1.2 1.9 2.6a2 2 0 002.1.73zm-10.31-8.21l-.28-.1c.09 0 .17-.11.26-.11a1.13 1.13 0 01.28.09zM93.23 42.59c4.44 1 8.86 1.95 13.32 2.88.81.17 1.75.61 2.59 0-.09-1-1.09-1.16-2.13-1.31-1.34-.18-2.73 0-4-.65-1.64-.78-3.69-.65-5.45-1.21 0 0-.14.06-.14 0-1.17-1.09-3.32-.51-4.3-1.12-1.42-.89-2.64-.38-3.94-.49.82 1 2.2 1.29 3.42 1.81zM113.7 47.15c1.31-.16.48.45.47.76l.1.07c.63 0 .92-.83 1.81-.46-.65.84-2 1.27-2.57 2.49l2.69-1.57c-.08 1-1.75 1.11-1.66 2 1.92-.68 2.39-2.31 3.79-3.32.3-.7-.49-.66-.78-.48-.9.56-1.33.06-1.9-.31-1.27-.85-2-.77-2.84.28z" />
    <path
        d="M118.33 47.16c-1.4 1-1.87 2.64-3.79 3.32l-.32.25c0 .15-.11.24-.32.24v.26l.3.49h.36a.66.66 0 01.69-.27c0-.36.22-.53.69-.53 0-.16.13-.26.36-.26-.06-.36.25-.45.63-.48a1.66 1.66 0 001.39-.83c-.08 0-.24-.05-.25-.09s.11-.18.28-.15l.08-.21.22.16a.82.82 0 00.75.88V50l.08-.37.22.17 1.77-1.36-.44-.77c-.67.26-1 .95-1.88 1-.11-.58.74-.74.84-1.21zM162.86 36.41c-.18-.17.27-1-.64-.4-.21.13-.26.26-.43 0-.63-.86-.95-.06-1.38.15a8.87 8.87 0 014.26 3.24h-.11c.3 0 .43.13.4.35a.7.7 0 011 .37 2.31 2.31 0 002 1.1c.64-1.4-.65-2.05-1.9-2.6a7.63 7.63 0 01-3.17-2.28l-.14.07zM130.88 47.91c.93-.13 1.2.64 2.14.69 1.38.09 2.79-.4 4.17.18.8.35.63-1.05 1.61-.64 0-.63-.71-.37-1.13-.48-2-.57-4-.25-6.08-.23a.75.75 0 00-.71.48zM174.59 50.74c1.49 1.1 1.84 1.1 2.82 0-.13-1.17-.13-1.17 2.18-1-1.38-.55-2.45-1.07-3.6-1.4-.55-.16-1 .42-.73.72.65.83-.03 1.22-.67 1.68zM187.45 47.64c.08-1.07.46-2.1 0-3.21a6.17 6.17 0 01-.05-3.41c-1.15.71-.29 1.69-.6 2.51-.12.34.54 1-.61.95-.78-.18-1.2-.87-2.43-.93a6.48 6.48 0 002.78 1.81c.89 1-.09 2 0 3 .83.01.55-.56.91-.72z" />
    <path
        d="M121.37 48.44l-1.77 1.36-.3.2v.06c-.22.47-1.26.53-1.06 1.21a13.15 13.15 0 003.11-1.93c.39-.26.58-.76 1.29-.63-.06-.23 0-.6-.2-.68-.44-.2-.68.3-1.07.41zM128.78 37.72c-.52.08-1.32-.27-1.28.28s.83.72 1.45.8c.27 0 1-.12.8-.55-.12-.25-.2-.96-.97-.53zM88.82 38.21c.45-.46-.13-.81.38-1.09s.51-.62.06-.84-.92.15-1.29.36c-.73.43 0 .42.29.62s.34.55.56.95zM141.12 37.22c.7.21 1.36.14 1.66-.42.2-.35-.37-.45-.62-.33-.6.29-1.8-.14-1.82.72-.02.5.5-.32.78.03zM113.7 47.15l-.89-.5h-.67c-.54 0-1.25-.52-1.55.2s.52.49.93.6h.61zM119.89 47.42c-.1.47-1 .63-.84 1.21.91 0 1.21-.7 1.88-1l.34-.38c-.57-.7-.94-.04-1.38.17zM180.78 43.06c-.72-.81-1-1.82-1.92-2.55l-.12.49a4.4 4.4 0 011 1.79zM132.41 37l-.54.26c-.05.28.16.48.4.66s.63.42 1 .13.2-.61-.27-.8zM109.7 45.59a4.87 4.87 0 002.49.54v-.5c-.77-.22-1.74-.09-2.27-.86zM115.4 35.88c0 .32.3.45.67.41s.7-.11.68-.42-.35-.44-.69-.44a.58.58 0 00-.66.45zM60.79 31c-.88 0-1.75-1.1-2.65 0 .86-.22 1.76.64 2.65 0zM132.21 47.07c.37 0 .55-.08.43-.33s-.19-.52-.6-.49a.52.52 0 00-.56.51c0 .42.52.15.73.31zM136.18 40c.4 0 .79.09 1-.27-.51-.32-.89-.33-1 .27zM184.16 46.91c0-.39-.33-.58-.7-.76.02.37.25.62.7.76zM92.81 33.7a1.15 1.15 0 00.26.09.79.79 0 00.26-.08.6.6 0 00-.25-.1.85.85 0 00-.27.09zM99.23 41.93h.1l.09-.12h-.13c-.03 0-.04.09-.06.12zM112.19 45.63l.43-.11a.73.73 0 00-.09-.09l-.36.18zM89.21 40.5l.25-.27-.12-.07-.16.32zM185.43 47.45l-.62-.05a.78.78 0 00.69.27.9.9 0 00-.07-.22zM177.05 47.93l.35.19c.11-.31-.24-.13-.36-.19zM79.39 37.68l.14-.06-.13.07zM125.69 35.89l.08.11-.08-.11zM165 39.8c0-.22-.1-.34-.4-.35.09.12.22.24.4.35zM183.15 45.88l-.37-.33zM183.45 46.13l-.33-.27zM184.5 47.16l-.37-.27zM184.83 47.42l-.36-.28zM121.3 47.28l-.34.38a.34.34 0 00.34-.38zM185.5 47.67l.14.12v-.07a.69.69 0 00-.13 0zM151 9c-1.26 0-1.9-.82-2.8-1.28s-2-1.06-3-1.61c-.46.6-.27.94.22 1.26q4.54 3 9.07 6c1.68 1.12 2.59 2.78 4.51 3.74a3.62 3.62 0 001.45.57c.8-.55.19-1-.26-1.36-1.59-1.32-3.21-2.61-4.81-3.91-.41-.34-1-.58-1-1.12-.34 0-.66-.09-.78-.38 0 0 .06-.09.1-.09.41 0 .55.22.73.43a2.77 2.77 0 01.72.28c1.93 1.66 4.51 2.75 6.53 4.33a4.35 4.35 0 002.53 1.05c-.43-1.05-2.24-1.36-2.36-2.57l-.09-.1.08.11c1.31.26 1.93 1.19 2.94 1.74.33.18.82.49 1.19.2s-.21-.56-.45-.79c-.7-.69-2-.92-2.41-1.85-.24-.07-.52-.1-.54-.35 0 0 .06-.07.09-.1l.59.33a15.62 15.62 0 013.88 2.47c.26.18.55.58 1 .31s0-.61-.29-.86-.64-.48-.95-.72l-3.69-2.8a12.27 12.27 0 015.45 2.83 6 6 0 003.7 2.23c-.57-1.46-2-2.43-3.41-3.39-3.2-2.14-6.84-3.9-9.73-6.34a23.16 23.16 0 00-3.53-2c0 1 1.14 1.36 1.46 2.19-1-.13-1.41-.74-2.11-1-.51-.15-1-.81-1.53-.29s.28.71.68 1a5.06 5.06 0 01.67.72c.15.07.49.07.34.26s-.34 0-.47-.14c-1.26-.35-1.85-1.44-3.23-1.65l-.19.13a2.39 2.39 0 01-2.12-.13c-.38-.15-.64-.46-1.12-.49l-.1.08c.33.87 1.4 1.27 2.08 1.92.37.35 1 .58 1 1.1l.34.25c.27 0 .52.06.56.31 0 0-.05.09-.08.09a.56.56 0 01-.54-.35zm6.49.71l.34.25a1.24 1.24 0 011 .54l.36.24.33.26a2.32 2.32 0 011.69 1.28l.34.25.42.12-.14.14-.33-.21-.34-.26a2 2 0 01-1.7-1.27l-.36-.25-.3-.28a1.08 1.08 0 01-1-.5l-.34-.25-.3-.28A1 1 0 01156 8.8c-.09-.07-.27-.12-.07-.23l.21.12c.72 0 1 .3 1 .81zm5 1.56l.33.26a.61.61 0 01.13 0v.08l-.18-.11-.34-.25-.14-.13zm-10-1.4a1.88 1.88 0 01.12.18s-.07 0-.1.08a.8.8 0 01-.13-.19.42.42 0 01.15-.05zM136.5 6.69c-.37 1.47 1.21 2.08 2.36 2.75 1.69 1 3.2 2.12 4.89 3.09 3.75 2.12 6.85 4.82 10.71 6.83a4.71 4.71 0 00.85.18 8 8 0 00-2.2-2.41A45.88 45.88 0 00145 11.7a8.12 8.12 0 01-3.3-2.64 1 1 0 00-.33-.29 33.64 33.64 0 00-4.87-2.08zM116.6 16.4a60 60 0 00-6.52-4.48 1.46 1.46 0 00-2 .21c-.23.34 0 .9.8 1.33a36.62 36.62 0 016.42 4.41 3.41 3.41 0 01-2.56-.82c-1.76-1.23-3.88-2.11-5.42-3.57a17.31 17.31 0 00-3.57-2c-.3-.15-.65-.28-.87 0s0 .56.38.73c3.4 1.6 6.06 3.82 9 5.85.64.45 1.6 1.47 3 .68 1-.53 1.22-1.05.28-1.72l-3.9-2.72c2.29.36 2.93 2.1 4.89 2.12zM111.83 10.79a1.4 1.4 0 00.57 1.28c2.76 1.93 5.6 3.82 8.6 5.53.35.2.67.49 1.26.15-1-1.33-3.15-1.95-4.06-3.66 2 .72 2.94 2.28 5 2.41l.18-.14c-2.59-1.85-5.19-3.69-7.77-5.54-.32-.23-.77-.41-1-.23-.77.5.6.68.34 1.2-1.29.18-2-.7-3.09-1zM133.16 18.18a10.58 10.58 0 00-4.24-3.27 6.35 6.35 0 01-2-1.35c-1.4-1.64-3.57-2.55-5.59-3.62a.61.61 0 00-.84.08c-.34.39-.07.59.33.84 2 1.24 3.89 2.52 5.87 3.75a35.45 35.45 0 006.35 3.64zM95.19 16c.06.47.71.65.92 1-.69.61-1.23.37-2-.05-.41-.24-1-1.57-1.77-.15l-2.07-.73-.2.15a23.12 23.12 0 004.31 3 2.43 2.43 0 002 .46c.84-.34 1.08-.94.74-1.64-.24-.08-.64-.22-.5-.36.32-.3.45.11.66.21.41 0 .8.54 1.17.13s-.23-.59-.54-.69c-.97-.33-1.37-1.33-2.57-1.47zM116.56 9.76c.47 1.39 2 2.12 3.26 3 1.53 1.09 3.4 1.91 4.61 3.25.44.48 1.07.36 1.67.37-.16-.44-1.1-.42-1-1a35.21 35.21 0 00-4.94-4.05c-1.1-.82-2-1.58-3.55-1.6zM101.6 13.68a64.93 64.93 0 006.61 4.49 2.71 2.71 0 001.17.46c.6.05 1.09-.18 1.11-.72s0-.82-.83-.41c-.33.16-.75-.1-1-.33-1.31-1.29-3.24-2.07-4.68-3.25a3.22 3.22 0 00-2.18-.4zM76.69 20c-1.37-.06-2.06-1.13-3.37-1.27-.07.58.93.9.67 1.54l.17.09h-.09l-.07-.1c-1.18-.42-1.68-1.57-3.27-1.59a17 17 0 004.73 3.5c.66.29.47-.35.55-.62l-.34-.25-.33-.3-.44-.12.09-.1.36.21.34.25.34.26c.67-.06 1.24.84 1.73.37s-.18-1.05-.72-1.48a2 2 0 01-.34-.39z" />
    <path
        d="M76.7 20a1.28 1.28 0 011.23.51 6.07 6.07 0 003.2 1.49l.31-.27-6.61-4.51c.07 1.45 1.7 1.81 1.86 2.81zM63.18 21l-1.52-.29a21.72 21.72 0 004.62 3.57c.29.15.88.4 1.15-.08s-.24-.58-.59-.65c-1.64-.29-1.15-1.61-2-2.29l-.3-.26-1.35-.26V21h.12c.03 0 0 0 0 .07zM76.7 17a22.3 22.3 0 006.57 4.34c-1.96-1.6-3.6-3.51-6.57-4.34zM67.88 19c1 1.67 3.05 2.54 4.74 3.69a.73.73 0 00.9 0c.24-.27-.11-.48-.34-.65-1-.71-1.93-1.41-2.91-2.11-.51-.36-.94-.74-.68-1.38-.7.06-1 .6-1.64.4zM92 19.44a9.45 9.45 0 00-6.23-3.91 25.41 25.41 0 006.11 4zM80 17.21c1.17 1.67 3.29 2.57 5.16 3.67.23.13.57.21.75 0s-.1-.48-.34-.62a28.87 28.87 0 00-5.52-3.08zM129.48 12.53c-.42-.91-1.63-1.22-2.43-1.84s-1.77-.86-2.24-1.65c-.2-.33-.62-.23-1-.07s-.27.43-.1.52c1.9 1 3.11 2.77 5.64 3.15zM96.56 15l5.27 3.7.49-.44a41 41 0 00-5.39-3.59zM85.82 18.22c.18 1.68 2.28 1.78 3.69 2.5a5.36 5.36 0 00-3.69-2.51zM126.32 16.4c.17 1.48 2.05 1.54 3.2 2.21a6 6 0 00-3.13-2.49c-.02.09-.05.19-.07.28zM162.32 2.53a4.24 4.24 0 001.73 1.34.83.83 0 00.95.13c.16-.12.16-.39.17-.6s-.22-.51-.61-.47a7.43 7.43 0 01-2.24-.4zM97.25 13.13c.13.51-.25 1.17 1.19 1.07.69 0 1.2 1 2.14 1.28a2 2 0 00.21-.19A7 7 0 0097.37 13zM64.26 25.2h.6a6.11 6.11 0 00-3.26-2.41.87.87 0 00-.21.17c.61.96 1.93 1.47 2.87 2.24zM61.6 22.76c-.08-1.27-1.89-.87-2.53-1.61.38.92 1.36 1.33 2.32 1.78a.87.87 0 01.21-.17z" />
    <path
        d="M85.82 18.21A5.14 5.14 0 0083 16.43c.78 1.06 1.41 1.77 2.83 1.79zM104.47 17.65a6.23 6.23 0 00-2.67-1.82l-.21.19a4.81 4.81 0 002.75 1.73zM131.13 9.48a3.75 3.75 0 00-2.52-1.31c.85.76 1.32 1.38 2.45 1.36zM153.39 4.13c.37.49 1.09.77 1.4 1.29.27-.84-.22-1.27-1.39-1.3zM131.77 20.26c-.11-.64-.67-1-1.6-1.31a1.67 1.67 0 001.6 1.31zM126.32 16.4c0-.09.05-.19.07-.28-.29-.39-.89-.47-1.33-.71-.06.57.88.55 1 1h.22zM133.07 18.25a1 1 0 001.06.73c0-.51-.38-.72-1-.8zM171.74 5.83a1.16 1.16 0 00-1-.75l-.18.14a1.33 1.33 0 001 .77 1.56 1.56 0 00.18-.16zM134.13 19c0 .48.37.74 1 .79h.05c-.08-.47-.38-.75-1-.75zM57.44 22.05a1.86 1.86 0 001.28.82l.12-.09a2 2 0 00-1.41-.72z" />
    <path
        d="M101.8 15.83a1.64 1.64 0 00-1-.54 2 2 0 01-.21.19 2 2 0 001 .54zM58.72 22.87a.69.69 0 00.7.5l.11-.09c-.07-.29-.32-.44-.69-.5z" />
    <path
        d="M60.5 23.84a1.24 1.24 0 00-1-.56l-.11.09a1.14 1.14 0 001 .5zM160.49 17.7a1.07 1.07 0 00.68.51c0-.35-.23-.51-.68-.51zM139.15 17.49l.7.49.08-.06c0-.31-.25-.48-.64-.54zM92 16.06l.16-.18-.37-.16c0 .07-.09.16-.06.21a.85.85 0 00.27.13zM57.78 23.85c0 .33.23.5.66.52l-.68-.51zM116.89 16.69l.1.31.18-.08-.25-.25zM79.75 16.93l-.37-.19-.09.1.44.1zM111.16 10.53a.78.78 0 00.67.26.84.84 0 00-.68-.25zM56.43 23.08l.34.19c.1-.29-.24-.11-.35-.19zM141.46 7.29a.82.82 0 00.72.28.79.79 0 01.17-.2.69.69 0 00-.66-.24 1.88 1.88 0 00-.23.16zM105.26 18.31l.09-.09-.2-.07v.11c0 .03.07.04.11.05zM168.88 4.17c.13.12.35.3.49.14s-.18-.2-.35-.25zM107.78 11.3l-.24-.16-.08.11.32.05zM107.78 11.3l.07.1-.07-.1zM97.37 13h-.24l.12.18zM101.46 13.27c-.08 0-.19-.13-.23-.11-.21.1-.07.18 0 .25zM101.81 13.52l-.35-.25-.18.14.32.26zM110.82 10.27l.34.26-.34-.26zM110.82 10.27l-.34-.25.33.25zM95.34 15.86l-.23-.08c0 .07.06.13.08.19zM90.32 16.08c-.08 0-.2-.13-.23-.12-.21.1-.07.19 0 .27zM110.48 10l-.07-.1.08.1zM123.23 16.5c.07 0 .18.12.22.11s0-.17 0-.25z" />
    <path
        d="M116.92 16.67l-.32-.27-.07.05.36.24zM131.81 10l-.35-.25h-.05l.32.26zM73.32 18.73l-.07-.09h-.08l.15.1zM116.57 9.76l-.14-.11v.06a.27.27 0 00.11 0zM131.46 9.74l-.33-.26h-.07l.35.25zM79.73 16.94l.32.27-.34-.24zM59.67 25.49l-.21-.36zM59.13 24.87l.34.26-.33-.26zM59.13 24.87l-.34-.26.35.25zM58.44 24.37l.34.25-.33-.25zM60.8 24.12l.17.11a1.85 1.85 0 00-.14-.14z" />
    <path
        d="M60.46 23.87l.34.25-.33-.25zM57.78 23.85l-.16-.1v.07h.13zM56.42 23.08l-.07-.1.08.1zM104.34 17.75l.25.09-.12-.18zM179.87 7.89l-.35-.27-.22.19.34.23zM57.43 22.06l-.12-.06v.06h.11zM141.13 7l.33.27a1.88 1.88 0 01.23-.16l-.36-.26z" />
    <path
        d="M141.33 6.87l-.33-.11.12.26zM136.16 6.43l.34.26-.34-.26zM136.16 6.43l-.34-.25.33.26zM151.47 6.36l-.35-.26-.18.14.34.25zM171.88 6.25l.35.09-.14-.24zM135.49 5.92l.34.25-.33-.26zM151.12 6.1c-.07 0-.19-.12-.22-.11-.21.09-.06.17 0 .25z" />
    <path
        d="M172.09 6.1l-.35-.27a1.56 1.56 0 01-.2.16l.34.26zM135.49 5.92l-.08-.1.08.1zM148 5.87l-.23-.09.13.17zM170.2 5l.33.26.18-.14-.35-.25zM170.36 4.83c-.1-.07-.19-.2-.33 0s.11.11.17.17zM153.4 4.12l-.07-.12.06.1zM63.18 20.77l-.14-.1v.06l.11.05zM91.86 19.53l.23.1-.09-.19zM67.56 18.73l.32.28L68 19l-.36-.24zM169 4.06l-.34-.25-.15.1.35.25zM67.59 18.71l-.16-.09.13.11z" />
    <path
        d="M168.68 3.81l-.26-.08a1.74 1.74 0 01.11.18zM113.87 32c2.75.11 5.53.16 8.21.46 3.89.45 7.58-.58 11.38-.37 1.83.11 3.65.36 5.5.39 1 0 2 .21 2.82-.44a1 1 0 01.59-.11c1 1.36 2.4.23 3.6.39 0-.41-.69-.12-.68-.48 1.6-.2 3.31 0 4.67-1 .45-.32 1.19.06 1.8 0 1.38-.12 2.77-.27 4.16-.37.61 0 1.44-.7 1.78.36.08.26.73 0 1.05-.14a33.89 33.89 0 017.63-1.69c.24 0 .49.07.57-.28.28-1.27 1-1.39 2.45-.73.94.43 2.08 1 3.27.25.31-.15.86-.16.8-.54s-.54-.26-.83-.33a6.67 6.67 0 01-2.91-1c-.41-.35-1 0-1.77 0 .45-.71.9-1.44-.71-1.21l-.13.05.12-.05.2-.83a43.21 43.21 0 00-8.84 1.42c-.45-.18.49-.62 0-.92-.06 0-.21-.08-.25-.05a4.64 4.64 0 01-2.77.68c-1.14 0-2.32.07-2.88 1.09a1.06 1.06 0 01-1 .54c.33-1-.67-1.68-2.35-1.31-1.07.23-2.57-.18-3.2 1-.08.16-.21.1-.38 0a4.5 4.5 0 00-3.89.05c-.38.15-.63-.05-.93-.14a3.43 3.43 0 01-3.7.82 4.37 4.37 0 00-2.77-.33 1.56 1.56 0 00-.69.3c-.19.18.82.8-.38.59 0 0-2-.12-.57-1 .07 0-.42-.66-.7-1a.38.38 0 00-.57.05c-.25.35-1 .65-.61 1.1 1.08 1.27-.39.89-1 .94s-1.18-.22-1.9.12-1.32.19-1.19 1c.1.64-1.49.53-1.47 1.38 0-1-1.92-1.32-1.2-2.48.08-.12-.37-.27-.67-.18a6.24 6.24 0 00-.76.28c-2.69 1.15-2.69 1.15-6 .91.88-.55 1.95 0 2.75-.42-.69-1.49-2.07-1.48-3.67-1a1.36 1.36 0 01-1.38-.15 1.21 1.21 0 00-1.59-.09 1.15 1.15 0 01-1.46-.26c-.82-1-1.56-.7-2.28.06a2 2 0 01-1.9.48c-1.73-.22-3.57-.59-4.82.89-.38.45-.72.08-1-.2s-.65-.79-1.18-.36a2.24 2.24 0 01-2.82.31c-.27-.14-1.4-.86-1.55.33 0 .23-.61.11-.89 0a5.35 5.35 0 00-3.4-.07 7.48 7.48 0 01-3.65-.31c-.17-.05-.36-.13-.42 0-.74 1.57-2.67.68-3.91 1.13-1.45.53-2.67-.14-3.86-.09s-2.38.08-3.59.06a2.35 2.35 0 01-1.71-.65l-.67.32c-.54.73-1.6.4-2.06.25-2.33-.75-4.75-.09-7.09-.41a1.11 1.11 0 00-1.29 1 70.71 70.71 0 007.43.44c2.14.06 4.29.18 6.43.08.23-.23.45-.31.67 0 2.88.16 5.68.68 8.67.39 2.37-.23 4.87.36 7.32.5a40.17 40.17 0 014.36.15c1.72.33 3.34-.54 5 .14.37.16 1.48.67 1.8-.34a2.14 2.14 0 01.94 0 31.4 31.4 0 006.14.44c.56-.48 1.34-.92 1.78.19zm24.59-2.63a4.77 4.77 0 00-1.06.13c-1.14.42-1.24-.64-2-.78a.22.22 0 010-.42c.62-.27 1.16.13 1.76.16a1.35 1.35 0 011.3.91zm14.62-.74c-.52-.12-1-.33-1-.75s.49-.61.9-.6c.56 0 1.17.31 1.19.7s-.65.48-1.09.65zm-28.48 2.88a7 7 0 013.94 0 9.78 9.78 0 01-3.94 0zm-13.4-3.3c.49 0 .66.27.63.6s-.31.42-.69.4-.67-.25-.63-.58.3-.43.69-.42zM186.23 44.48c1.15.05.49-.61.61-.95.31-.82-.55-1.8.6-2.51a10.57 10.57 0 014.73 3c.77.85 2.19.37 3.14 1.12 1.52 1.2 3.68 1.34 5.82 1.15 0-.14-.08-.33.2-.4-.09-.26-.19-.51-.29-.77h-.35a.78.78 0 01-1 .18c-.19-.13.24-.16.37-.24-.08-.2-.1-.53-.25-.57-2.08-.58-2-2.06-2.51-3.31 0-.06-.1-.11-.18-.18l-.35.69a13.61 13.61 0 01-2.23-5.28c1.9.34 3.91.31 5.74 1a2.5 2.5 0 00.93.26c.47 0 .19-.29.13-.47l-.12-.12.16.09c1.17.26 2.27.59 2.67 1.59l.36.22c.54.53-.92 1.06 0 1.58.36-.36 1.85-.17.85-1.22-.36-.38.2-.95 1.18-.6.49.17 1 .69 1.62.27.35-.22.2-.53.08-.82-.24-.56-.65-.72-1.49-.9-1.51-.32-2.42-1.45-3.57-2.26.51-.55 1.3.24 1.66-.36l-.07-.28-.25-.19c-1.33-.3-1.86-1.36-3-1.83-.57.8-1.24 1.33-2.43.54a1.21 1.21 0 00-.64-.13 16 16 0 01-6.3-1.09c-.53-.2-.36-.46-.53-.7-.71-1-2.32-1.36-3.19-2.3a8.4 8.4 0 00-1.61-1.09c-.28.35-1.9-.73-1.22.66 1.17-.22 2.06-.12 2 1 .47.09 1.22-.24 1.28.43 0 .4-.38.58-.88.56-1.27-.07-.16-.68-.38-1a2.59 2.59 0 01-2-1h-1.17c-1.31-.07-3.35.5-2.43-1.57.06-.14-.07-.33-.12-.49l-.37-.24h-.92c.16 1.36-1.9 1.32-2.48 2.25-.15.23-.67-.13-1-.28-1.66-.77-2.36-.47-2.59 1.1a3.26 3.26 0 002.51.78 1.7 1.7 0 011.12-.29v-.41c-.07-.46.41-.77.79-.78s.11.46.22.71l1.92-.13c.14-.13.39-.26.51-.11s-.2.18-.35.26l-.3 1c.24.23.28.46 0 .68-.24.5.18 1.27-1.05 1.38-.15 0-.28.53-.31.82a20 20 0 00.5 5.77c.26 1.44 1.75 2.08 3.11 2.92.84.52.68-1.16 1.24-.11.22.41.07 1 .5 1.2a2.41 2.41 0 011.38 1.77zm-1.77-10.66c-.57-1.73-.57-1.73.09-2.63.41.16.09.79.69.75s.48-.43.39-.79.36-.42.66-.31c1.08.41 2.37.66 2.58 1.79 0 .4.41.48.84.46 1.8-.08 3.44.61 5.28.55a4.48 4.48 0 012.89 1 .87.87 0 01-.86.17 17.48 17.48 0 00-6.21-.71c-2.07 0-3 .73-2.94 2.37.66 1.3.16 2.66.29 4h-.41c-1.63 0-.24-.89-.57-1.27-.9 0-.94-.41-1-.91a9 9 0 01.42-3.74c.13-.42.21-.84-.3-1s-.74.23-.88.59a.51.51 0 01-.72.33c-.16-.08-.13-.38-.19-.58zm13.31 10.54a5.73 5.73 0 01-3.14-.59 23.13 23.13 0 00-2.78-2.33c-.42-.25 0-.67.2-.76.54-.18.38-1 1.07-.8 1.4.39 2.94 1.49 2.8 2.21-.24 1.19.41 1.61 1.85 2.27zM26.34 40.91c.48-.78 1.48-.73 2.35-.88L34.17 38c.16-.35.55-.29.91-.29l.34-.07c.5-1.09 1.74-1.43 3-1.73.45-.44 1.27-.63 1.45-1.25-1.59.2-3.29-.34-4.77.65-.16-.89.65-1 1-1.41l-3.37.52c-.41.83-1.29 1-2.35 1a1.55 1.55 0 01-1 .63c-3.73 1.07-7.12 2.72-10.93 3.65-2.21.54-4.25 1.45-6.54 1.83l-1.14.14c0 .09-.1.13-.22.1a1 1 0 00-.18.07c-.1.23-.3.24-.55.14a5.24 5.24 0 00-1.82.35l-.2.13a.22.22 0 00-.14.08c0 .15 0 .3.07.44l.75-.11a.21.21 0 01.23 0l10.39-2.56c-.92 1.1-2.67.8-3.43 2.06L21 40.7a11.11 11.11 0 013.63-1.28l.36-.25.39-.46c-1.45-.09-2.42 1.1-4 .8a19.92 19.92 0 014.92-1.65c1.92-.84 3.66-2 6.15-1.73.25-.27.47-.62 1.15-.3l-1.13.33a20.85 20.85 0 01-7.37 3.11l-.35.25A11.31 11.31 0 0121 41.19c-.78.27-1.66.43-2.08 1.09 1.65 0 3.12-.69 4.77-.65l1-.2c.06-.34.28-.46.7-.31zm-7.09-.66l-.07-.06.09.05c.11 0 .37 0 .12.19z" />
    <path
        d="M201.35 37.18c.06.18.34.44-.13.47a2.5 2.5 0 01-.93-.26c-1.83-.69-3.84-.66-5.74-1a13.61 13.61 0 002.23 5.28l.35-.69c.08.07.16.12.18.18.5 1.25.43 2.73 2.51 3.31.15 0 .17.37.25.57l.63.06c0-.46.66-.94-.24-1.38 2.22.05 3.85-1.09 6.34-.92-1.57-1-3.14-.59-4.38-1-.87-.1-.81-.87-1.44-1.13.51-.56-.8-1-.12-1.6a2.73 2.73 0 012.58-.47l.63.17c-.4-1-1.5-1.33-2.67-1.59zM16.57 37.58l-1.1.39c-.11.19-.31.22-.55.18l-.11.06.37.32 5-.87a72.65 72.65 0 01-9.72 2.87v.31l1.45-.2c2.37-.61 4.75-1.22 7.11-1.85a6.7 6.7 0 002.9-1.14c-.35-.18-.88.22-1.1-.14-.12-.19.31-.26.53-.36a27.39 27.39 0 016.44-1.62l-1.15.69c1.57-.27 2.54-.9 3.75-.84a3 3 0 012.35-1c1.33-.52 2.66-1.05 4-1.56.25-.1.53-.15.49-.53-.58.17-1.23.45-1.69-.23 1.09-.64 2.86-.18 3.83-1.35-3.22-.39-6.28.19-9.35.34-.3.4-1.11.27-1.32.75a9.85 9.85 0 012.06-.23c.86.1-.1.32 0 .5 1.47.13 2.61-.88 4.6-.68-2.09.64-3.67 1.3-5.55 1.27a3.8 3.8 0 01-2.35.45l-.21.21a4 4 0 002.13-.07c.64-.2.46.12.36.36l.77.1c-.06.09-.1.24-.2.27-.47.15-.52-.12-.57-.37-.27 0-.54 0-.68.26a.42.42 0 01.12 0v.06l-.14-.1c-1.19-.35-.28.82-1.24.93-1.28.16-2.5.69-3.84.82a54 54 0 01-7.15 1.9zm18-4.71c0-.07.06-.17.12-.2s.18 0 .28 0l-.14.26zM212.87 40.75c.22-1.08-.61-2-.52-3.17.1-1.36 1.28-2.55.84-3.91-.24-.77.73-1.85-1-2.25 1.53-1.11-.33-2.16-.11-3.3.41-2.13-1.77-3.43-3.33-4.89-.07-.07-.3 0-.46-.05-.2 1.06.62 1.87 1.27 2.9-1.37-.15-2.28-.82-3.43-.72 0 .1-.07.21-.11.31 3.1 2 4.62 4.82 6.23 7.55.41.69-.21 1.08-.92 1.27a1.38 1.38 0 00-1.21 1.72c.12 1.12 0 2.28 1 3.23.59.49.69 1.26 1.75 1.31zM201.41 32.32c1.16.47 1.69 1.53 3 1.83-.28-1.31-2.08-1.79-2.76-2.89-1.26-2-4.07-2.47-6.31-3.46-.69-.31-1.6-.39-2.13-.91s-1.23 0-1.92-.11c-3.59-.66-7.25-1.12-10.89-1.63a7.34 7.34 0 00-1.28.05 1.42 1.42 0 001.36.67h.92l.37.24a34.62 34.62 0 0110 2c3.31 1.28 6.79 2.31 9.64 4.21z" />
    <path
        d="M204.06 38.74l-.63-.17a2.73 2.73 0 00-2.58.47c-.68.55.63 1 .12 1.6.63.26.57 1 1.44 1.13 2.24-.09 2.38-.18 2-1.26-.93-.52.53-1 0-1.58l-.36-.22zM52.77 29.74c3.13.37 6.3.11 9.44.25-.14-.68-.85-.47-1.4-.51l-.14.11v-.06a.42.42 0 01.12 0c.06-.19.31-.56.17-.55-2.7.27-5.64-.61-8.19.76zM197.92 21.84v-.24a37.12 37.12 0 00-8.58-1.52c.42.8 1.12.63 1.65.75 1.69.35 3.38.68 5.06 1.06a4.39 4.39 0 001.65.11zM207.56 44.07h.09c0-.44-.31-.46-.73-.37s-.81.31-1.14-.09c-1.12.37-2.59 0-3.44.94 0 .55.21.67 1 .47 1-.26 1.92-.88 3.12-.68.22-.41.67-.34 1.1-.27z" />
    <path
        d="M206.44 44.33c-1.2-.2-2.1.42-3.12.68-.77.2-1 .08-1-.47l-1.3.6c.1.26.2.51.29.77s.39.42.62.3c1.44-.73 3.21-.98 4.51-1.88zM203.57 24.17l-4-1.82a.62.62 0 01-.57-.26h-.88a7.89 7.89 0 003 1.7A9.94 9.94 0 01203.4 25l.82-.13-.41-.53-.24-.14zM73.59 29.18l.67-.32c.3-.48 1.5-.57 1-1.37-.26-.41-.8-.49-1.26-.49-.83-.1-1.29.64-.92.81.92.41-.08 1.04.51 1.37zM197.65 24.37c-.78.09-.9.52-1 1.15l2-.9c-.19-.32.71-.75-.08-.93-.49-.11-1.1 0-.92.66l.07.12z" />
    <path
        d="M204.22 24.86l-.82.13c.53.41 1 .83 1.6 1.24.26.19.53.51 1 .28s.11-.54.09-.82c-.86-.01-1.23-.59-1.87-.83zM205.78 43.6c.33.4.74.17 1.14.09s.76-.07.73.37a2 2 0 001.61-.45 4.61 4.61 0 00-3.48-.01zM198.67 24.62c.13.4.26.95.94.77a.87.87 0 00.59-1.39c-.27.67-.91.61-1.53.6zM68.45 27.23c.83-.09 1.76.08 2.48-.66a5.76 5.76 0 00-2.48.66zM27.35 23.33l-1.13.1c.35.53 1 .38 1.47.43-.11-.17-.22-.33-.34-.49zM27 22.84l.34.49h1a2.44 2.44 0 00-1.34-.51zM140.9 26.66c-.28-.41-.62-.53-1.16-.05l1.14.07zM196.5 26.22l-.12-.21c-.09 0-.23 0-.25.1s.06.13.1.2zM37.14 24.64l.45.33.14-.16-.54-.21zM36.16 33.85l.72-.12s-.05-.09-.09-.09a.55.55 0 00-.64.19zM26 22.59l.35.31.65-.06a1.27 1.27 0 00-1-.25zM124.28 23.66v.09a.58.58 0 00.14 0v-.09a.58.58 0 00-.14 0zM39.86 34.62c.32.05.62.05.71-.26zM205.51 34.93h.11c.01 0 0-.07.06-.1h-.2zM204.68 34.34l.07.28c.34-.15.25-.23-.07-.28z" />
    <path
        d="M40.54 34.37h.35a.22.22 0 00-.35 0zM62.48 30c.12.19.24.21.37 0zM30.41 25.38l-.08-.1.07.11zM197.92 21.84l-.26.16.52.06zM172.3 16.94a6 6 0 01-3.7-2.23 12.27 12.27 0 00-5.45-2.83l3.69 2.8c.31.24.64.47.95.72s.74.55.29.86-.69-.13-1-.31a15.62 15.62 0 00-3.88-2.39l-.14.12c.39.93 1.71 1.16 2.41 1.85.24.23.92.41.45.79s-.86 0-1.19-.2c-1-.55-1.63-1.48-2.94-1.74.12 1.21 1.93 1.52 2.36 2.57.68 0 1 .26 1 .77.65 0 1.05.23 1 .77a1.29 1.29 0 011.13.46c1.11 1 2.67 1 4.2 1.05 1 0 .46-.56.57-1.18a2.24 2.24 0 002.75.81c-.69-.98-2.36-1.44-2.5-2.69zm-3-.26c.77.45 1.56.9 2.32 1.37.21.13.42.33.22.54a.57.57 0 01-.74 0c-.82-.49-1.64-.98-1.84-1.91zm.48 2.44a2.36 2.36 0 01-1.82-1.43c1.04.31 1.57.73 1.78 1.43zm-3-2.05s.07-.09.09-.09l.25.07s-.07.09-.09.09-.2-.05-.29-.07zM183.13 17.37a60.82 60.82 0 00-12.35-9.13c-.49-.28-.84.27-1.58.06 4.28 3.57 9.41 6.05 13.93 9.07z" />
    <path
        d="M160.48 17.71c.45 0 .68.16.68.51 1-.52 1.68-.56 2.31.37s2.13.74 3.2 1.18c.24-.63-.57-.85-.44-1.3-.46-.16-1-.25-1-.77-.67 0-1-.24-1-.77a4.35 4.35 0 01-2.53-1.05c-2-1.58-4.6-2.67-6.53-4.33a2.77 2.77 0 00-.72-.28h-.05c0 .54.62.78 1 1.12 1.6 1.3 3.22 2.59 4.81 3.91.46.43 1.07.86.27 1.41zM139.29 17.38c.39.06.62.23.64.54 1.25 0 1.72.86 2.53 1.34.4.24.75.61 1.29.46.73-.21-.06-.67.17-1l-.34-.26c-.68-.09-1.27-.3-1.46-.86 0-.07.17-.28.24-.27.77 0 .94.57 1.24 1a.59.59 0 010 .13l.33.25c1.16.17 1.7 1 2.68 1.49V19c-.47 0-.68-.18-.68-.52l-.35-.26-.35-.27c-1-.11-1.45-.87-2.18-1.29-.56-.32-1-.82-1.79-.83l-.18.13c.2.24.58.5.27.78s-.8 0-1.2-.09-.83-.43-1.16-.08c-.08.16.21.54.3.81zM146.63 19c.58-.1.86.36 1.44.42.73-.88.53-1.52-.64-2.17-2.17-1.2-4.23-2.52-6.47-3.69.94 1.77 3.37 2.69 4.33 4.42l.35.27.35.26c.46 0 .7.15.68.52zM178 11.09c2.66 2 5.06 4.24 8 6.06.3.19.65.47 1 .15s-.16-.44-.34-.63a29.68 29.68 0 00-8.49-5.7zM204.22 24.86c.64.24 1 .82 1.83.81 0-.1.07-.21.11-.31a7.55 7.55 0 00-2-1.12l-.34.09c.18.18.26.36.4.53zM177.11 10.22c-.34-.69-1.17-1-2.27-1.54a3.74 3.74 0 002.16 1.64zM138.1 13.67c.17.64.88.71 1.65 1-.35-.66-1-.81-1.51-1.09zM179.64 8l-.34-.23h-.61a1.13 1.13 0 00.22.27c.24.17.5.32.76.48l.17-.13zM199 22.09a.62.62 0 00.57.26c0-.23.2-.55-.27-.62-.21-.04-.25.2-.3.36zM184.13 17.72c-.09.18-.17.27-.16.36s.1.14.19.17c.24.09.28-.07.25-.18s-.14-.18-.28-.35z" />
    <path
        d="M177.81 10.72c-.09-.28-.35-.42-.7-.5l-.13.1a.71.71 0 00.68.52zM181 9.29c0 .2.09.39.42.42 0 0 .09 0 .13-.06l-.47-.42zM194 23.34c.25-.11.35-.27.26-.49 0 0-.08 0-.12-.07-.06.19-.11.37-.16.55zM119.45 23.07l.24-.12a.7.7 0 00-.26-.1 1.06 1.06 0 00-.25.11zM176 7.71l.09.34c.34-.18 0-.24-.1-.34zM149.35 18.79a.34.34 0 00-.12 0v.08l.19-.07zM185.18 12.05l-.32-.27-.11.08.38.23zM184.42 11.6l.33.26.11-.08-.35-.25z" />
    <path
        d="M185.13 12.09l.32.26.08-.06-.35-.24zM184.51 11.53l-.23-.1.14.17zM136.91 12.78l-.33-.26-.14.11.34.25zM136.78 12.88l.33.26a.91.91 0 01.16-.11l-.36-.25z" />
    <path
        d="M137.11 13.14c.09.07.18.2.31 0s-.1-.11-.15-.16a.91.91 0 00-.16.16zM183.4 11.09c.09.08.17.2.31.05s-.11-.11-.17-.16zM138.24 13.56c-.09-.07-.16-.2-.29-.05s.1.1.15.16zM178.15 11l-.34-.25-.15.12.33.25z" />
    <path
        d="M183.54 11l-.35-.25-.13.1.34.26zM183.19 10.73c-.08-.08-.16-.2-.3-.05s.11.1.17.15zM141.32 15.84c-.1-.08-.21-.16-.32 0s.09.11.14.16zM181.12 9.23l-.22-.1.15.16zM180 8.78c.08.07.15.2.29.05s-.1-.1-.16-.15z" />
    <path
        d="M179.67 8.54l.36.24.13-.1-.32-.26zM203.57 24.17zM64.54 21l.33.26c-.01-.14-.12-.26-.33-.26zM200.35 19.75l-.42-.34-.13.16.57.17z" />
    <path
        d="M200.37 19.74l.1.35c.33-.19 0-.24-.12-.34zM171.31 52.29l.43-.09-.12-.13-.33.2zM169.49 53h.2v-.08zM171.29 52.27l-.18.14.2-.12zM201.45 46.72c-.21.93-1.41.63-2.11 1 4.42-.24 8.67-1.08 13-1.5-2.54-.35-5-.68-7.37.51-.72.36-2 .91-3 0zM209.76 44.68a3.65 3.65 0 002.07.18 4.9 4.9 0 012.65.56c.19-.67.14-.84-.71-.94a7.58 7.58 0 00-4.01.2zM207.56 44.07c-.43-.06-.88-.14-1.13.26a1.18 1.18 0 001.13-.26zM208.75 44.8l.48-.11zM214.48 45.59v.31c.01-.1.01-.21 0-.31zM78.44 38.94A225.3 225.3 0 0066.52 36a3.78 3.78 0 00-1.8-.13c-.11.32-.21.63-.31.94.89.34 2.54-.35 2.47 1.12h.05c.54 0 1.17-.47 1.6.18.28.41.62.23 1 0s.87-.23 1 .12c.27 1.1.94.67 1.73.36.44-.17 1.28-.8 1.2.36-.05.67.56.31.91.2a3.78 3.78 0 012.71 0l.08.06c.4.02.95.16 1.28-.27zM68.19 42.54a2.1 2.1 0 011.4.28h.34c0-.19.11-.28.36-.26 0-.19.1-.28.35-.27 0-.19.07-.3.35-.27 0-.2.09-.28.35-.26 0-.2.07-.31.35-.27-.06-.22.07-.3.35-.27 0-.2.08-.29.35-.26 0-.21.08-.3.35-.27v-.31c-.09-.42-.52-.42-.93-.44h-.39c-.62 1.28-2.22 1.72-3.23 2.6zM67.06 39a4.49 4.49 0 00-3.41 1.69c-.14.13-.11.34.11.46s.5.14.59 0c.5-.99 1.97-1.24 2.71-2.15zM93.23 42.59l-.63-.09a8.14 8.14 0 00-1.7 2.09c1.22-.37 2.82-.49 2.33-2zM84.14 42.56c.92-.42 1.41-1.36 3.22-1-2.1-1.19-3-.8-3.25 1zM58.11 37.43c.17.33-.18.76.34 1 .09-.28.35-.3.66-.25-.06-.39.13-.57.67-.51v-.75c-.48 0-.81.39-1.33.26 0 .19-.09.27-.33.25zM82.52 40l-1.43-.47c-1.06.54.6.59.31 1h.06a1.19 1.19 0 001.06-.53zM90.56 45.1a.37.37 0 00.32-.49c-.26.1-.37.27-.32.49z" />
    <path
        d="M66.88 37.93l-.35.25h.07l.33-.27zM66.53 38.18l-.14.16.21-.11zM77 39.19l-.13.16.21-.1zM71.63 39.73l.14-.06-.14.06zM71.3 40h.41a2.76 2.76 0 00-.08-.27zM81.4 40.48l-.34.26h.06l.34-.26zM72.64 40.44v.31c.27-.09.15-.2 0-.31zM66.91 40.77l.15-.14-.18.11zM80.78 41l.34-.25h-.06l-.34.25zM72.64 40.74c-.27 0-.39.06-.35.27z" />
    <path
        d="M66.57 41l.34-.25-.33.26zM80.72 41l-.34.26h.07l.33-.26zM72.3 41c-.27 0-.39.06-.35.26zM66.55 41l-.34.26.34-.25zM80.11 41.55l.34-.26h-.07l-.33.26z" />
    <path
        d="M72 41.25c-.28 0-.41 0-.35.27zM66.21 41.26l-.15.11.17-.1zM79.77 41.81l.34-.26h-.06l-.34.25zM71.62 41.51c-.28 0-.37.07-.35.27z" />
    <path d="M79.71 41.76l-.33.26h.07l.32-.26zM71.29 41.77c-.26 0-.39.06-.35.26z" />
    <path
        d="M79.38 42l-.14.17.21-.12zM71 42c-.28 0-.37.08-.35.27zM70.61 42.28c-.25 0-.36.08-.35.27zM84.11 42.54l-.33.25.33-.25z" />
    <path d="M70.28 42.54c-.25 0-.37.07-.36.26z" />
    <path
        d="M69.93 42.79h-.34l.31.2a.85.85 0 00.03-.2zM21.92 37.65A6.7 6.7 0 0119 38.79c-2.36.63-4.74 1.24-7.11 1.85.92.28-.35.57 0 .85 2.29-.38 4.33-1.29 6.54-1.83 3.81-.93 7.2-2.58 10.93-3.65a1.55 1.55 0 001-.63c-1.21-.06-2.18.57-3.75.84l1.15-.69a27.39 27.39 0 00-6.44 1.62l.66.24h.92a1.38 1.38 0 011.62-.33l-1.52.38a1.22 1.22 0 01-1 .23zM29.73 33.58c.1-.24.28-.56-.36-.36a4 4 0 01-2.13.07 9.77 9.77 0 00-4.07.88c.45.42 1.08 0 1.5.3-1.15.49-2.54.53-3.79 1.19 1.18.4 2.11-.62 3.1-.07 1.34-.13 2.56-.66 3.84-.82 1-.11.05-1.28 1.24-.93.14-.22.41-.24.68-.26zM23.67 41.63c-1.65 0-3.12.7-4.77.65a.72.72 0 01-1 0c-2.38.46-4.3 1.76-6.78 2.07 1.43.37 2.56-.24 3.79-.51 2.36-.54 4.73-1 7.08-1.57.61-.09 1.4-.04 1.68-.64zM5.63 44.73a8.18 8.18 0 003.62-.41c1.79-.44 3.54-1 5.31-1.51.32-.1.64-.26.55-.55s-.43-.18-.7-.11L6 44.28c-.21.05-.44.13-.37.45zM30.75 32c-.06-.18.9-.4 0-.5a9.85 9.85 0 00-2.06.23c-1-.11-1.49.68-2.69.75.55.41 1.2.21 1.41.56a3.8 3.8 0 002.35-.45.86.86 0 00-.14-.13h-.31l.36-.13h.06c.24-.28.62-.22 1-.24zM21 41.19a11.31 11.31 0 003.75-1.67l-.15-.1A11.11 11.11 0 0021 40.7zM7.73 43c0-.14-.05-.29-.07-.44a3.45 3.45 0 00-2.47.82A3.62 3.62 0 007.73 43zM15.18 38.53l-.37-.32a2.3 2.3 0 00-2.05.89 4.56 4.56 0 002.42-.57zM10.46 40.84v-.31a6.9 6.9 0 00-2.46.56 3.13 3.13 0 002.46-.25zM25.36 41.12c-.42-.15-.64 0-.7.31.41.12.64.01.7-.31z" />
    <path
        d="M17.91 42.33a.72.72 0 001 0zM9.82 41.94c.25.1.45.09.55-.14a.47.47 0 00-.55.14zM14.92 38.15c.24 0 .44 0 .55-.18-.24-.04-.47-.03-.55.18zM16.57 37.58l.26-.09a.21.21 0 00-.26.09zM10.55 41.73c.12 0 .19 0 .22-.1-.15-.06-.21-.02-.22.1zM7.8 42.46l.2-.13c-.12-.01-.19.03-.2.13zM8.71 42.85a.21.21 0 00-.23 0c.1.15.18.15.23 0zM112.13 47.46h-.61l-1.71 1.3v.44c1.19-.26 1.58-1.14 2.32-1.74zM99.32 45.67l-.2.18a.66.66 0 00.19.09s.12 0 .11-.07a.92.92 0 00-.1-.2zM93.42 44.69l-.03.07.09-.01-.06-.06zM38.44 35.86c-1.28.3-2.52.64-3 1.73 1.17-.39 2.48-.66 3-1.73zM35.08 37.66c-.36 0-.75-.06-.91.29.37.05.75.05.91-.29zM114.2 51.76l-.3-.49c-.24 0-.47.27-.7 0 .33.23.05.36-.16.46s-.28 0-.43 0l.21-.45c0-.46-.32-.72-1-.72l-.39.21c.24.81-.85 1.1-1.21 1.7.72.36 1-.36 1.41-.35 1 0-.1.61.36.86.83 0 1-.81 1.81-.92h.33zM111.49 50.73l.39-.21.14-.69-.23-.15c-.63.26-.79.6-.3 1.05zM113.48 48.4l-.69.51.21.17.66-.56a1.88 1.88 0 01-.18-.12zM114.17 47.91l-.35.25.13.09.32-.27z" />
    <path d="M113.82 48.16l-.34.24a1.88 1.88 0 00.18.12l.29-.27zM112.79 48.91l-.34.25.21.16.34-.24z" />
    <path
        d="M112.45 49.16l-.32.27.19.15.34-.26zM112.13 49.43l-.34.25.23.15.3-.25zM114.21 52h-.35l.37.33zM26 22.59a1.27 1.27 0 011 .23 2.44 2.44 0 011.35.51h1l.07-.07c-1.48-1-3.38-1.34-5.12-1.94l-.3.29.3.42c.37 0 .77 0 1 .26.28 0 .53 0 .67.25zM24.32 22.06l-.3-.42-1-.13-.09.09a2.18 2.18 0 001.39.46z" />
    <path
        d="M25.33 22.32c-.24-.29-.64-.24-1-.26a.92.92 0 001 .26zM26 22.57c-.14-.21-.39-.24-.67-.25.08.31.38.28.67.25zM23 21.51c-.13-.06-.25-.13-.38-.18s-.1.1-.15.15l.44.12zM58.46 37.17c.52.13.85-.27 1.33-.26-.65-.53-1.01-.19-1.33.26zM112.52 54.58a3.34 3.34 0 002.39-.93l-.55-.1a2.53 2.53 0 00-1.84 1.03zM114.86 53.31a2.2 2.2 0 002.06-1 2.21 2.21 0 00-2.06 1zM116.86 50.28c-.38 0-.69.12-.63.48a.75.75 0 00.63-.48zM115.91 51c-.47 0-.7.17-.69.53a.9.9 0 00.69-.53zM117.24 52c.26.11.34 0 .4-.17l-.09-.41c-.28.17-.55.3-.31.58z" />
    <path d="M115.23 51.52a.66.66 0 00-.69.27c.46.21.55-.05.69-.27zM118.56 49.18l-.22-.16-.08.21a.94.94 0 00.3-.05z" />
    <path
        d="M118.28 49.21c-.17 0-.31 0-.28.15s.17.06.25.09a1 1 0 00.03-.24zM116.25 50.75c-.23 0-.34.1-.36.26zM117.91 51.53c.28 0 .4-.07.36-.28-.41-.13-.57-.07-.36.28z" />
    <path
        d="M117.55 51.45l.09.41c.17-.08.36-.16.29-.35a.28.28 0 00-.38-.06zM114.2 51.76V52c.31.07.45 0 .37-.25zM116.9 52.29c.23 0 .41 0 .35-.27-.35-.08-.49-.02-.35.27zM114.36 53.55l.55.1c.15-.12.14-.24 0-.35a.5.5 0 00-.55.25zM13.91 15.74c2.49 1.12 5.43 1.55 7.71 3a6.84 6.84 0 013 1.27c.26 0 .53 0 .66.25a1 1 0 011 .5h.94a.8.8 0 00.13-.13A31 31 0 0021 17.57a66.64 66.64 0 00-6.66-2.41c.06.29.01.51-.43.58zM13.15 14.76c0-.09-.09-.12-.2-.1s.05.17.2.1zM14.12 15.07l-.23-.07zM59.8 37.68c-.54-.06-.73.12-.67.51a.87.87 0 00.67-.51zM24.59 18.31a19.17 19.17 0 005.46 2.49c.11-1.41-1.07-1.88-2.62-2.1l-.16.12c0 .12.37.29 0 .36a.61.61 0 01-.64-.42 2.1 2.1 0 01-1.33-.5l-.58-.08a1.37 1.37 0 00-.13.13z" />
    <path
        d="M26.76 21.22l-.39-.44a1 1 0 01-1-.5.67.67 0 01-.66-.25 6.1 6.1 0 01-3-1.27h-.87l-.45.29a30.38 30.38 0 006.33 2.32zM29 21.59c.42 1.18 1.49 1.61 4.3 1.58-1.59-.64-2.65-1.45-4.16-1.67zM22.63 16.67c-.69.11-1.11.34-.35.77a5 5 0 002.31.87 1.37 1.37 0 01.16-.18c-.36-.42-1.16-.45-1.43-.94-.4 0-.67-.16-.66-.5z" />
    <path
        d="M27.31 20.82a3 3 0 001.69.77l.14-.09c-.29-.62-1-.68-1.7-.81a.8.8 0 01-.13.13zM28.38 23.34h-1c.12.16.23.32.34.49l1.42.19c.06-.44-.63-.38-.76-.68zM26.43 18.12c-.1-.44-.57-.47-1-.52a.85.85 0 01-.19.19c0 .14.08.28.11.42l.93.07a.8.8 0 00.15-.16zM31.06 24.12a1.71 1.71 0 001.45.41 1.81 1.81 0 00-1.39-.45zM27.47 18.67c-.12-.42-.55-.52-1-.55a.8.8 0 01-.15.17c.13.14.27.28.4.43l.6.06zM30 23.64a1.42 1.42 0 001 .48h.06c-.07-.48-.55-.49-1-.52zM31.74 25.41l.38.18.1-.09-.44-.13z" />
    <path
        d="M30.1 23.56l-.66-.27-.07.07.65.28zM26.64 21.34c.12.14.37.27.48.11s-.21-.17-.36-.23zM21.05 16.27l.22.21a2.17 2.17 0 01-.07-.24zM21.29 16.56l-.27.28c.23-.02.32-.11.27-.28zM30.05 20.8l.17.09-.13-.12zM20.31 19l.45-.29c-.29 0-.51.03-.45.29zM25.33 18.21c0-.14-.07-.28-.11-.42-.66-.14-1.1-.71-1.9-.6.27.49 1.07.52 1.43.94zM22.65 16.69c0 .34.26.46.66.5a.92.92 0 00-.66-.5zM159.76 35.94c.32-.9-1.38-1.06-1.21-1.84.35-1.53-1.58-.25-1.83-1.15 1.7-.3 3.26.36 4.87.7 2.73-.08 5 .86 7.37 1.73l1.66.57c.64 0 1.07.53 1.76.46a21.46 21.46 0 00-7.22-3 39.6 39.6 0 00-13-.91l-.71.13c.19.62.85.62 1.4.73a5.55 5.55 0 013.29 1.48c.86 1 2.46.61 3.62 1.1zM178.74 41l.12-.49a23.64 23.64 0 00-.11-5.18 1.8 1.8 0 00-1.61-1.63c-1.06 0-1.74.95-2.51 1.55 0 0 .14.36.28.39 2.1.44.41 1.35.46 2l.29.52a6.57 6.57 0 011.44 3.92c.74-.43.67-1.26 1.64-1.08z" />
    <path
        d="M175.66 38.19l-.29-.52c-.77-.11-1.12-.86-2-.77 0 .27-.06.54-.1.81a4 4 0 002.39.48zM113.87 32c-.44-1.11-1.22-.67-2-.25a2.34 2.34 0 002 .25zM179.09 29c-.11-.25.15-.73-.22-.71s-.86.32-.79.78zM180.84 30.74c.32-.22.28-.45 0-.68-.21.22-.93.43 0 .68zM178.07 29.43a1.7 1.7 0 00-1.12.29c.58.36 1.05.4 1.12-.29zM77.68 30.51c-.22-.31-.44-.23-.67 0zM172.33 36.38c.09.28.34.34.68.26a.53.53 0 00-.68-.26z" />
    <path
        d="M173 36.64c0 .2.08.28.34.26.03-.19-.11-.26-.34-.26zM189.88 46.65a13.45 13.45 0 004.65 1.19c-1.51-.49-2.88-1.24-4.63-1.21zM188.9 46.12l-.19-.1.14.14z" />
    <path
        d="M188.85 46.16l.18.09-.13-.13zM189.9 46.63l-.17-.1.15.12zM179.76 42.8a4.4 4.4 0 00-1-1.79c-.89.99.15 1.36 1 1.79zM169 35.38c-2.34-.87-4.64-1.81-7.37-1.73 2.43.55 4.78 1.35 7.37 1.73z" />
    <path
        d="M170.58 35.93l-1.66-.57c.55.2.87.78 1.66.57zM159.66 33.83l.26-.12a1.13 1.13 0 00-.28-.09c-.09 0-.17.07-.26.11zM169.61 36.92l-.37-.19c-.07.3.25.12.38.18zM112.32 49.58l-.3.25c0 .23-.09.46-.14.69.63 0 .93.26 1 .72h.38c.09-.26.27-.42.66-.27-.07-.21 0-.29.32-.24-.07-.21 0-.3.32-.25-.09-.93 1.58-1 1.66-2L113.51 50c.58-1.22 1.92-1.65 2.57-2.49-.89-.37-1.18.42-1.81.46l-.32.27-.29.27-.66.56-.34.24zM119.3 50l.3-.2-.22-.17z" />
    <path
        d="M113.86 51c-.39-.15-.57 0-.66.27.23.26.46 0 .7 0zM114.53 50.49c-.28-.05-.39 0-.32.25zM114.19 50.75c-.28 0-.39 0-.32.24.21.01.31-.09.32-.24zM162.86 36.41l-.15.05.14-.07zM159.44 11.07a2 2 0 001.7 1.27h.06a2.36 2.36 0 00-1.7-1.34zM157.12 9.5c0-.51-.25-.81-1-.81l-.12.11a1 1 0 001.1.71zM154.43 11.28c-.18-.21-.32-.46-.73-.43 0 0-.11.07-.1.09.12.29.44.35.78.38zM158.81 10.52a1.24 1.24 0 00-1-.54l-.08.06a1.08 1.08 0 001 .5zM151.34 9.27a.56.56 0 00.54.35s.09-.06.08-.09c0-.25-.29-.3-.56-.31zM163.25 13.56l-.59-.33s-.09.07-.09.1c0 .25.3.28.54.35zM152.53 9.89a.42.42 0 00-.11.07.8.8 0 00.13.19s.11-.06.1-.08a1.88 1.88 0 00-.12-.18zM154.7 8c.13.12.33.29.47.14s-.19-.19-.34-.26zM161.47 12.6l.34.21.14-.14-.42-.12zM162.85 11.55l.18.11v-.08a.61.61 0 00-.13 0zM162.51 11.3l.34.25-.33-.26z" />
    <path
        d="M161.14 12.34l.33.26h.06l-.33-.25zM162.53 11.29l-.16-.12.14.13zM159.5 11l-.33-.26-.09.07.36.24zM161.84 14.38l-.08-.11.09.1z" />
    <path d="M159.17 10.76l-.36-.24.3.28zM157.41 9.79l.34.25.08-.06-.34-.25z" />
    <path
        d="M157.49 9.73l-.38-.23.3.28zM151 9l.34.25h.06l-.34-.25zM156.15 8.69c-.07 0-.18-.13-.21-.12-.2.11 0 .16.07.23zM97.37 17.9c-.21-.1-.34-.51-.66-.21-.14.14.26.28.5.36zM75.35 21l-.35-.18-.09.1.44.12zM76 21.54l-.34-.26.34.25zM75.69 21.28l-.34-.28.33.26zM74 20.26l.07.09h.09l-.16-.08zM63.18 21l.15.12v-.07c0-.01-.08 0-.12 0zM138.46 29.37a1.35 1.35 0 00-1.28-.91c-.6 0-1.14-.43-1.76-.16a.22.22 0 000 .42c.74.14.84 1.2 2 .78a4.77 4.77 0 011.04-.13zM153.08 28.63c.44-.17 1.12-.32 1.1-.65s-.63-.69-1.19-.7c-.41 0-.93.17-.9.6s.47.63.99.75zM124.6 31.51a9.78 9.78 0 003.94 0 7 7 0 00-3.94 0zM111.2 28.21c-.39 0-.65.12-.69.42s.13.57.63.58.66-.09.69-.4-.14-.57-.63-.6zM167.24 25.13l-.12.05.13-.05zM201.41 32.32c-2.85-1.9-6.33-2.93-9.67-4.2a34.62 34.62 0 00-10-2c.05.16.18.35.12.49-.92 2.07 1.12 1.5 2.43 1.57h1.17c-.68-1.39.94-.31 1.22-.66a8.4 8.4 0 011.61 1.09c.87.94 2.48 1.27 3.19 2.3.17.24 0 .5.53.7a16 16 0 006.3 1.09 1.21 1.21 0 01.64.13c1.22.82 1.89.29 2.46-.51zM187.18 39.17c.33.38-1.06 1.22.57 1.27l.12-4c0-1.64.87-2.37 2.94-2.37a17.48 17.48 0 016.21.71.87.87 0 00.86-.17 4.48 4.48 0 00-2.89-1c-1.84.06-3.48-.63-5.28-.55-.43 0-.79-.06-.84-.46-.77.15-1.39.36-1.5 1.1-.26 1.84-.8 3.64-.19 5.47z" />
    <path
        d="M187.18 39.17c-.61-1.83-.07-3.63.19-5.44.11-.74.73-.95 1.5-1.1-.21-1.13-1.5-1.38-2.58-1.79-.3-.11-.74-.07-.66.31s.23.74-.39.79-.28-.59-.69-.75c-.66.9-.66.9-.09 2.63l.18-.1-.13.14c.06.2 0 .5.19.58a.51.51 0 00.72-.33c.14-.36.42-.73.88-.59s.43.58.3 1a9 9 0 00-.42 3.74c.06.5.1.96 1 .91zm-.6-7.13s0-.07.08-.08.07 0 .11 0l-.13.13zM197.77 44.36c-1.44-.66-2.09-1.08-1.85-2.27.14-.72-1.4-1.82-2.8-2.21-.69-.19-.53.62-1.07.8-.25.09-.62.51-.2.76a23.13 23.13 0 012.78 2.33 5.73 5.73 0 003.14.59z" />
    <path
        d="M187.87 36.47l-.12 4h.41c-.16-1.34.37-2.7-.29-4zM187.53 29.22c.22.32-.89.93.38 1 .5 0 .92-.16.88-.56-.06-.67-.81-.34-1.28-.43zM185.5 28.2a2.59 2.59 0 002 1c0-1.14-.85-1.24-2-1zM200.7 45.1l-.63-.06c-.13.08-.56.11-.37.24a.78.78 0 001-.18zM181.18 29.05c.15-.08.52-.05.35-.26s-.37 0-.51.11zM201.39 37.15l-.16-.09.12.12zM204.05 38.71l.36.22zM181.79 26.15l-.37-.24zM32.43 36.13c-2.49-.31-4.23.89-6.15 1.73l.14.15h.64c-.19.35-.61.38-1 .42-.13.21-.38.24-.65.24l-.39.46.14.1a20.85 20.85 0 007.37-3.11z" />
    <path
        d="M26.28 37.86a19.92 19.92 0 00-4.92 1.65c1.55.3 2.52-.89 4-.8.13-.22.38-.24.65-.24l.39-.43zM32.77 34.35a3 3 0 00-2.35 1c1.06.05 1.94-.17 2.35-1zM32.45 36.16l1.13-.33c-.68-.32-.9 0-1.15.3zM24.94 39.17l-.36.25.15.1.35-.25zM19.27 40.24l-.09-.05.07.06.02-.01z" />
    <path
        d="M19.25 40.25l.14.18c.25-.17 0-.16-.12-.19zM29.8 32.63c1.88 0 3.46-.63 5.55-1.27-2-.2-3.13.81-4.6.68-.24.27-.62.21-1 .24h-.06a1.21 1.21 0 01-.05.18.86.86 0 01.16.17zM22 37.39l-.66-.24c-.22.1-.65.17-.53.36.22.36.75 0 1.1.14s0-.07 0-.1a1.51 1.51 0 01.09-.16zM29.73 33.58c.05.25.1.52.57.37.1 0 .14-.18.2-.27l-.77-.1zM34.56 32.87l.26.1.14-.26c-.1 0-.22-.07-.28 0s-.08.09-.12.16zM29.06 33.84l.14.1v-.06a.42.42 0 00-.12 0zM60.82 29.49a.42.42 0 00-.12 0v.06l.14-.11zM197.65 24.37l.09.1-.07-.12zM169.26 16.68c.2.93 1 1.42 1.8 1.92a.57.57 0 00.74 0c.2-.21 0-.41-.22-.54-.76-.48-1.58-.93-2.32-1.38zM169.74 19.12c-.21-.7-.75-1.14-1.82-1.43a2.36 2.36 0 001.82 1.43zM164.2 16.93c0 .53.35.76 1 .77.01-.51-.32-.77-1-.77zM165.22 17.7c0 .52.55.61 1 .77.05-.54-.35-.75-1-.77zM166.74 17.07c.09 0 .17.06.25.07s.06-.06.09-.09l-.25-.07s-.06.02-.09.09zM143.62 18.46a.59.59 0 000-.13c-.3-.41-.47-.93-1.24-1-.07 0-.26.2-.24.27.19.56.78.77 1.46.86zM146.64 19c0-.37-.22-.53-.68-.52.04.33.21.52.68.52zM145.63 18.22l-.35-.27zM146 18.47l-.35-.26zM143.58 18.48l.34.26-.33-.25zM23 37.44l1.56-.38a1.38 1.38 0 00-1.62.33z" />
    <path
        d="M22 37.39a1.51 1.51 0 00-.09.18v.1a1.22 1.22 0 001-.23h-.06zM29.77 32.29c.35 0 .73 0 1-.24-.38.02-.77-.05-1 .24zM29.66 32.5a1.21 1.21 0 00.05-.18l-.36.13zM113.21 51.27h-.38l-.21.45c.15 0 .33.08.43 0s.49-.22.16-.45zM21.63 18.73a6.1 6.1 0 003 1.27 6.84 6.84 0 00-3-1.27zM25.35 20.27a1 1 0 001 .5 1 1 0 00-1-.5zM24.67 20a.67.67 0 00.66.25c-.13-.25-.4-.25-.66-.25zM26.68 18.72c-.13-.15-.27-.29-.4-.43l-.93-.07a2.1 2.1 0 001.33.5zM27.31 18.79l-.6-.06a.61.61 0 00.64.42c.33-.07-.02-.24-.04-.36zM186.58 32l.06.09.13-.13s-.09-.05-.11 0-.05.04-.08.04zM184.51 33.86l.13-.14-.18.1zM26.42 38l-.39.43c.42 0 .84-.07 1-.42zM26 38.46c-.27 0-.52 0-.65.24.27 0 .52-.03.65-.24z" />
</svg>