<svg xmlns="http://www.w3.org/2000/svg" transform="scale(-1 1)" viewBox="0 0 365.23 171.85"><path d="M365.23 32.41c-3.14 1.27-4.47 4.75-6.91 6.71-3.69 3-3.06 9-7.52 11.18-1.1.55-.09 2.56-1 3.59l-.45.74a7 7 0 00-4.66 4.19.55.55 0 00-.55.59.54.54 0 00-.55.59.53.53 0 00-.54.59c-.35 0-.53.2-.54.58-1.55.72-3.09 1.41-3.12-1.55a8.76 8.76 0 00-3.14 3.81c-2 3.49-5.06 6.31-5.69 10.63-.87 0-1.17.46-1 1.34a1 1 0 01-.18.42l-.48.68c-.67 1.49-2.18 2.46-2.29 4.29a.46.46 0 00-.42.6c0 .07.13.11.2.17l.21-.78c1.35.26 1.65-1.06 2.34-1.79a2.77 2.77 0 01.34 3.06c-.48 1.31.35 1.78.88 2.52-.69.09-1.43-.41-2.37.46a11.7 11.7 0 004.54 1.3l.08.63c-2.58-.1-5.2-.41-7.53 1.28a1 1 0 00-1.06-.61l-1.71-.1c-1-2.34-2.59-1.65-4.35-.9a6.89 6.89 0 004.27 1c-1 1-2.31.3-3.44.61-2.27.06-4.53-.65-6.81 0a98.58 98.58 0 00-14.27.41.66.66 0 000-.44c1.67-.82 1.14-1.63 0-2.44a.63.63 0 00.2-.1v-.16l-.23.26c-1.33 0-2.31.52-3.94-.86-1.41-1.21-4.51-1.87-7-2.2-2.23-.28-4.13 1.22-6.39.65-1.14-.29-2-2.06-3.3-1s-2.32.17-3.39-.33c-.82-.39-1.4-1.08-2.56-.82s-2.26-.34-2.78-1.91c-.62-1.85-2.9-2.86-3.86-2.22-2.94 2-6.05.7-9 1.36a1.33 1.33 0 00-.09-.21h-.16l.24.26c.31.87.26 1.57-.78.94-2.37-1.42-2.77-1.52-4.71-.73a.77.77 0 01-.73-.18c-1.57-2.22-5.12.79-6.23-2.7a1.28 1.28 0 00-.78.18c-1.26 1.13-2.29.27-3.45-.27-.75-.34-1.67-1.24-2.52-.06-1.19 1.63-2 1.66-3.26-.19-.8-1.17-1.47-1.87-2.67-.67-3.89-.44-7.85 0-11.69-1.19-.8-.25-1.2-.34-1.37-1.45-.48-3.14-5-4.54-7.19-2.32-.58.58-1.06 1.27-1.93.77-1.28-.75-3-.22-4-1.93-.36-.6-1.55-1.85-2.35 0-1.83 1.41-3.38 1.43-5.11-.48-1.14-1.25-7.74-1.11-8.19 0-.94 2.32-1.73 1.54-2.58.1-.58-1-1.65-.87-2.39-1.44l-.24-.15.25.13c-.29 1 .71 1.88.11 2.85-4.41-1.39-4.2-.6-5.9 1.93-.14.21-.71.09-1.08.13-1.79-1.24-4.08-.94-5.85-2-1.94-1.21-5.41-.64-5.17-4.71 0-.43-.49-.51-.89-.54-.56 0-1.35 1-1.64-.26-.23-1 .5-1.38 1.28-1.69 1.24-.5.34-1.07-.06-1.5s-.5-2-1.1-1c-.88 1.5-1.28.36-1.92.1-1.06-.41-2.22-1.27-3.2-1.09-2.62.47-5.27-.69-7.54-.26s-1.71-1.18-2.47-1.77c-.06-.57.17-1.25-.49-1.59-.05 0-.23.07-.23.12a1.47 1.47 0 00.71 1.48c-.2 1.09-.52 2.32-1.78 1.31-2.4-1.9-5.43-.44-7.74-1.78-2-1.17-4.33.08-6-1.11-1.45-1-2.15-1-3.3.2s-2.16 1.14-3.44 0c-2.48-2.17-4.21-1.79-6 1.05a1.61 1.61 0 01-1.4.87c-.84 0-1.17-.46-1.24-1.3a2.24 2.24 0 00-1-1.89l-.22 3c-1.52-.88-2.88-2.13-4.53-.63.59.64 1.76-.23 2.18 1.13l-10.34.71a4.78 4.78 0 01.81 2.68c-3.23-1.12-6.47 1-9.7 0-.09-.53.35-1.66-.81-1.07-.53.26-.83 1.45-1.55.95-1.9-1.33-3.45.23-5.16.41-2.14.23-3.6 2-6 2.09-1.86.08-.91-1.81-2.42-2-2.7-.32-4.11 2.18-6.5 2.31-1.78.09-3.65.67-4.43 3-.38 1.13-1.3 1-2.32.26-1.68-1.29-4.92-.53-5 1.11-.15 2-.79 2.55-2.52 1.86a1.47 1.47 0 00-1.93.86c-.46 1.23-1.27 1.26-2.26 1.34-3.29.27-6.42 1.82-9.27 3.11-4.28 1.93-9 3.63-12.27 7.76-.31.39-.84.87-1.21.52-1.77-1.63-2.32 0-3.23 1.16-1.08 1.4-2.17 3.21-3.62 3.78C20 90.08 19 92.6 19 96.32c0 3-.84 3.34-3.66 2.42-.87-.28-1.72-1-3.06-.16 4.31 3.1 9.12 3.43 13.79 4.23a22 22 0 002.16.73c5.37 1.27 7.91 6.49 5.73 11.81-1.82 1-1.69 2-.1 3.07l.28 1.7-.36 1.48c-.84.38-1-.78-1.58-.85l-.16-1a4.16 4.16 0 00-2.55-4c-3.08-1.61-6.18-3.15-9.76-2.3a2.18 2.18 0 000-.51l1.08-.55c2.15-1.44 1.12-2.13-.55-2.67v-1c.44-1.48-.86-1.8-1.53-2.37a45.7 45.7 0 00-12.57-7.48 21.91 21.91 0 01-3.62-1.74c-2.58-1.69-2.65-3.94-.23-6C19.75 76.46 39.25 65.68 59.5 56.35a174.83 174.83 0 0137.74-12.19 64.51 64.51 0 018.3-1.29c1.59-.12 2-.86 2.35-2.33 1.4-6.43 2.72-12.9 4.43-19.24.76-2.82 1.17-6 3.31-8.19.38 1.6-.52 2.93-.86 4.37-1.36 5.78-3.2 11.43-3.83 17.39a12.21 12.21 0 00-.89 6.15 15.52 15.52 0 013.49-2.25c1.77-.56 2.11-1.71 1.93-3.38l4.8-21.4 1.58-2.32c.08.82.12 1.31.17 1.8a18.41 18.41 0 00-1.31 5.34l-.93 3.19v1.13l-.11 1.27a36.15 36.15 0 00-1.31 9.08l-.72 3.56c-.16.76-.62 1.69.15 2.22 1.79 1.21 4.11-.24 4.58-2.77.21-1.19.43-2.38.64-3.57-.69-2 2-3.44.76-5.5 1.38-1.78 1-4.09 1.58-6.09 1-.85.42-2 .48-3 1.32-1.65 2.1-3.22-.28-4.64a1.38 1.38 0 01-.45-1.85c1.6 1.09 3.65 1.63 4.24 4-2.52 1-1.83 3.51-2.27 5.5l-.39 2.58v1.2a30.56 30.56 0 00-1.09 7.25l-.27 2.54a2.15 2.15 0 00-.32 1.73c-.23 3.39 1 4.89 3 3.61 1.42-.89 1-2.82 1.26-4.31q1.35-6.06 2.68-12.12l.61-1.81c.4-1.22 1.71-2.38.23-3.73.82-.8 1.57-1.27 1.93.41-.17.94-.35 1.88-.52 2.82-.23 1.21-.93 2.32-.68 3.64-.4 3.07-1.52 6-1.47 9.16-.57.73-.28 1.59-.3 2.4a11.86 11.86 0 00-.27 1.18c-.15 1.09-1.08 2.62.65 3s2.32-1 2.38-2.65v-1.52l.09-1.17c1.19-2 .78-4.57 1.78-6.68 1.13 0 1.11.79 1 1.61-.19 1.66-.42 3.32-.64 5-1.89.7 0 2.08-.46 3.11-.31.68-1.05 2.07.21 2.2s2.77 0 3.1-1.88a15.12 15.12 0 00.1-2.14l.63-1.77 1.43-.08v1c-.55 1.43 0 1.82 1.3 2.21 3.52 1 6.85-2.09 10.42-.38.44.21 1.33-1.27 1.31-2.59 0-1.78-.71-2.8-2.18-3.2s-1.42.93-1.79 1.82c-.29.69-.19 1.71-1.24 1.78l.6-3.68c1.06-2.18-.43-2.65-1.83-2.83-1.56-.2-1 1.35-1.24 2.2-.78 1.56-.55 3.34-.94 5l-1-.88c.05-.73.09-1.47.14-2.21 1.1-.82.45-2.14.79-3.18a4.2 4.2 0 00-.06-3.63 21.28 21.28 0 007 2.06c3.43.56 5.74 4.15 9.47 3.28 1.32-.31 1.64 1.85 2.88 2.2V35c-.75.36-1.41 2.26-2.3.19-.31-.7-.78-.87-1.36-.63a1.64 1.64 0 00-.88 1.44c-.39 2.61 1.33 2.49 2.94 2.9 2.21.57 1.45-1.1 1.58-2.1a12.28 12.28 0 000-1.82l.64-.77c2.17-1 3.74.94 5.58 1.45 5 1.4 10.06 2.75 14.46 5.92 2 1.46 3.72 1.7 5.58-.69A176.91 176.91 0 01213.33 17c4.61-4.11 9.36-8 14.93-10.58 1.11-.51 2.17-1.31 3.74-.91-2.82 2.84-5.5 5.57-8.85 7.41v-1.21c.11-.13.33-.34.31-.37-.24-.38-.38-.11-.53.12-1.21.39-2.51.65-2.89 2.26a33.67 33.67 0 00-8.41 7.52c-2.54 3.2-6.29 4.95-8.38 8.59-1.76.48-2.69 1.85-3.26 3.58-.9.36-1.67.83-1.54 2.07-1-.2-1.3.71-1.78 1.32-.51.33-1.34.59-.75 1.39.21.29.7-.34.9-.76l1.13-.22 2.3-.41c-.25 1.69-1.86 2.31-2.51 3.68-.77.57-2.14 1.26-1.53 2.21.72 1.13 2.1 1.07 2.91-.44.41-.06 1-.85 1.18-.27a4 4 0 002.71 2.7l-.57 1.82-.21.29.27-.22c1.52.56 3 .9 3.91-1l.6-.39c-.15.67-.31 1.34-.44 2s0 1 .61 1.12.88-.17 1-.73l1.69-1.08.29.69c0 1.8 1 1.17 1.91 1 .47-.07 1.37-.69 1.34.09-.08 2.18 1.41 1 2.13 1.36-1 2.48.3 3.59 2.24 4.31 1.27.81 2.31.21 3.21-.71s1.51-1.48 2.66-1.14c0 .28.06.56.08.84l-.48.44c-.88 0-1.93.38-1.51 1.36s1.21-.38 1.89-.39c.63 1.72 3.92 3.17 5.47 2.4 2.92-1.46 2.92-1.46 3.74 1.44.22.79 4.89 2 5.66 1.39 1.61-1.25 2.85-3.57 5.38-2.07a1.85 1.85 0 00.25-.5c0-.14-.09-.31-.29-.93-.61 1.69-.31 3.32-1.29 4.5-.47.58-.05 1.08.66 1.25 2 .47 4.1 2 5.82-.71a2.3 2.3 0 012-1.07l-.12 1.63c-.51.13-1.18 0-1.33.75 0 .16.27.54.45.57.75.15.88-.5 1-1.08l.66.61c-.05.5-.3 1.13-.11 1.48.85 1.59 7.81 2.86 9.25 1.74a15.26 15.26 0 014.47-2.49 1 1 0 011.44.57c.18.66-.45.92-1 1-.1-.13-.21-.37-.31 0l-.6.14a2.22 2.22 0 00-2.58 1.73c-.17 1.06 1.22.26 1.81.65 1.18 2.33 3.24 2.28 5.23 2.08 1.66-.17 3-1 4.2 1.58.67 1.43 3.34 1.77 5.33 1.7a3.49 3.49 0 004.11-.44c0 2.41 1.56 3.4 5.23 3.3a5 5 0 003.51 1 8.74 8.74 0 0010.2 1.31c.82-.49 1.82-1.34 2.61-.63s.05 1.73-.4 2.45c-1.34 2.16.78 2.75 1.56 2.87 2.23.34 4.43.83 6.63 1.3a4.2 4.2 0 003.95-1.18 22.51 22.51 0 004.38-6.37c7.82-15.47 17.68-29.08 31.5-38.92 4-2.85 8.09-5.75 13.11-6.28zM338.94 52l-.6.58-.58.61-.59.59c-.17.15-.46.27-.12.53 0 0 .21-.2.32-.31l.54-.66.55-.63.53-.66.25-.3zm5.86-2.29l.56-.62.57-.62.57-.61.57-.62.58-.6.58-.63.19-.44-.42.2-.6.6-.57.62-.58.6-.58.6c-.19.2-.39.4-.58.61l-.58.6-.57.61a5.3 5.3 0 00-2.72 2.62c-.62.64-1.61 1-1.42 2.49 1.08-.22 1.51-1.09 2-1.85a5.87 5.87 0 002.41-3zm7.3-6.89a.94.94 0 00.22-.12v-.19l-.27.29-.27.27zM350.3 44l-.55.63-.26.38.37-.25.61-.58.22-.4zm-7.92 4.38l.14-.22-.13.24-.12.24zm-147.84-8.5l.21-.44-.39.24-.2.42zm126.84 39.37l.69-1.16.57-1.22.18-.74-.6.31-.6 1.22-.62 1.16-.68.68c.49.5.78.12 1.06-.25zM16.29 102.42l.48.58.25-.31-.76-.24-.57-.46-.14.35zm311-34.67c-.41.35-1.12.85-.57 1.32s.79-.41 1-.9l.58-1.17.93-.83c.74 1.41-1.62 2.27-.57 3.73-1.63 3.88-4.53 7.08-5.14 11.58 5.4-8.42 10.33-17.16 16.35-25.6-1.59-.06-1.94.82-2.55 1.25-.88-1.17-1.84-1.71-2.84-.21-1.11 1.65-2.71 3-2.45 5.44a1.71 1.71 0 01-1.68 2c0-.36.14-1-.33-1s-.78.8-1 1.34l-1.12 1.9zM323.74 75c.36-.64 1.23-1.12.66-2.12-.81.33-.94 1-1.1 1.66l-.17.77zm1.72-3c.4-.61 1.17-1.08.67-2-.85.18-.95.92-1.12 1.59l-.17.77zM48.83 64.34c.7-.11 1.65.25 1.78-1.05-.93-.21-1.41.32-1.77 1.06-.07 0-.15.05-.2.1s0 .1 0 .16zM58 60.05l.3-.41h-.74a2.85 2.85 0 00-2.17 1.5A2.67 2.67 0 0058 60.05zm26.78-10.49c-1.85.49-3.76.76-5.29 2.32l6.34-1.8 7.45-1.88c-2.91.14-5.84-.01-8.5 1.36zM24.9 111c.15.58.6.64 1.05.7 1.51.76 2.93 1.8 4.66 1.87 2.18.09 3.21-1.42 2.13-3.42-.54-1-.74-2.63-2.29-2.76 0-.58-.25-.58-.6-.25l-1.5-.49a1.38 1.38 0 00-.84-1.45c-3-.87-6-1.76-9.84-1.25 2.27 1.26 3.17 2.94 4.25 4.44.79 1.1 1.41 2.43 2.93 2.56zm151.57-69.78c.41-3.46-2.18-2.65-3.19-3.29s-1.94 1.32-2.1 2.61c-.25 2.08 1.33 2.17 2.64 2.23s3.41.78 2.65-1.55zm35.8 13.85l-.17.72 20 5.64a106.37 106.37 0 00-19.83-6.36zM160.1 33.49c-1.22.81-2.81-.32-3.42.27-1.83 1.76-2.11 4.29.85 4.64s1.77-3.07 2.57-4.91zm7.72 2.1c-1.35-.07-1.19.89-1.35 1.66-.49 2.42 1.21 2.6 2.63 3s1.6-1 1.67-1.87c.23-2.38-2.43-1.38-2.95-2.79zM59.59 59.52L68.18 56a15.5 15.5 0 00-8.59 3.52zm180.9 4.18c-2.62-1.38-4.57-2.19-6.75-2.17a13.55 13.55 0 006.75 2.17zM51.68 63a3.1 3.1 0 002.66-1.47c-1.2-.23-1.93.14-2.66 1.47zm139.6 3.49l.12-.41-.21.07zM243 64.81l.2-.14c-.06-.06-.15-.18-.17-.16a1.27 1.27 0 00-.25.22zm-1.51-.74c0-.07-.07-.17-.13-.2a.59.59 0 00-.26 0l.18.32zm-17.07-53.39l.09-.13h-.15zM121.34 146.61c.27 5 1.66 10 .65 15.12a3 3 0 00.41 1.74 14 14 0 011.82 8.38h-1.14c.29-.68-.14-1.06-.52-1.45-.47-1.58 1.19-3.83-1.29-4.78-.15-.34-.31-.68-.47-1 1.41-2.12-1.07-4.19 0-6.3v-6.73c-.25-1.44-.22-3.08-2.13-3.25-.53-1.91-2.61-2.61-3.31-4.78l2.63.66 1.13.65c1-.4-.74 2.85 1.28 1.11.39.02.78.13.94.63z"/><path d="M72.82 142.3c-1.38-.18-2.8-.19-4-1.12a63.69 63.69 0 006.87-2.58c2.43-1.23 5.33-2.14 5.68-5.82 1.67-1.2 3-2.62 2.94-5 1.73-1.47 2.2-4.51 5-4.65.16.25.48.65.44.71-2.44 3.1-3.56 7.18-6.71 10 .88.68 2.34-.51 2.36 1.18-.57.55-.95 1.12 0 2v-2c1-.26 2.18 3.28 3.15-.14.12-.44.51 0 .79.3.86.93 2.17 1.18 3 2.3.29.4 1.07.4 1.62.58v-1.82a3.07 3.07 0 003.29 1.24c4.32-.64 8.47 1.21 12.83.89 3.49-.25 7.09.5 10.58 1.13a8.24 8.24 0 005-.6c1.62-.7 3.22.29 4.76.35 5 .21 10.08-1.47 15 .51.29.12.71-.16 1.07-.23 4.93-1 9.77-2.6 14.9-2.17 1.39.11 2.89.61 4.24-.9 1.69-1.9 5.81-1.22 7.73 1-.61.73-1.1 1.74-2.13 1.81-6.67.46-13.32.86-20 1.84-6 .88-12 2.34-18.17 2.23-3.25-.06-6.51.67-9.77.93-2.35.19-4.19-1.89-6.53-1.85a1.34 1.34 0 00-2.14-.17 10.54 10.54 0 00-1.13.1c-.62.12-1.43-.24-1.76.62-.45 1.19.79 1.15 1.18 1.73a4.9 4.9 0 01.33.81c-.9-.16-.91 1.1-1.64 1.2l-.24-.11.26.08c-.29 1.3 1.08 2.29.59 3.63l-1.14.06-.54-.66c-1.5-4.86-2.89-6.12-6.22-5.46l-.69.65h.06c-2.17.28-4.5-1-6.52.78l-.92-.1a2 2 0 00-2.51-1.8c-5.09 1.06-9.52-2.36-14.44-2.25a2.18 2.18 0 01-.8-.3 4.52 4.52 0 00-5.67 1.07zM19.77 113.45c3.58-.85 6.68.69 9.76 2.3a4.16 4.16 0 012.55 4c-1.94-1.74-3.49-4.37-6.63-3.42h-1.27c-1-1.35-2.14-1.07-3.34-.38H18a5.23 5.23 0 00-4-1c-2.66 0-5.27-1.22-8.4-.43 1.25.69 2.14 1.2 3 1.69 5.14 2.8 10.26 5.65 15.45 8.34 1.82.94 3 3.25 5.4 3l.63.3c.2.49.56.51 1 .39a6.45 6.45 0 003.68.86c.73.1 1.41.75 2.2.25l1.6.39.58.33 1.15.1c.72.49 1.4 1.05 2.15 1.46 4.36 2.38 8.74 4.73 13.84 4.57h1.07c2.67 1.43 5.48.71 8.24.58 2.11-.11 4.21-.52 6.09.93-2 1.83-4.89 1.19-6.91 2.95a221.63 221.63 0 01-58.24-23.3c-1.49-.86-3-1.62-4.55-2.46-.93-.52-2-1.15-2-2.36s1.23-1.62 2.22-2a20.28 20.28 0 017.23-1.43c0 1.72-1.2 1.51-2.23 1.56-1.58.07-3.23-.26-4.92 1.17 6.14-.52 11.72 1.69 17.49 1.61zM197.72 40.48c.65-1.37 2.26-2 2.51-3.68v-.08c1.39-.59 2-2 2.95-3.12 2.61-1.22 3.59-4.19 5.58-6.07l.25-.33-.3.27c-2.15-.15-3 2.44-5 2.65a.9.9 0 00-.42-.33c2.09-3.64 5.84-5.39 8.38-8.59a33.67 33.67 0 018.41-7.52c.25.56.51 1.11.77 1.67-.89 2.28-2.07 4.19-4.46 5-1.18.39-1.09 2-1.88 2.87-2.43-.48-3.22 1.56-4.41 3.17 1.32-.81 1.89-.32 2.05 1.05a6.57 6.57 0 01-.39 2.84 5.43 5.43 0 00-.22 4.68l-.46.56c-1.64 1.44-3.32 2.83-4.92 4.32-.65.62-2.19.75-1.38 2.38v.06l-.67.08c-.63-.67-.35-1.35-.17-2.15.29-1.21-.6-.37-1-.48l.86-2.16.58-.65.54-.66.16-.44-.38.24-.6.58-.57.6c-1.24.72-1.84 2.33-3.29 2.75-.67 0-1 .49-1.29 1zM120.27 14l-4.8 21.4c-1.43-1-3.15.93-4.53-.52.63-6 2.47-11.61 3.83-17.39.34-1.44 1.24-2.77.86-4.37l-.08-.2.11-.17c1.53.46 3.25.1 4.61 1.25z"/><path d="M120.27 14c-1.36-1.14-3.08-.78-4.61-1.25 0-4.58 2.78-8.11 3.63-12.74 1.47 1.17.81 2.65 1.5 3.54-.43 1.28-2.79 3 .72 3.4.3 0 .84 1.1.72 1.49-.89 2.91 1.46 2.68 2.77 3.46l.07-.05a1.38 1.38 0 00.45 1.85c2.38 1.42 1.6 3 .28 4.64 0-1.27-1.6 0-1.61-1.16 0-1.73-1.26-2.6-2.17-3.7l-.17-1.8zM209.87 46.46l-1.69 1.08a4.08 4.08 0 01-.4-2.64l.53-.66.56-.64c.24-.15.45-.32.11-.57 0 0-.22.22-.33.34l-.55.63-.61.57-.5.56-.6.39c-.72-.54-.57-1.9-1.66-2.1V42.2c2.79-1 3.86-4.14 6.28-5.58.38 2.06 1.75 3.44 2.91 5-.39.62-.78 1.24-1.18 1.86l-.05.06a1.73 1.73 0 00-1.09 1.17l-.06.06-.51.55-.05.06a1.68 1.68 0 00-1.11 1.08zM19.77 113.45c-5.79.08-11.35-2.13-17.47-1.8 1.69-1.43 3.34-1.1 4.92-1.17 1 0 2.2.16 2.23-1.56 3.61-.62 7.24 0 10.86-.23v1h-8.56a13.51 13.51 0 003.22 1c1.17.38 2.51 0 3.54 1a1.22 1.22 0 001.25 1.25 2.9 2.9 0 01.01.51zM72.82 142.3a4.52 4.52 0 015.72-1.1 2.18 2.18 0 00.8.3c4.92-.11 9.35 3.31 14.44 2.25a2 2 0 012.51 1.8 113.59 113.59 0 01-23.47-3.25zM145.93 26.22a4.2 4.2 0 01.06 3.63c-1.38.25-1.52-2-2.9-1.72-.11-.69.18-1.58-.77-1.87-1.56-.43-2.82-2.42-4.78-.7.4-3 .4-2.93-1.92-3.38a6.7 6.7 0 01-1.49-.7c.17-.94.35-1.88.52-2.82 1 1.92 3.48 1.5 4.34 2.48 2.01 2.32 5.24 2.5 6.94 5.08zM64.78 140.51c2-1.76 4.93-1.12 6.91-2.95a10.2 10.2 0 003.74-1.1c2.16-.92 3.64-3.05 5.93-3.67-.35 3.67-3.25 4.58-5.68 5.81a63.69 63.69 0 01-6.87 2.58 7.91 7.91 0 01-4.03-.67zM215.54 49.64c-.72-.39-2.21.82-2.13-1.36 0-.78-.87-.16-1.34-.09-.87.13-2 .76-1.92-1 1-.22.95-1 .86-1.81l.05-.06c.33 0 .5-.2.51-.55l.06-.06c.8.07 1.18-.29 1.09-1.17l.05-.06a1.58 1.58 0 001.83-.65c1.13 1.06 2.36 2 2.82 3.67-.62 1.02-1.25 2.08-1.88 3.14zM132.72 18.25c1.48 1.35.17 2.51-.23 3.73-1.77-.63-3.71.27-5.45-.67.44-2-.25-4.51 2.27-5.5a4.86 4.86 0 003.41 2.44z"/><path d="M215.54 49.64c.63-1.06 1.26-2.12 1.88-3.18 2 .76 2.47 2.3 1.76 4.31-.39 1.09-.93 2.12-1.4 3.18-1.94-.72-3.23-1.83-2.24-4.31zM104.36 144.22c3.33-.66 4.72.6 6.22 5.46l-.7.74h-1a6.33 6.33 0 00-5.25-4.33l.07-1.17h-.06c.46-.01.59-.36.72-.7zM121.27 165.62c2.48.95.82 3.2 1.29 4.78a18.49 18.49 0 01-6.29-7.21l.75-1.32c.82.52.75 2.09 2.07 2 0 .45.17.67.59.65a2 2 0 001.29 2.07c.27.1.26-.59.3-.97zM125 11.89c-1.31-.78-3.66-.55-2.77-3.46.12-.39-.42-1.46-.72-1.49-3.51-.39-1.15-2.12-.72-3.4 3.39 1.62 3.1 5.4 4.21 8.35zM117 161.87l-.75 1.32c-1.89-1.91-4.21-3.57-3.52-7l.39-.67c.61.38 1 1.2 1.92 1-.2 1.78.81 3 1.66 4.34zM291.69 76.63a5 5 0 01-3.51-1 10.24 10.24 0 017.26-3.33c-.59 2.34-3.44 1.99-3.75 4.33zM283 72.32a3.49 3.49 0 01-4.11.44 10.2 10.2 0 017.53-3.66c-.58 2.04-2.42 2.08-3.42 3.22zM211 36.62c-2.42 1.44-3.49 4.63-6.28 5.58-.81-1.63.73-1.76 1.38-2.38 1.6-1.49 3.28-2.88 4.92-4.32zM212.12 27.42c-.16-1.37-.73-1.86-2.05-1.05 1.19-1.61 2-3.65 4.41-3.17-.79 1.41-1.57 2.8-2.36 4.22z"/><path d="M108.91 150.37h1l2.85 5.78c-.59 1.15-1 .46-1.31-.2-.89-1.81-1.71-3.7-2.54-5.58zM103.73 144.87l-.07 1.17c-2.15-.11-4.34.46-6.45-.39 2.02-1.81 4.35-.5 6.52-.78zM220.82 15.35c-.26-.56-.52-1.11-.77-1.67.38-1.61 1.68-1.87 2.89-2.26.07.09.15.17.22.25v1.21l-.05-.09c-.61.1-.43.37-.11.66a3.66 3.66 0 01-2.18 1.9z"/><path d="M112.73 156.2l-2.85-5.78.7-.74.54.66a1.08 1.08 0 001 1.32 1.28 1.28 0 01.54 1.17c-.48.55-.36.94.27 1.2l.22 1.49-.39.68zM264.08 67.4c-.59-.39-2 .41-1.81-.65a2.22 2.22 0 012.58-1.75c.03.92.15 1.85-.77 2.4zM251 60.05c1.07-1.36 2.63-1.24 4.08-1.73-.17 1.32-1.15 1.7-1.8 2.39-.56-1-1.47-.54-2.26-.64z"/><path d="M251 60.07c.79.1 1.7-.35 2.26.64a3.72 3.72 0 01-1.56 1.84l-.66-.61-.16-.24zM223.63 54.35c-.68 0-1.49 1.32-1.89.39s.63-1.35 1.51-1.36c.12.32.25.62.38.97zM214.6 42.79a1.58 1.58 0 01-1.83.65c.4-.62.79-1.24 1.18-1.86 1.15-.18.73.62.65 1.21zM223.73 52.94c0-.28 0-.56-.08-.84.33-.12.74-.15.78.29a.54.54 0 01-.7.55zM165.35 34.87v-1.11l.65.32-.64.77zM211.05 35.5l.46-.56zM265.45 64.88c.1-.37.21-.13.31 0l-.16.11zM223 13.45c-.32-.29-.5-.56.11-.66zM340.58 96.33c0 8.53 3.7 15.9 6.4 23.58-.37.43-1.43.38-.89 1.42.21.42.66.88 1.08.47.62-.62-.36-1.22-.2-1.88 2.16.86 2.11 3.25 2.63 5 .44 1.48.57 2.76 2 3.63a4.57 4.57 0 012 3.24c.45 4.19 4 6 5.69 9.15 1.2 2.31 3.24 3.49 5 5.54-1.9.79-3.2-.14-4.47-.78-11-5.52-19.55-14.29-26.95-24.42a113.14 113.14 0 01-12.33-21.21c-.28-.65-.61-1.27-.94-1.89-2.84-5.3-4.14-6-9.56-4.27-2 .63-4.56.26-5.67 3a1.09 1.09 0 01-1 .35c-3-1.14-5.5.81-8.17 1.59-.64.18-1.61.13-1.81 1.12-.23 1.15.94 1.07 1.39 1.63a16.69 16.69 0 001.38 1.29 4 4 0 01-3.87-.61c-2.33-1.66-4.42-.83-6.6.08-.57.24-1.46 0-1.46 1.08 0 .83.49 1.17 1.19 1.46a2.45 2.45 0 011.61 1.73c-2.59 0-4.68-1.36-6.87-2.45 4.76-3 9.91-5.15 14.49-8.48a12 12 0 013.2-1.18c1-.35 2.1-.45 2.31-1.87l3.33-.2c.93.06 2 .54 2.47-.89.7-.32 1.7.25 2.15-.84h.61c.86 1 1.95.55 2.95.55 2.93 0 5.86-.17 8.73.69 4.11 1.22 7.69-.57 11.25-2.39a2.24 2.24 0 001.07-2.47c.54-1-.29-.57-.61-.66-.26-1.14-1.43-1.08-2-1.79l.87-.53c.34-.13.62-.3.58-.75l.78-.38 1.12-.66.58-.6 1.18-1.15 1-.84.55-.61a4 4 0 00.34-.36c-.23-.36-.41-.17-.56.1l-.64.56-1.1.64a1.81 1.81 0 00-1.21 1.17l-.57.6-1 .75a3 3 0 00-.45.14c-.69-.62.21-1.25 0-1.87a.75.75 0 000-.57 4.8 4.8 0 002.29-3.08c1-.77 2-1.55 1.73-3.11.54.14.67-.15.61-.65.47.08.6-.21.6-.65l.9-.65a2.24 2.24 0 001.29-2.26c.36 0 .54-.21.55-.59a.52.52 0 00.55-.58c1.43-.09 2.09-1 2.27-2.44l.57-.61.62.7a14.25 14.25 0 01-2.34 7.12c-.23.31-.56.75-.51 1.07.94 5.55-2.62 10.69-1.27 16.26-1.18-.2-2.37-.44-3.56-.59-1-.13-2.05-1.29-2.83-.18-.63.89.95 1.6.79 2.67-.07.07-.17.13-.19.21a.31.31 0 00.07.27l4.59 3.71zm6.87 35.67l.4.2-.2-.42-.57-.63-.57-.61-.56-.62-.57-.62-.56-.63-.57-.61-.56-.63-.57-.62c-.14-.1-.34-.32-.39-.28-.36.24-.1.43.09.61l.57.62c.19.2.39.4.59.59l.57.62.58.61.58.6c.19.2.38.41.58.6l.57.62zm-5.77-6.7l.42.22-.21-.45-.56-.63a2.58 2.58 0 00-1.11-1.85l-1.09-.75a3 3 0 00-.13-.84c-5-7.81-9.53-15.9-13.87-24.13-.28-.53-.56-1.43-1.46-.82 1.34 5.27 10.91 21.67 15.25 26.17a2 2 0 001.21 1.46 1 1 0 001 1.06zm-6.13-28.43l-.58-.62c-.22-.56-.55-.88-1.15-.62.06-.48-.13-.68-.57-.62-.2-1.21-.43-2.37-1.95-1.29-3.58-.55-1.8 2.31-2.11 3.84-1.27-.22-1.51-2.3-3.38-2.16a56.8 56.8 0 009.41 12.91 9.56 9.56 0 004.06 4.8l.59.23-.21-.65-3.6-4.77c-.22-.36-.43-.73-.65-1.1l.72-2.12.21.1h.22l1 .2c.11-.75-.47-.63-.85-.78-.12-.29-.16-.68-.6-.6a.92.92 0 00-.59-1.26l-.43-1.23c1.11-.27 1.91-1.51 3.21-1.16l.59.58.3.25-.25-.3-.53-.65a1.94 1.94 0 00-1.63-1.87l-.7-.55-.58-.62zm9 22.27l.41.22-.2-.45-.56-.62-.56-.63-.55-.63c-.43-1.08-.87-2.14-2.33-2.18a2.75 2.75 0 002 2.48l.58.6c.19.21.39.41.58.61zm-14.9-5.48l.52.29-.2-.63-.53-.31zm-1.41-3.41l-.54-.32.19.7c.2.4.4.8.61 1.2l.55.3-.19-.69c-.2-.38-.41-.77-.62-1.17zm-6-10.08l.6.31-.18-.75c-.2-.41-.39-.81-.59-1.21l-.67-1.16c-.24-.33-.66-.65-.89-.29s.34.48.58.69c.18.39.36.78.55 1.17zm17.89 8.38l.24.14-.25-.12c-.11-.94-.44-1.56-1.78-1.1zm-13.53-1.41l-.49-.68a7.44 7.44 0 00-2.5-4.22 6.14 6.14 0 002.07 4.66l.49.69c.18.71.33 1.46 1.26 1.58a2.33 2.33 0 00-.86-2.01zm9.05-21.87c1.57-.12 2.89-.64 3.1-2.48.08-.77-.5-1.81-1.3-1.57a5 5 0 00-3.31 3.06c-.42 1.16.86.9 1.48 1.01zm-4.68 30l-.26-.4c-.07.07-.2.15-.19.2a3.1 3.1 0 00.15.52zm18.13 18c0-.09.07-.22 0-.28-.14-.23-.27-.2-.33.07a.34.34 0 00.09.25s.14.02.21 0zm-25.89-31.94c0 .06-.09.14-.08.19.08.26.2.27.3 0 0 0 0-.14-.07-.19s-.13.05-.18.04z"/><path d="M300.14 92.65c-.21 1.42-1.35 1.52-2.31 1.87a12 12 0 00-3.2 1.18c-4.58 3.33-9.73 5.53-14.49 8.48l-5.65 2.1a6.67 6.67 0 01-3.27 1.12h-1c-3.36-.63-6.16 1.63-9.23 2.11-4 .63-7.37 2.8-11.07 4.1-.79.28-1.68.53-1.75 1.69a6.61 6.61 0 01-3.78 1.28l-3.65 1.84c-2.22 0-4.11 1.44-6.23 1.86-1 .37-2.17.34-3 1.28l-2.71.65c-1.67-.38-1.51 2.38-3.3 2.09-2.22-.37-3.21 1.1-2.48 3.35-2.39-.51-4.77-1.33-7.16 0-1 .21-2 .36-3 .63-2.4.65-2.57 2-1.63 4.46 1.36 3.62 4 5.68 6.76 7.73 1.36-.13 1.41 2 2.78 1.86a.68.68 0 00.53.13c.08 1 .5 1.67 1.55 1.62-.11.59-.07 1.05.68.9a1.93 1.93 0 001.74 1l.57.1.61.49c2.74 4 6.19 6.92 10.76 8.13h.1c.09 1.15.83 1.23 1.66 1.15a10.84 10.84 0 014 3.27 33.21 33.21 0 01-10.13-4.55c-9.27-6.12-17.33-13.83-24.85-22.2-1.47-1.62-2.63-1.88-4.66-1.16-6.72 2.39-13.38 5-20.3 6.75-.06-.93-.62-.89-1.15-.57-2.51 1.48-5 .75-7.46-.09.11-1.92.58-3.36 2.84-3.27a15.77 15.77 0 007.8-1.35 24.6 24.6 0 003.93-2.66c2-1.5 4 .62 5.91-.27a66.28 66.28 0 0115.22-5.25c.66-.14 1.2-.73 1.11-1.21-.73-3.57 2-2.41 3.13-2.3 2.46.22 4.71-1.51 7.19-.6a.87.87 0 001.1-1c-.22-2.22 1.36-2 2.62-2.23.81.74.92-.18 1.24-.61.87 0 1.65-.84 2.65 0a1.81 1.81 0 002.53-.58c2.16-3.74 6.93-2 9.27-5.27.3-.42.83.15 1.25.35 1.73.85 3.22.57 5-.4 2.18-1.18 4.27-3.57 7.18-2.1a3.11 3.11 0 01.28.23l-.22-.3c.71-.64 1.4-1.66 2.32-1.56 3.73.42 6.7-2.67 10.35-2.43 2.05.14 2.9-2.31 4.93-2.49s4.33-.45 5.64-1.73c1.1-1.06 3.92.06 3.45-2.92a5.43 5.43 0 01.09-.56c2.41 1.92 3.62-1.79 5.89-1.43 1.38.22-.11-2.32 1.25-2.84.69 2.15 2.79 2.61 4.55 1 .4-.37.49-1.63 1-1.2 2.08 1.94 4.18-.16 6.22.33z"/><path d="M174.42 137.33c2.48.84 5 1.57 7.46.09.53-.32 1.09-.36 1.15.57a117.63 117.63 0 01-36.43 7.25c-8.42.37-16.79 1.94-25.26 1.37-.16-.5-.55-.58-1-.64-.12-.77-.48-1.24-1.28-1.11l-1.13-.65c.25-1.11-.83-1.21-1.2-1.84 2.34 0 4.18 2 6.53 1.85 3.26-.26 6.52-1 9.77-.93 6.16.11 12.14-1.35 18.17-2.23 6.64-1 13.29-1.38 20-1.84 1-.07 1.52-1.08 2.13-1.81zM248.14 115.28c.07-1.16 1-1.41 1.75-1.69 3.7-1.3 7.06-3.47 11.07-4.1 3.07-.48 5.87-2.74 9.23-2.11a6.69 6.69 0 01-3.37 1.32 1.92 1.92 0 00-1.68 1.43c-.14 1 .88.86 1.35 1.26s1.64.58 1.75 1.91a4.7 4.7 0 01-3.94-1.06c-4.06-3.14-7.23.72-10.77 1.4-1.23.24-.48 1.59.15 2a12.19 12.19 0 012.51 2.45 10.31 10.31 0 01-6-2.17 2.41 2.41 0 00-2.05-.64zM220.76 142.29c-1.37.15-1.42-2-2.78-1.86 0-2.83 2-5.77-.47-8.47-.35-.39 0-.94.37-1.28l.53.06.55.65.38.24-.22-.42-.6-.58-.63-.57c0-.84-.32-1.31-1.16-1.24l-.57-.9a.47.47 0 00-.31-.33c2.39-1.31 4.77-.49 7.16 0v.62c-1.49 1.68.87 4.65-1.85 6 1.39-.29 1.87 1.34 3 1.39a1.27 1.27 0 010 .58c-3.01.82-3.68 3.17-3.4 6.11zm.24-11l.45-.24c-.14-.09-.27-.25-.42-.26s-.3.14-.45.21z"/><path d="M220.76 142.29c-.28-2.94.39-5.26 3.38-6.09a5.68 5.68 0 01.94.5c-1 3.69 1.6 6.15 2.59 9.14a1.37 1.37 0 00-1.23.71l-.61-.49a1.21 1.21 0 00-.49-1.31c-.78-1.74-1.28-.54-1.82.19-.75.15-.79-.31-.68-.89a2 2 0 00-.7-2.52c-.33-.28-.71.41-.85.89a.68.68 0 01-.53-.13zM345.91 58.85c.79 2.54-.52 4.39-1.77 6.27-.16-.34.12-1.12-.58-.93s-.66.79-.61 1.39l-.57.61a2.4 2.4 0 00-2.27 2.44l-.55.58-.55.59-2.39-.06c-.32-.44 0-.79.14-1.16a3.28 3.28 0 001.42-1.84.31.31 0 00.28-.31l1.83-2.08c.86-.93 2.1-1.56 2.14-3.15l.54-.58.54-.59.55-.59.55-.59zM224.13 135.62c-1.14-.05-1.62-1.68-3-1.39 2.72-1.35.36-4.32 1.85-6l.61.32a.42.42 0 00.34.31l1.19.83.47.14-.16-.47-.12-.6c.19-.46-.31-1.76.94-.95a2.84 2.84 0 001.91.43c-.76 1.84-1.53 3.69-2.29 5.54-1.19-.07-1.24 1.12-1.74 1.84z"/><path d="M223.92 128.86a.42.42 0 01-.34-.31c.07-.49-.08-.84-.57-.94-.73-2.25.26-3.72 2.48-3.35 1.79.29 1.63-2.47 3.3-2.09-.53 2 .91 4.2-.66 6.05a2.84 2.84 0 01-1.91-.43c-1.25-.81-.75.49-.94.95zM226.44 146.55a1.37 1.37 0 011.23-.71l9.53 8.84c-4.57-1.21-8.02-4.13-10.76-8.13zM333.85 92.63c.16-1.07-1.42-1.78-.79-2.67.78-1.11 1.87.05 2.83.18 1.19.15 2.38.39 3.56.59.38 1.87.75 3.73 1.13 5.6l-2.26.49c.61-3.82-.7-5-4.47-4.19zM240.71 118.4l3.65-1.84c-1.18 2.68 2.13 2.52 2.37 4.51a8.82 8.82 0 01-6.02-2.67zM231.52 121.54c.79-.94 1.95-.91 3-1.28l2.85 3.68c-2.37-.34-4.29-.82-5.85-2.4zM271.22 107.4a6.67 6.67 0 003.27-1.12c-.1 2.09 2.5 1.6 2.76 3.49a7.8 7.8 0 01-6.03-2.37zM346.19 141.06c.89.12 1.48.59 1.42 1.55s-.55 1.58-1.43 1.54a1.49 1.49 0 01-1.43-1.57 1.52 1.52 0 011.44-1.52zM345.91 58.85h-1.23a7 7 0 014.66-4.19c-.52 1.95-2.11 2.94-3.43 4.19zM324.09 116l-1-.54-.33-.41c1-.91 1.95-1.73 3.14-.34a2.82 2.82 0 00-.36.33c-.83-.57-1.34-.53-1.23.73zM343 65.58c-.05-.6.05-1.23.61-1.39s.42.59.58.93a1.13 1.13 0 01-.57 1.16zM239 155.88c-.83.08-1.57 0-1.66-1.15a1.85 1.85 0 011.66 1.15zM323.05 115.44c-.29.4-.57.83-1.09.33l.76-.74z"/><path d="M325.86 114.69c.43.16.67.61.34.88s-.49-.31-.7-.56a3.73 3.73 0 01.36-.32zM324.27 115.75c.26.13.55.36.28.61s-.41-.09-.46-.38zM225.86 133.78l.26.22h-.14a1.33 1.33 0 01-.09-.21zM349.33 54.63l.45-.74zM255 78.47c2.95-.66 6.06.59 9-1.36 1-.64 3.24.37 3.86 2.22.52 1.57 1.61 2.18 2.78 1.91s1.74.43 2.56.82c1.07.5 2.06 1.36 3.39.33s2.16.76 3.3 1c2.26.57 4.16-.93 6.39-.65 2.53.33 5.63 1 7 2.2 1.63 1.38 2.61.81 3.94.86 1.15.81 1.68 1.62 0 2.44a21.48 21.48 0 01-8.15 1.18c-2.94 0-5.65-2.78-8.75-.81-.22.14-.7-.22-1.07-.33-3-.9-6.3 1.38-9.1-1.18-.08-.07-.44 0-.49.15-1.3 2.89-2.24.55-3.28-.25-.4-.31-.19-1.32-1.07-1.11-3.51.8-6.67-.4-9.78-1.93a1.12 1.12 0 00-.09-.22s-.1 0-.15-.05l.23.27c0 .49 1.06 1.17-.19 1.41-1.93.36-1.95-1.55-2.65-2.65v-1.88c-.12-.54.16-1.6-.54-1.45-.87.18 0 .94 0 1.45.06.67-.12 1.42.54 1.89-.37 3.23-2.5 2.39-4.27 2-3.36-.7-4.1-.55-6.37 1.84a.74.74 0 01-.75.07c-1.18-.6-3.71 2.43-3.66-1.59 0-.57-.81-.06-1.21-.13-2.31-.4-4.51.54-6.78.56-.95 0-2.34.13-2.34-1.32 0-2.45-.77-2.51-2.59-1.67-.88.41-3 .73-2.67-.86.61-3.34-1.55-2.41-2.91-2.74-.79-.2-1.69.2-2.42-.48-.07-2.07-.8-1.79-1.79-.59.46.69 1.15.54 1.79.59.63 2.45.53 2.12-1.53 2.78-3 .95-2.2-.91-1.85-2.44.41-1.8.54-3.29-1.76-3.41l-.2-.14.2.14c1.35 2.8 1.35 2.8-3.31 4.35-.23-1 1-2.47-.69-3.12l-.23-.15.24.14c.79 2.45-1.46 2.54-2.46 3.13-1.53.9-.74-1.83-1.86-2-1.28.64 1.53 3.32-1.39 3.13-.21-1.6-1.38-1.12-2.29-1.22l-.24-.14.23.15a3.39 3.39 0 002.31 1.39c-1.13.65-3.1 1.13-3.27 0-.51-3.23-1.93-1.23-3.16-1 1.21.61 1.56 2 2.5 2.82 0 .18 0 .37-.08.55a5.32 5.32 0 01-3.39 0c-.56-.79-.62-2-1.69-2.37-.21-.61-.63-1.32.52-1.31l.27.12-.24-.16v-1.77c.13-.22.27-.44.4-.67l-.2-.16-.23.8c-.93.67-1.87 1.8-3 1.16-1.43-.77.4-2.58-.71-3.65-1.17.92-2.86.22-4.19 1.4l2.79 1.9c-1.21 1-3 .66-3.42 2.32l-.7-1.67c-1.11-.78.5-3.18-1-3-1.15.16-2.56-.67-3.65.37.61 1.33 1.93.82 2.74 1.55-.78 1.86-2.3 1.46-3.68 1.46a9 9 0 01-.45-3.23c-1.28 1.31-1.31 2.42.43 3.25-.36 1.62-.94 2.28-2.59 1.25-1.3-.81-2.85-.55-4.41-.38-2.62.28-5.31 1.29-7.89-1a5.87 5.87 0 00-6.67-1.23c-.73.34-1.24-.32-1.9-1.15-1-1.31-.64-3.07-1.83-4.16-2.55-2.34-7.58-2.85-10.41-.9-.18.12-.17.55-.25.84a124.86 124.86 0 00-14.22-2.52c-.14-1.31.36-2.87-1.18-3.66l-.26-.25.24.28c.41 3.71-3.21-.22-3.57 2.57 1.88-.84 3.12.67 4.67 1.17-.29 3.13-1.36 3.48-4.84 1.58-.57.82.15 2.11-1.15 3-.65-1.63-1.78-2.41-3.47-1.62-.26.11-1-.13-1-.32-.77-3.48-3.87-1.91-5.7-3.07a1.28 1.28 0 00-1.61 0c-.6.61.11 1 .31 1.56.31.82.78 2.22-.38 2.09-1.45-.16-3.33.35-4.35-1.5l-.27-.24.21.3c.49 2.3-1.15 2.6-2.55 3.18l-1.28-3.13c-1.39 1.54-3 2.85-4.45 1.12-2.35-2.87-.21-9.14 3.05-8.58 4.08.69 2.71-1.87 3-3.73a4.78 4.78 0 00-.81-2.68l10.34-.71c-.42-1.36-1.59-.49-2.18-1.13 1.65-1.5 3-.25 4.53.63l.22-3a2.24 2.24 0 011 1.89c.07.84.4 1.33 1.24 1.3a1.61 1.61 0 001.4-.87c1.76-2.84 3.49-3.22 6-1.05 1.28 1.12 2.41 1.05 3.44 0s1.85-1.25 3.3-.2c1.64 1.19 3.94-.06 6 1.11 2.31 1.34 5.34-.12 7.74 1.78 1.26 1 1.58-.22 1.78-1.31.76.59.25 2.18 2.47 1.77s4.92.73 7.54.26c1-.18 2.14.68 3.2 1.09.64.26 1 1.4 1.92-.1.6-1 .74.6 1.1 1s1.3 1 .06 1.5c-.78.31-1.51.7-1.28 1.69.29 1.22 1.08.22 1.64.26.4 0 .92.11.89.54-.24 4.07 3.23 3.5 5.17 4.71 1.77 1.11 4.06.81 5.85 2l-.14.24.12-.26c.37 0 .94.08 1.08-.13 1.7-2.53 1.49-3.32 5.9-1.93.6-1-.4-1.89-.11-2.85.74.57 1.81.46 2.39 1.44.85 1.44 1.64 2.22 2.58-.1.45-1.09 7.05-1.23 8.19 0 1.73 1.91 3.28 1.89 5.11.48.09.09.17.18.26.26l-.24-.28c.8-1.82 2-.57 2.35 0 1 1.71 2.74 1.18 4 1.93.87.5 1.35-.19 1.93-.77 2.22-2.22 6.71-.82 7.19 2.32.17 1.11.57 1.2 1.37 1.45 3.84 1.19 7.8.75 11.69 1.19a.61.61 0 00.09.2s.09 0 .14.05l-.24-.24c1.2-1.2 1.87-.5 2.67.67 1.27 1.85 2.07 1.82 3.26.19.85-1.18 1.77-.28 2.52.06 1.16.54 2.19 1.4 3.45.27a1.28 1.28 0 01.78-.18c1.11 3.49 4.66.48 6.23 2.7a.77.77 0 00.73.18c1.94-.79 2.34-.69 4.71.73 1 .63 1.09-.07.78-.94z"/><path d="M142.51 72.94c.08-.29.07-.72.25-.84 2.83-1.95 7.86-1.44 10.41.9 1.19 1.09.8 2.85 1.83 4.16.66.83 1.17 1.49 1.9 1.15a5.87 5.87 0 016.67 1.23c2.58 2.34 5.27 1.33 7.89 1 1.56-.17 3.11-.43 4.41.38 1.65 1 2.23.37 2.59-1.25 1.38 0 2.9.4 3.68-1.46-.81-.73-2.13-.22-2.74-1.55 1.09-1 2.5-.21 3.65-.37 1.47-.19-.14 2.21 1 3-.45.87-.71 1.74.14 2.54l.56-.87c.44-1.66 2.21-1.31 3.42-2.32l-2.79-1.9c1.33-1.18 3-.48 4.19-1.4 1.11 1.07-.72 2.88.71 3.65 1.17.64 2.11-.49 3-1.16v1.81c-1.15 0-.73.7-.52 1.31.19.95.42 1.88.57 2.83.28 1.68-.6 1.73-1.74 1.38-.58-1.3-2.73-.5-2.84-2.44l.13-.25-.14.24c-2.19 3.38-5.4 1-8.05 1.33-2 .27-2.76.44-3 2.59-.1.91-.65 2.69-2 1.51-2.11-1.82-4.1-.73-6.18-.29s-4.5.26-4.93 3.45c0 .23-.59.39-.9.58-4 2.36-8.52 2.77-12.8 4.08-.87.26-2.74 1.06-3.79-.56.3-.25.57-.62.9-.72a44.48 44.48 0 0011.75-5.09c.46-.29 1.29-.19.93-1.05-.66-1.61.73-1.52 1.34-2 .77-.66 2.13-.27 2.59-1.7-5.37-1.46-10.58-3.21-16.08-4.22a102.83 102.83 0 00-17.95-2.18c-1 0-2.19-.6-3-.22-4.21 1.93-8.83 1.81-13.12 3.25-1.79-1.14-3.75-.21-5.61-.56l-.24-.13.21.16c-.42.75-1.12.54-1.76.63-1.93.26-4.64-1.09-4.91 2.78 0 .45-1 1-1.91.28-2.16-1.71-4.18-1-6.07.69-.3-1.07.12-2.45-1.17-3.08l-1.29-3.77c.51-.15 1.42-.57.65-1-2.41-1.27-1.72-3.17-1.27-5.11l.08-.09c1.21.43.89 1.86 1.53 2.79a6.2 6.2 0 011.82-.85c3.3-.3 1.65-1.89.76-3.24-.6-.9-1.54-.92-2.48-1.16-1.79-.45-2.88 1.4-4.5 1.25a10.22 10.22 0 00-5.15-3.83c-.19-.45-.55-1 0-1.34a12.19 12.19 0 017.55-2.56c-.26 1.08-1.39 2.2-.17 3.27s1.53-.52 2.24-1c.14-.09.39-.26.44-.22 1.54 1.43 1.79-.56 2.1-1.17.62-1.23-.89-1.16-1.34-1.79v-1.26c3.23 1 6.47-1.1 9.7 0-.27 1.86 1.1 4.42-3 3.73-3.26-.56-5.4 5.71-3.05 8.58 1.41 1.73 3.06.42 4.45-1.12l1.28 3.13c1.4-.58 3-.88 2.55-3.18l.06-.06c1 1.85 2.9 1.34 4.35 1.5 1.16.13.69-1.27.38-2.09-.2-.51-.91-.95-.31-1.56a1.28 1.28 0 011.61 0c1.83 1.16 4.93-.41 5.7 3.07 0 .19.74.43 1 .32 1.69-.79 2.82 0 3.47 1.62 1.3-.87.58-2.16 1.15-3 3.48 1.9 4.55 1.55 4.84-1.58l.1-.11A124.86 124.86 0 01142.48 73c.08.27.16.53.23.79a1.49 1.49 0 00.21-.15c-.13-.26-.27-.48-.41-.7zm-30.65-1.32c.38 3.68 2.94 2.19 4.9 3-.97-2.78-2.76-3.03-4.9-3z"/><path d="M94 61.2v1.26c-.94.92-2.19.55-3.27.89a12.19 12.19 0 00-7.55 2.56c-.54.38-.18.89 0 1.34l-.06.82a2.17 2.17 0 00-2.14 1.2c-.72 1.64-1.79 1.06-2.48.47-2.65-2.24-5.55.25-8.22-.7l-.25.84-1.4-.25c-.25 2.13-3.23 0-3.28 2.42-2-1.56-3.11 1.17-4.85 1.15-.71 0-2.34.25-2.14 1.47.25 1.5 1.48.42 2.33.39a7.74 7.74 0 012.21.4c3.07.86 6.61-.57 9.3 2.41.66.73 1.71 1.39 1.52 2.29a4.39 4.39 0 01-2.32 2.47c-1.82.75-2 .4-2 .71a75.8 75.8 0 001.46 14.74c.23 1.25-.24 2.71.77 3.78v1.81c-1.57 1.2-.56 1.88.45 2.56l-.16 2.22c-.08 1.53-.24 3-.23 4.58 0 2.7-.2 5.27-2.22 7.23l-2.33 1.25c-.16-1.31.61-2.28 1-3.4 1.17-3.3 2-6.63.66-10.13 0-1.66.24-3.36-.55-4.92a65.17 65.17 0 00.24-8.47c-.17-3.38.28-6.9-.78-10.22-.19-.62-.49-2-1-1.11-1.71 2.74-2.44-.26-3.58-.5l-.24-.76-.2.15c.13.23.27.45.41.67-.19 1.92-1.94-.29-2.36 1.07.23.15.46.32.71.46.7.4 1.82.35 1.61 1.72s-1.24 1-2 1.07-1.48-.32-1.56 1.09c-.07 1.1-1.13.82-1.49.29-1.35-2-2.22-.59-3 .45-.59.74-1.1 1.4-2.1 1.21 1.15-2.27 1.28-5 3.07-7.16L54 82.73c.13-.56 1.09-.59.7-1.69L50 82.78c-.18.17-.74-.25-.59.43l.58-.43a1.09 1.09 0 011.19.73c0 1.18-2.4-.52-1.66 1.58-1.6 0-2 .86-1.29 2.3.46.94-.94 3 .81 2.84 2.06-.15.9-1.84.53-3a1.05 1.05 0 01.72-1.41c1.7 1.48 1.37 5.25-.6 6.87-.56-.73-1.13-1.45-2.16-1.28-.1-.16-.28-.33-.29-.5-.31-6-6-9.55-11.08-6.77A3.86 3.86 0 0034 86.83c-.54 2.78-1.22 5.58.62 8.15l-2.25-.65c-.23-1.64.26-3.39-.6-5.41-1 2.33-1.5 4.11.44 5.6.25 2 1.59 1.86 2.93 1.75.19 1.38.69 1.77 1.69.63 2.08-.48 4.15 1.46 6.23 0l1.29.29-.07 1.34c-.06 1.73-1.79 1.08-2.43 2-1 0-2.08.08-3.11 0s-2.79.57-3.21-.4c-1.53-3.6-4.72-3.6-7.83-4.33 2-1.4 2.41-2.73.55-4.31-.31-.27-.37-.88-.55-1.34.19-.2.38-.41.56-.62s.39-.41.58-.61l.57-.62.57-.61.57-.62c.22-.14.8.3.62-.45l-.61.46-.56.62-.57.61-.57.62-.57.62-.58.6c-5.53 2.11-6.35 5.42-2.52 10.14a4.37 4.37 0 01.93 2.52c-4.67-.8-9.48-1.13-13.79-4.23 1.34-.81 2.19-.12 3.06.16 2.82.92 3.68.57 3.66-2.42 0-3.72.91-6.24 4.42-7.63 1.45-.57 2.54-2.38 3.62-3.78.91-1.17 1.46-2.79 3.23-1.16.37.35.9-.13 1.21-.52 3.23-4.13 8-5.83 12.27-7.76 2.85-1.29 6-2.84 9.27-3.11 1-.08 1.8-.11 2.26-1.34a1.47 1.47 0 011.93-.86c1.73.69 2.37.13 2.52-1.86.13-1.64 3.37-2.4 5-1.11 1 .78 1.94.87 2.32-.26.78-2.36 2.65-2.94 4.43-3 2.39-.13 3.8-2.63 6.5-2.31 1.51.18.56 2.07 2.42 2 2.35-.1 3.81-1.86 6-2.09 1.71-.18 3.26-1.74 5.16-.41.72.5 1-.69 1.55-.95 1.15-.63.71.5.84 1.03zM57.25 81.84l-.2.46c.15.07.33.22.43.17s.14-.28.21-.44zm2-.64a.7.7 0 00-.23-.08s0 .13-.08.2a.55.55 0 00.24.07s.08-.12.1-.19zM211.6 75.41c2.3.12 2.17 1.61 1.76 3.41-.35 1.53-1.12 3.39 1.85 2.44 2.06-.66 2.16-.33 1.53-2.78.73.68 1.63.28 2.42.48 1.36.33 3.52-.6 2.91 2.74-.29 1.59 1.79 1.27 2.67.86 1.82-.84 2.6-.78 2.59 1.67 0 1.45 1.39 1.33 2.34 1.32 2.27 0 4.47-1 6.78-.56.4.07 1.22-.44 1.21.13 0 4 2.48 1 3.66 1.59a.74.74 0 00.75-.07c2.27-2.39 3-2.54 6.37-1.84 1.77.37 3.9 1.21 4.27-2 .7 1.1.72 3 2.65 2.65 1.25-.24.21-.92.19-1.41 3.11 1.53 6.27 2.73 9.78 1.93.88-.21.67.8 1.07 1.11 1 .8 2 3.14 3.28.25.05-.11.41-.22.49-.15 2.8 2.56 6.13.28 9.1 1.18.37.11.85.47 1.07.33 3.1-2 5.81.79 8.75.81a21.48 21.48 0 008.15-1.18.66.66 0 010 .44c.39 1.59 1.59 1.45 2.71 1.44 2.66 0 5.31-.06 8-.09l.14.64c-.45 1.09-1.45.52-2.15.84-1-.15-2.06-.72-2.47.89l-3.33.2c-2-.49-4.15 1.61-6.23-.26-.49-.43-.58.83-1 1.2-1.76 1.61-3.86 1.15-4.55-1-1.36.52.13 3.06-1.25 2.84-2.27-.36-3.48 3.35-5.89 1.43a2.73 2.73 0 010-.57c.07-.06.21-.14.2-.17a2.48 2.48 0 00-.2-.44c-.79-1.36.23-1.84 1.24-2.44-1.83.33-2.68-1.39-4.22-1.78-2.64-.68-5.3 1.2-7.9-.77a4.78 4.78 0 00-4.72 0c-2.55 1.93-5.08 1.77-7.81 1.3a.5.5 0 00-.09-.21h-.15l.23.27c-.85 1.33-2.32.61-3.33.76-1.91.27-5.18-.37-5.67-1.28-1.73-3.16-2.74-1.67-4.13-.1-2.08-.08-3.43-2.87-6.05-1.49-1.8 1-4.26-.13-6.64.06-2.14.16-3.41-.17-4.4-2.09-.32-.62-.87-.38-1.25-.15-2.75 1.7-6-.23-9.07 1.68 1-.94 1.65-1.38.28-2.22-2.1-1.28-2.78-.28-3.12 1.74-1.36 0-1.86-1.08-2.28-2.25-2.31 4.17-2.88 4.42-7.21 2.86-3.19-1.16-6.71-2-7-6.69-.94-.81-1.29-2.21-2.5-2.82 1.23-.26 2.65-2.26 3.16 1 .17 1.08 2.14.6 3.27 0 2.92.19.11-2.49 1.39-3.13 1.12.14.33 2.87 1.86 2 1-.59 3.25-.68 2.46-3.13 1.66.65.46 2.08.69 3.12 4.66-1.55 4.66-1.55 3.31-4.35zm-5.36 6c.17.18.34.45.56.54s.56-.07.38-.44a1.41 1.41 0 00-.62-.46s-.19.26-.32.41z"/><path d="M26.11 102.81a4.37 4.37 0 00-.93-2.52c-3.83-4.72-3-8 2.52-10.14.18.46.24 1.07.55 1.34 1.86 1.58 1.46 2.91-.55 4.31 3.11.73 6.28.73 7.84 4.34.42 1 2.11.34 3.21.4s2.07 0 3.11 0c0 1-.36 2 1.34 2 1.37.06 2.7-.28 4-.13.79.49 1.74.77 2.2 1.74l-1.19.11c-.19-.43-.38-.42-.57 0l-.13.28.14-.26h.56a5.33 5.33 0 01-.36 3c-.13.42 1.32 1.24-.29 1.3-1.37.06-3.14.79-4 .54-3.21-1-3 2.29-3 3.19 0 1.41 1.75 1.7 3.11 1.41a1 1 0 011.21.44l-.69 1.16a24.28 24.28 0 01-5.94-.9c1.28 1.55 2.37 3.44 4.72 2.18h1.71l.64 1.24c-.52.92-1.71.17-2.26 1-.06 1.14.63 1.33 1.47 1.37 4.08.18 8.16.39 12.23.59-1.2 1.41-2.69 1.33-4.19.8a2.28 2.28 0 00-2.44.12c-1.26 1.18-2.48 1-3.93.42-1.61-.67-2.92.3-4.07 1.43s.35 1.76.4 2.67c-1.67-.08-3.23-.83-3.67-2.47s-1.36-.92-2.11-1.16l-.57-.62c.24-1.83-.93-1.89-2.1-2-.09-.56-.19-1.13-.28-1.7 1.3-1-.37-2.06.1-3.07 2.18-5.32-.36-10.54-5.73-11.81a22 22 0 01-2.06-.6zM18 115.83h2.84c1 1.19 2.17.84 3.34.38h1.27l6.79 4.47c.62.07.74 1.23 1.58.85l.1-.07c-.23.68 0 .89.59.63A1.91 1.91 0 0036.8 124c-.46.53.11.8.27 1.17-1.1.23-1.25 1.9-2.5 1.92-.78-.09-1.34-1.06-2.24-.68-.28-1-.55-.41-.82 0-1.64-1.19-2.25-3.61-4.39-4.19l-7.86-2.68c.14-1.49-1.33-2.3-1.26-3.71zM134.13 21.48a6.7 6.7 0 001.49.7c2.32.45 2.32.42 1.92 3.38 2-1.72 3.22.27 4.78.7-.24 2.53-1.59 4.79-1.62 7.37a1.38 1.38 0 00-.45 1.28l-.63 1.77c-1.07-.22-2.53.63-3-1.29.22-1.66.45-3.32.64-5 .09-.82.11-1.65-1-1.61a2.45 2.45 0 01-.76-3.41c-1 1-1.63 1-2.08-.27-.22-1.3.48-2.41.71-3.62zM331.63 89.58c-3.56 1.82-7.14 3.61-11.25 2.39-2.87-.86-5.8-.69-8.73-.69-1 0-2.09.42-2.95-.55v-.83c.61-1.25 2.13-.6 2.87-1.58 2.28-.62 4.54.09 6.81 0-.49 1-1.71.17-2.39 1 3.53 1.88 6.64 1.2 7.62-1.57a1 1 0 011.06.61c.14 1.16 1.2 2.34 1.72 1.51 1.79-2.87 3.49-.57 5.24-.29z"/><path d="M30.45 107.42c1.55.13 1.75 1.76 2.29 2.76 1.08 2 0 3.51-2.13 3.42-1.73-.07-3.15-1.11-4.66-1.87a.87.87 0 00-1.05-.7c0-2.2-2.47-2.65-2.92-4.61 2.21-.73 4.29.31 6.42.31l1.51.49zM337.32 57.12c.61-.43 1-1.31 2.55-1.25-6 8.44-10.95 17.18-16.35 25.6.61-4.5 3.51-7.7 5.14-11.58zM342.37 61.29c0 1.59-1.28 2.22-2.14 3.15l-.78-.77c-.24-.4-.38-.22-.49.1l-.59.64c-.08 0-.24.1-.23.12a3.61 3.61 0 00.16.42l.06 1.62a.31.31 0 01-.28.31c-1.2-.2-1.82.48-2.13 1.62-2.36 1.35-3.15 4.44-5.56 5.73.62-4.32 3.71-7.14 5.68-10.63a8.76 8.76 0 013.14-3.81c.07 2.91 1.61 2.21 3.16 1.5zM125.32 21.35c-.61 2-.2 4.31-1.58 6.09-1.17.06-2.54-.16-2.35 1.88-1.72-1.18-.47-3.55-1.7-4.94l.11-1.27c.35 0 .76-.09.77-.55s-.39-.53-.74-.58l.93-3.21c0 1.38 3.07-2.1 1.8 1.31a1.24 1.24 0 00-.2.1v.16l.22-.26a2.67 2.67 0 012.74 1.27zM125.27 34.88l.27-2.54c2.82-3.05 3.09-4.86 1.09-7.25v-1.2c1.74-.14 3.5 1 5.23-.1q-1.33 6.06-2.68 12.12a.87.87 0 01-1-.39c-.56-2.39-1.69-1.78-2.91-.64zM149.5 35.45c1.05-.07.95-1.09 1.24-1.78.37-.89.45-2.19 1.79-1.82s2.16 1.42 2.18 3.2c0 1.32-.87 2.8-1.31 2.59-3.57-1.71-6.9 1.4-10.42.38-1.33-.39-1.85-.78-1.3-2.2a3.25 3.25 0 003.38-.58l1 .88c1.31.63 2.33-.27 3.44-.67zM336.56 69.83l2.39.06a2.24 2.24 0 01-1.39 2.44l-.9.65-.6.65-.61.65c-.89.84-2 1.53-1.73 3.11-1.61.29-2.32 1.37-2.29 3.08-.24 0-.69 0-.7.12-.08.59.41.34.67.45.22.62-.68 1.25 0 1.87v.64l-.58.75-.87.52h-.15c-.53-.74-1.36-1.21-.88-2.52a2.77 2.77 0 00-.34-3.06l4.48-5.63c1 .48.42-.45.58-.72l.35-.49c.84.09 1.37-.22 1.37-1.23l.58-.63.58-.63z"/><path d="M337.32 57.12l-8.66 12.77c-1.05-1.46 1.31-2.32.57-3.73a1.59 1.59 0 001.16-1.86 1.71 1.71 0 001.68-2c-.26-2.46 1.34-3.79 2.45-5.44.96-1.45 1.92-.86 2.8.26zM133.45 25.12c.45 1.25 1.1 1.29 2.08.27a2.45 2.45 0 00.76 3.41c-1 2.11-.59 4.64-1.78 6.68-.63-.91-1.12-2.18-2.53-1.2-.05-3.15 1.07-6.09 1.47-9.16zM28.35 106.68c-2.13 0-4.21-1-6.42-.31.45 2 2.91 2.41 2.92 4.61-1.52-.13-2.14-1.46-2.93-2.56-1.08-1.5-2-3.18-4.25-4.44 3.87-.51 6.86.38 9.84 1.25a1.38 1.38 0 01.84 1.45zM119.64 24.42c1.23 1.39 0 3.76 1.71 4.94l.26.24-.22-.28c-.19-2 1.18-1.82 2.35-1.88 1.19 2.06-1.45 3.51-.76 5.5l-.88-2.11a11.18 11.18 0 00-3.77 2.67 36.15 36.15 0 011.31-9.08zM176.47 41.22c.76 2.33-1.28 1.61-2.65 1.55s-2.89-.15-2.64-2.23c.16-1.29 1.08-3.25 2.1-2.61s3.6-.17 3.19 3.29z"/><path d="M118.33 33.5a11.18 11.18 0 013.77-2.67l.88 2.11c-.21 1.19-.43 2.38-.64 3.57-1.56.33-3.27-.75-4.73.55zM212.27 55.07a106.37 106.37 0 0119.87 6.36l-20-5.64zM110.94 34.87c1.38 1.45 3.1-.45 4.53.52.18 1.67-.16 2.82-1.93 3.38a15.52 15.52 0 00-3.49 2.23 12.21 12.21 0 01.89-6.13zM334.14 72.3c-.12.16-.24.32-.35.49l-.58.72-4.48 5.63c-.69.73-1 2-2.34 1.79.11-1.83 1.62-2.8 2.29-4.29l.48-.68a1 1 0 00.18-.42 1.14 1.14 0 001-1.34c2.42-1.29 3.21-4.38 5.57-5.73l.71.22c-.12.37-.46.72-.14 1.16h.09c-.61-.23-.67.12-.58.63-.49-.11-.65.14-.58.63-.76-.11-.91.66-1.27 1.19zM125.32 21.35a2.67 2.67 0 00-2.82-1.23c1.27-3.41-1.79.07-1.8-1.31a18.41 18.41 0 011.3-5.34c.91 1.1 2.15 2 2.17 3.7 0 1.16 1.61-.11 1.61 1.16-.04 1.02.52 2.17-.46 3.02zM311.54 88.32c-.74 1-2.26.33-2.87 1.58l-.72.18c-2.66 0-5.31.07-8 .09-1.12 0-2.32.15-2.71-1.44a98.58 98.58 0 0114.3-.41zM160.1 33.49c-.8 1.84.37 5.26-2.57 4.91s-2.68-2.88-.85-4.64c.61-.59 2.2.54 3.42-.27zM128.18 35.52a.87.87 0 001 .39c-.29 1.49.16 3.42-1.26 4.31-2 1.28-3.22-.22-3-3.61zM167.82 35.59c.52 1.4 3.17.38 3 2.79-.07.85-.21 2.28-1.67 1.87s-3.12-.58-2.63-3c.11-.77-.05-1.73 1.3-1.66zM165.33 34.85a12.28 12.28 0 010 1.82c-.13 1 .63 2.67-1.58 2.1-1.61-.41-3.33-.29-2.94-2.9a1.64 1.64 0 01.88-1.44c.58-.24 1.05-.07 1.36.63.89 2.07 1.55.17 2.3-.19zM198.94 41c.31-.51.62-1 1.29-1 1.08 2.19 1.82.06 2.7-.26.36.11 1.25-.73 1 .48-.18.8-.46 1.48.17 2.15-.15.57-.31 1.14-.46 1.71-.39 0-.57.17-.55.59a4 4 0 01-2.81-2.67c-.21-.58-.77.21-1.19.27zM149.5 35.45c-1.11.4-2.13 1.3-3.41.67.39-1.64.16-3.42.94-5l3.07.63zM136.67 35.39c.42 1.92 1.88 1.07 3 1.29a15.12 15.12 0 01-.1 2.14c-.33 1.87-2 2-3.1 1.88s-.52-1.52-.21-2.2c.41-1.03-1.48-2.41.41-3.11zM331.63 89.58c-1.75-.28-3.45-2.62-5.27.29-.52.83-1.58-.35-1.72-1.51 2.33-1.69 4.95-1.38 7.53-1.28h.53a2.24 2.24 0 01-1.07 2.5zM18.51 111.69c-1-1-2.37-.59-3.54-1a13.51 13.51 0 01-3.22-1h8.53c1.67.54 2.7 1.23.55 2.67zM145.06 35.24a3.25 3.25 0 01-3.38.58v-1c0-.41.11-.82.17-1.24.26-.8-.09-1.77.57-2.46.79.86 1.52 1.83 2.78 1.9-.05.75-.09 1.49-.14 2.22zM323.58 87.75c-1 2.77-4.09 3.45-7.62 1.57.68-.8 1.9.05 2.39-1 1.13-.31 2.41.34 3.44-.61l.08-.09zM134.42 36.65v1.52c-.06 1.65-.78 2.95-2.38 2.65s-.8-1.87-.65-3a11.86 11.86 0 01.27-1.18z"/><path d="M117.61 37.06c1.46-1.3 3.17-.22 4.73-.55-.47 2.53-2.79 4-4.58 2.77-.76-.53-.31-1.46-.15-2.22zM145.2 33c-1.26-.07-2-1-2.78-1.9a6.31 6.31 0 01.67-3c1.38-.23 1.52 2 2.9 1.72-.34 1.07.31 2.39-.79 3.18zM131.88 23.79c-1.73 1.11-3.49 0-5.23.1l.39-2.58c1.74.94 3.68 0 5.45.67-.2.61-.41 1.21-.61 1.81zM126.63 25.09c2 2.39 1.73 4.2-1.09 7.25a30.56 30.56 0 011.09-7.25zM59.59 59.52A15.5 15.5 0 0168.18 56zM32.24 120.75l-6.79-4.47c3.14-.94 4.69 1.69 6.63 3.43.05.34.11.69.16 1.04zM204.73 43.42c1.09.2.94 1.56 1.66 2.1-.93 1.95-2.39 1.61-3.91 1l-.06-.07.57-1.82.55-.59.44.05.57.35.11-1zM84.78 49.56c2.66-1.37 5.59-1.22 8.5-1.36l-7.45 1.88zM150.1 31.77l-3.1-.63c.26-.85-.32-2.4 1.24-2.2 1.43.18 2.92.65 1.86 2.83zM84.78 49.56l1 .52-6.34 1.8c1.56-1.56 3.49-1.83 5.34-2.32zM134.42 36.65h-2.74c0-.81-.27-1.67.3-2.4 1.41-1 1.9.29 2.53 1.2zM198.94 41l.15 1.28c-.8 1.51-2.18 1.57-2.9.44-.61-.95.76-1.64 1.53-2.21zM240.49 63.7a13.55 13.55 0 01-6.75-2.17c2.18-.02 4.13.79 6.75 2.17zM128.18 35.52L125 36.61a2.15 2.15 0 01.32-1.73c1.17-1.14 2.3-1.75 2.86.64zM200 33.37c.57-1.73 1.5-3.1 3.26-3.58a.9.9 0 01.42.33c-.08.38-.17.76-.26 1.14-1.3.46-2 1.77-3.07 2.55a4.82 4.82 0 01-.35-.44zM321.79 87.74a6.89 6.89 0 01-4.27-1c1.76-.75 3.31-1.44 4.35.9zM330 84.72h.15c.59.72 1.76.66 2 1.8a11.7 11.7 0 01-4.54-1.3c.91-.91 1.65-.41 2.39-.5zM34 115.35c-.47 1 1.2 2.1-.1 3.07-1.59-1.08-1.72-2.11.1-3.07zM341.22 52.67a5.3 5.3 0 012.72-2.62l.29.31a5.87 5.87 0 01-2.41 3zM207 45.13l.5-.56.29.33a4.08 4.08 0 00.4 2.64c-.14.56-.5.84-1 .73s-.71-.57-.61-1.12.26-1.35.42-2.02zM34.18 120.12c1.17.07 2.34.13 2.1 2l-1.8.07-.59-.63-.1.07zM200.23 36.8l-2.3.41.5-1.73 1.19-.49c.18.59.37 1.18.56 1.77z"/><path d="M341.22 52.67l.6.64c-.51.76-.94 1.63-2 1.85-.21-1.46.78-1.85 1.4-2.49zM51.68 63c.73-1.28 1.46-1.65 2.66-1.47A3.1 3.1 0 0151.68 63zM58 60.05a2.67 2.67 0 01-2.61 1.05 2.85 2.85 0 012.17-1.5zM141.85 33.59c-.06.42-.12.83-.17 1.24l-1.43.08a1.38 1.38 0 01.45-1.28zM198.43 35.48l-.5 1.73-1.13.22-.15-.63c.48-.61.77-1.52 1.78-1.32zM18.51 111.69l2.32.7-1.08.55a1.22 1.22 0 01-1.24-1.25zM251.06 61.94c-.16.58-.29 1.23-1 1.08-.18 0-.49-.41-.45-.57.15-.76.82-.62 1.33-.75zM48.84 64.35c.36-.74.84-1.27 1.77-1.06-.13 1.3-1.08.94-1.78 1.05zM211 45.34c.09.81.13 1.59-.86 1.81-.09-.23-.18-.46-.28-.69a1.68 1.68 0 011.14-1.12zM199.65 35l-1.19.49c-.13-1.24.64-1.71 1.54-2.07a4.82 4.82 0 00.35.44c-.24.33-.47.71-.7 1.14zM325 71.49c.17-.67.27-1.41 1.12-1.59.5 1-.27 1.44-.67 2zM323.3 74.56c.16-.65.29-1.33 1.1-1.66.57 1-.3 1.48-.66 2.12zM327.89 66.6l1.1-1.87.42.38-.19 1.08-.93.83zM330.38 74.21a1.14 1.14 0 01-1 1.34c-.17-.88.13-1.37 1-1.34z"/><path d="M329 64.73c.25-.54.41-1.29 1-1.34s.3.59.33 1l-1 .78zM119.78 22c.35.05.76.09.74.58s-.42.5-.77.55zM147.63 57a1.47 1.47 0 01-.71-1.48s.18-.15.23-.12c.66.34.43 1 .49 1.59zM327.68 68.17c-.22.49-.43 1.39-1 .9s.16-1 .57-1.32zM196.65 36.8l.15.63c-.2.42-.69 1-.9.76-.59-.8.24-1.06.75-1.39z"/><path d="M327.24 67.75l.66-1.15.4.39-.62 1.18zM326.39 80.93l-.21.78c-.07-.06-.19-.1-.2-.17a.46.46 0 01.42-.6zM191.28 66.44l-.09-.34.21-.07zM243 64.81l-.22-.08a1.27 1.27 0 01.25-.22s.11.1.17.16zM16.29 102.42l-.74-.08.14-.35.57.46zM16.26 102.45l.76.24-.25.31-.48-.58zM241.53 64.07l-.21.14-.18-.32a.59.59 0 01.26 0c.06.01.09.11.13.18zM58 60.05l-.44-.45h.74zM322.64 76.87l-.57 1.22-.45-.43.6-1.22zM24.9 111a.87.87 0 011.05.7c-.45-.03-.9-.09-1.05-.7zM332.7 87.11h-.53c0-.21-.05-.42-.08-.63.32.06 1.15-.38.61.63z"/><path d="M322.07 78.09l-.69 1.16-.34-.44.58-1.15z"/><path d="M321.38 79.25c-.28.37-.57.71-1 .25.23-.23.45-.46.68-.68zM347.4 46.41l.6-.6.23.25-.58.62zM255 78.48l-.24-.26h.16a1.33 1.33 0 01.09.21zM202.48 46.57l-.27.22.21-.29z"/><path d="M346.83 47l.57-.61.25.27-.58.6zM30.45 107.42l-.59-.25c.34-.33.57-.33.59.25zM329.17 76l-.48.68zM322.22 76.44l.6-.31-.18.74zM323.74 75l-.61.31c.05-.26.11-.52.17-.77zM347.07 47.28l-.57.62-.25-.27.58-.6zM194.36 39.68l.39-.24-.21.44zM348 45.81l.42-.2-.19.45zM325.46 72l-.62.31c.05-.26.11-.52.17-.77zM194.54 39.88l-.38.22c.07-.14.14-.28.2-.42zM342.39 48.39l.13-.24-.14.22z"/><path d="M346.5 47.9c-.19.2-.38.41-.58.61-.08-.1-.17-.19-.25-.28l.58-.6zM342.38 48.37l-.11.26.12-.24zM349.87 44.75l-.38.25c.08-.13.17-.25.26-.38zM183.05 66.8l-.25-.13.24.15zM48.83 64.34l-.23.27v-.16c0-.03.13-.06.2-.1z"/><path d="M350.48 44.17l-.61.58-.12-.13.55-.63zM352.08 42.84l.27-.29v.19a.94.94 0 01-.22.12zM297.27 85.85l.23-.26v.16a.63.63 0 01-.2.1z"/><path d="M352.1 42.86l-.29.25.27-.27zM345.09 48.84c.19-.21.39-.41.58-.61.08.09.17.18.25.28-.18.21-.37.42-.56.62zM342.94 60.68l-.54.58c.01-.38.19-.57.54-.58zM343.51 60.06l-.54.59a.53.53 0 01.54-.59zM344.09 59.45l-.55.59a.54.54 0 01.55-.59z"/><path d="M345.36 49.13l-.57.62c-.09-.1-.18-.21-.28-.31l.58-.6zM344.66 58.83l-.55.59a.55.55 0 01.55-.59z"/><path d="M343.94 50.05l.57-.61c.1.1.19.21.28.31l-.56.61zM350.3 44l.39-.22-.22.4zM222.94 11.42c.15-.23.29-.5.53-.12l-.31.37c-.07-.08-.16-.16-.22-.25zM337.37 54c-.11.11-.29.33-.32.31-.34-.26-.05-.38.12-.53zM224.42 10.68l-.06-.16.15.03-.09.13z"/><path d="M337.91 53.38l-.54.66-.2-.22.59-.59z"/><path d="M337.76 53.23c.19-.21.39-.41.58-.61l.12.13-.55.63zM339 52.1c-.18.21-.35.43-.53.65l-.12-.13.6-.58zM338.94 52l.3-.25c-.08.1-.17.2-.25.31zM111.65 146.68c.73-.1.74-1.36 1.64-1.2h.06c0 .46.11.69.56.6-.41.48.39 1.32-.43 1.68l-.55-.27.21.63c.69 1.08 1.07 2.45 2.43 2.87 0 1.06.07 2 1.42 1.28l.92.48a2.62 2.62 0 00.48.13l.49.69c.17.23.33.47.49.7s.21.89.64.55.05-.7-.24-1l-.58-.6-.6-.59-.06-1.06h2.19v6.73c-1.39.19-1.83-.71-2.41-1.92-.84-1.71-1.81-3.69-4.24-3.07l-.49-.71c-.18-.94-.16-2-1.35-2.27v-.06c.49-1.34-.88-2.33-.59-3.63z"/><path d="M114.1 153.32c2.43-.62 3.4 1.36 4.24 3.07.58 1.21 1 2.11 2.41 1.92-1 2.11 1.46 4.18 0 6.29l-1.16-.13-.59-.65a9 9 0 00-2.29-3.78c-.24-1.38.67-3.42-1.74-3.58.56-1.28-.68-2.03-.87-3.14zM116.77 142.37c.37.63 1.45.73 1.2 1.84l-2.63-.66c.7 2.17 2.78 2.87 3.31 4.78l-.31.38c-.86-.25-.92.88-1.55 1l-.88-.6a.31.31 0 01-.26-.17c-.21-1.22-.52-2.38-1.74-2.89l-.56-.6h-.06a4.9 4.9 0 00-.33-.81c-.39-.58-1.63-.54-1.18-1.73.33-.86 1.14-.5 1.76-.62a10.54 10.54 0 011.13-.1l2.14.17z"/><path d="M120.78 151.58h-2.84c0-1 .81-1.83.39-2.88.11-.12.22-.25.32-.38 1.91.18 1.88 1.82 2.13 3.26zM119.64 164.47l1.16.13.47 1c0 .36 0 1.07-.34.92a2 2 0 01-1.29-2.05zM119.1 144.86c.8-.13 1.16.34 1.28 1.11-2.02 1.74-.27-1.51-1.28-1.11zM69.46 120.25c2-2 2.25-4.53 2.22-7.23 0-1.53.15-3 .23-4.58.9 2.2 1 4.6 1.49 6.91a.84.84 0 00.23 1.36c1-.12 1.43-.92 1.5-2 1.25.36 3.25-.92 3.67.84.36 1.49-1.57 1.53-2.69 1.88-.08 0-.08.34-.11.51 3.13.72 3.52.32 4.28-4.48 1.47.19 3 .45 4.43.53 2.65.14 5.41.75 7.61-1.6a20.29 20.29 0 01-.31 2.36c-.58 2.37 0 3.77 2.51 3.63l-1.63 4.32c-3.26 3.21-3.11 4.43.93 5.68 1.36.43 1.67 1.28 1.48 2.94 1.78-1.61 3-2.53 5.25-1.48s4.6 2.73 7.55 2.49c2-.17 4.22-.47 6.37.58 1 .5 3-.94 3.87-.34 2.88 2 5.84 1.12 8.85 1.27 2.47.13 4.49-2.19 6.85-1.2 6.32 2.65 11.88-.94 17.72-2.24 1.2-.27 2.66-1.68 3.64-.2 1.45 2.18 2.88.74 4.31.37.91-.23 1.78-1.08 2.63-1 4.7.3 9.26-.78 13.71-2 1.53-.42 2.51 1.66 3.84.19 1.77-2 4.44-1.88 6.63-2.91 1.8-.85 4.18-.83 6.13-1.71a17.34 17.34 0 017.28-1.35c6.27 0 11.13-.89 16.58-3.93.38-.21.93-.06 1.41-.08.81 0 1.66 0 1.69-1.25l.55-.56 1.12-.08c.13.43.14 1 .73.91.21 0 .31-.59.46-.9h2.87v1.27c-1.26.21-2.84 0-2.62 2.23a.87.87 0 01-1.1 1c-2.48-.91-4.73.82-7.19.6-1.16-.11-3.86-1.27-3.13 2.3.09.48-.45 1.07-1.11 1.21a66.28 66.28 0 00-15.22 5.25c-1.86.89-3.86-1.23-5.91.27a24.6 24.6 0 01-3.93 2.66 15.77 15.77 0 01-7.8 1.35c-2.26-.09-2.73 1.35-2.84 3.27l-1.09.08c-1.92-2.18-6-2.86-7.73-1-1.35 1.51-2.85 1-4.24.9-5.13-.43-10 1.18-14.9 2.17-.36.07-.78.35-1.07.23-4.93-2-10-.3-15-.51-1.54-.06-3.14-1.05-4.76-.35a8.24 8.24 0 01-5 .6c-3.49-.63-7.09-1.38-10.58-1.13-4.36.32-8.51-1.53-12.83-.89a3.07 3.07 0 01-3.29-1.18l-.24-.15.24.14v1.82c-.55-.18-1.33-.18-1.62-.58-.8-1.12-2.11-1.37-3-2.3-.28-.3-.67-.74-.79-.3-1 3.42-2.12-.12-3.15.14 0-1.69-1.48-.5-2.36-1.18 3.15-2.8 4.27-6.88 6.71-10 0-.06-.28-.46-.43-.71.19-.44.39-.89.58-1.35.3-.73 1.85-1.08 1.05-2-.6-.67-1.47-2-2.9-1.09-.5.32-1.29.12-1.94.16-.16-.18-.31-.46-.54-.1 0 0 .19.24.29.37.42.58 1.47.72 1.11 1.83-.25.76-.89.91-1.52 1.16-1.53.62-.64-.94-1.05-1.24-.8-.6-1.24-1.9-2.44-1.73-.91.12-1.1 1-1.15 1.82-2.3 1.9-4.71.76-7.14.14 1.52 1.8 3.5 2.22 5.42 2.77l.69-.4 1-.19c-.31 2.09-2 .88-2.93 1.38-2.31.32-4.62.68-6.74-.79-1.42-1.25-2.13 0-2.95.94s-1.35 2.26-2.85 2.08c.91-2.51 3.56-3.8 4.11-6.62zm12.43-5.57c1.8 3.69 3.26 3.91 6.17.78-2.32 1.8-4.27.74-6.17-.78zM153 131.51c.06 0 .15-.06.17-.11s0-.15 0-.23l-.26.15z"/><path d="M86.09 118.87c.65 0 1.44.16 1.94-.16 1.43-.91 2.3.42 2.9 1.09.8.89-.75 1.24-1.05 2-.19.46-.39.91-.58 1.35-2.8.14-3.27 3.18-5 4.65-.37 0-1-.21-1.08 0-2.13 2.87-6 3.17-7.93 6.3-.45.73-.9.66-1.64.58-5.14-.52-10.24.7-15.38.45-.59 0-.8.44-.91 1h-1.07c-.19-1.28-1.27-.87-2-1.21-1.94-1-4.35-1.08-5.53-3.46a9.34 9.34 0 002 .14c2.21-.33 4.48 1.77 6.65-.17 1.38-.51 3.64 1.2 4-1.84v.07l1-.11.62-.55h2.22c-.12.38-.14.89-.38 1.11-1.27 1.12-1.07 1.5.21 2.8s1.18.09 1.78-.23c1.75-.95 3.2 1.34 5.11.57 1-.4 2.1-.09 2.68-1.56.7-1.76-1.2-1.54-1.41-2.54.32-.75 1.35-1.06 1.16-2.14.92-1.08 2.9-.26 3.35-2.16 1-.5 2.62.71 2.93-1.38v-2.32c0-.77.24-1.7 1.15-1.82 1.2-.17 1.64 1.13 2.44 1.73.41.3-.48 1.86 1.05 1.24.63-.25 1.27-.4 1.52-1.16.36-1.11-.69-1.25-1.11-1.83z"/><path d="M57.36 136.05c.11-.53.32-1 .91-1 5.14.25 10.24-1 15.38-.45.74.08 1.19.15 1.64-.58 1.91-3.13 5.8-3.43 7.93-6.3.13-.19.71 0 1.08 0 .09 2.39-1.27 3.81-2.94 5-2.29.63-3.77 2.76-5.93 3.68a10.2 10.2 0 01-3.74 1.1c-1.88-1.45-4-1-6.09-.93-2.76.19-5.6.91-8.24-.52zM85.39 135v2c-1-.89-.58-1.46 0-2zM116.81 142.39l-2.14-.17a1.34 1.34 0 012.14.17zM112.11 151.66a1.08 1.08 0 01-1-1.32l1.14-.06v.06zM104.36 144.22c-.13.34-.26.69-.69.65zM111.67 146.65l-.26-.08.24.11zM19.21 119.5l7.86 2.68c.28 2-1.87-.08-2 1.35 1.43 1.39 3.84 1.43 4.43 3.85-2.4.29-3.58-2-5.4-3-5.19-2.69-10.31-5.54-15.45-8.34-.9-.49-1.79-1-3-1.69 3.13-.79 5.74.46 8.4.42-.35 4.23 3.01 3.7 5.16 4.73zM48.8 131.36c1.18 2.38 3.59 2.49 5.53 3.46.69.34 1.77-.07 2 1.21-5.1.16-9.48-2.19-13.84-4.57-.75-.41-1.43-1-2.15-1.46l.59-1.74a19 19 0 017.87 3.1z"/><path d="M29.48 127.38c-.59-2.42-3-2.46-4.43-3.85.15-1.43 2.3.68 2-1.35 2.14.58 2.75 3 4.39 4.19h.82c.35 1.37 1.71 1.63 2.48 2.55a6.46 6.46 0 01-3.69-.86.81.81 0 00-1-.39zM19.21 119.5c-2.15-1-5.51-.51-5.22-4.69a5.28 5.28 0 014 1c-.06 1.43 1.41 2.24 1.22 3.69zM40.89 128.26L40.3 130l-1.15-.1-.58-.33-1.6-.39c-.42-1.21-1.82-1.15-2.43-2.12 1.25 0 1.4-1.69 2.5-1.92l.94.64a5 5 0 002.91 2.48z"/><path d="M34.54 127.06c.61 1 2 .91 2.43 2.12-.79.5-1.47-.15-2.2-.25-.76-.92-2.12-1.18-2.47-2.55.9-.38 1.46.62 2.24.68zM24.18 116.25c-1.17.46-2.33.81-3.34-.38 1.16-.69 2.35-.97 3.34.38zM30.11 127.68a.81.81 0 011 .39c-.44.12-.8.1-1-.39zM38.57 129.57l.58.33zM203.42 31.26c.09-.38.18-.76.26-1.14 2-.21 2.86-2.8 5-2.65v.06c-2 1.88-3 4.85-5.57 6.07-.31-.84.13-1.6.31-2.34z"/><path d="M203.42 31.26c-.18.77-.62 1.5-.26 2.34-.91 1.12-1.56 2.53-2.95 3.12-.19-.59-.38-1.18-.56-1.77.23-.38.46-.76.7-1.14 1.07-.81 1.77-2.09 3.07-2.55zM202.93 39.71c-.88.32-1.62 2.45-2.7.26 1.45-.42 2.05-2 3.29-2.75l.27.33zM204 44.1l-.44-.05c.15-.57.31-1.14.46-1.71l.67-.08v1.21zM204.69 36l.38-.24-.16.44a2.09 2.09 0 01-.22-.2zM204.91 36.24l-.54.66-.28-.28.6-.58a2.09 2.09 0 00.22.2z"/><path d="M203.52 37.22l.57-.6.28.28-.58.65zM208.69 27.47l.3-.27-.25.33zM212.72 43.5c.09.88-.29 1.24-1.09 1.17a1.73 1.73 0 011.09-1.17zM211.57 44.73c0 .35-.18.54-.51.55zM208.31 44.24l-.53.66-.29-.33.61-.57zM208.65 43.37c.11-.12.3-.36.33-.34.34.25.13.42-.11.57z"/><path d="M208.1 44l.55-.63.22.23-.56.64zM141.86 33.59h-1.16c0-2.58 1.38-4.84 1.62-7.37 1 .29.66 1.18.77 1.87a6.31 6.31 0 00-.67 3c-.66.73-.31 1.7-.56 2.5zM116.8 160.1a9 9 0 012.29 3.78c-1.32.08-1.25-1.49-2.07-2l-.3-1c.02-.27.05-.53.08-.78z"/><path d="M119.07 163.85l.59.65c-.42.02-.61-.2-.59-.65zM114.1 153.32c.19 1.11 1.43 1.86 1 3.2-.89.21-1.31-.61-1.92-1-.07-.51-.15-1-.22-1.5l.39-1.16.3-.26z"/><path d="M116.8 160.1c0 .25-.06.51-.08.76-.85-1.32-1.86-2.56-1.66-4.34 2.41.16 1.5 2.2 1.74 3.58zM112.11 151.66l.15-1.32c1.19.25 1.17 1.33 1.35 2.27l-.3.26h-.66a1.28 1.28 0 00-.54-1.21z"/><path d="M112.65 152.83h.66l-.39 1.16c-.63-.22-.75-.61-.27-1.16zM329.21 97.59c.31-1.53-1.47-4.39 2.11-3.84l1.95 1.25.57.62a.87.87 0 001.15.62l.58.62c.2.2.39.41.58.62 0 .48-.14 1.26.7.55a1.94 1.94 0 011.63 1.87l-.12.12c-1.29-.35-2.09.89-3.2 1.16l-1.24-1.3c-.55-1.21-1-2.53-3.18-3.2 1.33 1.52 1.68 2.89 3 3.46.26 1.11.59 2.16 1.89 2.27a1.12 1.12 0 00.59 1.26v1.09l-.72 2.12a50 50 0 01-5.05-7.14l-.6-1c0-.53 0-1-.59-1.26zM338.87 122.19c-4.34-4.5-13.91-20.9-15.25-26.17.9-.61 1.18.29 1.46.82 4.34 8.23 8.92 16.32 13.92 24.16a3 3 0 01.18.89 2.91 2.91 0 01-.31.3z"/><path d="M330.38 99.71a50 50 0 005.05 7.14c.22.37.43.74.65 1.1l-.84.39a56.8 56.8 0 01-9.41-12.91c1.87-.14 2.11 1.94 3.38 2.16v-.06a.93.93 0 00.59 1.26zM335.62 85.29c-.63-.11-1.9.15-1.51-1a5 5 0 013.31-3.06c.8-.24 1.38.8 1.3 1.57-.21 1.85-1.53 2.37-3.1 2.49zM333.85 92.63c3.77-.81 5.08.41 4.47 4.19l-4.59-3.71a.31.31 0 01-.07-.27c.02-.08.12-.14.19-.21zM335.24 108.34l.84-.39 3.6 4.77-.38.42a9.56 9.56 0 01-4.06-4.8zM325.65 106.92a6.14 6.14 0 01-2.07-4.66 7.44 7.44 0 012.5 4.22zM331.55 80.35c0-1.71.68-2.79 2.29-3.08a4.8 4.8 0 01-2.29 3.08zM342.8 117.35a2.75 2.75 0 01-2-2.48c1.46 0 1.9 1.1 2.33 2.18zM340.11 68.64a2.4 2.4 0 012.27-2.44c-.18 1.44-.84 2.35-2.27 2.44z"/><path d="M333.83 77.28c-.26-1.58.84-2.27 1.73-3.11.23 1.56-.74 2.34-1.73 3.11zM333.89 99.9l1.24 1.3.43 1.23c-1.3-.11-1.63-1.16-1.89-2.27zM303.47 92.45c.41-1.61 1.5-1 2.47-.89-.48 1.44-1.54.95-2.47.89zM347 119.92c-.16.66.82 1.26.2 1.88-.42.41-.87 0-1.08-.47-.54-1 .52-1 .89-1.42zM333.27 95l-1.95-1.29c1.52-1.04 1.75.12 1.95 1.29zM326.57 107.16a2.33 2.33 0 01.83 2c-.93-.12-1.08-.87-1.26-1.58zM340.1 108.57l-1.79-1.08c1.34-.46 1.67.16 1.78 1.1zM341.09 124.72a1.05 1.05 0 01-1-1.07c.05-.35.09-.69.14-1a2.58 2.58 0 011.11 1.85zM335.21 80.63L334 81.78l-.45-.49a1.81 1.81 0 011.21-1.17zM340.22 122.61c-.05.35-.09.69-.14 1a2 2 0 01-1.21-1.46 2.91 2.91 0 00.26-.33zM336.71 104.24c.38.15 1 0 .85.78l-1-.2a3.75 3.75 0 01.15-.58zM336.82 98.05c-.84.71-.67-.07-.7-.55zM321.61 99l-.55-1.17c.1-.14.2-.27.31-.4l.67 1.16zM332 82.64l1-.75.45.49-1.12.66c-.11-.14-.23-.27-.33-.4z"/><path d="M322.2 100.19c-.19-.41-.39-.83-.59-1.24l.43-.41c.2.4.39.8.59 1.21zM321.06 97.78c-.24-.21-.87-.22-.58-.69s.65 0 .89.29c-.11.13-.21.26-.31.4zM335 96.27a.87.87 0 01-1.15-.62c.58-.26.91.06 1.15.62zM330.94 115.31l-.3.32a3.1 3.1 0 01-.15-.52s.12-.13.19-.2zM331.53 80.91c-.26-.11-.75.14-.67-.45 0-.07.46-.08.7-.12a.75.75 0 01-.03.57zM336.13 103.67a1.12 1.12 0 01-.59-1.26.92.92 0 01.59 1.26zM336.19 79.79l-1 .84-.43-.51 1.11-.64zM349.07 133.31c-.07 0-.18.07-.21 0a.34.34 0 01-.09-.25c.06-.27.19-.3.33-.07.04.1-.02.23-.03.32zM336.71 104.24a3.75 3.75 0 00-.13.58h-.22l-.21-.1v-1.09c.4-.07.44.37.56.61zM328.49 111.86l-.6-1.21c.12-.13.24-.25.35-.38.21.4.42.79.62 1.19zM336.51 78.92c.16-.27.34-.46.57-.1a4 4 0 01-.34.36 2.85 2.85 0 00-.23-.26zM340.09 108.59l.25.12-.24-.14z"/><path d="M327.89 110.65l-.19-.7.54.32c-.11.13-.24.25-.35.38zM326.14 107.61l-.49-.69.43-.44.49.68zM336.74 79.18l-.55.61-.3-.31c.2-.19.42-.37.63-.56zM328.86 111.46l.19.69-.56-.3zM329.65 113.69l-.21-.66.53.31c-.11.11-.22.23-.32.35zM339.68 112.72l.21.65-.59-.23z"/><path d="M330 113.34l.2.63-.52-.28c.07-.12.18-.24.32-.35zM323.18 101.38h.15c.02 0 .09.14.07.19-.1.26-.22.25-.3 0-.01-.06.05-.14.08-.19zM335.52 74.21l.61-.65c.06.5-.07.79-.61.65z"/><path d="M336.1 73.59l.6-.65c0 .44-.13.73-.6.65zM339 100.57l.25.3-.3-.25zM338.93 100.62c-.19-.2-.39-.39-.59-.58l.11-.12c.17.22.35.43.53.65zM322.63 99.75l.18.75-.61-.31zM336.66 73l.9-.65zM333 81.89l.57-.6.45.49-.57.6zM343.09 117.05l.55.63-.26.27-.58-.6zM344 118.56c-.19-.2-.39-.4-.58-.61l.26-.27.56.63c-.13.08-.24.17-.24.25z"/><path d="M344.55 119.16l-.59-.6c.08-.08.15-.17.24-.25.19.21.37.42.56.62z"/><path d="M344.76 118.93l.2.45-.41-.22zM339 69.87l.55-.59c-.04.38-.22.58-.55.59zM339.54 69.25l.55-.58a.52.52 0 01-.55.58zM336.12 97.51zM335.55 96.89l-.58-.62zM342.39 66.19l.57-.61zM341.33 124.46l.56.63-.21.23-.59-.6z"/><path d="M341.89 125.09l.21.45-.42-.22zM342.82 127.17c-.19-.19-.45-.38-.09-.62l.39.28zM331.55 83.42v-.64a3 3 0 01.45-.14c.11.13.23.26.34.4z"/><path d="M343.12 126.83l.57.62-.3.33-.57-.62zM333.84 95.66l-.57-.62c.44-.04.63.14.57.62zM343.69 127.45l.56.63c-.09.1-.18.19-.27.3l-.59-.6z"/><path d="M344.25 128.08l.57.61-.27.3-.57-.62z"/><path d="M344.82 128.69l.56.63a3.33 3.33 0 00-.25.28l-.58-.61z"/><path d="M345.7 130.21l-.57-.61a3.33 3.33 0 01.25-.28l.57.62c-.08.06-.17.17-.25.27zM346 129.94l.56.62c-.07.08-.15.16-.22.25l-.59-.61zM331 84.16l.58-.75c.01.45-.27.59-.58.75z"/><path d="M346.51 130.56l.57.61-.22.25-.57-.61c.07-.09.15-.17.22-.25zM347.08 131.17l.57.63a2.09 2.09 0 00-.2.22l-.59-.6z"/><path d="M347.65 131.8l.2.42-.4-.2a2.09 2.09 0 01.2-.22zM308 90.08l.72-.18v.83h-.61c-.11-.23-.11-.44-.11-.65zM221.25 115.92l-1.12.08-.55.56a1.58 1.58 0 00-1.69 1.25c-.48 0-1-.13-1.41.08-5.45 3-10.31 3.94-16.58 3.93a17.34 17.34 0 00-7.28 1.35c-2 .88-4.33.86-6.13 1.71-2.19 1-4.86 1-6.63 2.91-1.33 1.47-2.31-.61-3.84-.19-4.45 1.24-9 2.32-13.71 2-.85 0-1.72.8-2.63 1-1.43.37-2.86 1.81-4.31-.37-1-1.48-2.44-.07-3.64.2-5.84 1.3-11.4 4.89-17.72 2.24-2.36-1-4.38 1.33-6.85 1.2-3-.15-6 .73-8.85-1.27-.86-.6-2.84.84-3.87.34-2.15-1.05-4.34-.75-6.37-.58-2.95.24-5.22-1.42-7.55-2.49s-3.47-.13-5.25 1.48c.19-1.66-.12-2.51-1.48-2.94-4-1.25-4.19-2.47-.93-5.68.41.58.92.68 1.42.22 1.37-1.29 2.07-.63 2.5.94-1 1.42-1 1.42 0 3.2 1.46-1 .09-2.1 0-3.15.67-.38 1.7-1 1.74.32.07 2.24 1.35 2 2.74 2.21 1.56.23 3.59-.54 4.34 2 .12.42 1.16.54 1.79.76 1.79.64 3.63.06 5.58.7 3 1 6.37-2.33 9.54.35a.84.84 0 00.49-.28c.51-1.72 1.86-1 2.89-1.16 1.67-.27 3.82-.07 4.76-1.52 1.62-2.5 3.37-1.59 5.34-1.2s3.58 1.88 5.62-.27c.94-1 3.58.66 4.26-2a4.25 4.25 0 01.6.6c.34.51.83.75 1.11.16 1-2.08 3-1.36 4.48-1.81 1.12-.32 2.3-.35 2.47-2 .09-.82 0-1.84 1.18-1.57.93.22 1 1 .73 1.93s.35 2.62 1.17 1.67c1.45-1.67 2.8-.37 4-.31 1.38.06 2.56.43 4.11 0 1.88-.57 4-.12 5.83-1.42.38-.27.65.56.73 1.06l-.14.25.13-.26c1.81.83 2.1-1.61 3.42-1.84.22.55-.36 2.11 1 1.2 2-1.27 3.64-2.92 6.3-2.09 1 .32 2.32-.7 2.68-1.9.64-2.17 1.42-2.59 2.84-.33.64-2.34-.48-4.74 2.45-6 1.31-.58 1.87-1.15 3.19-.34 2 1.19 3.77 1.13 4.69-1.91.49 2.69.59 2.86 2.47 1.61 1.41-.94 1.82 0 2.25 1.05 3.56-3.11.32-6.92 1.42-10.24.57-.12.44 1.44 1.36.86 1.1-.7.51-1.72.56-2.71a43.11 43.11 0 011.31 10.1c.61-1.32 1.19-2.55.69-4-.24-.72-.37-1.75.43-2.23 3.26-2 .85-4.38.7-6.61-.51 2.3-1.45 2.39-3.84 1.43-1.58-.63-2.36-5.16-5-1.49-1.81-1.19-4.06-.22-5.88-1.36-1.17-.74-2.07-.87-2.61.88a9.5 9.5 0 01-1.4 2.17c-.63-1.12.45-3.08-.86-3.23-1.61-.18-3.9-1.6-4.9.25s-2.23 1.49-3.57 1.59l-.27-.25.22.3c-.17.88.43 2.07-.92 2.58a7.51 7.51 0 00-.3-1.54c-.38-.93-.09-2.35-2-2-.87.16-2.4.87-2.72.37-1.68-2.65-5.3-2-6.73-4.93-.2-.39-.52-.12-.68.11-1.37 2-3.68 1.81-5.43 2.82-5 2.9-10.64 2.94-16 4.08-.43.09-.9 0-1.3.3-4 3.47-9.4 3.25-13.71 5.94-.86.54-1.45.07-1.5-1a47 47 0 006.72-3.84c3.16-1.89 7.09-1.55 9.82-4.32 1.05 1.62 2.92.82 3.79.56 4.28-1.31 8.82-1.72 12.8-4.08.31-.19.86-.35.9-.58.43-3.19 2.84-3 4.93-3.45s4.07-1.53 6.18.29c1.37 1.18 1.92-.6 2-1.51.25-2.15 1-2.32 3-2.59 2.65-.33 5.86 2.05 8.05-1.33.11 1.94 2.26 1.14 2.84 2.44h-4c1.28 2.26 3 3.32 4.16 2.71 1.9-1-.45-1.77-.1-2.68 1.14.35 2 .3 1.74-1.38-.15-1-.38-1.88-.57-2.83 1.07.38 1.13 1.58 1.69 2.37a9.55 9.55 0 000 1.19c.09 1-1.16 2.36.37 2.81 1.27.36 2.25-.69 2.72-2a10.82 10.82 0 00.35-2c0-.18 0-.37.08-.55.3 4.7 3.82 5.53 7 6.69 4.33 1.56 4.9 1.31 7.21-2.86.42 1.17.92 2.23 2.28 2.25l.25.24-.23-.26c.34-2 1-3 3.12-1.74 1.37.84.69 1.28-.28 2.22 3.07-1.91 6.32 0 9.07-1.68.38-.23.93-.47 1.25.15 1 1.92 2.26 2.25 4.4 2.09 2.38-.19 4.84.9 6.64-.06 2.62-1.38 4 1.41 6.05 1.49a1.33 1.33 0 00.09.21h.15l-.24-.26c1.39-1.57 2.4-3.06 4.13.1.49.91 3.76 1.55 5.67 1.28 1-.15 2.48.57 3.33-.76 2.73.47 5.26.63 7.81-1.3a4.78 4.78 0 014.72 0c2.6 2 5.26.09 7.9.77 1.54.39 2.39 2.11 4.22 1.78-1 .6-2 1.08-1.24 2.44-.27.07-.71-.12-.66.42 0 .09.43.14.66.21a2.73 2.73 0 000 .57 5.43 5.43 0 00-.09.56c-2.34.5-4.83.07-7 1.43a1.23 1.23 0 01-1.59.05c-3.09-2.84-5.1 1.33-7.79 1.54-1.5.11-2.89 2.06-4.87 1-1-.54-1.83-.15-2.31 1-.23.55-.6 1.34-1.19 1.09-3.35-1.41-4.71 3.71-8.32 2.71-1.4-.38-4.3.72-5.6.08-3-1.48-4.45 1.23-5.57 2.37-1.46 1.48-3.25 2.81-4.62 2.65-2.22-.28-1.41 1.64-2.12 2.09-1 .66-2.34-1.38-3.62-.05-.68.71-1.43 1.38-1.22 2.58h-1.22c-.55-1.1-1.1-1.9-1.66 0h-1.18zm6.91-17.78a2.69 2.69 0 01-2.31-.92c-1.53-1.65-2.53-1-3.15 1-.76-.41-.7-2-1.77-1.72-1.41.41-.43 2-1 3-1.53-2.92-3.13.39-4.6 0-.49-1.53 1.58-1.75 1.25-3.21-3.19.5-3.22.57-2.77 3.74a5.21 5.21 0 01-.14 2.12 3.25 3.25 0 00.82 3.28c1.08-2.35 1.08-2.35 3.84.28 1.12-.28.15-2.06 1.57-2.33.29 2 .51 4.5 2.85 1.46.53.72-.12 1.57.59 2 .95-.63.51-2 1.18-2.81 1 .68.91 2 2.22 2.53 0-2.75 3.51-1.81 3.57-5.08l2.2 3.45a2.71 2.71 0 01.38-.82c1.47-1.52-.31-2.74-.47-4s-1.18.49-1.75.3c-1.06-.37-3.2.5-2.53-2.2l.13-.26zm-133.92 26.3c-.36.78-.72 1.55-1.12 2.43 1.75-.65 1.75-.65 1.12-2.43zm86.48-38.74a9.21 9.21 0 00-1.11-.76c-.66-.31-1.29-.09-1 .71.39 1.01 1.05.1 2.11.05zm29.39 19.93c.52-.3.35-.79.29-1.22 0-.06-.34-.13-.36-.1a1.15 1.15 0 00.07 1.32zm-20-16.26l-.08.26.29-.18zm26.1-.58l.18-.15-.15-.18-.24.24z"/><path d="M225.31 116c-.21-1.2.54-1.87 1.22-2.58 1.28-1.33 2.6.71 3.62.05.71-.45-.1-2.37 2.12-2.09 1.37.16 3.16-1.17 4.62-2.65 1.12-1.14 2.54-3.85 5.57-2.37 1.3.64 4.2-.46 5.6-.08 3.61 1 5-4.12 8.32-2.71.59.25 1-.54 1.19-1.09.48-1.15 1.3-1.54 2.31-1 2 1.06 3.37-.89 4.87-1 2.69-.21 4.7-4.38 7.79-1.54a1.23 1.23 0 001.59-.05c2.19-1.36 4.68-.93 7-1.43.47 3-2.35 1.86-3.45 2.92-1.31 1.28-3.68 1.55-5.64 1.73s-2.88 2.63-4.93 2.49c-3.65-.24-6.62 2.85-10.35 2.43-.92-.1-1.61.92-2.32 1.56l-.06.07c-2.91-1.47-5 .92-7.18 2.1-1.79 1-3.28 1.25-5 .4-.42-.2-1-.77-1.25-.35-2.34 3.28-7.11 1.53-9.27 5.27a1.81 1.81 0 01-2.53.58c-1-.86-1.78 0-2.65 0a1.37 1.37 0 00-1.21-.66zM217.88 130.68c-.41.34-.72.89-.37 1.28 2.45 2.7.51 5.64.47 8.47-2.77-2.05-5.4-4.11-6.76-7.73-.94-2.49-.77-3.81 1.63-4.46 1-.27 2-.42 3-.63a.47.47 0 01.31.33l.57.9a1.85 1.85 0 001.16 1.24c0 .19 0 .39-.01.6zM221.29 142.42c.14-.48.52-1.17.85-.89a2 2 0 01.7 2.52c-1.05.04-1.47-.6-1.55-1.63zM223.52 144.94c.54-.73 1-1.93 1.81-.19 0 .4 0 .81-.07 1.21a1.93 1.93 0 01-1.74-1.02z"/><path d="M225.3 115.94a1.37 1.37 0 011.21.66c-.32.43-.43 1.35-1.24.61zM225.26 146c0-.4.05-.81.07-1.21a1.2 1.2 0 01.5 1.31zM254.46 108.55l.22.3a3.11 3.11 0 00-.28-.23zM221 131.28l-.42-.29c.15-.07.3-.21.45-.21s.28.17.42.26zM217.91 130.07a1.85 1.85 0 01-1.16-1.24c.84-.07 1.18.4 1.16 1.24zM223 127.61c.49.1.64.45.57.94l-.61-.32c.04-.23.04-.41.04-.62zM216.75 128.84l-.57-.9zM217.88 130.68v-.62l.63.57-.11.11zM219 131.39l-.55-.65.11-.11.6.58z"/><path d="M219.12 131.21l.22.42-.38-.24zM339.45 63.67l.78.77-1.83 2.08-.06-1.62a1 1 0 00.07-.54l.59-.64a.92.92 0 00.45-.05zM336.7 68.67l-.71-.22c.31-1.14.93-1.82 2.13-1.62a3.28 3.28 0 01-1.42 1.84zM223.92 128.86l1.38-.1.12.6c-.11.1-.21.22-.31.33z"/><path d="M225.42 129.36l.16.47-.47-.14c.1-.11.2-.23.31-.33zM197.87 83.4a10.82 10.82 0 01-.35 2c-.47 1.31-1.45 2.36-2.72 2-1.53-.45-.28-1.84-.37-2.81a9.55 9.55 0 010-1.19 5.32 5.32 0 003.44 0zM128.16 70.56c-1.55-.5-2.79-2-4.67-1.17.36-2.79 4 1.14 3.57-2.57 1.54.79 1 2.35 1.18 3.66zM178.46 79.72c-1.74-.83-1.71-1.94-.43-3.25a9 9 0 00.45 3.23zM184.74 81l-.56.87c-.85-.8-.59-1.67-.14-2.54.23.53.47 1.09.7 1.67zM216.74 78.48c-.64 0-1.33.1-1.79-.59 1-1.2 1.72-1.48 1.79.59zM201.88 81a3.39 3.39 0 01-2.28-1.24c.91.1 2.08-.38 2.29 1.22zM252.17 80.89c0-.51-.88-1.27 0-1.45.7-.15.42.91.54 1.45a2.35 2.35 0 01-.54 0z"/><path d="M252.17 80.89a2.35 2.35 0 00.53 0v1.88c-.65-.46-.47-1.21-.53-1.88zM193.31 77.85l.23-.8.2.16c-.13.23-.27.45-.4.67zM199.6 79.71l-.23-.15.24.14zM193.34 79.69l.24.16-.27-.12zM207.61 76.63l-.24-.14.23.15zM229.87 74.8l.24.24c-.05 0-.12 0-.14-.05a.61.61 0 01-.09-.2zM211.6 75.41l-.2-.14.2.14zM176.18 71.71l-.12.26.14-.24zM105.91 72.36l-.21-.3.27.24zM201.33 68.64l.24.28c-.09-.08-.17-.17-.26-.26zM127.06 66.82l-.24-.28.26.25zM255.57 84l-.23-.27s.12 0 .15.05a1.12 1.12 0 01.09.22zM147.07 95.46c-2.73 2.77-6.66 2.43-9.82 4.32a47 47 0 01-6.72 3.84l-5.16 2.15c-2.6 1.08-5.11 0-5.12-2.54a12.35 12.35 0 00-1-3.79c6.55-2.8 13.53-3.93 20.66-6.11-7.17-.62-13.42 1.62-19.64 4-1.24-.19-3.31 2-3.58-.66-.26-2.41-.85-2.75-2.81-2.36-.66.14-1.49-.67-2.24-1.05a3.23 3.23 0 00-3.22-1.26c-2.7.18-5.41.34-8.11.51.06-.73.52-1 1.1-1.18 2.84-1.13 5.67-2.27 8.47-3.49 4.35-1.9 8.89-3.14 13.3-4.82-8.72.8-16.87 3.72-24.7 7.83l-1.65-.15-.55-1.7c4.46-2 8.71-4.66 13.67-5.31a6.48 6.48 0 004.47-2.21c4.29-1.44 8.91-1.32 13.12-3.25.82-.38 2 .21 3 .22a102.83 102.83 0 0117.95 2.18c5.5 1 10.71 2.76 16.08 4.22-.46 1.43-1.82 1-2.59 1.7-.61.53-2 .44-1.34 2 .36.86-.47.76-.93 1.05A44.48 44.48 0 01148 94.74c-.36.1-.63.47-.93.72zM117.88 95l.69-.38a2.72 2.72 0 01.5-.19c8.42-2.55 16.7-5.84 25.71-5.08a52.48 52.48 0 00-26.3 3.8c-.9.11-2.12-.06-2.15 1.29-.02.99.92.68 1.55.56zm-.62-5c10-3.29 20.11-5.22 30.61-4-10.44-2.58-20.57-.86-30.58 2.52-1.58.61-3.17 1.18-4.73 1.83-.51.21-1.11.61-.73 1.33.26.48.81.35 1.27.15zm4.17 12l9.47-1.52c-3.29-.48-6.53-.56-9.47 1.52zm5.92-20.06v1c4.41-.8 8.84-.69 13.25-1z"/><path d="M96.28 89c.18.55.36 1.11.55 1.66-1 .72-.6 1.8-.56 2.74.11 2.39.29 4.77.45 7.16-2.29 1.65-.5 4.19-1.16 6.2-1.84 1.54-1.1 3.91-1.5 5.88-.22 1.09 1 .78 1.72.59v1.44l-.11.61-1.21 3.16c-2.53.14-3.09-1.26-2.51-3.63a20.29 20.29 0 00.31-2.36l.09-.89a.52.52 0 000-.42h.07c1.09-.84.93-2.12 1-3.32a111.87 111.87 0 00-.77-15.63l.24-3.12.1-6.81c1.28.63.86 2 1.16 3.08l-.06 1 .34.76c-.07 1.44.5 2.13 1.85 1.9z"/><path d="M96.28 89c-1.35.23-1.92-.46-1.87-1.86-.11-.25-.22-.51-.34-.76l.06-1c1.89-1.64 3.91-2.4 6.07-.69.87.68 1.87.17 1.91-.28.27-3.87 3-2.52 4.91-2.78.64-.09 1.34.12 1.76-.63 1.86.35 3.82-.58 5.61.56a6.48 6.48 0 01-4.39 2.13c-5 .65-9.26 3.31-13.72 5.31zM88.26 71.08c1.62.15 2.71-1.7 4.5-1.25.94.24 1.88.26 2.48 1.16.89 1.35 2.54 2.94-.76 3.24a6.2 6.2 0 00-1.82.85c-.64-.93-.32-2.36-1.53-2.79l-.3-.23.22.32c-.45 1.94-1.14 3.84 1.27 5.11.77.42-.14.84-.65 1l-2.39-2c.34-1.99-.46-3.67-1.02-5.41z"/><path d="M89.28 76.43l2.39 2L93 82.25l-.09 6.81c-.9-.76-.76-1.89-.66-2.83a7.4 7.4 0 00-3.5-7.65 3 3 0 01-1.53-3l.52-1c.88.24.15 2.1 1.54 1.85zM90.65 63.35c1.08-.34 2.33 0 3.27-.89.45.63 2 .56 1.34 1.79-.31.61-.56 2.6-2.1 1.17 0 0-.3.13-.44.22-.71.46-1.12 2-2.24 1s-.09-2.21.17-3.29z"/><path d="M89.28 76.43c-1.39.25-.66-1.61-1.58-1.83a.7.7 0 000-.38v-.66c.17-1.73-1.4-1.61-2.15-2.37.38-2.14-2.19-1.58-2.48-3.12l.06-.82a10.22 10.22 0 015.15 3.83c.54 1.74 1.34 3.42 1 5.35zM111.86 71.62c2.14 0 3.93.22 4.9 3-1.96-.81-4.52.68-4.9-3zM142.51 72.94c.14.22.28.44.41.67a1.49 1.49 0 01-.21.15c-.07-.26-.15-.52-.23-.79zM108.78 81l-.21-.16.24.13zM188.75 82.77l.14-.24-.13.25z"/><path d="M83.05 68.07c.29 1.54 2.86 1 2.48 3.12-2.11 2.14-5.13 2.82-7.77 5.72 3.6-.63 6.36-2.79 9.42-1.36a3 3 0 001.53 3 7.4 7.4 0 013.5 7.65c-.1.94-.24 2.07.66 2.83l-.24 3.12c-1.24.67-.95 2.5-2.13 3.21-1 0-1.86 1-3 .48A1.4 1.4 0 0085.36 97a1.85 1.85 0 000 .47l-1.1.15c-1.84-.44-2.72-1.89-3.32-3.64a1.53 1.53 0 000-2.17l-.34 1.91c-.21 1.7-2.81 0-2.57 1.92.3 2.38-1.13 1.79-2.25 1.91-1.56.16-2.2-1.41-3.22-2.3-1.08 2.26.59 4.7-1 6.64-1-1.07-.54-2.53-.77-3.78a75.8 75.8 0 01-1.46-14.74c0-.31.14 0 2-.71a4.39 4.39 0 002.32-2.47c.19-.9-.86-1.56-1.52-2.29-2.69-3-6.23-1.55-9.3-2.41a7.74 7.74 0 00-2.21-.4c-.85 0-2.08 1.11-2.33-.39-.2-1.22 1.43-1.48 2.14-1.47 1.74 0 2.88-2.71 4.85-1.15 0-2.46 3-.29 3.28-2.42l1.4.25.2.14-.16-.17.25-.84c2.67.95 5.57-1.54 8.22.7.69.59 1.76 1.17 2.48-.47a2.17 2.17 0 012.1-1.2zm-7 9.72c.6-.15 1.17-.41.93-1.2s-.46-1.67-1.45-1.57a1.14 1.14 0 00-.94 1.3 1.36 1.36 0 001.48 1.47z"/><path d="M80.94 93.94c.6 1.75 1.48 3.2 3.32 3.64-.25 1.73-2.44 2-2.82 4.4 1.94-1.4 3.58-2.31 3.92-4.55a1.85 1.85 0 010-.47c1.89.13 4.37 2.53 5.14-1.57 1.18-.71.89-2.54 2.13-3.21a111.87 111.87 0 01.77 15.63c-.05 1.2.11 2.48-1 3.32-1.52-2.24-1.73.3-2.22.85-1.06 1.17-1.66 1.38-2-.46-.1-.55.15-1.28-.68-1.43-1.57 2.25-1.57 2.19-4.7 2.37a3.18 3.18 0 00-2.55 1.06c-1.69.53-4-2.08-5.15 1.25l-1.73.61c-.45-2.31-.59-4.71-1.49-6.91.06-.74.11-1.48.16-2.22.56-1.12 1-1.83 2.53-1.14 1.28.56 2.8 2.44 4.45.51 2.78 1 5.57 2.12 8.6 1.78l.25.13-.22-.16c-.88-1.59-2.66-1.68-4-2.6a6.64 6.64 0 00-4.51-.79c-.48.06-1.63-1.26-1.54-1.46.6-1.33.28-1.91-1-1.83-1.49.08-3.4-.63-3.82 1.94l-1.22 1.06v-1.81c1.56-1.94-.11-4.38 1-6.64 1 .89 1.66 2.46 3.22 2.3 1.12-.12 2.55.47 2.25-1.91-.24-1.87 2.36-.22 2.57-1.92zm-1.28 15.86l.56-.57c.43-.14 1.17-.19 1.24-.44.28-1-.58-.67-1-.74-1-.16-2-.14-3-.37-1.28-.29-1.14.54-1.1 1.37-.67.07-1.31-.94-2.2.19a20.52 20.52 0 003 1.56c1 .32 2.27 1 2.52-1zM63.13 82.76c1.14.26 1.84 3.21 3.56.49.53-.84.83.49 1 1.11 1.06 3.32.61 6.84.78 10.22a65.17 65.17 0 01-.24 8.47c-.39.07-.79-1.6-1.17 0-1 4.36-1 4.35-4.66 1.61a3.87 3.87 0 00-1-.4c-.06-2.08.48-4.76-3-3.28-.41.17-1.06-.32-1.61-.5-.05-.9-.66-1.34-1.29-1-1.3.63-2.48-.14-3.72-.07-1-1.12-1.48-.2-2.21.43-1 .88-.65 1.66-.11 2.52l-2.18-.43c-.79-1-.61-2.7-2-3.33l4-2.33c.65 0 1.15-.14 1.26-.94v-.23l.21-.06a3 3 0 002.57-.94c.51-.4 1.24-.91.83-1.67-.2-.38-1-.39-1.51-.56l.15-1.72c1 .19 1.51-.47 2.1-1.21.82-1 1.69-2.46 3-.45.36.53 1.42.81 1.49-.29.08-1.41.88-1 1.56-1.09s1.83.27 2-1.07-.91-1.32-1.61-1.72c-.25-.14-.48-.31-.71-.46.42-1.36 2.17.85 2.36-1.07zm-3.54 14.31a1.32 1.32 0 00-1.27-1.3c-.83 0-1.1.72-1.22 1.42-.16.93.53.9 1.08.91s1.4.11 1.41-1.03zM34.62 95c-1.84-2.57-1.16-5.37-.62-8.15a3.86 3.86 0 012.14-2.69c5.08-2.78 10.77.72 11.08 6.77 0 .17.19.34.29.5-.1 3.12-2.82 3.79-4.44 5.49-2.08 1.46-4.15-.48-6.23 0-.58-.17-1-1-1.69-.63-.15-.45-.35-.88-.53-1.29zm7.3-6.59h.09-.14c-.32-.88 1-2.54-1.08-2.59-1.62-.84-3.21-.93-4.2.9-.55 1-2.13 2.49-1 3.36C37 91.11 37.06 88.59 38 88c.71-.24 2-.58 2.07-.18.23 2.07 1.28.33 1.85.57z"/><path d="M61.39 104.29a3.87 3.87 0 011 .4c3.64 2.74 3.64 2.75 4.66-1.61.38-1.63.78 0 1.17 0 .79 1.56.51 3.26.55 4.92-.85.8-.61 1.9-.49 2.82.28 2.12-.54 3.31-2.33 3.92-1.76 1.15-3.37 1.75-4-1.23.32-.81 1.81-.76 1.36-2.35-1.21.54-2.4 1.77-3.69.38.55-.92 1-1.8 2.3-1.76a2 2 0 002.32-1.62c-.28-1-.66-.91-1.12-.14-1.66-.76-4 0-5-2.43 1.09-.69 2.88 1.12 3.27-1.29zM52.83 90.15l-.15 1.72L50.79 95l-.21.06v.23l-1.25.94-4 2.33-1-.07c0-.45 0-.89.07-1.34l3.47-2c1.23.07 1.74-.59 1.64-1.87l.2-.62c2-1.62 2.3-5.39.6-6.87l-.77-.73c-.74-2.1 1.64-.4 1.66-1.58l2.8-.75 1.9.27c-1.79 2.12-1.9 4.88-3.07 7.15z"/><path d="M66 114.71c1.79-.61 2.61-1.8 2.33-3.92-.12-.92-.36-2 .49-2.82 1.36 3.5.51 6.83-.66 10.13-.4 1.12-1.17 2.09-1 3.4l-1.07 1.35-.56.52v.09h-2.17c-.27-1-.09-2.2-1.42-2.43h-.44c.81-.7 0-2.6 1.73-2.64a4 4 0 00.47.11c0 .93-.73 2.28.48 2.61 1 .28.81-1.29 1.25-2a3.63 3.63 0 00.6-2.56zM79.05 105.59c-1.65 1.93-3.17 0-4.45-.51-1.56-.69-2 0-2.53 1.14-1-.68-2-1.36-.45-2.56l1.22-1.06 1.09-.18c.27 1.72 1.42 1.21 2.41 1.1.95.61 1.46 1.89 2.71 2.07z"/><path d="M66.06 122.85l1.07-1.35 2.33-1.25c-.55 2.82-3.2 4.11-4.13 6.66a2.91 2.91 0 00-2.17 1.92l-.62.55-1 .11c.79-2.44 3-3.81 4-6.09v-.1zM44.29 98.53l1 .07c1.37.63 1.19 2.31 2 3.33a.66.66 0 000 .5c-1.35-.15-2.68.19-4 .13-1.7-.07-1.36-1-1.34-2 .55-.95 2.28-.3 2.34-2.03zM49.67 92.69c-.07.21-.13.41-.2.61-1.22 0-1.38 1-1.64 1.88l-3.47 2-1.29-.29c1.62-1.7 4.34-2.37 4.44-5.49 1.03-.16 1.6.6 2.16 1.29zM49.5 85.09l.77.73a1.05 1.05 0 00-.72 1.41c.37 1.16 1.53 2.85-.53 3-1.75.12-.35-1.9-.81-2.84-.71-1.39-.31-2.3 1.29-2.3zM32.21 94.52c-1.94-1.49-1.46-3.27-.44-5.6.86 2 .37 3.77.6 5.41zM54 82.73l-2.79.78a1.09 1.09 0 00-1.21-.73L54.65 81c.35 1.14-.57 1.17-.65 1.73zM34.62 95c.18.43.35.86.52 1.29-1.34.11-2.68.23-2.93-1.75l.16-.19zM35.15 96.27c.74-.32 1.11.46 1.69.63-1 1.1-1.5.75-1.69-.63zM57.25 81.84l.44.19c-.07.16-.1.4-.21.44s-.28-.1-.43-.17c.07-.15.14-.3.2-.46z"/><path d="M50 82.78l-.58.43c-.15-.68.41-.26.59-.43zM63.1 82.79c-.14-.22-.28-.44-.41-.67l.2-.15.24.79zM59.28 81.2c0 .07 0 .19-.07.19a.55.55 0 01-.24-.07c0-.07.05-.19.08-.2a.7.7 0 01.23.08zM30.56 87.08l.61-.46c.18.75-.4.31-.62.45zM30 87.69l-.57.61.57-.6zM27.7 90.15l.58-.6-.56.62zM28.84 88.92c-.19.2-.38.41-.58.61l.57-.62zM30.55 87.07l-.57.62.57-.62zM29.41 88.3l-.57.62.57-.62zM206.24 81.46c.13-.15.28-.38.32-.36a1.41 1.41 0 01.62.46c.18.37-.07.56-.38.44s-.39-.36-.56-.54zM281.27 95.68a2.48 2.48 0 01.2.44l-.2.17v-.63zM257.85 92l-.23-.27h.15a.5.5 0 01.09.21zM61.43 121h.44l.09 2.94a.83.83 0 01-.49.06 19.74 19.74 0 00-6.33 5.3l-3.45.21h-.57a.76.76 0 00-.43-.16c-.18-.77-.6-1.14-1.36-.92-.21-.56-.65-.59-1.12-.55a.84.84 0 00-1.12-.76 9.17 9.17 0 00-4.46-.76c-.05-.91-1.48-1.6-.4-2.67s2.46-2.1 4.07-1.43c1.45.6 2.67.76 3.93-.42a2.28 2.28 0 012.44-.12c1.5.53 3 .61 4.19-.8h.58c1.32-.37 2.61 1.34 3.99.08z"/><path d="M42.63 126.33a9.17 9.17 0 014.46.76c.08.74.19 1.45 1.12.76.47 0 .91 0 1.12.55.14.85.6 1.15 1.36.92a.76.76 0 01.43.16c.18.52.37.5.57 0l3.45-.2c2.21.57 5.7-2.36 6.33-5.31a.83.83 0 00.49-.06 1.17 1.17 0 001.33-.51h2.17c-1 2.29-3.21 3.66-4 6.1v-.07c-1.78.93-3.91.41-5.82 1.62l1.8.22c-2.17 1.94-4.44-.16-6.65.17a9.34 9.34 0 01-2-.14 19 19 0 00-7.91-3.1 5 5 0 01-2.88-2.42 1.57 1.57 0 00-1.23-1.78c0-.43 0-.87.05-1.31.75.24 1.69-.43 2.11 1.16s2.07 2.4 3.7 2.48zM45 114.2a1 1 0 00-1.21-.44c-1.36.29-3.15 0-3.11-1.41 0-.9-.23-4.15 3-3.19.83.25 2.6-.48 4-.54 1.61-.06.16-.88.29-1.3a5.33 5.33 0 00.36-3l1.19-.11c1.91.1 2.9-2.61 5-1.9a2 2 0 01.95 3c-.87 1.58-2 .34-3 .08-.15-.27-.13-.9-.57-.61s0 .64.24.89c-.91 1.09-2.54 1.36-2.07 3.82.22 1.17-3.06-.5-4 1.53-.08.18-.13.38-.2.57a7.05 7.05 0 01-3.31.7l-.26-.29.24.31c1.27.6 2.58 1.43 3.52-.54h6.23v.87c-2.24.67-4.75-.07-6.82 1.51zM61.43 121c-1.38 1.25-2.67-.46-4-.14-.21-.5-.41-.53-.58 0-4.07-.2-8.15-.41-12.23-.59-.84 0-1.53-.23-1.47-1.37 1.51.1 3 .27 4.43-.6 3.3 1.52 6.35.72 9.28-1.18 1.2-.82 2.63-.81 3.94-1.22.85.12 1.07 1.82 2.45 1 .35-.21 0 .93-.1 1.45-1.67.06-.91 1.96-1.72 2.65z"/><path d="M63.16 118.37c.09-.52.45-1.66.1-1.45-1.38.83-1.6-.87-2.45-1 0-1.63-.88-1.94-2.07-1.32-1.89 1-3.88.76-5.87.79-1.19-.29-2.13.44-3.15.87l-1.83-.08c-1.1-.3-2.23-1-3.11.46h-1.71c0-.89 1-.69 1.22-1.28l.71-1.16.48-.13c3.1 2.28 6.43.23 9.53.11 2.21-.09 4.59-.85 7-.7.66 3 2.27 2.38 4 1.23v1.85c-1.36-.18-1.56 1.28-2.33 1.92a4 4 0 01-.52-.11zM54.46 102.27c-2.11-.71-3.1 2-5 1.9-.46-1-1.41-1.25-2.2-1.74a.66.66 0 010-.5l2.18.43c2.18.3 2-1.55 2.32-3 1.24-.07 2.42.7 3.72.07.63-.31 1.24.13 1.29 1l-.6.65c-1.17-.64-1.5.18-1.71 1.19z"/><path d="M44.29 115.36c-.26.59-1.24.39-1.22 1.28-2.35 1.26-3.44-.63-4.72-2.18a24.28 24.28 0 005.94.9zM44.78 116.65c.88-1.41 2-.76 3.11-.46-.07.54-.13 1.09-.2 1.64l-2.3.1z"/><path d="M45.42 117.89l2.3-.1a3.27 3.27 0 01-.13.54c-1.4.87-2.92.7-4.43.6.55-.87 1.74-.12 2.26-1.04zM36.85 122.7c0 .44 0 .88-.05 1.31a1.91 1.91 0 01-2.32-1.86l1.8-.07zM47.7 104.29l-.14.26.13-.28z"/><path d="M48.26 104.29h-.56c.19-.41.38-.42.57 0zM36.77 124a1.57 1.57 0 011.23 1.78l-.94-.64c-.18-.37-.75-.64-.29-1.14zM33.92 121.53l.59.63c-.62.26-.82.05-.59-.63zM32.28 126.36h-.82c.27-.36.54-1.01.82 0zM338.41 64.36a1 1 0 01-.07.54 3.61 3.61 0 01-.16-.42s.15-.08.23-.12zM339 63.74l-.59.64zM339.45 63.67a.92.92 0 01-.49.1c.11-.32.25-.5.49-.1zM122.5 20.12l-.22.26v-.16a1.24 1.24 0 01.2-.1zM334.14 72.3c.36-.53.51-1.33 1.37-1.23 0 1.01-.51 1.32-1.37 1.23zM333.21 73.51l.58-.72c-.16.27.4 1.21-.58.72z"/><path d="M335.5 71.09c-.07-.49.09-.74.58-.63z"/><path d="M336.07 70.47c-.09-.51 0-.86.58-.63zM329.41 65.11l1-.78a1.59 1.59 0 01-1.16 1.86zM121.39 29.32l.22.28-.26-.24zM203.58 44.08l-.55.59c-.03-.42.16-.62.55-.59zM204 44.1l.68-.63-.11 1zM113.92 146.08c1.22.51 1.53 1.67 1.74 2.89l-.66-.25c-.33.84.58 1 .77 1.51l-.19.76c-1.36-.42-1.74-1.79-2.43-2.87l.34-.36c.82-.36.02-1.2.43-1.68zM115.58 151c.06-.25.13-.5.19-.75l.41-.44.62-.06 1.15 1.85v1.17l-.92-.48c-.43-.49-.72-1.15-1.42-1.28z"/><path d="M115.63 151c.7.13 1 .79 1.42 1.28-1.35.72-1.44-.23-1.42-1.28zM118 152.75v-1.17h.66l.06 1.06-.2.23a2.62 2.62 0 01-.52-.12zM119.83 153.84c.29.28.55.73.24 1s-.48-.28-.64-.55c.14-.16.27-.29.4-.45zM113.35 145.47l.56.6c-.45.09-.61-.14-.56-.6zM113.15 148.12l-.21-.63.55.27z"/><path d="M118.65 152.65l.6.59-.31.33-.49-.69zM119.25 153.24l.58.6c-.13.15-.26.29-.4.43-.16-.23-.32-.47-.49-.7zM117.94 151.59l-1.15-1.85c.63-.15.69-1.28 1.55-1 .41 1.02-.43 1.86-.4 2.85zM116.18 149.8l-.41.44c-.19-.56-1.1-.68-.77-1.52l.66.25a.31.31 0 00.26.17c.08.22.18.44.26.66z"/><path d="M116.18 149.8c-.08-.22-.17-.44-.26-.66l.88.6zM94.49 118.44c.4-1 .81-2.1 1.21-3.16 0-.2.08-.41.11-.61v-1.43l-.06-.09c.56-.35.56-.88.44-1.46a30.65 30.65 0 00.56-11.13c-.16-2.39-.34-4.77-.45-7.16 0-.94-.45-2 .56-2.74l1.65.15c0 .87.93 1 1.18 1.69 3.94 1.25 7.88 2.4 12 .74.75.38 1.58 1.19 2.24 1.05 2-.39 2.55-.05 2.81 2.36.27 2.66 2.34.47 3.58.66.38 1.11-1 1.25-1 2.13a12.35 12.35 0 011 3.79c0 2.54 2.52 3.62 5.12 2.54l5.16-2.15c.05 1.11.64 1.58 1.5 1 4.31-2.69 9.7-2.47 13.71-5.94.4-.35.87-.21 1.3-.3 5.39-1.14 11-1.18 16-4.08 1.75-1 4.06-.86 5.43-2.82.16-.23.48-.5.68-.11 1.43 2.88 5 2.28 6.73 4.93.32.5 1.85-.21 2.72-.37 1.93-.35 1.64 1.07 2 2a7.51 7.51 0 01.3 1.54c1.35-.51.75-1.7.92-2.58v-.05c1.34-.1 2.54.3 3.57-1.59s3.29-.43 4.9-.25c1.31.15.23 2.11.86 3.23a9.5 9.5 0 001.4-2.17c.54-1.75 1.44-1.62 2.61-.88 1.82 1.14 4.07.17 5.88 1.36 2.66-3.67 3.44.86 5 1.49 2.39 1 3.33.87 3.84-1.43.15 2.23 2.56 4.63-.7 6.61-.8.48-.67 1.51-.43 2.23.5 1.49-.08 2.72-.69 4a43.11 43.11 0 00-1.31-10.1c-.05 1 .54 2-.56 2.71-.92.58-.79-1-1.36-.86-1.1 3.32 2.14 7.13-1.42 10.24-.43-1.06-.84-2-2.25-1.05-1.88 1.25-2 1.08-2.47-1.61-.92 3-2.73 3.1-4.69 1.91-1.32-.81-1.88-.24-3.19.34-2.93 1.3-1.81 3.7-2.45 6-1.42-2.26-2.2-1.84-2.84.33-.36 1.2-1.65 2.22-2.68 1.9-2.66-.83-4.34.82-6.3 2.09-1.4.91-.82-.65-1-1.2a.63.63 0 00.2-.1v-.16l-.25.25c-1.32.23-1.61 2.67-3.42 1.84-.08-.5-.35-1.33-.73-1.06-1.82 1.3-3.95.85-5.83 1.42-1.55.47-2.73.1-4.11 0-1.16-.06-2.51-1.36-4 .31-.82 1-1.48-.57-1.17-1.67s.2-1.71-.73-1.93c-1.14-.27-1.09.75-1.18 1.57-.17 1.61-1.35 1.64-2.47 2-1.53.45-3.48-.27-4.48 1.81-.28.59-.77.35-1.11-.16a4.25 4.25 0 00-.6-.6c-.68 2.7-3.32 1.06-4.26 2-2 2.15-3.79.64-5.62.27s-3.72-1.3-5.34 1.2c-.94 1.45-3.09 1.25-4.76 1.52-1 .17-2.38-.56-2.89 1.16a.84.84 0 01-.39.36c-3.17-2.68-6.56.63-9.54-.35-2-.64-3.79-.06-5.58-.7-.63-.22-1.67-.34-1.79-.76-.75-2.57-2.78-1.8-4.34-2-1.39-.19-2.67 0-2.74-2.21 0-1.27-1.07-.7-1.74-.32h-.06c-.43-1.57-1.13-2.23-2.5-.94-.5.46-1 .36-1.42-.22zm6.33-11.69c-.75 0-1.09.47-1.15 1.22l-.14.2.12-.22a6.07 6.07 0 003.45 3.05v3.45c2.42-2.43 2.42-2.43 0-3.42 0-1.21 1.51-1.78 1.15-3.14-.26-2.38.54-4.94-1.18-7.09v2.9c-.86.79-.28 1.89-.54 2.81-.41 1.48-1 1.64-1.71.2 1.67-.44.67-1.12 0-1.76zm45.73-5.66c-1.17 2.61 0 5.17 0 7.77a16.46 16.46 0 000-7.77zM185.7 98c0 1-1.63 2.17 0 3.65zm-2.7 1.72a.8.8 0 00.55-1 1.94 1.94 0 00-.31-.63 5.05 5.05 0 00-.53 1c-.04.18.2.44.29.63zM80.25 113.52a3.18 3.18 0 012.55-1.06c3.13-.18 3.13-.12 4.7-2.37.83.15.58.88.68 1.43.35 1.84.95 1.63 2 .46.49-.55.7-3.09 2.22-.85h-.06l-.4.23.43.19-.09.89c-2.2 2.35-5 1.74-7.61 1.6-1.47-.04-2.95-.33-4.42-.52z"/><path d="M75.12 114.76c1.11-3.33 3.46-.72 5.15-1.25-.76 4.8-1.15 5.2-4.28 4.48 0-.17 0-.49.11-.51 1.12-.35 3.05-.39 2.69-1.88-.42-1.76-2.42-.48-3.67-.84zM77.87 124.68c-.45 1.9-2.43 1.08-3.35 2.17a4.3 4.3 0 01-3.93-1.15c0-.66-.13-1.37.54-1.81 2.12 1.47 4.43 1.11 6.74.79z"/><path d="M71.13 123.89c-.67.44-.54 1.15-.54 1.81l-1.29.75c-1.12 1-2.14 2.22-3.83 1.84l-.15-1.29c1.5.18 2-1.17 2.85-2.08s1.54-2.28 2.96-1.03zM80.79 121v2.32l-1 .19-.69.4c-1.92-.55-3.9-1-5.42-2.77 2.4.6 4.81 1.74 7.11-.14zM81.89 114.68c1.9 1.52 3.85 2.58 6.17.78-2.91 3.13-4.37 2.91-6.17-.78zM73.4 115.35l1.73-.61c-.07 1.05-.52 1.85-1.5 2a.84.84 0 01-.23-1.39zM217.89 117.79a1.58 1.58 0 011.69-1.25c-.03 1.26-.88 1.22-1.69 1.25zM222.43 115.94c.56-1.89 1.11-1.09 1.66 0z"/><path d="M221.25 115.92h1.19c-.15.31-.25.85-.46.9-.59.18-.6-.47-.73-.9zM153 131.51l-.12-.19.26-.15v.23c0 .06-.04.08-.14.11zM219.58 116.56l.55-.56zM85.84 119.14c-.1-.13-.31-.34-.29-.37.23-.36.38-.08.54.1zM79.07 123.89l.69-.4zM94 136.22l-.24-.14.24.15zM65.47 128.29c1.69.38 2.71-.85 3.83-1.84a8.31 8.31 0 004.06 2.55c.21 1 2.11.78 1.41 2.54-.58 1.47-1.68 1.16-2.68 1.56-1.91.77-3.36-1.52-5.11-.57-.6.32-.53 1.51-1.78.23s-1.48-1.68-.21-2.8c.24-.22.26-.73.38-1.11.03-.2.06-.38.1-.56zM73.36 129a8.31 8.31 0 01-4.06-2.53l1.29-.75a4.3 4.3 0 003.93 1.15c.19 1.05-.84 1.36-1.16 2.13zM57.41 131.33l-1.8-.22c1.91-1.21 4-.69 5.82-1.62-.38 3.04-2.64 1.33-4.02 1.84z"/><path d="M65.47 128.29c0 .18-.07.36-.1.54h-2.22a2.91 2.91 0 012.17-1.83zM62.51 129.45l.62-.55zM333.67 100.16c-1.28-.57-1.63-1.94-3-3.46 2.18.67 2.63 2 3.18 3.2zM329.8 98.79a.93.93 0 01-.59-1.26c.56.23.61.73.59 1.26zM330.38 99.71l-.6-1zM228.16 98.14c-.67 2.7 1.47 1.83 2.53 2.2.57.19 1.61-1.48 1.75-.3s1.94 2.53.47 4a2.71 2.71 0 00-.38.82l-2.2-3.45c-.06 3.27-3.58 2.33-3.57 5.08-1.31-.48-1.19-1.85-2.22-2.53-.67.76-.23 2.18-1.18 2.81-.71-.45-.06-1.3-.59-2-2.34 3-2.56.55-2.85-1.46-1.42.27-.45 2-1.57 2.33-2.76-2.63-2.76-2.63-3.84-.28a3.25 3.25 0 01-.82-3.28 5.21 5.21 0 00.14-2.12c-.45-3.17-.42-3.24 2.77-3.74.33 1.46-1.74 1.68-1.25 3.21 1.47.42 3.07-2.89 4.6 0 .55-1.06-.43-2.63 1-3 1.07-.3 1 1.31 1.77 1.72.62-2 1.62-2.6 3.15-1a2.69 2.69 0 002.31.92zm-11 1.61c.37 1.61-.2 2.45.71 3.54-.09-1.14.24-1.96-.71-3.54zM191.62 85.25c-.35.91 2 1.69.1 2.68-1.16.61-2.88-.45-4.16-2.71h4zM96.84 124c.07 1 1.44 2.12 0 3.15-1-1.78-1-1.78 0-3.2zM94.24 124.44c.63 1.78.63 1.78-1.12 2.43l1.12-2.43zM180.72 85.7c-1.06 0-1.77 1-2.12 0-.28-.8.35-1 1-.71a9.21 9.21 0 011.12.71zM210.11 105.63a1.15 1.15 0 01-.07-1.32s.35 0 .36.1c.06.43.23.92-.29 1.22zM281.28 95.67v.63c-.23-.07-.66-.12-.66-.21-.05-.54.38-.35.66-.42zM190.11 89.37l.21.08-.29.18zM216.21 88.79l-.21-.09.24-.24.15.18zM228.16 98.14l.13-.26-.13.26zM172.19 122.09l-.13.26.14-.25zM181.87 96.93l-.22-.3.27.25zM244.72 91.38l.24.26h-.15a1.33 1.33 0 01-.09-.21zM214.47 88.91l.23.26-.25-.24zM99.66 92.5c-.25-.69-1.18-.82-1.18-1.69 7.83-4.11 16-7 24.7-7.83-4.41 1.68-9 2.92-13.3 4.82-2.8 1.22-5.63 2.36-8.47 3.49-.58.23-1 .45-1.1 1.18zM117.29 88.42c10-3.38 20.14-5.1 30.58-2.52-10.5-1.17-20.63.76-30.61 4zM119.25 99.44c0-.88 1.4-1 1-2.13 6.22-2.36 12.47-4.6 19.64-4-7.11 2.2-14.09 3.33-20.64 6.13zM118.48 93.17a52.48 52.48 0 0126.3-3.8c-9-.76-17.29 2.53-25.71 5.08.36-.73.3-1.23-.59-1.28z"/><path d="M99.66 92.5h.65c2.7-.17 5.41-.33 8.11-.51a3.23 3.23 0 013.22 1.28c-4.1 1.63-8.04.48-11.98-.77zM121.43 102c2.94-2 6.18-2 9.47-1.52zM127.35 81.9h13.29c-4.41.28-8.84.17-13.25 1zM117.29 88.42v1.53l-4.16 1.78c-.46.2-1 .33-1.27-.15-.38-.72.22-1.12.73-1.33 1.53-.65 3.12-1.25 4.7-1.83zM118.48 93.17c.89 0 1 .55.59 1.28a4.4 4.4 0 00-.51.18l-.68.39c-.63.1-1.57.41-1.55-.56.03-1.35 1.25-1.18 2.15-1.29z"/><path d="M117.88 95l.68-.39c-.22.16-.45.28-.68.39zM96.72 100.56a30.65 30.65 0 01-.56 11.13 1 1 0 00-.42 0l-.18-4.89c.66-2.05-1.13-4.59 1.16-6.24z"/><path d="M95.56 106.76l.18 4.89c-.3.5-.51 1 0 1.5l.06.09c-.72.18-1.94.49-1.72-.6.38-1.97-.36-4.34 1.48-5.88zM92.38 111.56l-.43-.19.4-.23a.52.52 0 01.03.42zM95.81 114.67c0 .2-.07.41-.11.61.04-.2.08-.41.11-.61zM94.07 86.38c.12.25.23.51.34.76zM91.05 72.38l-.22-.32.3.23zM87.18 75.55c-3.06-1.43-5.82.73-9.42 1.36 2.64-2.9 5.66-3.58 7.77-5.72.75.76 2.32.64 2.15 2.37l-1.28.13v.37l1.31.16a.7.7 0 010 .38z"/><path d="M87.71 74.22l-1.31-.16v-.37l1.28-.13zM90.5 95.39c-.77 4.1-3.25 1.7-5.14 1.57a1.4 1.4 0 012.17-1.09c1.11.47 1.96-.49 2.97-.48zM85.36 97.43c-.34 2.24-2 3.15-3.92 4.55.38-2.36 2.57-2.67 2.82-4.4zM76.07 77.79a1.36 1.36 0 01-1.46-1.47 1.14 1.14 0 01.94-1.3c1-.1 1.22.83 1.45 1.57s-.33 1.05-.93 1.2zM80.62 93.68l.38-1.91a1.53 1.53 0 010 2.17zM70 69.88l.21.13-.2-.14zM73.93 102.42l-1.09.18c.42-2.57 2.33-1.86 3.82-1.94 1.29-.08 1.61.5 1 1.83-.09.2 1.06 1.52 1.54 1.46a6.64 6.64 0 014.51.79c1.3.92 3.08 1 4 2.6-3 .34-5.82-.73-8.6-1.78-1.25-.18-1.76-1.46-2.71-2.07-.57-1.07-1.06-2.22-2.47-1.07zM76.33 109.05c0-.83-.18-1.66 1.1-1.37 1 .23 2 .21 3 .37.44.07 1.3-.29 1 .74-.07.25-.81.3-1.24.44l-.56.57c-1.12-.06-2.31.09-3.3-.75z"/><path d="M76.33 109.05c1 .84 2.18.69 3.32.73-.25 2-1.55 1.34-2.52 1a20.52 20.52 0 01-3-1.56c.87-1.11 1.53-.1 2.2-.17zM87.68 107.34l.22.16-.25-.13zM79.66 109.8l.56-.57zM56.17 101.16l.6-.65c.55.18 1.2.67 1.61.5 3.49-1.48 2.95 1.2 3 3.28-.65.28-1.8.92-1.86 0-.16-2.49-2.1-2.29-3.35-3.13zM51.76 99.41c-.32 1.4-.14 3.25-2.32 3-.54-.86-.89-1.64.11-2.52.73-.68 1.25-1.6 2.21-.48zM50.79 95l1.89-3.17c.52.17 1.31.18 1.51.56.41.76-.32 1.27-.83 1.67a3 3 0 01-2.57.94zM59.59 97.07c0 1.14-.76 1-1.41 1s-1.24 0-1.08-.91c.12-.7.39-1.44 1.22-1.42a1.32 1.32 0 011.27 1.33zM49.28 96.27l1.25-.94c-.1.8-.6.98-1.25.94zM38 88c-.93.6-1 3.12-2.39 2.06-1.14-.87.44-2.34 1-3.36 1-1.83 2.58-1.74 4.2-.9-.68 1.14-2.81.06-2.81 2.2z"/><path d="M38 88c0-2.13 2.14-1 2.8-2.2 2 0 .76 1.71 1.08 2.59h.05c-.57-.25-1.62 1.49-1.86-.59-.07-.39-1.37-.05-2.07.2z"/><path d="M41.87 88.38l.14-.01-.09.02-.05-.01zM56.17 101.16c1.25.84 3.19.64 3.37 3.1.06.93 1.21.29 1.86 0-.39 2.41-2.18.6-3.27 1.29 1 2.46 3.33 1.67 5 2.43l-4.5 1.87c-.2-.53.86-1.33.05-1.5a20.23 20.23 0 00-5.21-.33c-.55 0-1.38 1-1.49 1.58-.18 1 1 .53 1.45.88v1.17h-7.36l-.18-.2c.07-.18.12-.38.2-.56.91-2 4.19-.36 4-1.53-.47-2.46 1.16-2.73 2.07-3.82l.33-.29c1 .27 2.09 1.51 3-.07a2 2 0 00-.95-3c.13-.92.46-1.74 1.63-1.02z"/><path d="M62 113.48c-2.37-.15-4.75.61-7 .7-3.1.12-6.43 2.17-9.53-.11 2.07-1.58 4.58-.84 6.82-1.51l1.14-.92 6.23-.15c1.29 1.39 2.48.16 3.69-.38.41 1.61-1.08 1.56-1.35 2.37z"/><path d="M59.62 111.51l-6.23.15v-1.17c1.74.08 3.66 2 5.13-.59h.07l4.5-1.87 1.12.14a2 2 0 01-2.32 1.62c-1.24-.08-1.72.8-2.27 1.72zM64.24 108.13l-1.12-.13c.46-.78.88-.84 1.12.13zM47.83 95.18c.26-.91.42-1.93 1.64-1.88.1 1.29-.41 1.95-1.64 1.88zM63.63 118.48c.77-.64 1-2.1 2.33-1.92a3.63 3.63 0 01-.6 2.56c-.44.68-.2 2.25-1.25 2-1.21-.36-.49-1.71-.48-2.64zM63.29 123.41a1.17 1.17 0 01-1.33.51l-.09-2.92c1.33.21 1.13 1.46 1.42 2.41zM66.06 122.85l-.56.52zM73.93 102.42c1.41-1.15 1.9 0 2.41 1.1-.99.11-2.14.62-2.41-1.1zM61.47 124c-.63 3-4.12 5.88-6.33 5.31a19.65 19.65 0 016.33-5.31zM50.69 129.32c-.76.23-1.22-.07-1.36-.92.76-.22 1.18.15 1.36.92zM48.21 127.85c-.93.69-1 0-1.12-.76a.84.84 0 011.12.76zM56.84 120.89c.17-.55.37-.52.58 0zM51.69 129.49c-.2.49-.39.51-.57 0zM42.57 112.25a7.05 7.05 0 003.31-.7l.18.19c-.94 2-2.25 1.14-3.52.54z"/><path d="M53.42 111.64l-1.14.92v-.87zM52.12 105.63c-.25-.25-.58-.66-.24-.89s.42.34.57.61zM42.54 112.28l-.24-.28.27.28zM52.87 115.4c2 0 4 .19 5.87-.79 1.19-.62 2-.31 2.07 1.32-1.31.41-2.74.4-3.94 1.22-1.37-.48-2.57-.74-3.93.44a2.35 2.35 0 01-3.58-.35l.23-.08h.24a2.8 2.8 0 003.04-1.76z"/><path d="M49.36 117.24a2.35 2.35 0 003.58.35c1.36-1.18 2.56-.92 3.93-.44-2.93 1.9-6 2.7-9.28 1.18a3.27 3.27 0 00.13-.54z"/><path d="M52.87 115.4a2.79 2.79 0 01-3 1.77l-.12-.9c.99-.43 1.93-1.16 3.12-.87zM49.72 116.27l.12.9h-.25l-.23.08-1.67.59c.07-.55.13-1.1.2-1.64zM99.67 108c.06-.75.4-1.21 1.15-1.22.72 1.44 1.3 1.28 1.71-.2.26-.92-.32-2 .54-2.81a3.1 3.1 0 01.11 2.34c-.1.79-.43 2 1.07 1.85.36 1.36-1.15 1.93-1.15 3.14a6.07 6.07 0 01-3.45-3.1zM146.55 101.09a16.46 16.46 0 010 7.77c.04-2.6-1.17-5.16 0-7.77z"/><path d="M104.22 107.91c-1.5.17-1.17-1.06-1.07-1.85a3.1 3.1 0 00-.11-2.34v-2.9c1.72 2.18.96 4.71 1.18 7.09zM103.07 111.05c2.45 1 2.45 1 0 3.42V111zM185.7 98v3.65c-1.63-1.52-.05-2.72 0-3.65zM183 99.72c-.1-.19-.34-.45-.29-.62a5.05 5.05 0 01.53-1 1.94 1.94 0 01.31.63.8.8 0 01-.55.99zM100.82 106.75V105c.64.64 1.64 1.32 0 1.76zM95.72 113.15c-.49-.51-.28-1 0-1.5a1 1 0 01.42 0c.14.62.14 1.15-.42 1.5zM99.65 108l-.12.22.14-.2zM175.61 120.25l.25-.25v.16a.63.63 0 01-.2.1zM217.16 99.75c1 1.58.62 2.4.71 3.54-.87-1.09-.34-1.93-.71-3.54zM53.42 110.49c-.48-.35-1.63.16-1.45-.88.11-.63.94-1.55 1.49-1.58a20.23 20.23 0 015.21.33c.81.17-.25 1-.05 1.5h-.07c-1.38-.3-2.81.24-4.19-.4-.71-.33-1 .26-.94 1z"/><path d="M53.42 110.44c0-.73.23-1.32.94-1 1.38.64 2.81.1 4.19.4-1.47 2.59-3.39.68-5.13.6z"/></svg>