<svg version="1.1" id="bbq__Layer_1" xmlns="http://www.w3.org/2000/svg" x="0" y="0" viewBox="0 0 612 792"
    xml:space="preserve">
    <style>
        .bbq__st0 {
            fill: #fff
        }
    </style>
    <g id="bbq__WVx2IQ_tif">
        <path className="bbq__st0"
            d="M540 598.6H72v-467h468v467zM274.8 415.7c7.1-.5 14.2-.7 21.2-1.6 25.7-3.3 49.9-11.4 72.1-24.9 10.1-6.1 19.6-13 27.1-22.2 5.9-7.3 6.1-11.3-.1-18.2-5-5.5-10.4-10.9-16.5-15.1-39.9-27.7-83.9-38.8-132.1-30.7-31.7 5.3-59.8 18.9-84.5 39.4-4.3 3.6-7.9 8-11.7 12.2-1.9 2.1-1.8 4.6 0 6.8 2.2 2.6 4.3 5.3 6.8 7.7 11.9 11.4 25.6 20.1 40.3 27.4 24.2 12 50 19 77.4 19.2zm137.3 108.9c.9-.5 1.5-.9 2.1-1.3 18.8-12.5 34.8-27.8 48.2-46 1.2-1.6 1.6-3.1 1.6-5-.1-20.7 0-41.5 0-62.2V259c0-1.2-.2-2.7-.9-3.7-13.5-18.9-30.1-34.7-49.4-47.5-.4-.3-1-.5-1.4-.7V329c1.5-1.9 2.8-3.4 4.1-4.9 8.3-9.9 18.2-17.5 30.5-21.8 4.5-1.6 8.7-.5 11.5 3 2.4 3.1 2.6 6.4 1.4 10.1-3.8 11.8-7.5 23.8-11.3 35.6-1.5 4.6-1.5 9.1 0 13.7 3.7 11.5 7.4 23.1 11 34.7.6 2 1.2 4.3 1 6.3-.9 6.5-7.1 10-13.4 7.8-12.6-4.3-22.6-12.2-31-22.3-1.1-1.4-2.3-2.7-3.7-4.5-.3 46.2-.3 91.8-.3 137.9zM352 550.1c17.7-4.1 34-10.5 49.5-19 1.8-1 2.6-2.1 2.5-4.2-.1-15.6-.1-31.1-.1-46.7 0-34.9 0-69.7-.1-104.6 0-1.7-.7-3.5-1.1-5.4-3.3 3.5-6 6.7-9 9.6-11.6 10.9-25.1 18.9-39.4 25.5-1.9.9-2.5 1.8-2.5 3.9.1 46 0 92 0 138.1.2.7.2 1.7.2 2.8zm-59.6 3.9c1.2.2 2.2.4 3.3.5 15.3 1.1 30.4.3 45.5-2.2 2.5-.4 3.2-1.2 3.2-3.7-.1-45.3-.1-90.5-.1-135.8v-3.2c-17 6.6-34.2 10.8-51.9 12.7V554zM165.3 244.1c-.2 0-.5-.1-.7-.1-32 39.1-47.2 83.8-44 134.3 2.6 41.2 17.8 77.6 44.6 109.9.1-1.2.1-1.7.1-2.2 0-32.7 0-65.4-.1-98.1 0-1.1-.8-2.4-1.6-3.2-5.8-5.6-12.2-10.6-17.5-16.6-7.1-8.1-7-12.7.3-20.7 5.2-5.7 11.2-10.7 16.9-15.8 1.3-1.2 2.1-2.2 2.1-4.1-.1-26.9 0-53.8 0-80.7-.1-.9-.1-1.8-.1-2.7zM352 181.5V291.7c0 1.9.5 3.1 2.1 4.3 8.7 6.3 15.9 13.9 19.8 24.1.3.9 1.3 1.7 2.2 2.2 7.5 4.9 14.6 10.2 20.8 16.7 1.9 2 3.7 4.2 5.5 6.3.2-.2.4-.3.5-.4 1.8-2.8 1.2-6 1.2-9 0-43.8 0-87.5.1-131.3 0-2-.6-3.2-2.4-4.1-4.9-2.4-9.7-5.1-14.7-7.3-11.2-5-22.8-8.9-35.1-11.7zM173.1 391.7c0 .5-.1.8-.1 1.1 0 34.1 0 68.2.1 102.4 0 1.1.7 2.3 1.5 3.1 10.9 11.1 23 20.7 36.2 28.8 4.4 2.7 8.9 5.1 13.7 7.8.1-1.2.2-2 .2-2.7 0-38.1 0-76.2.1-114.3 0-1.8-.7-2.6-2.3-3.1-10.9-3.4-21.4-7.7-31.5-13.1-6-3.1-11.8-6.6-17.9-10zm96.2 31.5c.2 1 .4 1.7.5 2.4.6 4.8 1.6 9.6 1.6 14.3-.1 8.3-6.6 12.2-14.1 9-2-.9-4-2.1-5.8-3.4-6.8-5.2-12.1-11.9-17.1-18.8-.5-.7-1-1.3-1.7-2.2-.1.5-.2.6-.2.7 0 37.2 0 74.4-.1 111.6 0 1.5.7 2 1.9 2.5 12.6 5.5 25.7 9.5 39.2 12.1 3.5.7 7.1 1.2 10.8 1.8V423.1c-5 .1-9.8.1-15 .1zm75.1-133.7v-3.1-96.1c0-2.9.1-5.8-.1-8.7 0-.7-.9-1.8-1.5-1.9-15.8-2.9-31.7-3.7-47.7-2.5-2 .2-2.8.8-2.8 3 .1 9.9.1 19.8.1 29.7v58.2c0 1.9.4 2.8 2.5 3.1 3.5.6 6.9 1.7 10.4 2.6 13.3 3.6 26.3 8.6 39.1 15.7zm-59.9-111c-1 .1-1.7 0-2.3.1-16.4 2.5-32.3 6.9-47.6 13.4-1.7.7-2.1 1.6-2.1 3.3v99.1c0 .7.1 1.4.1 2.4 5-2.8 9.6-5.7 14.3-8.1 11.7-6 23.4-11.9 35.2-17.6 1.6-.8 2.4-1.3 2.4-3.3-.1-28.9-.1-57.7-.1-86.6.1-.8.1-1.6.1-2.7zm-59.8 18.4c-.8.3-1.1.4-1.4.5-18.5 9.4-34.9 21.6-49.3 36.5-.6.7-1 1.9-1 2.9-.1 28.4 0 56.9 0 85.3 0 .7.1 1.3.2 2.2 24.2-14.1 31.3-17.4 49-23.2 1.9-.6 2.6-1.4 2.5-3.5-.1-32.6 0-65.2 0-97.8v-2.9zm230.7-.4c-6.4 6.4-12.6 12.5-18.9 18.8 1.7 1.5 3.4 3 5.6 4.8 6.1-6.2 12.1-12.4 17.8-18.1 5.9 5.8 11.6 11.6 17.7 17.6-6 5.9-12.2 12-18.4 18.2 1.5 1.8 3 3.6 4.6 5.6 3.2-3.3 6.4-6.4 9.5-9.6 3.1-3.2 6.3-6.4 9.5-9.6.9.9 1.6 1.5 2.2 2.1 4.5 4.5 8.9 9.1 13.5 13.4 9.9 9.2 26 5.1 30.1-7.7 2.3-7.4.6-13.9-4.9-19.4-20.3-20.2-40.5-40.5-60.8-60.7-.9-.9-1.8-1.7-2.8-2.4-9.8-7.1-24-2.9-28 8.5-2.6 7.4-1.1 14.1 4.4 19.7 6 6.1 12.2 12.2 18.9 18.8zm-313.2 312c-.6-.9-1-1.7-1.6-2.4-5.5-5.6-11-11.1-16.6-16.6-4.9-4.8-10.8-6.5-17.4-4.9-6.9 1.6-11.5 6-13.4 12.8-2 7.1-.2 13.5 5.1 18.7l60.6 60.6c.9.9 1.9 1.9 3 2.6 5.9 4.1 12.2 4.7 18.7 1.7 6.4-3 9.9-8.2 10.4-15.3.4-5.7-1.5-10.6-5.5-14.7-4.9-4.9-9.8-9.7-14.7-14.6 5.5-5.5 10.9-10.8 16.4-16.3-2.2-1.8-4-3.3-6.2-5l-15.4 15.4-17.4-17.4 15.2-15.2c-1.7-1.9-3.2-3.7-5-5.7-5.3 5.4-10.5 10.6-16.2 16.3zm329.6-239.8v194.2c35.3-57 36.8-134.3 0-194.2zM407 357.8c.1 0 .3.1.4.1 0 .6 0 1.2.2 1.7.2 1.1.5 2.3.8 3.4 4.8 14.7 14.1 26.1 26.3 35.2 4.2 3.2 9.2 5.2 14 7.5.9.4 2.7.5 3.1 0 .6-.8.3-2.2.3-3.4 0-.5-.3-.9-.4-1.4-3.5-10.9-7-21.8-10.4-32.8-1.4-4.6-2.8-9.3-1.5-14.2 2.7-9.6 5.5-19.1 8.4-28.7 1.2-4 2.7-7.9 3.8-11.8.3-1.1.4-3-.1-3.4-.8-.6-2.4-.2-3.6-.2-.2 0-.5.2-.7.3-17.9 7.4-29.6 20.9-37.6 38.1-1.4 3.1-2 6.4-3 9.6zm-45.7-44.5c-.5-.6-1-1.3-1.6-1.9-5.3-6.2-11.7-10.8-18.7-14.8-15.4-8.7-32-14.2-49.1-18.2-3.4-.8-6.4-.6-9.4.9-8.1 4-16.2 8.1-24.3 12.1-1.3.7-2.6 1.4-4.4 2.5 38.3-4.3 73.6 3.3 107.5 19.4zM238.2 419.5c5.1 6 9.8 11.7 14.7 17.1 1.8 1.9 4 3.5 6.3 4.8 3.2 1.8 5 .9 4.6-2.7-.5-5-1.6-10-2.6-14.9-.1-.6-1.1-1.2-1.8-1.3-6.7-1-13.5-1.9-21.2-3z" />
        <path
            d="M274.8 415.7c-27.4-.2-53.1-7.2-77.6-19.3-14.7-7.3-28.4-16.1-40.3-27.4-2.5-2.3-4.6-5.1-6.8-7.7-1.8-2.2-2-4.6 0-6.8 3.8-4.2 7.4-8.6 11.7-12.2 24.7-20.5 52.8-34 84.5-39.4 48.2-8.1 92.2 3 132.1 30.7 6.1 4.2 11.5 9.6 16.5 15.1 6.3 6.9 6 10.9.1 18.2-7.5 9.3-17 16.1-27.1 22.2-22.2 13.5-46.3 21.6-72.1 24.9-6.9 1-14 1.2-21 1.7zM244 355.6c-.7-4.4-1-8.9-2.1-13.2-2.8-11-9-19.7-19-25.4-2.3-1.3-4.6-.8-5.7 1.1-1.2 2-.5 4.1 1.9 5.6 1.5.9 3 1.8 4.3 3 8.1 6.8 11.8 15.8 12.3 26.1.7 14.6-3.5 27.1-16.8 35.1-2.2 1.3-2.9 3.3-1.9 5.3s3.3 2.7 5.6 1.4c2.2-1.2 4.3-2.6 6.2-4.2 10.5-9.3 14.7-21.2 15.2-34.8zm-50.3-17.3c-8 0-14.3 6.2-14.4 14.1-.1 7.9 6.2 14.4 14.1 14.4 8 .1 14.6-6.4 14.6-14.3 0-7.7-6.4-14.2-14.3-14.2zM412.1 524.6v-138c1.5 1.7 2.6 3.1 3.7 4.5 8.4 10.1 18.4 18 31 22.3 6.4 2.2 12.5-1.2 13.4-7.8.3-2-.3-4.3-1-6.3-3.6-11.6-7.2-23.1-11-34.7-1.5-4.6-1.5-9.1 0-13.7 3.8-11.9 7.5-23.8 11.3-35.6 1.2-3.7 1-7-1.4-10.1-2.8-3.5-6.9-4.6-11.5-3-12.3 4.3-22.2 11.9-30.5 21.8-1.3 1.5-2.5 3.1-4.1 4.9V207c.5.2 1 .4 1.4.7 19.4 12.8 35.9 28.6 49.4 47.5.7 1 .9 2.5.9 3.7v213.3c0 1.9-.5 3.5-1.6 5-13.4 18.1-29.4 33.5-48.2 46-.3.5-.9.9-1.8 1.4zM352 550.1v-3V409c0-2 .6-3 2.5-3.9 14.4-6.6 27.9-14.6 39.4-25.5 3-2.8 5.7-6 9-9.6.4 1.9 1.1 3.7 1.1 5.4.1 34.9.1 69.7.1 104.6 0 15.6-.1 31.1.1 46.7 0 2.2-.7 3.2-2.5 4.2-15.7 8.7-32 15.1-49.7 19.2zM292.4 554V422.3c17.7-1.9 34.9-6.1 51.9-12.7v3.2c0 45.3 0 90.5.1 135.8 0 2.5-.6 3.3-3.2 3.7-15.1 2.5-30.3 3.3-45.5 2.2-1-.1-2.1-.3-3.3-.5z" />
        <path
            d="M165.3 244.1v83.3c0 1.9-.7 2.9-2.1 4.1-5.8 5.1-11.8 10.1-16.9 15.8-7.3 8-7.4 12.6-.3 20.7 5.3 6 11.7 11 17.5 16.6.8.8 1.6 2.1 1.6 3.2.1 32.7.1 65.4.1 98.1 0 .5 0 .9-.1 2.2-26.8-32.3-42-68.6-44.6-109.9-3.2-50.6 12.1-95.3 44-134.3.4.1.6.2.8.2zM352 181.5c12.3 2.8 23.8 6.7 34.9 11.8 5 2.3 9.8 5 14.7 7.3 1.8.9 2.4 2 2.4 4.1-.1 43.8 0 87.5-.1 131.3 0 3 .7 6.2-1.2 9-.1.1-.2.2-.5.4-1.8-2.1-3.6-4.3-5.5-6.3-6.2-6.5-13.3-11.8-20.8-16.7-.9-.6-1.8-1.3-2.2-2.2-4-10.2-11.2-17.8-19.8-24.1-1.6-1.2-2.1-2.4-2.1-4.3.1-35.7 0-71.4 0-107.1.2-1.1.2-2 .2-3.2zM173.1 391.7c6.1 3.5 11.9 6.9 17.8 10.1 10.1 5.3 20.6 9.7 31.5 13.1 1.7.5 2.4 1.3 2.3 3.1-.1 38.1 0 76.2-.1 114.3 0 .7-.1 1.4-.2 2.7-4.8-2.7-9.3-5.1-13.7-7.8-13.3-8.1-25.4-17.7-36.2-28.8-.8-.8-1.5-2.1-1.5-3.1V392.8c0-.3.1-.7.1-1.1zM269.3 423.2h15v130.1c-3.7-.6-7.3-1.1-10.8-1.8-13.5-2.6-26.6-6.7-39.2-12.1-1.2-.5-1.9-1-1.9-2.5.1-37.2.1-74.4.1-111.6 0-.1 0-.2.2-.7.7.9 1.2 1.5 1.7 2.2 5 6.9 10.3 13.6 17.1 18.8 1.8 1.3 3.7 2.5 5.8 3.4 7.6 3.2 14-.7 14.1-9 .1-4.8-1-9.5-1.6-14.3-.1-.8-.2-1.5-.5-2.5zM344.4 289.5c-12.7-7.1-25.8-12-39.3-15.8-3.4-1-6.9-2-10.4-2.6-2.1-.4-2.5-1.2-2.5-3.1.1-19.4 0-38.8 0-58.2 0-9.9.1-19.8-.1-29.7 0-2.2.8-2.8 2.8-3 16-1.2 31.9-.4 47.7 2.5.6.1 1.5 1.2 1.5 1.9.2 2.9.1 5.8.1 8.7v96.1c.2.9.2 1.8.2 3.2zM284.5 178.5v2.8c0 28.9 0 57.7.1 86.6 0 1.9-.7 2.5-2.4 3.3-11.8 5.7-23.5 11.6-35.2 17.6-4.8 2.5-9.4 5.3-14.3 8.1 0-1-.1-1.7-.1-2.4v-99.1c0-1.7.4-2.6 2.1-3.3 15.3-6.5 31.2-11 47.6-13.4.5-.2 1.2-.1 2.2-.2zM224.7 196.9v100.7c0 2-.6 2.8-2.5 3.5-17.8 5.8-24.8 9.2-49 23.2-.1-.8-.2-1.5-.2-2.2v-85.3c0-1 .3-2.2 1-2.9 14.4-14.9 30.9-27 49.3-36.5.3-.1.7-.2 1.4-.5zM455.4 196.5c-6.7-6.6-12.8-12.7-18.9-18.9-5.5-5.6-7.1-12.3-4.4-19.7 4.1-11.4 18.2-15.7 28-8.5 1 .7 2 1.6 2.8 2.4 20.3 20.2 40.5 40.5 60.8 60.7 5.5 5.5 7.3 12.1 4.9 19.4-4.1 12.8-20.2 16.8-30.1 7.7-4.6-4.3-9-8.9-13.5-13.4-.6-.6-1.3-1.2-2.2-2.1-3.2 3.3-6.4 6.5-9.5 9.6-3.2 3.2-6.3 6.4-9.5 9.6-1.6-2-3.1-3.8-4.6-5.6 6.2-6.2 12.4-12.3 18.4-18.2-6.1-6-11.8-11.8-17.7-17.6-5.6 5.8-11.7 11.9-17.8 18.1-2.2-1.9-3.9-3.4-5.6-4.8 6.3-6.1 12.4-12.3 18.9-18.7zM142.2 508.5c5.7-5.7 10.8-10.9 16.2-16.3 1.8 2 3.4 3.8 5 5.7l-15.2 15.2c5.9 5.9 11.7 11.6 17.4 17.4l15.4-15.4c2.1 1.8 4 3.3 6.2 5-5.5 5.5-10.8 10.8-16.4 16.3 4.9 4.9 9.8 9.8 14.7 14.6 4.1 4.1 6 8.9 5.5 14.7-.6 7.1-4.1 12.3-10.4 15.3-6.4 3-12.8 2.4-18.7-1.7-1.1-.8-2.1-1.7-3-2.6l-60.6-60.6c-5.3-5.3-7.1-11.6-5.1-18.7 1.9-6.8 6.5-11.2 13.4-12.8 6.6-1.5 12.6.1 17.4 4.9 5.6 5.5 11.1 11 16.6 16.6.6.6 1.1 1.5 1.6 2.4zM471.8 268.7c36.8 60 35.2 137.2 0 194.2V268.7zM407 357.8c1-3.2 1.6-6.5 3-9.4 8-17.2 19.7-30.7 37.6-38.1.2-.1.5-.3.7-.3 1.2 0 2.8-.4 3.6.2.6.4.4 2.3.1 3.4-1.2 4-2.7 7.9-3.8 11.8-2.9 9.5-5.7 19.1-8.4 28.7-1.4 4.9.1 9.6 1.5 14.2 3.3 11 6.9 21.8 10.4 32.8.2.5.4.9.4 1.4 0 1.2.3 2.6-.3 3.4-.4.5-2.3.5-3.1 0-4.7-2.4-9.8-4.4-14-7.5-12.1-9.1-21.4-20.6-26.3-35.2-.4-1.1-.6-2.2-.8-3.4-.1-.6-.1-1.2-.2-1.7-.1-.2-.3-.3-.4-.3zM361.3 313.3c-33.9-16.1-69.3-23.7-107.5-19.5 1.9-1 3.1-1.8 4.4-2.5 8.1-4.1 16.2-8.1 24.3-12.1 3-1.5 6.1-1.6 9.4-.9 17.1 4 33.7 9.5 49.1 18.2 7 4 13.4 8.7 18.7 14.8.6.7 1.1 1.4 1.6 2z" />
        <path
            d="M238.2 419.5c7.7 1.1 14.5 1.9 21.3 3 .7.1 1.6.8 1.8 1.3 1 4.9 2.1 9.9 2.6 14.9.3 3.6-1.5 4.5-4.6 2.7-2.3-1.3-4.6-2.9-6.3-4.8-5-5.4-9.7-11.1-14.8-17.1z" />
        <path className="bbq__st0"
            d="M244 355.6c-.5 13.7-4.7 25.6-15.2 34.7-1.9 1.6-4 3-6.2 4.2-2.2 1.3-4.5.5-5.6-1.4-1-1.9-.3-4 1.9-5.3 13.3-8 17.5-20.5 16.8-35.1-.5-10.3-4.2-19.3-12.3-26.1-1.3-1.1-2.8-2-4.3-3-2.4-1.5-3.1-3.6-1.9-5.6 1.1-1.9 3.4-2.4 5.7-1.1 10 5.7 16.2 14.4 19 25.4 1.1 4.4 1.4 8.9 2.1 13.3zM193.7 338.3c7.9 0 14.3 6.5 14.3 14.3 0 7.9-6.6 14.3-14.6 14.3-7.8-.1-14.1-6.5-14.1-14.4.1-8 6.4-14.2 14.4-14.2zm6.4 14.2c0-3.6-2.9-6.5-6.5-6.5s-6.7 3.1-6.6 6.7c0 3.6 3.2 6.7 6.8 6.5 3.6-.2 6.3-3.1 6.3-6.7z" />
        <path
            d="M200.1 352.5c0 3.6-2.7 6.5-6.3 6.7-3.6.1-6.7-2.9-6.8-6.5 0-3.6 3.1-6.7 6.6-6.7 3.6 0 6.5 2.9 6.5 6.5z" />
    </g>
</svg>