<?xml version="1.0" encoding="utf-8"?>
<!-- Generator: Adobe Illustrator 26.0.3, SVG Export Plug-In . SVG Version: 6.00 Build 0)  -->
<svg version="1.1" id="Layer_1" xmlns="http://www.w3.org/2000/svg" xmlns:xlink="http://www.w3.org/1999/xlink" x="0px" y="0px"
	 viewBox="0 0 612 792" style="enable-background:new 0 0 612 792;" xml:space="preserve">
<style type="text/css">
	.st0{fill:#FFFFFF;}
</style>
<g id="WVx2IQ.tif">
	<g>
		<path class="st0" d="M540,598.6c-156,0-312,0-468,0c0-155.7,0-311.3,0-467c156,0,312,0,468,0C540,287.2,540,442.9,540,598.6z
			 M274.8,415.7c7.1-0.5,14.2-0.7,21.2-1.6c25.7-3.3,49.9-11.4,72.1-24.9c10.1-6.1,19.6-13,27.1-22.2c5.9-7.3,6.1-11.3-0.1-18.2
			c-5-5.5-10.4-10.9-16.5-15.1c-39.9-27.7-83.9-38.8-132.1-30.7c-31.7,5.3-59.8,18.9-84.5,39.4c-4.3,3.6-7.9,8-11.7,12.2
			c-1.9,2.1-1.8,4.6,0,6.8c2.2,2.6,4.3,5.3,6.8,7.7c11.9,11.4,25.6,20.1,40.3,27.4C221.6,408.5,247.4,415.5,274.8,415.7z
			 M412.1,524.6c0.9-0.5,1.5-0.9,2.1-1.3c18.8-12.5,34.8-27.8,48.2-46c1.2-1.6,1.6-3.1,1.6-5c-0.1-20.7,0-41.5,0-62.2
			c0-50.4,0-100.7,0-151.1c0-1.2-0.2-2.7-0.9-3.7c-13.5-18.9-30.1-34.7-49.4-47.5c-0.4-0.3-1-0.5-1.4-0.7c0,40.6,0,81.1,0,121.9
			c1.5-1.9,2.8-3.4,4.1-4.9c8.3-9.9,18.2-17.5,30.5-21.8c4.5-1.6,8.7-0.5,11.5,3c2.4,3.1,2.6,6.4,1.4,10.1
			c-3.8,11.8-7.5,23.8-11.3,35.6c-1.5,4.6-1.5,9.1,0,13.7c3.7,11.5,7.4,23.1,11,34.7c0.6,2,1.2,4.3,1,6.3c-0.9,6.5-7.1,10-13.4,7.8
			c-12.6-4.3-22.6-12.2-31-22.3c-1.1-1.4-2.3-2.7-3.7-4.5C412.1,432.9,412.1,478.5,412.1,524.6z M352,550.1
			c17.7-4.1,34-10.5,49.5-19c1.8-1,2.6-2.1,2.5-4.2c-0.1-15.6-0.1-31.1-0.1-46.7c0-34.9,0-69.7-0.1-104.6c0-1.7-0.7-3.5-1.1-5.4
			c-3.3,3.5-6,6.7-9,9.6c-11.6,10.9-25.1,18.9-39.4,25.5c-1.9,0.9-2.5,1.8-2.5,3.9c0.1,46,0,92,0,138.1C352,548,352,549,352,550.1z
			 M292.4,554c1.2,0.2,2.2,0.4,3.3,0.5c15.3,1.1,30.4,0.3,45.5-2.2c2.5-0.4,3.2-1.2,3.2-3.7c-0.1-45.3-0.1-90.5-0.1-135.8
			c0-1,0-1.9,0-3.2c-17,6.6-34.2,10.8-51.9,12.7C292.4,466.4,292.4,510.1,292.4,554z M165.3,244.1c-0.2,0-0.5-0.1-0.7-0.1
			c-32,39.1-47.2,83.8-44,134.3c2.6,41.2,17.8,77.6,44.6,109.9c0.1-1.2,0.1-1.7,0.1-2.2c0-32.7,0-65.4-0.1-98.1
			c0-1.1-0.8-2.4-1.6-3.2c-5.8-5.6-12.2-10.6-17.5-16.6c-7.1-8.1-7-12.7,0.3-20.7c5.2-5.7,11.2-10.7,16.9-15.8
			c1.3-1.2,2.1-2.2,2.1-4.1c-0.1-26.9,0-53.8,0-80.7C165.3,245.9,165.3,245,165.3,244.1z M352,181.5c0,1.2,0,2.2,0,3.1
			c0,35.7,0,71.4,0,107.1c0,1.9,0.5,3.1,2.1,4.3c8.7,6.3,15.9,13.9,19.8,24.1c0.3,0.9,1.3,1.7,2.2,2.2c7.5,4.9,14.6,10.2,20.8,16.7
			c1.9,2,3.7,4.2,5.5,6.3c0.2-0.2,0.4-0.3,0.5-0.4c1.8-2.8,1.2-6,1.2-9c0-43.8,0-87.5,0.1-131.3c0-2-0.6-3.2-2.4-4.1
			c-4.9-2.4-9.7-5.1-14.7-7.3C375.9,188.2,364.3,184.3,352,181.5z M173.1,391.7c0,0.5-0.1,0.8-0.1,1.1c0,34.1,0,68.2,0.1,102.4
			c0,1.1,0.7,2.3,1.5,3.1c10.9,11.1,23,20.7,36.2,28.8c4.4,2.7,8.9,5.1,13.7,7.8c0.1-1.2,0.2-2,0.2-2.7c0-38.1,0-76.2,0.1-114.3
			c0-1.8-0.7-2.6-2.3-3.1c-10.9-3.4-21.4-7.7-31.5-13.1C185,398.6,179.2,395.1,173.1,391.7z M269.3,423.2c0.2,1,0.4,1.7,0.5,2.4
			c0.6,4.8,1.6,9.6,1.6,14.3c-0.1,8.3-6.6,12.2-14.1,9c-2-0.9-4-2.1-5.8-3.4c-6.8-5.2-12.1-11.9-17.1-18.8c-0.5-0.7-1-1.3-1.7-2.2
			c-0.1,0.5-0.2,0.6-0.2,0.7c0,37.2,0,74.4-0.1,111.6c0,1.5,0.7,2,1.9,2.5c12.6,5.5,25.7,9.5,39.2,12.1c3.5,0.7,7.1,1.2,10.8,1.8
			c0-43.7,0-86.9,0-130.1C279.3,423.2,274.5,423.2,269.3,423.2z M344.4,289.5c0-1.4,0-2.2,0-3.1c0-32,0-64.1,0-96.1
			c0-2.9,0.1-5.8-0.1-8.7c0-0.7-0.9-1.8-1.5-1.9c-15.8-2.9-31.7-3.7-47.7-2.5c-2,0.2-2.8,0.8-2.8,3c0.1,9.9,0.1,19.8,0.1,29.7
			c0,19.4,0,38.8,0,58.2c0,1.9,0.4,2.8,2.5,3.1c3.5,0.6,6.9,1.7,10.4,2.6C318.6,277.4,331.6,282.4,344.4,289.5z M284.5,178.5
			c-1,0.1-1.7,0-2.3,0.1c-16.4,2.5-32.3,6.9-47.6,13.4c-1.7,0.7-2.1,1.6-2.1,3.3c0,33,0,66.1,0,99.1c0,0.7,0.1,1.4,0.1,2.4
			c5-2.8,9.6-5.7,14.3-8.1c11.7-6,23.4-11.9,35.2-17.6c1.6-0.8,2.4-1.3,2.4-3.3c-0.1-28.9-0.1-57.7-0.1-86.6
			C284.5,180.4,284.5,179.6,284.5,178.5z M224.7,196.9c-0.8,0.3-1.1,0.4-1.4,0.5c-18.5,9.4-34.9,21.6-49.3,36.5
			c-0.6,0.7-1,1.9-1,2.9c-0.1,28.4,0,56.9,0,85.3c0,0.7,0.1,1.3,0.2,2.2c24.2-14.1,31.3-17.4,49-23.2c1.9-0.6,2.6-1.4,2.5-3.5
			c-0.1-32.6,0-65.2,0-97.8C224.7,198.9,224.7,198.1,224.7,196.9z M455.4,196.5c-6.4,6.4-12.6,12.5-18.9,18.8c1.7,1.5,3.4,3,5.6,4.8
			c6.1-6.2,12.1-12.4,17.8-18.1c5.9,5.8,11.6,11.6,17.7,17.6c-6,5.9-12.2,12-18.4,18.2c1.5,1.8,3,3.6,4.6,5.6
			c3.2-3.3,6.4-6.4,9.5-9.6c3.1-3.2,6.3-6.4,9.5-9.6c0.9,0.9,1.6,1.5,2.2,2.1c4.5,4.5,8.9,9.1,13.5,13.4c9.9,9.2,26,5.1,30.1-7.7
			c2.3-7.4,0.6-13.9-4.9-19.4c-20.3-20.2-40.5-40.5-60.8-60.7c-0.9-0.9-1.8-1.7-2.8-2.4c-9.8-7.1-24-2.9-28,8.5
			c-2.6,7.4-1.1,14.1,4.4,19.7C442.5,183.8,448.7,189.9,455.4,196.5z M142.2,508.5c-0.6-0.9-1-1.7-1.6-2.4
			c-5.5-5.6-11-11.1-16.6-16.6c-4.9-4.8-10.8-6.5-17.4-4.9c-6.9,1.6-11.5,6-13.4,12.8c-2,7.1-0.2,13.5,5.1,18.7
			c20.2,20.2,40.4,40.4,60.6,60.6c0.9,0.9,1.9,1.9,3,2.6c5.9,4.1,12.2,4.7,18.7,1.7c6.4-3,9.9-8.2,10.4-15.3
			c0.4-5.7-1.5-10.6-5.5-14.7c-4.9-4.9-9.8-9.7-14.7-14.6c5.5-5.5,10.9-10.8,16.4-16.3c-2.2-1.8-4-3.3-6.2-5
			c-5.2,5.2-10.4,10.4-15.4,15.4c-5.8-5.8-11.5-11.5-17.4-17.4c4.9-4.9,10-10,15.2-15.2c-1.7-1.9-3.2-3.7-5-5.7
			C153.1,497.6,147.9,502.8,142.2,508.5z M471.8,268.7c0,64.9,0,129.4,0,194.2C507.1,405.9,508.6,328.6,471.8,268.7z M407,357.8
			c0.1,0,0.3,0.1,0.4,0.1c0,0.6,0,1.2,0.2,1.7c0.2,1.1,0.5,2.3,0.8,3.4c4.8,14.7,14.1,26.1,26.3,35.2c4.2,3.2,9.2,5.2,14,7.5
			c0.9,0.4,2.7,0.5,3.1,0c0.6-0.8,0.3-2.2,0.3-3.4c0-0.5-0.3-0.9-0.4-1.4c-3.5-10.9-7-21.8-10.4-32.8c-1.4-4.6-2.8-9.3-1.5-14.2
			c2.7-9.6,5.5-19.1,8.4-28.7c1.2-4,2.7-7.9,3.8-11.8c0.3-1.1,0.4-3-0.1-3.4c-0.8-0.6-2.4-0.2-3.6-0.2c-0.2,0-0.5,0.2-0.7,0.3
			c-17.9,7.4-29.6,20.9-37.6,38.1C408.6,351.3,408,354.6,407,357.8z M361.3,313.3c-0.5-0.6-1-1.3-1.6-1.9
			c-5.3-6.2-11.7-10.8-18.7-14.8c-15.4-8.7-32-14.2-49.1-18.2c-3.4-0.8-6.4-0.6-9.4,0.9c-8.1,4-16.2,8.1-24.3,12.1
			c-1.3,0.7-2.6,1.4-4.4,2.5C292.1,289.6,327.4,297.2,361.3,313.3z M238.2,419.5c5.1,6,9.8,11.7,14.7,17.1c1.8,1.9,4,3.5,6.3,4.8
			c3.2,1.8,5,0.9,4.6-2.7c-0.5-5-1.6-10-2.6-14.9c-0.1-0.6-1.1-1.2-1.8-1.3C252.7,421.5,245.9,420.6,238.2,419.5z"/>
		<path d="M274.8,415.7c-27.4-0.2-53.1-7.2-77.6-19.3c-14.7-7.3-28.4-16.1-40.3-27.4c-2.5-2.3-4.6-5.1-6.8-7.7c-1.8-2.2-2-4.6,0-6.8
			c3.8-4.2,7.4-8.6,11.7-12.2c24.7-20.5,52.8-34,84.5-39.4c48.2-8.1,92.2,3,132.1,30.7c6.1,4.2,11.5,9.6,16.5,15.1
			c6.3,6.9,6,10.9,0.1,18.2c-7.5,9.3-17,16.1-27.1,22.2c-22.2,13.5-46.3,21.6-72.1,24.9C288.9,415,281.8,415.2,274.8,415.7z
			 M244,355.6c-0.7-4.4-1-8.9-2.1-13.2c-2.8-11-9-19.7-19-25.4c-2.3-1.3-4.6-0.8-5.7,1.1c-1.2,2-0.5,4.1,1.9,5.6
			c1.5,0.9,3,1.8,4.3,3c8.1,6.8,11.8,15.8,12.3,26.1c0.7,14.6-3.5,27.1-16.8,35.1c-2.2,1.3-2.9,3.3-1.9,5.3c1,2,3.3,2.7,5.6,1.4
			c2.2-1.2,4.3-2.6,6.2-4.2C239.3,381.1,243.5,369.2,244,355.6z M193.7,338.3c-8,0-14.3,6.2-14.4,14.1c-0.1,7.9,6.2,14.4,14.1,14.4
			c8,0.1,14.6-6.4,14.6-14.3C208,344.8,201.6,338.3,193.7,338.3z"/>
		<path d="M412.1,524.6c0-46.1,0-91.8,0-138c1.5,1.7,2.6,3.1,3.7,4.5c8.4,10.1,18.4,18,31,22.3c6.4,2.2,12.5-1.2,13.4-7.8
			c0.3-2-0.3-4.3-1-6.3c-3.6-11.6-7.2-23.1-11-34.7c-1.5-4.6-1.5-9.1,0-13.7c3.8-11.9,7.5-23.8,11.3-35.6c1.2-3.7,1-7-1.4-10.1
			c-2.8-3.5-6.9-4.6-11.5-3c-12.3,4.3-22.2,11.9-30.5,21.8c-1.3,1.5-2.5,3.1-4.1,4.9c0-40.8,0-81.2,0-121.9c0.5,0.2,1,0.4,1.4,0.7
			c19.4,12.8,35.9,28.6,49.4,47.5c0.7,1,0.9,2.5,0.9,3.7c0,50.4,0,100.7,0,151.1c0,20.7,0,41.5,0,62.2c0,1.9-0.5,3.5-1.6,5
			c-13.4,18.1-29.4,33.5-48.2,46C413.6,523.7,413,524.1,412.1,524.6z"/>
		<path d="M352,550.1c0-1.1,0-2.1,0-3c0-46,0-92,0-138.1c0-2,0.6-3,2.5-3.9c14.4-6.6,27.9-14.6,39.4-25.5c3-2.8,5.7-6,9-9.6
			c0.4,1.9,1.1,3.7,1.1,5.4c0.1,34.9,0.1,69.7,0.1,104.6c0,15.6-0.1,31.1,0.1,46.7c0,2.2-0.7,3.2-2.5,4.2
			C386,539.6,369.7,546,352,550.1z"/>
		<path d="M292.4,554c0-43.9,0-87.6,0-131.7c17.7-1.9,34.9-6.1,51.9-12.7c0,1.3,0,2.3,0,3.2c0,45.3,0,90.5,0.1,135.8
			c0,2.5-0.6,3.3-3.2,3.7c-15.1,2.5-30.3,3.3-45.5,2.2C294.7,554.4,293.6,554.2,292.4,554z"/>
		<path d="M165.3,244.1c0,0.9,0,1.7,0,2.6c0,26.9,0,53.8,0,80.7c0,1.9-0.7,2.9-2.1,4.1c-5.8,5.1-11.8,10.1-16.9,15.8
			c-7.3,8-7.4,12.6-0.3,20.7c5.3,6,11.7,11,17.5,16.6c0.8,0.8,1.6,2.1,1.6,3.2c0.1,32.7,0.1,65.4,0.1,98.1c0,0.5,0,0.9-0.1,2.2
			c-26.8-32.3-42-68.6-44.6-109.9c-3.2-50.6,12.1-95.3,44-134.3C164.9,244,165.1,244.1,165.3,244.1z"/>
		<path d="M352,181.5c12.3,2.8,23.8,6.7,34.9,11.8c5,2.3,9.8,5,14.7,7.3c1.8,0.9,2.4,2,2.4,4.1c-0.1,43.8,0,87.5-0.1,131.3
			c0,3,0.7,6.2-1.2,9c-0.1,0.1-0.2,0.2-0.5,0.4c-1.8-2.1-3.6-4.3-5.5-6.3c-6.2-6.5-13.3-11.8-20.8-16.7c-0.9-0.6-1.8-1.3-2.2-2.2
			c-4-10.2-11.2-17.8-19.8-24.1c-1.6-1.2-2.1-2.4-2.1-4.3c0.1-35.7,0-71.4,0-107.1C352,183.6,352,182.7,352,181.5z"/>
		<path d="M173.1,391.7c6.1,3.5,11.9,6.9,17.8,10.1c10.1,5.3,20.6,9.7,31.5,13.1c1.7,0.5,2.4,1.3,2.3,3.1
			c-0.1,38.1,0,76.2-0.1,114.3c0,0.7-0.1,1.4-0.2,2.7c-4.8-2.7-9.3-5.1-13.7-7.8c-13.3-8.1-25.4-17.7-36.2-28.8
			c-0.8-0.8-1.5-2.1-1.5-3.1C173,461,173,426.9,173,392.8C173,392.5,173.1,392.1,173.1,391.7z"/>
		<path d="M269.3,423.2c5.1,0,10,0,15,0c0,43.2,0,86.4,0,130.1c-3.7-0.6-7.3-1.1-10.8-1.8c-13.5-2.6-26.6-6.7-39.2-12.1
			c-1.2-0.5-1.9-1-1.9-2.5c0.1-37.2,0.1-74.4,0.1-111.6c0-0.1,0-0.2,0.2-0.7c0.7,0.9,1.2,1.5,1.7,2.2c5,6.9,10.3,13.6,17.1,18.8
			c1.8,1.3,3.7,2.5,5.8,3.4c7.6,3.2,14-0.7,14.1-9c0.1-4.8-1-9.5-1.6-14.3C269.7,424.9,269.6,424.2,269.3,423.2z"/>
		<path d="M344.4,289.5c-12.7-7.1-25.8-12-39.3-15.8c-3.4-1-6.9-2-10.4-2.6c-2.1-0.4-2.5-1.2-2.5-3.1c0.1-19.4,0-38.8,0-58.2
			c0-9.9,0.1-19.8-0.1-29.7c0-2.2,0.8-2.8,2.8-3c16-1.2,31.9-0.4,47.7,2.5c0.6,0.1,1.5,1.2,1.5,1.9c0.2,2.9,0.1,5.8,0.1,8.7
			c0,32,0,64.1,0,96.1C344.4,287.2,344.4,288.1,344.4,289.5z"/>
		<path d="M284.5,178.5c0,1.1,0,1.9,0,2.8c0,28.9,0,57.7,0.1,86.6c0,1.9-0.7,2.5-2.4,3.3c-11.8,5.7-23.5,11.6-35.2,17.6
			c-4.8,2.5-9.4,5.3-14.3,8.1c0-1-0.1-1.7-0.1-2.4c0-33,0-66.1,0-99.1c0-1.7,0.4-2.6,2.1-3.3c15.3-6.5,31.2-11,47.6-13.4
			C282.8,178.5,283.5,178.6,284.5,178.5z"/>
		<path d="M224.7,196.9c0,1.2,0,2,0,2.9c0,32.6,0,65.2,0,97.8c0,2-0.6,2.8-2.5,3.5c-17.8,5.8-24.8,9.2-49,23.2
			c-0.1-0.8-0.2-1.5-0.2-2.2c0-28.4,0-56.9,0-85.3c0-1,0.3-2.2,1-2.9c14.4-14.9,30.9-27,49.3-36.5
			C223.6,197.3,224,197.2,224.7,196.9z"/>
		<path d="M455.4,196.5c-6.7-6.6-12.8-12.7-18.9-18.9c-5.5-5.6-7.1-12.3-4.4-19.7c4.1-11.4,18.2-15.7,28-8.5c1,0.7,2,1.6,2.8,2.4
			c20.3,20.2,40.5,40.5,60.8,60.7c5.5,5.5,7.3,12.1,4.9,19.4c-4.1,12.8-20.2,16.8-30.1,7.7c-4.6-4.3-9-8.9-13.5-13.4
			c-0.6-0.6-1.3-1.2-2.2-2.1c-3.2,3.3-6.4,6.5-9.5,9.6c-3.2,3.2-6.3,6.4-9.5,9.6c-1.6-2-3.1-3.8-4.6-5.6
			c6.2-6.2,12.4-12.3,18.4-18.2c-6.1-6-11.8-11.8-17.7-17.6c-5.6,5.8-11.7,11.9-17.8,18.1c-2.2-1.9-3.9-3.4-5.6-4.8
			C442.8,209.1,448.9,202.9,455.4,196.5z"/>
		<path d="M142.2,508.5c5.7-5.7,10.8-10.9,16.2-16.3c1.8,2,3.4,3.8,5,5.7c-5.2,5.2-10.3,10.3-15.2,15.2c5.9,5.9,11.7,11.6,17.4,17.4
			c5-5,10.2-10.2,15.4-15.4c2.1,1.8,4,3.3,6.2,5c-5.5,5.5-10.8,10.8-16.4,16.3c4.9,4.9,9.8,9.8,14.7,14.6c4.1,4.1,6,8.9,5.5,14.7
			c-0.6,7.1-4.1,12.3-10.4,15.3c-6.4,3-12.8,2.4-18.7-1.7c-1.1-0.8-2.1-1.7-3-2.6c-20.2-20.2-40.4-40.4-60.6-60.6
			c-5.3-5.3-7.1-11.6-5.1-18.7c1.9-6.8,6.5-11.2,13.4-12.8c6.6-1.5,12.6,0.1,17.4,4.9c5.6,5.5,11.1,11,16.6,16.6
			C141.2,506.7,141.7,507.6,142.2,508.5z"/>
		<path d="M471.8,268.7c36.8,60,35.2,137.2,0,194.2C471.8,398.1,471.8,333.6,471.8,268.7z"/>
		<path d="M407,357.8c1-3.2,1.6-6.5,3-9.4c8-17.2,19.7-30.7,37.6-38.1c0.2-0.1,0.5-0.3,0.7-0.3c1.2,0,2.8-0.4,3.6,0.2
			c0.6,0.4,0.4,2.3,0.1,3.4c-1.2,4-2.7,7.9-3.8,11.8c-2.9,9.5-5.7,19.1-8.4,28.7c-1.4,4.9,0.1,9.6,1.5,14.2
			c3.3,11,6.9,21.8,10.4,32.8c0.2,0.5,0.4,0.9,0.4,1.4c0,1.2,0.3,2.6-0.3,3.4c-0.4,0.5-2.3,0.5-3.1,0c-4.7-2.4-9.8-4.4-14-7.5
			c-12.1-9.1-21.4-20.6-26.3-35.2c-0.4-1.1-0.6-2.2-0.8-3.4c-0.1-0.6-0.1-1.2-0.2-1.7C407.3,357.9,407.1,357.8,407,357.8z"/>
		<path d="M361.3,313.3c-33.9-16.1-69.3-23.7-107.5-19.5c1.9-1,3.1-1.8,4.4-2.5c8.1-4.1,16.2-8.1,24.3-12.1c3-1.5,6.1-1.6,9.4-0.9
			c17.1,4,33.7,9.5,49.1,18.2c7,4,13.4,8.7,18.7,14.8C360.3,312,360.8,312.7,361.3,313.3z"/>
		<path d="M238.2,419.5c7.7,1.1,14.5,1.9,21.3,3c0.7,0.1,1.6,0.8,1.8,1.3c1,4.9,2.1,9.9,2.6,14.9c0.3,3.6-1.5,4.5-4.6,2.7
			c-2.3-1.3-4.6-2.9-6.3-4.8C248,431.2,243.3,425.5,238.2,419.5z"/>
		<path class="st0" d="M244,355.6c-0.5,13.7-4.7,25.6-15.2,34.7c-1.9,1.6-4,3-6.2,4.2c-2.2,1.3-4.5,0.5-5.6-1.4
			c-1-1.9-0.3-4,1.9-5.3c13.3-8,17.5-20.5,16.8-35.1c-0.5-10.3-4.2-19.3-12.3-26.1c-1.3-1.1-2.8-2-4.3-3c-2.4-1.5-3.1-3.6-1.9-5.6
			c1.1-1.9,3.4-2.4,5.7-1.1c10,5.7,16.2,14.4,19,25.4C243,346.7,243.3,351.2,244,355.6z"/>
		<path class="st0" d="M193.7,338.3c7.9,0,14.3,6.5,14.3,14.3c0,7.9-6.6,14.3-14.6,14.3c-7.8-0.1-14.1-6.5-14.1-14.4
			C179.4,344.5,185.7,338.3,193.7,338.3z M200.1,352.5c0-3.6-2.9-6.5-6.5-6.5c-3.6,0-6.7,3.1-6.6,6.7c0,3.6,3.2,6.7,6.8,6.5
			C197.4,359,200.1,356.1,200.1,352.5z"/>
		<path d="M200.1,352.5c0,3.6-2.7,6.5-6.3,6.7c-3.6,0.1-6.7-2.9-6.8-6.5c0-3.6,3.1-6.7,6.6-6.7C197.2,346,200.1,348.9,200.1,352.5z"
			/>
	</g>
</g>
</svg>
