<?xml version="1.0" encoding="utf-8"?>
<!-- Generator: Adobe Illustrator 26.0.3, SVG Export Plug-In . SVG Version: 6.00 Build 0)  -->
<svg version="1.1" id="Layer_1" xmlns="http://www.w3.org/2000/svg" xmlns:xlink="http://www.w3.org/1999/xlink" x="0px" y="0px"
	 viewBox="0 0 612 792" style="enable-background:new 0 0 612 792;" xml:space="preserve">
<style type="text/css">
	.st0{fill:none;stroke:#000000;stroke-width:0.75;stroke-miterlimit:10;}
</style>
<g>
	<g>
		
			<image style="overflow:visible;" width="1539" height="1599" xlink:href="3B57F353EFFEE818.png"  transform="matrix(0.24 0 0 0.24 94.3389 200.2588)">
		</image>
	</g>
	<polygon class="st0" points="203.8,321.5 204.9,311.7 205.2,308.3 205.9,301.7 205.9,299.2 205.6,297.9 205.9,296 206.8,295.5 
		208,287 207.5,285.9 207.4,284.6 208.4,283.2 209.2,277.1 210.9,262.5 211.3,259.9 212,258.3 212.7,259.7 209.3,283.4 209.9,284.3 
		210.1,286 207.7,295.6 207.9,296.2 208,297.6 207.8,298.9 204.8,321.5 	"/>
	<polygon class="st0" points="284.7,302.8 278.8,290.8 278.8,289.8 277.5,288.7 273.1,278.6 272.8,277.6 272.1,277.6 271.1,276.5 
		267,268 267.3,267.1 266.3,266.8 265.9,266.8 259.5,255.4 254.2,247.8 254.4,246.9 253.8,246.9 253,246.9 243.5,235 234.1,225.8 
		226.1,218.5 219.8,212.9 218.6,212.3 222.2,216 241.1,233.9 244,237.5 252.3,247.1 252.6,248.5 253.3,248.5 254.9,250 265.1,266.7 
		264.7,267.9 265.6,268.5 266.7,268.7 270.8,277.3 271,279.2 272.2,279.1 276.7,289.2 276.2,291.1 277.9,291.4 283.5,303.4 	"/>
	<polygon class="st0" points="382.6,428.6 379.6,429.1 378.9,430.2 382.4,431.6 405.2,431.6 411.2,429.8 414.7,429.8 413.8,428.1 
		409.6,428.1 404,426.7 396.1,426.7 389.8,427.1 385.3,427.8 	"/>
</g>
</svg>
