<svg version="1.1" id="prefix__Layer_1" xmlns="http://www.w3.org/2000/svg" xmlns:xlink="http://www.w3.org/1999/xlink"
	x="0" y="0" viewBox="0 0 612 792" xml:space="preserve">
	<style>
		.prefix__st0 {
			fill: none;
			stroke: #000;
			stroke-width: .75;
			stroke-miterlimit: 10
		}
	</style>
	<image width="1539" height="1599" xlink:href="3B57F353EFFEE818.png" transform="matrix(.24 0 0 .24 94.339 200.259)"
		overflow="visible" />
	<path class="prefix__st0"
		d="M203.8 321.5l1.1-9.8.3-3.4.7-6.6v-2.5l-.3-1.3.3-1.9.9-.5 1.2-8.5-.5-1.1-.1-1.3 1-1.4.8-6.1 1.7-14.6.4-2.6.7-1.6.7 1.4-3.4 23.7.6.9.2 1.7-2.4 9.6.2.6.1 1.4-.2 1.3-3 22.6zM284.7 302.8l-5.9-12v-1l-1.3-1.1-4.4-10.1-.3-1h-.7l-1-1.1-4.1-8.5.3-.9-1-.3h-.4l-6.4-11.4-5.3-7.6.2-.9H253l-9.5-11.9-9.4-9.2-8-7.3-6.3-5.6-1.2-.6 3.6 3.7 18.9 17.9 2.9 3.6 8.3 9.6.3 1.4h.7l1.6 1.5 10.2 16.7-.4 1.2.9.6 1.1.2 4.1 8.6.2 1.9 1.2-.1 4.5 10.1-.5 1.9 1.7.3 5.6 12zM382.6 428.6l-3 .5-.7 1.1 3.5 1.4h22.8l6-1.8h3.5l-.9-1.7h-4.2l-5.6-1.4h-7.9l-6.3.4-4.5.7z" />
</svg>