<svg xmlns="http://www.w3.org/2000/svg" viewBox="0 0 612 792">
	<path class="prefix__st4"
		d="M306.7 328.7c3.4-5.7 7.7-9.2 12.2-13.2 3.2-2.9 6.1-6.2 9-9.8.5-.6 3.5-4.6 5-5.7-.1-1.1-1.1-1.9-2.4-4.4-.3-.5-.6-1.1-.9-1.6-.6.5-1.2.9-1.7 1.4-1.5 1.2-3 2.2-4.6 3.2-6.9 4.3-12.4 11.5-18.8 17.1-.6.5-1.1.8-1.7 1-3.6 3.2-7.2 7.3-10.8 10.2-4.1-3.5-8.1-.3-9.2 6.1-1 18 20.4 28.9 14.5 4.3 3.2-2.9 6.3-6 9.4-8.6z" />
	<path class="prefix__st5"
		d="M287 330.1c.7-1.9 3.1-1.3 3.4.2-1.2-.5-2.3-.5-3.4-.2zM292.8 336.1c.2.7-1.3-.3-1.7.3-5.1-5.2-2.8 6 .7 6.5 1-1.5 1.9-.3 2.9.2-.1 1.7-.7 3.1-1.8 3.8-4.2-1.9-6.7-7.8-7.2-14.1 2.4-1.7 5.2.3 7.1 3.3zM284.6 336.6c.6 1.1 1 2.4 1.1 3.8-.6-1-1-2.3-1.1-3.8zM291.5 331c.7-.5 1.3.9 2 1.7-.6-.1-1.3-1.1-2-1.7zM294.4 329.2c9.3-8 19.6-19.7 29.2-27.5-4.4 5.2-9.2 10.6-14.2 14.4-.2 1.8-1.7 1.8-2.6 2.3-2.1 4.1-7.7 7.6-11.7 11.6-.2-.1-.5-1.1-.7-.8z" />
	<path class="prefix__st5"
		d="M291.5 337.1c.8.4 1.6.2 2.4 1.5-1 .3-1.9-.3-2.4-1.5zM295.7 331.5c.6-.6 1.3-1.2 1.9-1.7.5.4 1.1.6 1.6.8-.5 1.2-1.9 1.9-2.8 3.2-.2-.8-.4-1.5-.7-2.3zM298.5 329.2c.5-1.5 1.8-.9 2.6-.5-.6 2.1-1.8.5-2.6.5zM300.7 327.4c-.2-.3.3-.6.4-.9.5.4 1 .5 1.5.9-.6 1-1.3-.4-1.9 0zM302.2 325.7c.8-1.1 2-1.3 2.9-.3-1 1.4-2 .8-2.9.3zM292.7 339.9c.6 0 1.2.3 1.7.6-.2.5.4 1.1 0 1.6-.9-.6-1.8-.4-1.7-2.2zM304.8 323.6c.5-1.9 1.9-.7 2.7-.7-.5 1.7-1.9.8-2.7.7zM307 321.1c.8-1.1 2-1.5 3-.8-.6 1.5-2 1.8-3 .8zM309.9 318.7c.4-1.5 1.7-.8 2.4-.2-.9 1-1.6.3-2.4.2zM312 316.4c.7-1.2 1.4-.1 2.1-.1-.4 1.1-1.5.5-2.1.1zM314 314.8c.3-1.2 1.4-1.3 2-2.5.3-.1.4 1.4.9.9-.6 1.6-1.8 2.2-2.9 1.6zM316.5 312.2c3.6-4 8-7.7 12-11.9-2.2 5.1-8.4 11-12 11.9z" />
</svg>