<svg id="prefix__Layer_1" data-name="Layer 1" xmlns="http://www.w3.org/2000/svg" viewBox="0 0 298.72 410.03"><defs><clipPath id="prefix__clip-path"><path class="prefix__cls-1" d="M531.2 0v454.6H0V0"/></clipPath><pattern id="prefix__Unnamed_Pattern" data-name="Unnamed Pattern" width="531.2" height="454.6" patternTransform="matrix(1 0 0 -1 121.8 768.4)" patternUnits="userSpaceOnUse"><path class="prefix__cls-1" d="M0 0h531.2v454.6H0z"/><path class="prefix__cls-1" d="M0 0h531.2v454.6H0z"/><g clip-path="url(#prefix__clip-path)"><path class="prefix__cls-3" d="M412.5 327.4a85.41 85.41 0 012 13.3 58.64 58.64 0 00-1.4-14.4 29.52 29.52 0 00-2.6-7 24.84 24.84 0 00-5.7-6.8c-9.6-8.8-19.1-10.7-28.7-12.7-9.4-2-18.9-3.1-28.2-1.9-4.5.6-9.2 1.8-13.9 2.8-9.2 2-18.6 2.9-27.9 5.4-9.1 2.5-18.4 5.3-27.8 6.7s-18.3.7-28.1.5c-4.6-.1-9.7.2-14.1-1-8.6-2.4-22.8-12.8-21.8-22.5a30.52 30.52 0 015-12.7c3.1-4.6 7.3-8.2 11.2-11.7-7.1 4.6-13.1 12.2-15.4 19a22.9 22.9 0 00-1.4 6.8c.1 4.1 2.4 8 6.1 11.7.2.1.1.2.2.3a32.71 32.71 0 0013.7 9.1c4.6 1.7 8.8 1.9 13.3 1.9s8.8.2 13.2.3a96.8 96.8 0 0013.2-.1 159.17 159.17 0 0026.2-5.7c12.8-3.7 26.2-5.3 39.3-8.2a82.92 82.92 0 0113.1-2c8.7-.5 17.6.7 26.5 2.7a98.5 98.5 0 0113.4 3.9c4.8 1.7 8.9 4.8 13.6 9.1 4.5 4.4 5.9 8.7 7 13.2z"/><path class="prefix__cls-3" d="M404.9 379a20.52 20.52 0 004.7-5.5c0-.5-.4-.9-.7-1.6a6.33 6.33 0 00-2.6 1.6c-1.9-1.2-.1-2.7-1.5-3.9a40.28 40.28 0 003.2-7.7c.3-.7 1.1-1.8.2-2.5a3.19 3.19 0 01-.3 1.9c-1.2 2.2-2.7 5.1-3.8 7.4-1.1.1-2-1-3-.3-.8.5-1 1.9-1.3 2.9.3.4.4-.5.5-.3a3.87 3.87 0 001.2 1.9c-6.6 7.1-13.9 10.1-20.9 13.2s-13.8 6.3-21 9.8c-.7-1.4-2.4-3.1-3.8-3-.8.5-1.6 1.4-2.4 1.9a11 11 0 00.3 3.6c-10.2 3.3-20.5 2.4-30.9 2.3-.8-2.2-4.3-3.7-6.1-2-.5.5-.8 1.5-1.4 1.9-.8.6-3.6-.2-4.9-.3a119.63 119.63 0 01-14.5-1.8c-6.8-1.3-13-3.6-19.5-5.6 0-.9-.3-1.7-.3-2.6-1-1-2.2-.8-3-1.5-.2.8-1.3 1.2-1.7 2.1-1.9-.3-3.9-1.6-5.9-3.4.7 2.1 3.6 3.4 5.2 4-1.7 2.4-.8 4.6-1.3 6.9a5 5 0 00.5 1.3 5.28 5.28 0 01-.8 2.2c-14.9-5.1-30-16.4-45.4-29.5.5-1 1.7-1.9 2.1-2.9 2.6-1.2 5.9-2 7.4-5.5 3.1 2.7 6.3 5.9 9.6 8.5s6.3 5.6 9.6 6.5a116.41 116.41 0 01-18.7-15.6 3.83 3.83 0 00.3-3.3c-2.1-1.9-3.6-2-5.5-1.3a270.81 270.81 0 01-41.6-50.8c1.1-.7 1.4-2 1.8-2.9.3-.6.6-.7.6-1.2-.1-1.2-1.5-1.3-2-2.2-1.4-.2-2.8.2-4.2 0-11.9-20.8-26.8-41.4-36.6-62.4 1.1-1.1 3-1.6 4-2.9s.7-2.5.5-3.9c-2.9-2.1-5.7-1.9-8.5-1.6-3.2-6.3-6-12.7-8.8-19.1s-6-12.7-8.5-19.2c-4.5-12-8.5-24.1-13.2-36.1a5 5 0 01-.6-2.4 27 27 0 01-2-5.4c-.6-1.8-1.3-3.5-1.9-5.4-1.1-3.6-1.8-7.3-2.8-10.9-2.1-7.2-4.8-14.2-6.2-21.6 1.3-.2 1.7 1.3 2.6 1.9 1.2.8 2.1-.2 3.4.3.9-.5 1.7-1 2.6-1.5a1.08 1.08 0 01.3.7c.4-1.5-.5-2.8-1.2-4.3a13.07 13.07 0 012.7-1.2c.1.2-.5.4-.5.8.4.3.7-.3 1 .3a11.63 11.63 0 01.4 1.8c.4.9 1.2 1.6 1.5 2.4.1.3-.1.9.1 1.2 1.1 1.9 4.2.5 6.1-.1 4.6-1.4 10.4-4.8 14.4-6.7.5-2.8-1-5.4-1.7-8.1.9-.6 1.8-.8 2.7-1.3.5 1.1.9 2.1 1.3 3.2.7 0 .8.2 1.5.7a4.17 4.17 0 004.1-3.1c.3-1.8-.9-4.6-1.7-6.8a166.1 166.1 0 00-6.6-17c-.5-1.2-.8-2.2-1.3-3.4s-1.5-1.8-1.2-3c-1.2.2-2.2-.4-3.4-.3-2.3.2-4.6 1.9-6.9 2a67.51 67.51 0 00-15.4-15.7 16.29 16.29 0 00-4-2.5c-3.9-.8-8.2-.9-11.8 3.1-2.5-1.4-5.1-3.1-7.7-4.7.9-2.4 1.8-6.6-2.2-7.6-3.4-.8-10.1 5.4-9.1 9.9a5.27 5.27 0 003.6 3.9c1.2.3 2.1-.4 3.6-.8 3.1 1.7 6.1 4.1 9.2 5.8 0 2.3-1.4 4.2-2.3 6.3-1.3 3.4-1.8 7.2-4.5 10.5-2.6-3.5-2.1-10.2-7.5-13.3a5 5 0 00-2.1-.5C65.6 57 63.3 50.4 61 43.6c-1.7-5-3.7-10.1-5.6-15.1-.9-2.3-2.3-4.3-3.2-6.6-.2-.4-.8-1-.4-1.4a9.6 9.6 0 01-1.3-2.7A8.48 8.48 0 0049 15c-.5-.5-1.6-.3-2.2-.8-.8-.7-.8-2.1-1.4-2.9-.2-.3.4 0 .5 0-1.2-.8-.8-1.7-1.9-2.7s-4.8-1.5-6.3-.9-3.4 1.1-4.6 2.8a5.72 5.72 0 00-.9 3.6c.1.5.6.9.8 1.5a15.57 15.57 0 011 3.7c-.1 1.1-1.2 1.6-1.2 2.8 2.2 6.7 5.1 13.1 7.3 19.8s5.1 13.1 7.1 19.8c2.4 4.3 4.2 9.9 6 15.1 1.6 4.6 3 9.6 4.5 14.3s3.8 9.3 5.7 14.3c.8 2.2 1.8 4.7 2.8 7.1s1.9 5.4 3.3 7.1c.4.5 1.2.8 1.6 1.3.9 1.1 1.1 3.3 1.9 4.7a5.65 5.65 0 002.4 2.2 7.76 7.76 0 00.1 4 14 14 0 00.9 2.9c.5 1.1.7 1.8 1.9 1.9.9 2.3 1.8 4.5 2.7 6.7a65.38 65.38 0 002.8 6.6c1.1 2 3.1 3.4 4.3 5.5s2.3 4.4 3.3 6.7c7.1 15.2 12.8 31.6 19.3 46.8 1.8 4.4 3.7 9 5.8 13.4s4.1 8.9 6.2 13.3c4.2 8.9 8.3 18.1 13.4 26.6 7.9 13.2 13.9 26.7 22.4 39.9 2.8 4.4 5.3 9 8.3 13.2s5.6 8.5 8.4 12.9c2.9 4.6 6.8 8.6 10.2 13.1 1.7 2.2 3.2 4.3 5.1 6.6s4.1 4.3 6 6.5 3.9 4.4 6 6.5c4.4 4.4 8.8 8.8 13.4 13.2 9.4 7.5 18.1 15 27.3 20.4s18.2 10.3 27.2 13.7a183 183 0 0026.9 7.7c7.9 1.6 15.4 1.8 23.3 1.9 1 0 2.1.1 3.1.2.4.1 0-.5.4-.4a34.39 34.39 0 0011-1.5c3.6-1.1 7.3-2 10.9-3.1a100.06 100.06 0 0010.8-4.1c3.6-1.6 7.3-2.7 10.6-4.6 1.8-1 3.6-1.6 5.4-2.5s3.5-2 5.3-3.1 3.6-2 5.4-3.2 3.4-2.6 5.3-3.9a92 92 0 0010.6-8 33.57 33.57 0 005.5-4.6zM108.3 104.3a8.08 8.08 0 01-2.7 1.1c-1.4-4.8-3.8-9.5-4.8-14.2a4.14 4.14 0 011.9-1.8c2.2 4.9 3.7 9.9 5.6 14.9zM131.9 94a5.42 5.42 0 01-2.4.9 133.11 133.11 0 00-5.1-14.6c1.4-.1 1.9 1.7 2.5 2.8a46.89 46.89 0 015 10.9zm5 141.6c-.4.9-.1 1.8-.6 2.6-1.3.1-3.6 1.3-4.2.1-1.6-3.5-3.4-6.8-4.9-10.3-4.4-10.4-9.1-20.6-13.6-31-6-13.8-10.8-28-16.3-41.5.4-.9-.1-2 .6-2.6-.5-2.2-.2-4.5-.8-6.6a78.6 78.6 0 00-5.3-15c2.5-2.4-.7-6-3.2-8-.1-3.3-.4-6.6-2.4-9.7 0-1.3.4-2.8-.2-4.1-.3-.6-.8-.9-1.1-1.5a21.81 21.81 0 01-1.6-4.5c-.6-1.6-1-3.1-1.6-4.5 1.1-.6 1.3-1.9 2.3-2.6.2-3-1.3-5.9-2.2-8.9a16.11 16.11 0 006-8.5c.9-2.6 1.4-6.1 4.2-5.8 1.6 1.8 2.2 4.3 3.2 6.3-1.7 1.1-3.6 2.3-4.3 4.3A41.54 41.54 0 0093 91c1.8 5.6 3.8 11.1 6.1 16.5-.4.5-1.5.4-2.1 1a9.79 9.79 0 011.4 3.7c.4 1.3.7 2.6 1 3.9 2.1 7.8 4.2 15.4 6.2 23.2a68.17 68.17 0 002.3 7.7c6.9 18 12.3 36.1 20.2 53.8 4.5 10.1 8.8 20.5 13.8 30.6-1.6 1-4 2.2-5 4.2zm8.9 4.3c9.9 20.9 24.6 41.4 36.5 62.2-1.6 1-4.2 1.6-5.9 4.1-.6.9-.6 2.1-1.1 2.8-.7.5-1.4 1-2.1 1.4-1.1.8-1.8 1.4-2.4.5-6.9-11-13.4-22.3-19.6-33.6-3-5.5-5.2-11.4-8-16.9l-8.6-16.9c1.9-2 3.4-1.7 5.5-2a14.33 14.33 0 005.7-1.6zm77.6 128c-.5.9-1.8 1.3-2.1 2.4a157.59 157.59 0 01-18-17.6c-10.7-12.5-20.2-25-29.4-37.7a19.41 19.41 0 002.9-2.1c1.8.9 3.6 1.5 5.2.6s2.9-2.8 4.7-4.4c2.9 4.1 5.8 8.4 8.8 12.6s5.9 8.7 9.4 12.7c7.2 8.3 14.7 16.6 23.5 25a10 10 0 00-4.5 6.3c-.2.7-.3 1.4-.5 2.2zm91.3 33.9a6.08 6.08 0 00.7 6.1c.1.4-.1.8.1 1.2a5.5 5.5 0 00.9.7c-.6 1.1-.3 2.1-.6 3.2-14.5-.5-29.2-4.2-44-10a9 9 0 00.9-3.2c2.5-1.2 3.6-4.2 3.6-6.2a131.85 131.85 0 0019.2 5.7c6.7 1.3 13 1.6 19.2 2.5zm42.3.1a6.2 6.2 0 001.2 2.6 129 129 0 01-37.3 8.6c1.4-1 .1-3.2.8-4.5.3-.5.9-.8 1.1-1.3a8.63 8.63 0 00.4-2.8v-2.9c10.4.3 20.8.8 31.1-2.2.5 1.2 1.4 2.6 2.7 2.5zm45.3-28.3c.8.5 1.3 1.2 2.1 1.8a178.26 178.26 0 01-22.5 18.1c-6.8 4.5-14.1 6.9-20.8 9.9l-.2-.1c-.6-.9-1.2-1.8-1.9-2.8.7-1.2.4-2.7.9-3.6 7.2-3.6 14.2-6.5 21.2-9.8s14.5-6.3 21.2-13.5z"/><path class="prefix__cls-3" d="M274.5 233.3a78.42 78.42 0 005.4-6.1c5.8-7.6 5.8-15.4 2.8-22.7a24.74 24.74 0 00-4.2-7.2 139.2 139.2 0 00-11.3-10.4 44.41 44.41 0 00-10.4-6.5c-3.6-1.6-7-3.2-10.4-4.9-7-3.3-14.1-6-20.8-11.7a104.09 104.09 0 01-7.8-7.1 30.69 30.69 0 01-5.4-8.8 38.65 38.65 0 01-2.9-8.9c-1.2-7.1.7-15.2 8.1-21.9.3.5-.1 1.8 1 2.5a.77.77 0 00.7-.8c.5.3.7-.2 1.2-.5a5.46 5.46 0 002.5-2c.1-.7.3-1.4.4-2.1 5.2-2 10.5-4 15.8-3.6a1.56 1.56 0 00.4 1.6 1.6 1.6 0 002.3-.1c2.3.9 4.8 1.6 7.4 2.6 1.5.5 3.7 1.2 2.6 3-.5.8-2 1.9-3 1.5s-1.6-1.5-2.4-2.2c-.1.3-.3.5-.3.8s-.5-.8-.9-.4a6 6 0 002.5 4.9c.5-.5-.4-.9-.2-1.3.5.2.9-.5.5-.9 1.7.2 3.6.4 4.7-1.6.1.2-.3.4 0 .6 1-1.3.7-2.5.8-3.8a4.63 4.63 0 002.4-4.1c-.2-1.8-2.3-3.5-4.1-3.8-.2-.3.7-.6.4-.9-1.5-.7-3.3 2.5-3.8 3.7a3.82 3.82 0 002.5-1.3 6.2 6.2 0 013.7 2.6c-1.7 2.3-3.5.6-5.3.1-.2 1 1.2 1.6 2 1.7-2.3-.1-5.3-2.4-7.8-2.4 0-1.6-.5-4.2-3-3.3a8.28 8.28 0 00-1.1 1.5 24.56 24.56 0 00-8.1.4.34.34 0 00-.3.5c-2.2.5-4.4.6-6.6 2.2.2 0 .4.1.6-.1-.2.4-1.1.5-1.6.6.1-1.5.6-2.9.4-4.4-3.7-1.2-5.9 4.4-6.2 7.2-7.9 6.4-10.7 15.3-9.5 23.1a41.53 41.53 0 003.1 9.2 32.22 32.22 0 005.4 9.1 72.46 72.46 0 0018.6 14.5c3.4 1.7 7 3 10.4 4.7s6.9 3.2 10.4 4.9c5.5 2.5 10.3 6.3 15.9 11.5 1.7 1.6 3.6 3.1 5.5 5.1a20.76 20.76 0 014.4 7.6c3.6 8.8 1.1 17.2-8.1 26.8a113.14 113.14 0 01-17.6 14.8c-4.5 3.1-8.8 5.8-13.2 8.9a42.48 42.48 0 00-4.3 3.1c3.3-1.1 6-3.4 9-5.4 9-5.4 18.1-11.2 26.8-20.1z"/><path class="prefix__cls-4" d="M226.9 367.4c-.2.5-.8.1-.7-.2a.71.71 0 01.7.2zM226.9 362.9l.8.8a4.3 4.3 0 00-1 2.3c-.4-.1-.7-.7-1.1-.7.4-.8.8-1.6 1.3-2.4zM232 362.6a7.63 7.63 0 01-3.8 3.3c.3-1 2.7-4.8 3.8-3.3zM171.7 312a21.85 21.85 0 002.3-.9c-.8.7-1.9 2.3-2.3.9zM228.4 361.8c0 .4.5.7-.1 1.2-.2-.2-.4-.5-.7-.5a1.78 1.78 0 01.8-.7zM229.6 360.6c.1.2.7.4.6.7-.3 0-.6.5-1 .5a.93.93 0 01.4-1.2zM232.8 360.5a4.22 4.22 0 00-1.9.3l-.6-.5c.8-.5 2-.9 2.5.2zM233 361.6c-.2.2-.4.5-.6.5l-.2-.2c-.1-.3.5-.3.8-.3zM273.1 392.4c-.1 1.2-1.4 3.8.6 4.6-2.7 1.6-2.1-3.7-.6-4.6zM179.7 308.1a4.78 4.78 0 014.8-2.6c.4.6.7 1.2 1.1 1.8-1.9 1.7-3.8 2.8-5.9.8zM274.2 391.4c-.2.2-.4.5-.6.4.2-.3.4-.6.6-.4zM185.7 305.4a1.67 1.67 0 011.1.9l-.4.4a5.39 5.39 0 01-.7-1.3zM188 303.6c.3.1.5.7.1.6.3-.2-.5-.3-.1-.6zM133.7 248.9a7.42 7.42 0 012.4 3.6 6.27 6.27 0 01-2.4-3.6zM132.2 245.3a3.89 3.89 0 011.5 2.3 3.62 3.62 0 01-1.5-2.3zM319.5 410.4c-.5 1-.1 1.8-.7 2.8-.1-.1-.2 0-.3-.1.7-.9-.4-3.1 1-2.7zM317.5 407.6c.5.1 1.3-.5 1.5 0-.2.3-1.4.9-1.5 0zM316.6 406.3a.74.74 0 01.9-.1c-.2.2 0 .4-.3.7a.9.9 0 01-.6-.6zM316 403.8c.5.5.9-.1 1.3.1a2.44 2.44 0 010 1.2c-1 .5-1.5-.3-1.3-1.3zM317.6 401.6c-.2.6 0 1.1-.3 1.7-.4-.3-.7 0-1.1-.3a2 2 0 011.4-1.4zM319 402.4c.3-.5 1.2-1.3 1.6-.8a9.86 9.86 0 01-.3 2.4 10 10 0 01-.4 2.4 3.28 3.28 0 01-.9-4zM143.8 235.8c.6.4.3 1.3 1 1.8a8.37 8.37 0 01-4.9.6c1.3-.8 2.8-3.1 3.9-2.4zM140.4 236.3c-.3.3-1 .9-1 .8.3-.3.6-1 1-.8zM142.6 233c-.5.3-.9.8-1.4.6.5-.1.9-.8 1.4-.6zM145 235.7a4.72 4.72 0 013.3.4c-.8.6-1.6.9-2.3 1.4a16.18 16.18 0 01-1-1.8zM148.7 234.7a.37.37 0 00-.1.3 7.84 7.84 0 01-1.4-.5 1.21 1.21 0 011.5.2zM109.2 194.6a9.53 9.53 0 011.3 2.9 8.37 8.37 0 01-1.3-2.9zM107.8 191.3a1.9 1.9 0 01.8 1.5 3.15 3.15 0 01-.8-1.5zM102.3 178.1c.4.4.5.9 1 1.4.1.7 1.1 2.1.7 2.2a11.9 11.9 0 01-1.7-3.6zM102.2 176.3c-.1.1 0 .3-.2.1-.3-.9-1.2-1.8-1.3-2.8a17.25 17.25 0 011.5 2.7zM98.2 164.8c-.1.1 0 .3-.2.1a42.86 42.86 0 01-2.6-5.8c-.2-.5-1.2-1.5-.2-1.7.9 2.2 2 5 3 7.4zM95.9 155.1c-.6 1.1-2.5 1.3-3.6 1.5l-.6-.5c1.4-.7 3.1-1.3 4.2-1zM86.4 148.6c.4-2.1-2.6-4.5.3-6.5 2.9.6 4.3 4.4 4.6 6.1a5.53 5.53 0 00-1.2-4.6c.2-.8 0-1.6.2-2.5 1.7 1.5 1.6 3 1.9 5 .3 2.3.5 4.2-.8 6.2-.2.4 0 .7-.1 1-.5 0-.9.6-1.4.6-.8-1.7-2.4-3.5-3.5-5.3zM355.1 395.4a.85.85 0 00.5-.3c.1.9 0 1.7.1 2.6a4.65 4.65 0 01-.6-2.3zM357.9 397.8c.2.2.1.5 0 .7l-.4-.4c.2-.3.3-.1.4-.3zM357.1 395.4a2.94 2.94 0 011 1.2c-1.2 1.2-1.4-.4-1-1.2zM94.7 149.6c.5 1.1-.9 3.4-2 3.1.1-1.1 1.2-1.9 2-3.1zM95.3 151.7c-.1.2.1.4.1.6-.2.2-.5.1-.7.1.1-.2.3-.8.6-.7zM94 148.4a4.48 4.48 0 01-.1-1.1 4.42 4.42 0 01.6 1.6c-.5.4-.5 1.1-1.1 1.2.4-.7-.2-1.6.6-1.7zM85.7 138.7c1.2-.2.7 1.6.7 2.5-.2-.2-.5.5-.7.1.1-.9-.3-1.8 0-2.6zM78.7 134.4c-.9-1.5-2.2-2.9-1.3-4.5.7.5 2.2.6 2.4 1.2-.7.5-1.8-.9-2.2-.3a10.84 10.84 0 001.9.8c-.1.4-.5.8-.3 1.2a22.4 22.4 0 019.9-4.2 2.13 2.13 0 012 .6 47.13 47.13 0 00-12.4 5.2zM81.4 135.4c.5-.2 1.4 1.1.8 1.2.1-.5-1.1-.8-.8-1.2z"/><path class="prefix__cls-4" d="M87 138.9a6.73 6.73 0 011.1.7 14.77 14.77 0 01.1 2.1c-1.5-.4-1.1-1.7-1.2-2.8zM88.7 140c.2.3.4.3.7.5.2.8-.1 1.6.1 2.4-1.4-.9-.6-1.9-.8-2.9zM94.7 145.9c.2.3 0-.5.3-.2 0 .6.4 1.3.4 1.9a5.09 5.09 0 01-.7-1.7zM82.4 134.9c.1.1.2-.1.3-.2.4.2.2.5.6.7a.76.76 0 00-.2.4c-.4 0-.7-.6-.7-.9zM77.8 128.8c.9.6 1.9.9 2.8 1.5-1 .6-2.2-.4-3.2-.7.4-.3.1-.6.4-.8zM83.5 134.3c.3-.1 1.1-.4 1 .4a.82.82 0 00-.6.4c-.2-.3-.8-.7-.4-.8zM93.7 141.2a19.27 19.27 0 01-.1 2.4 2.56 2.56 0 01.1-2.4zM87.5 136.9c.3.4 1.1.8 1.2 1.2-.5-.3-.9-.3-1.4-.6.2-.2.1-.4.2-.6zM78.2 128.1a16.15 16.15 0 013.5 1.7c-1.2-.1-2.5-1-3.8-1.3a1.38 1.38 0 01.3-.4zM76.4 125.6c.3.1.6 0 .9.4-.2.2 0 .3-.3.5-.5-.1-.5-.6-.6-.9zM85.4 133.5l.5.5c-.2.3-.4.2-.6.4l-.5-.5c.2-.4.4-.2.6-.4zM91.1 135.4c.4 1.2-.1 2.5 0 3.8-.6-1.3.1-2.6 0-3.8zM79.6 127.1a19.75 19.75 0 013.8 2c-1.5.3-3.1-1.2-4.6-1.4a1.56 1.56 0 01.8-.6zM75.6 124.3c-.3-1.1-1.1-2.2-.9-3.3.4-.8 1.6-.8 1.4-1.6.5.1.8-.1 1.1-.7 2.4-.9 4.7-2.3 7.2-1.3a10.11 10.11 0 01.7 4.9 11 11 0 00-9.5 2zm2.7-3.5a.75.75 0 001-.2c-.1-.7-1.2-.4-1 .2zm2.7-2a.91.91 0 00.2 1.8c.8-.7.4-1.4-.2-1.8zm1.6.2c-.8.6-.1 1.8.6.9a.87.87 0 00-.6-.9zM86.5 133.1a.66.66 0 01.8.5.73.73 0 01-1-.4.35.35 0 01.2-.1zM84.7 128.4a7.26 7.26 0 01-3.4-1.4 24.4 24.4 0 003.4 1.4zM87.6 132.7a4.46 4.46 0 012.8-.6c.2.7.9 1.4.7 2.2-1.2-1-2.5-.1-3.5-1.6zM70.8 114.4c.3-.5.6-1.1.9-1.7.5.6-.5 1.4-.5 2 0 0 .4.2-.1.2 0-.1-.2-.3-.3-.5zM84.2 111.6c-1.2 1.4-3 .8-4.6 1.3a25.89 25.89 0 00-6.4 3.3c-.4 0-.7-.4-1-.1 4-3.2 7.9-5.5 12-4.5zM75 117.5c.3.2.6.3.9.5-.3.4-.7 0-1-.2a.37.37 0 00.1-.3zM68.5 109.2c.4-.4.8-1 1.1-1.1.7.8.4 1.6.8 2.4-.3.2-.7 1-1.1 1a20.94 20.94 0 00-.8-2.3zM77 117.5a2.39 2.39 0 01-1.4-.5c.4-.4 1.3.3 1.4.5zM75.4 109.9c.2.2.4.6.7.6a9.88 9.88 0 01-3.3 1.5c.6-.9 1.4-2 2.6-2.1zM60.8 88.5a34.31 34.31 0 00.6-3.4c2.8 7 5 14 7.8 21-.5.1-.9 1.2-1.3 1-2.4-6.2-4.6-12.4-7.1-18.6zM79.1 116.5c-.4-.4-1.2-.3-1.4-.8.4.1 1.2.4 1.4.8zM80.2 116.1c-.6.1-1.2-.4-1.8-.5.6-.7 1.5-.2 1.8.5zM70 104.9c-4.1-11-7.8-22-12.8-32.9-1-.9-.9-1.8-1.7-2.7a5.72 5.72 0 011.6-1.5c4.3 9.2 7.3 18.9 11.3 27.8-2.5-9.5-6.7-18.9-10.5-28.3a11.94 11.94 0 001.6-.8c2.8 6.1 5.5 12.2 7.9 18.3s4 12.4 6.1 18.4a18.74 18.74 0 01-3.5 1.7zM76.9 109.7c.2-.2.4-.1.6-.1v.1a.55.55 0 01-.5.3.37.37 0 00-.1-.3zM77.4 105.8a.88.88 0 01.7-.1 3.08 3.08 0 01-.3 1.3c-.3-.1-.5.3-.8 0 .2-.4.2-.8.4-1.2zM79.3 105.4c-.1.5-.2.9-.3 1.4-.1-.1-.2 0-.3-.1.2-.5-.2-1.6.6-1.3zM80.1 105.2c.7 0 .7.8 1.1 1.3a1.36 1.36 0 01-1.6.1 12.13 12.13 0 01.5-1.4zM75.9 94.8c1.1 2.2.1 5-.2 7-.9-2.3.1-4.7.2-7zM77.1 97.8c.8 1.4.2 3 0 4.5a.88.88 0 01-.7.1c.4-1.5.4-3 .7-4.6zM78.2 100.4a1.25 1.25 0 01-.3 1.7 12.23 12.23 0 00.3-1.7zM58.6 77.6a18 18 0 01.8 2.1c-.5 1 0 2.9-.7 3.4-1.1-1.7-.4-3.6-.1-5.5zM72.4 87.5c.7 1.2.1 2.5-.1 3.8.1.1 0 .2-.2 0-.4-1.2.1-2.5.3-3.8zM55.3 69.9c-.9.4-.6 1.4-.8 2.1-.3-.3-.2-.6-.4-.9a10.1 10.1 0 011.3-1.6 8.94 8.94 0 01.9 6.4c-.1.1 0 .3-.2.1-1.6-2-.4-4.1-.8-6.1zM71.6 85.7a7.69 7.69 0 01-.3 3 3.91 3.91 0 01.3-3zM80.3 90.1c.7 2 2.1 5.1.9 7-1.8-4.2-3.4-9.2-5.1-13.7a8.64 8.64 0 012.1.7c.6 1.8 1.4 3.8 2.1 6zM69.4 80.6a3.58 3.58 0 00.4 1.1c-.3.7 0 2.2-.5 2.3a3.72 3.72 0 01.1-3.4zM52.9 67.4c-.1 0-.2 0-.2-.1 0-.4-.5-.8-.2-1.3 1.6-1.3 3.3-2.6 4.8-2.8a5.58 5.58 0 012.9-1.6c-2.2 1.6-5.3 2.8-7.3 5.8zM54.8 67.9c.4.1-.2.7-.4.6 0-.2.2-.4.4-.6zM65.6 69.7c.5 1.9-.3 3.8-.1 5.6-.1.1-.2.2-.3 0-1-1.7.1-4 .4-5.6zM97.6 91.8a11.4 11.4 0 001.9 1 156.89 156.89 0 005.3 15c.3.2-.5.4-.2.6.9.1.8 1.4 1.1 2.1-.4.2-.8.6-1.3.4-2.6-6.4-4.6-12.8-6.8-19.1zM52.9 60.4c0-.8-.4-1.9.5-2.5-.4 1.7 0 3.4-.2 5.1-.1-.1-.2.1-.3 0zM50.8 58.2l-.3-.3c.6-.9 1.5-2.5 2.5-2.3.7-.8 2.4-1.7 3.1-1.5-.1.6-1 .7-1.6 1.1a15.17 15.17 0 00-4.4 4.7c-.1-.1-.2-.1-.2-.2.1-.6.2-1.3.9-1.5zM63.2 71.1a27.56 27.56 0 011-6.3c-.3 2.3-.6 4.5-.9 6.8-.4-.1-.1-.3-.1-.5zM75.8 82.5c.6.4 2 .2 2.1 1-.7-.5-2.2.1-2.1-1zM62 69.6c.4-1.5-.1-3.2.8-4.5a38.84 38.84 0 01-.4 4.8c.1.1 0 .2-.2 0 .1-.1 0-.2-.2-.3zM54.1 62.2c.1-1.7-.2-3.3 0-5 .1.1.3-.1.4-.3a31.33 31.33 0 01-.2 5.3c-.1.1-.2.1-.2 0zM75 80.7c.7.6 2.4.4 2.4 1.6-.8-.5-2.4-.2-2.4-1.6zM61.5 65.7c-.3.5.1 1.9-.3 1.9-.1-.6-.4-1.8.3-1.9zM80.8 84.6c2-2.2 2.3-4.6 4.3-6.6.1-.3-.2-.5 0-.8.4-.6.9-.5 1.3-.6a21.63 21.63 0 01-5 9.6 4.42 4.42 0 01-.6-1.6zM55.5 56.3a7 7 0 010 2.5 13.09 13.09 0 010 2.8c-.1-.1-.2.1-.3 0 .2-1.7-.4-3.5.3-5.3zM73.7 77c.8.6 1.9.3 2.5 1.3-.8-.1-2.6-.3-2.5-1.3zM80.2 83.1a11.69 11.69 0 00-.6-2c1.2-1.7 2.4-2.5 3.7-2.3-1.1 1.4-1.8 3.5-3.1 4.3zM56.5 55.8c.2 1.7.1 3.4.2 5.1-.1.1-.3.2-.4.1.2-1.7-.3-3.4.2-5.2zM40.1 25.4c.9 0 .3-1.3 1.5-1.4 3.1 9.9 7.3 19.8 10 29.8-.6 0-1.1 1.3-1.7 1.2-2.5-9.9-7.2-19.6-9.8-29.6zM73 75.4c.7.6 2.2.5 2.4 1.4-.7-.4-2.4-.2-2.4-1.4zM47.4 50.9a2.15 2.15 0 010 .8c-.2-.1-.4-.8 0-.8zM117.6 110.3c-1 .4-3.8 2.2-4.6 1.7-.5-.3-.6-1.2-.6-1.8a171.71 171.71 0 0018.4-7.3 2.9 2.9 0 01.5 1.8c-4.1 1.7-9.3 3.7-13.7 5.6zM72.4 73.8c.8.6 2 .4 2.6 1.4-.9-.1-2.5-.4-2.6-1.4zM80.1 78.4c-.3.3-.7 1.4-1.2 1.2-.1-.6.8-1 1.2-1.2zM46.5 48.1c0 .6.5 1.1.1 1.7-.2-.4-.6-1.4-.1-1.7zM58.2 60.1a22.55 22.55 0 010-2.6c0-.8-.5-1.9.2-2.5a7.07 7.07 0 01.2 2.5c0 .9.2 2-.2 2.6-.1.1-.1.1-.2 0zM71.9 72.8c-.6-2.3-1.7-4.6-2.2-6.9 3.2 2 3.7 5.5 4.5 8.2a10.46 10.46 0 00-2.3-1.3zM45.7 46c.4.5.2 1 .1 1.5a1.21 1.21 0 01-.1-1.5zM59.6 54.7a38.44 38.44 0 010 4.8.19.19 0 01-.3 0c.3-1.5-.5-3.5.3-4.8zM52.4 53.1c-3-9.8-6.7-19.5-10.4-29.2.5-.3 1.1 0 1.6.2 1.5 4.9 4 9.8 6 14.7.8.5.8 1.2 1.1 2.1.5 1.3.7 2.1 1.1 3.2.9 2.7 1.5 5.6 2.4 8.1-.6.2-1.2.8-1.8.9zM60.5 54.6c-.1 1.2.3 3.3.1 4.3 0 .2 0 .3-.3.2.3-1.5-.2-3 .2-4.5zM82.2 77.2a14.77 14.77 0 012.1-.1c-.4 1.4-1.8 1.1-2.8 1.3.2-.4.5-.8.7-1.2zM404.1 373c.3.3 1.4 1.2 1.2 1.7-.5 0-1.3-1.2-1.2-1.7zM61.4 56.2a11.3 11.3 0 010 2.6 5.7 5.7 0 010-2.6zM43.6 40.6c.3.4.6 1.6.1 1.5-.1-.5-.4-.9-.1-1.5zM401.8 370c.5-.2 1-.5 1.6.1-.2.5-.7 1-.9 1.5-.6-.5-1-1-.7-1.6zM125.8 96.1a122.57 122.57 0 01-16.7 5.9c-.4-.2-.2-.5-.4-.7 1.9-1 4.1-1.3 6.3-1.9a75.44 75.44 0 0011.3-3.9c.4-.2 1-.8 1.5-.5-.3.7-1.3.8-2 1.1zM97.9 91.4a3.81 3.81 0 01-.8-5.3c4.4-3.6 9.7-5.4 14.3-7.1 2.4-.9 4.8-1.9 6.9-2.5 1.4-.4 5.4-1.5 6.7-1s2.1 2.4 2.7 3.6a11.4 11.4 0 011.5 3.4c-1.8-1.8-1.8-5.7-4.8-6.4a11 11 0 00-1.8.2 12.1 12.1 0 00-1.9.1 13.09 13.09 0 00-3.7 1.5c-2.7 1.1-6 1.5-9.1 2.9a29.4 29.4 0 00-8.9 5.9 16.92 16.92 0 000 5.5 2.84 2.84 0 00-1.1-.8z"/><path class="prefix__cls-4" d="M83.6 74.9c.9-.3 3.4-.1 3.4-1.5-.7.9-2.1.7-3.1 1a14.17 14.17 0 00.8-1.8 5.55 5.55 0 011.7-.3c-.2.2-.3.5 0 .7.7 0 1.1-1.1 1.1-1.5-.9 0-1.7.6-2.6.6a12.2 12.2 0 00.7-1.7c.6-.1 1.9-.4 2 0-.7.6-1.5.2-2.2.8a7.42 7.42 0 003.9-.5c0-.2-.3-.3 0-.5.9-.2 1.5-.6 2.3-.7 4-.3 5.6 5.2 7.3 8a19.65 19.65 0 01-2.5 1.3c-.7-2.2-1.2-8.1-4.9-7.8-2.1.1-4.3 2.5-4.8 4.9-.3-.3-.5 0-.8-.1.3-.5.9-.9.6-1.3-1.2 1.5-2.5 2.2-3.8 2.1.3-.5.6-1.1.9-1.7zM107.7 98.2a22.19 22.19 0 014.1-2c.4.3 1.2-.5 1.4.1-1.5.9-3.7 1.4-5.4 2.4.1-.2-.1-.3-.1-.5zM41.9 35.6c.4.6.8 2.1.1 2.3a2.13 2.13 0 01-.1-2.3zM107.4 97.6c.1-.2 0-.3-.2-.5.8-.5 1.8-1 2.6-1.4s1.9-1 2.5-.6c-1.3.7-3.3 1.6-4.9 2.5zM57.5 47.5a13.05 13.05 0 01-.3 3.4c-.1 0-.2 0-.2-.1a7.6 7.6 0 01.5-3.3zM106.8 95.6a30.62 30.62 0 014.9-2.2.91.91 0 00.3.7 27.3 27.3 0 00-4.8 2.5c-.3-.3-.2-.7-.4-1zM58.3 48.6a4.24 4.24 0 01.6 1.9c-.3 0-.5.2-.8 0a11.08 11.08 0 00.2-1.9zM106.5 95c0-.2 0-.4-.2-.5a14.44 14.44 0 014.8-2.4c0 .2.2.4.2.6-1.6.4-3.2 1.7-4.8 2.3zM39.7 32.5c.4-.5.4-1.3.9-1.5.3.7.1 2.3-.5 2.5-.1-.4-.4-.7-.4-1zM106 93.2a35.91 35.91 0 014.7-2.7c.3.2.1.5.3.7-1.6.7-3.2 1.8-4.8 2.4a.52.52 0 01-.2-.4zM101.6 86.6c-.2.6-.6 1.2-1.2 1.2a1.8 1.8 0 011.2-1.2zM105.6 92.1c.8-.5 1.6-1 2.4-1.4s1.7-1 2.5-.8a27.73 27.73 0 00-4.8 2.6c.1-.1-.1-.2-.1-.4zM38.9 30.7c.4-.5.5-1.5 1-1.8a4.34 4.34 0 01-.5 2.5c-.4-.2-.2-.4-.5-.7zM55.4 41.3a6.52 6.52 0 01.2 2.4c0 .7-.1 2-.4 2.1-.6-1.4.1-3 .2-4.5zM59.2 47.1c-3.4-8.3-6.5-16.5-9.8-24.7-.1-.2.6-.1.5-.5-.5-.4-1.2-.5-1.2-1.2 1.5.5 2.1 2.3 2.7 4.1 1.5 3.8 2.9 7.6 4.2 11 1.9 5.1 3.6 10 5.2 14.7-1.1-.8-1.2-2.2-1.6-3.4zM105.1 90.9c1.6-1 3.3-2.1 5-2.1-1.6.9-3.2 1.7-4.9 2.5.1-.1-.1-.2-.1-.4zM38.1 28.6c.4-.5.6-1.5 1.3-1.8a6.6 6.6 0 01-.9 2.8 1.78 1.78 0 00-.4-1zM54.1 37.9c1 1.7.3 3.4.3 5.1-.1.1 0 .3-.2.1-.9-1.7-.2-3.5-.1-5.2zM104 88.4c1.6-.9 3.1-1.5 4.7-2.4.3.3 0 .5.4.8-1.6.8-3.2 1.5-4.9 2.2.2-.2-.3-.4-.2-.6zM103.7 85.1c-.4.6-.8 1.5-1.5 1.5.3-.5.9-1.4 1.5-1.5zM86.3 68.5c1.4 0 2.8.2 4.2.2-1.5.9-3.1.8-4.7 1.2a5.78 5.78 0 01.5-1.4zM113.4 94.4c.8-.1 1.6-.9 2.4-.7a13.44 13.44 0 01-2.4 1.2c.1-.1-.2-.3 0-.5zM105.9 83.8c-.5.8-.7 1.9-1.7 1.9.3-.8.8-1.8 1.7-1.9zM113 93.5c.9-.1 1.8-1.2 2.7-1a9.74 9.74 0 01-2.4 1.5c.1-.1-.6-.2-.3-.5zM38.3 18.8c-.2.4 0 .8-.3 1.2-1 0-2.2 1.6-2.7 2.4.5-1.4 1.7-3.2 3-3.6zM112.5 92.5a11.37 11.37 0 013-1.3 11.24 11.24 0 01-2.8 1.6c0-.1-.1-.2-.2-.3zM49.9 27.1a22.94 22.94 0 01-.3 6.4c-.7-2.1.4-4.3.3-6.4zM74.7 53.4c-.2.8-2.1 1.1-2.6.1a5.77 5.77 0 002.6-.1zM108.3 82.4c-.7.9-1 2.5-2.1 2.2.5-.8 1-2.1 2.1-2.2zM111.1 88.8a.27.27 0 01-.3-.3c1-.4 2.7-1.5 3.9-1.4-1.2.8-2.4.9-3.6 1.7zM71.1 52a10.2 10.2 0 012.8-5.9c.8-.8 1.9-.9 2.8-1.5a2.47 2.47 0 011.4 2c-.7.3-1.4.9-2.2.1-1.5.2-4.1 3.1-2.4 4.1.6.3 1.1-.2 1.8-.7.4.3 1.5-.2 1.4.2-1.6 1.6-3.8 2.6-5.6 1.7zM109.3 85.7c.4.1.8-.5 1.3-.4-.1.4.3.7 0 1-.4.1-.8.5-1.3.4.2-.4-.2-.7 0-1zM117.4 92.9a2 2 0 01-.8.4.74.74 0 01.8-.4zM71.1 48.1a4 4 0 01-.9 2 2.52 2.52 0 01.9-2zM48.2 22.8c.7 1.8-.3 4.4-.4 6.5-.7-2.1.2-4.3.4-6.5zM118.7 93.1h.2c.1 0 .1-.1.2 0 0 .5.5 1 .5 1.5-.2-.1-.4.3-.6 0a2.7 2.7 0 00-.3-1.5zM120.9 95.9a14.34 14.34 0 013.4-1.4c1.1-.4 2.3-1.3 3.2-.8-.6.8-1.8 1.1-2.9 1.5a32.35 32.35 0 00-3.3 1.3c-.1 0-.1.1-.2 0 .1-.1 0-.4-.2-.6zM117.2 91.7c0 .3-.4.7-.7.3a.52.52 0 01.7-.3zM100.1 76.8c-.1-.6-.8-1.2-.7-1.8a28.06 28.06 0 003.1.8 8.18 8.18 0 01-2.4 1zM46.4 26.5c.4-.9-.3-3.6 1-3.6-.3 1.5-.1 3.4-.6 4.6a3 3 0 00-.4-1zM110.3 81.3c-.8.8-1 2.3-2 2.6.4-.8.9-2.5 2-2.6zM39.9 18c-.1.4.2.8 0 1.2-.3 0-.6.4-.9.3.2-.5 0-1.5.9-1.5zM77.2 52.1c-.6.4-1 1.2-1.6.9a5.07 5.07 0 011.6-.9zM34.8 13.7a2 2 0 011.2-.8 14 14 0 001.3 3.4 2.7 2.7 0 00-.8.7c-.7-1.1-.9-2.2-1.7-3.3zM45.7 22.9c.2.6.2 2.1-.1 2.2-.5-.6-.7-2 .1-2.2zM111.3 85c.4-.4.8-.3 1.2-.6.4.3.3.6.4.9-.3.3-.7.2-1.1.5-.4-.3-.3-.5-.5-.8zM104.4 73.9c-2-.4-4.7-.6-6.3-.9-.1-.5-.6-.9-.6-1.3 3.4 1.3 6.8 1.5 10.2 2.3-1.1.8-2 .2-3.3-.1zM78.3 53.5c3.3 1.8 6.3 4 9.1 5.6.2.1-.4.3 0 .5.7.2 1.8.2 2 1.2.4.2.7.1 1 .3 3.3 2.7 7 4.4 10.1 7.2C93 64.2 85 58.1 77.8 54c.2.1.4-.4.5-.5zM112.2 80.6c-1 .9-1.2 2.5-2.2 2.6.6-.8 1.1-2.6 2.2-2.6zM110.1 72.9c-.5.3-1.1.5-1.6.8-3.8-1.4-7.6-1.2-11.4-2.7 4.2-.1 8.7 1.7 13 1.9zM41.6 17.4c-.1.4.1.8 0 1.2-.4-.1-.7.3-1.1.2 0-.6.2-1.6 1.1-1.4zM100.5 70.7c-1.4-.7-3.2.1-4.4-1 1.4.5 3.2-.3 4.4 1zM37.7 15.7c-.3-1-.8-2-1.1-3 .4-.4.9-.4 1.3-.6a20.74 20.74 0 011 3.3c-.4-.2-.8.5-1.2.3z"/><path class="prefix__cls-4" d="M77.4 49.1c-.6.7-1.2.6-1.9.8a1.67 1.67 0 011.9-.8zM113.6 84.9c0-.2-.3-.5-.3-.7 1.8-.8 3.7-1.3 5.5-2.1l.6.9a49.24 49.24 0 01-5.8 1.9zM79.4 51.6c.7.7 1.8 1 2.2 1.7a6.47 6.47 0 00-1.3.4l-1.5-.9a6.72 6.72 0 00.6-1.2zM83 54.2c-.6.2-1.6.5-2-.3.6.1 1.6-.8 2 .3zM113.7 79.9c-.7.8-1 2.3-1.8 2.5.7-.8 1-2.2 1.8-2.5zM42.4 17.4a11.45 11.45 0 013.2.1 18.73 18.73 0 01-3.4.8c.1-.3 0-.6.2-.9zM84.2 54.9c-.4.2-.8.3-1.2.5-.1-.2-.5-.3-.3-.5.5.2 1-.5 1.5 0zM86.1 56a1.68 1.68 0 01-2.2-.2c.7-.3 1.4-.6 2.2.2zM38.6 11.8a1.39 1.39 0 011.1-.2c0 1.1 1 2.1.6 3.2-1.2 0-1-2.1-1.7-3zM47.1 20c.6.5.6 1.7-.3 1.2.3-.5 0-.8.3-1.2zM77.9 47.3c.3.2-.1.6 0 .8a3.19 3.19 0 01-1.4.3c-.1-.9.6-.8 1.4-1.1zM88 57.3c-.6 0-1.7.6-2.1-.4.7-.1 1.7-.5 2.1.4zM115.5 79.1c-.9.9-1.1 2.7-2.3 2.8.7-.9 1.6-2.5 2.3-2.8zM87.7 58.2a1.63 1.63 0 012.3.5 2.39 2.39 0 01-2.3-.5zM126.4 90.4c-.1.6-1.3 1.1-2 1.1.1-.7 1.4-1.1 2-1.1zM91.7 59.6c-.5.3-1.5.7-1.8-.1.6-.1 1.2-.5 1.8.1zM93.1 60.7c-.5 0-1 .5-1.6-.1.5-.2 1.4-.5 1.6.1zM126.1 89.4c-.6.6-1.2.5-1.8 1.2l-.2-.2a3 3 0 012-1zM95.4 62.3c-.4-.3-.4.5-.7.5-.5-.6-1.4-.6-1.6-1.3a1.8 1.8 0 012.3.8zM125.8 88.4c-.6.6-1.2.7-1.9 1.3-.7-.9 1.3-1.5 1.9-1.3zM100.9 65.8c1.4.9 3 1.8 3.5 3.2-3.1-2.2-6.5-4.1-9.3-6.2 1.8 0 3.7 1.6 5.8 3zM117.4 78.7c-1.1.8-1.2 2.5-2.2 2.5.7-.9 1.1-2.8 2.2-2.5zM122.2 85.7c.8-.3 1.5-.9 2.3-.9-.2.8-1.6.7-1.8 1.7.7.2 1.4-.7 2.1-.7.3.9-1.4.7-1.5 1.7.6.1 1.2-.5 1.8-.7.2.1.1.3.3.4-.3.8-1.3.7-1.9 1.4a15.11 15.11 0 01-1.3-2.9zM106.7 70.9c1.1 0 2.3.2 3.3.2s2.3-.4 3.3.4c-2.4 1.6-4.9.2-7.4.4zM132.2 89.3c2.4.9 2.9 2.9 3.5 4.9a22.42 22.42 0 011 3.9c-.3.1-.6.6-.9.3-1.4-3-2.3-6.1-3.6-9.1zM98.2 53.6c-2.6-.2-5.1.8-7.6 2.8l-.5-.5c2.5-3.2 5.8-3 8.1-2.3zM117.8 78.6a1.39 1.39 0 011.1-.2c-.9.6-1 2.3-1.9 2.1.4-.6 1.4-1.6.8-1.9zM102.8 56.7c5.6 2.9 10.2 9.2 13.7 13.6a3.7 3.7 0 01-2.1.6c-.4-.5-.6-.8-.4-1.2-2.3-1.5-4.2-4.4-5.8-6.1a20.49 20.49 0 00-13.5-6.2c-1-.1-1.7.8-2.8-.4 3.7-2.7 6.8-2.4 10.9-.3zM107 69.5c1.8.6 4.3-.9 5.7 1.4-1.9-.4-3.9-.2-5.9-.5.2-.3 0-.6.2-.9z"/><path class="prefix__cls-4" d="M104.1 62.4c-2-.9-4.4.5-6.2-1.4 2 .7 4.4-.5 6.2 1.4zM105.6 63.6a12.41 12.41 0 00-2.7-.3c-1.1-.1-2.5.1-3-.7 1.8.5 4.2-.3 5.7 1zM106.7 69c.1-.3-.4-.6-.3-.9 1.5.4 3.8-.8 4.9 1.2-1.6-.3-3.1-.1-4.6-.3zM107.3 65c-1.9-.7-4.2.3-5.9-1.2 1.9.5 4.2-.6 5.9 1.2zM120.2 78.1c-.6.6-.6 1.6-1.3 1.9.6-.6.6-2.1 1.3-1.9zM121.1 81.4c.2-.3.5-.1.7-.3a6.73 6.73 0 00.7 1.1c-.3.2-.6.4-.9.1a4.05 4.05 0 00-.5-.9zM107.9 65.4c.2.3.9.6.7.9-1.7-.8-3.7.5-5.2-1.2a34 34 0 004.5.3zM109.8 67.3c-.4.4-1.1 0-2 0s-2.1.4-2.5-.6c1.5.4 3-.5 4.5.6zM122.7 80.8c.5.1.7.9.6 1.4-.2-.6-.8-1-.6-1.4zM122 77.9c-.4.6-.7 1.8-1.5 1.4.4-.6.7-1.8 1.5-1.4zM131.4 87.3c.9.7 2.3.9 2.3 2.1-.7-.6-2.4-.9-2.3-2.1zM122.7 78c.2.1 1 0 .7.5-.4-.4-.8.4-1.3.2a4.35 4.35 0 01.6-.7zM130.6 85.5c.8.6 2.3 1 2.3 2-.8-.7-2.3-.9-2.3-2zM129.7 83.4c.9.7 2.5 1.1 2.5 2.3-1-.6-2.5-1-2.5-2.3zM219.5 116.2c-.3.5.2.9-.3 1.3-.1-.1-.3.2-.4-.1.3-.3.4-1.1.7-1.2zM221.4 110.6c-.1.2.1.4-.2.6l-.2-.2c.1-.1.3-.6.4-.4zM241.2 112.1c-.2.4-.5.2-.8.4-.2-.3-.8-.6-.8-.9.6.5 1.1.3 1.6.5zM242.1 109.5c-.4.3-.8.1-1.2.3.4-.6.7-.6 1.2-.3zM139.4 262.4c3.1 5.6 6.7 11.1 10 16.6s6.5 11.3 9.7 16.7 5.7 11.2 9.3 16.7 7.4 11.1 11.3 16.6 8.5 10.9 13.2 16.5a146.56 146.56 0 0015.3 16.2c3 2.6 5.8 5.3 8.6 7.9s5.9 4.9 8.8 7.3a192 192 0 0017.6 13.6 188.49 188.49 0 0017.4 10.2c5.7 2.8 11.5 4.6 17.2 6.6 2.7 1 5.6 1.7 8.5 2.5s5.8 1.9 8.6 2.4 5.6.9 8.5 1.3 5.7 1 8.5 1.1c11.3.6 22.4-1.1 33.4-4.1a21.2 21.2 0 01-6 2c-2 .4-4.2.4-6.1.9-.7.2-1.3.6-2 .8a15.52 15.52 0 01-2.1.4 79.09 79.09 0 01-29.1-.2c-5.5-1.1-11.1-3-16.9-4.7-4.2-1.3-8.4-3.1-12.7-4.6-1.4-.5-2.9-.7-4.3-1.1a78.91 78.91 0 01-7.2-3.3c-7.4-3.4-14.6-8.5-22-13.5a123.86 123.86 0 01-14.7-11.2c-4.8-4.4-9.7-8.8-14.6-13.4-.3-.3-1.2-.8-1.7-1.3-4.1-3.8-7.4-8.2-11-12.4s-7.1-8.4-10.2-12.5-6.1-8.5-9.1-12.6c-1.6-2.2-3.5-4-4.8-6.2s-2.6-4.3-3.9-6.4c-5.1-8.4-9.8-17.1-14.6-25.4-9.9-17.1-19.2-33.8-26.9-50.9-3.8-8.5-7.5-17-11.1-25.6-1.8-4.3-4.1-8.6-5.8-12.8-4.9-12.1-10.1-24.3-15.4-36.8-.4-1-.6-1.2-.2-1.5.8-.5 1.1.5 1.4 1.5 1.9 5.8 4 11.2 6 16.6 3.7 9.9 7.9 18.8 12.2 28.3s8.4 19 12.9 28.4c-1.8-7-5.9-13.8-8.5-20.7 5.5 10.7 10.3 21.3 15.1 32a11.58 11.58 0 01-2.2-3.9c-1.8-4-3.2-7.8-5.6-11.7a284.13 284.13 0 0015.2 33.7zm-15.5-34.8c-.4 0 .3.7.3 1 .3 0-.3-.7-.3-1z"/><path class="prefix__cls-4" d="M193.9 345.2c-.4-.5-1.1-1.2-.9-1.2.6.9 1.6 1.8 2.1 2.7a9.83 9.83 0 01-1.2-1.5zM178.9 325.6c4.3 5.4 8.3 10.8 12.3 16.1a129.2 129.2 0 01-12.3-16.1zM180.8 312.4a2.44 2.44 0 01-2.6 0 11.3 11.3 0 012.6 0zM181.4 310.2c-1 .2-1.9 1.4-2.9.6 0-.5.1-1.2-.7-1.3.1-.3-.2-.7.1-1 .6.4.1.9.8 1.3.7-.3 1.5.7 2.2.3.1-.2-.6-.4-.3-.4.3.4.8.1.8.5zM274.2 392.8c.2.1.4 0 .6.3a1 1 0 01-.4 1.1c-.2-.8-.7.3-.9.3a8.65 8.65 0 01.7-1.7zM137.2 254.6c1.9 3.8 3.8 7.6 5.9 11.4 1.6 3.1 3.3 6.2 4.6 8.5.2.4 1.4 2.8.8 1.8l-.3-.6c-4.4-7.3-9.3-15.3-12.5-22.6zM142 239.2a5.3 5.3 0 01-2.5.1c.8-.4 2.3 0 2.5-.1zM147 233.4c-1-.3-2.3.6-3 .2a3.5 3.5 0 013-.2zM106.2 187.4c.7.8 1.5 1.9 1.3 2.5a7.45 7.45 0 01-1.3-2.5zM105.8 185.4c.2.2.7 1.2.3.7a8.58 8.58 0 01-1.3-2c.2.4.7.8 1 1.3zM100.2 171.6a18.2 18.2 0 01-2.1-4.7 21.83 21.83 0 012.1 4.7zM95.7 153.6c-.3.7-2.1.4-2.2.6a7.94 7.94 0 012.2-.6zM84.6 139c.3 1 .7 3.1-.3 4.1.3-1.4-.9-3 .3-4.1z"/><path class="prefix__cls-4" d="M82.5 137.9c1.1-2.2 3.9-2.9 5.5-3.1-.1.3.4 1.4-.1 1.3s.2-.9-.4-1.1-.7.7-1.2.5c-.6.6-.2 1-.5 1.6a2.2 2.2 0 01-.8-.1c-.3.7-2.3 1.7-2.1 2.7.2.2.3-.5.5-.3-.1.6.2 1.6-.1 2-.1-1.3-1.4-2.3-.8-3.5zM94.4 143.4a3.67 3.67 0 01-.1 1.8 1.33 1.33 0 01.1-1.8zM92.8 139.9a12.25 12.25 0 01-.2 1.9 2.49 2.49 0 01.2-1.9zM92.1 138.6c-.1.7 0 1.4-.1 2-.5-.5-.1-1.6.1-2zM89.1 135.8c-.1.5.1.9-.2 1.4a1.7 1.7 0 01.2-1.4zM78.6 125c-.7.5-1.8-.1-2.3-.4a2 2 0 012.3.4zM82.8 123.4c-1.4-.1-2.9 1.7-4.4.6a5.43 5.43 0 013.5-.9.11.11 0 10-.1.2c.3 0 1-.1 1 .1zM85.9 128.1c-1.6-.6-3.1-1.1-4.7-1.8 1.5 0 3.4 1.3 4.7 1.8zM83.6 126.5l-1.5-.6c.4-.3 1.3.3 1.5.6zM86.7 126.8c-1.2-.3-2.4-1-3.7-1.3 1.3-.2 2.5 1 3.7 1.3zM78.3 116.9c-.6.3-1.3-.4-1.9-.5.5-.5 1.5.3 1.9.5zM84 115.9c-.9 0-1.8-1.2-2.7-1.1-.2.5.4.4.7.8-.6.3-1.2-.5-1.9-.6 1.2-.6 3.1-.9 3.9.9zM59.3 84.8a19.68 19.68 0 00.6-3.5c1.2 1.9.9 4.4.4 6.2a14.76 14.76 0 00-1-2.7zM75 92.2a13.05 13.05 0 01-.4 5.9c-.5-1.9.2-4.2.4-5.9zM74.2 91a20.24 20.24 0 01-.4 4.3 21.52 21.52 0 01.4-4.3zM57.1 74c1.3 1.7.7 4 .2 5.6-1-1.8-.4-3.8-.2-5.6zM73.3 90.9c-.2.8 0 2-.4 2.5a9.35 9.35 0 01.4-2.5zM70.4 83.4a6.53 6.53 0 010 3.4c-.8-1-.3-2.6 0-3.4zM68.4 78.3a7.35 7.35 0 01-.2 3.6c-.6-1.1.1-2.8.2-3.6zM67.6 75.9a10.39 10.39 0 01-.4 3.9c-.5-1.2.1-2.9.4-3.9zM66.6 72.9a8.36 8.36 0 01-.4 4.7c-.4-1.4.2-3.4.4-4.7zM67.1 66.4c2.1 5.2 4.2 10.7 6.1 15.9a18.66 18.66 0 01.7 2.2c-1.1-2.5-2.8-4.9-3.2-7.5a.55.55 0 01-.5-.3c-.9-2-1.4-4.3-2.2-6.4-.8-1.9-2-3.6-1.9-5.6-.3-.3-.7-.5-.2-.6.8.5.9 1.5 1.2 2.3zM51.5 59.9c-.4 1.1 0 2.6-.3 3.5.1-1.1-.9-2.6.3-3.5zM126.4 71.4c-.4.1-.9-.2-1.4-.2-5.1 2.1-9.7 4.1-15.1 6.1-3.6 1.3-7.4 3.1-11.3 4.6-2.4.9-4.5 1.5-4.4 4.3.1 1.6 1.1 3.4 1.3 5.2.1.6 0 1.2.1 1.8a64.25 64.25 0 002.9 8c.9 2.4 1.9 4.8 2.7 7 .1.2.4.5.1.7a159.51 159.51 0 01-7.3-20c-.7-2.1-1.7-3.8-1.1-5.8 8.3-3.5 16.6-6.6 24.9-10.5.3-.2.7.2 1 .3.2-.3.1-.8.4-.8 2.6-.9 5.1-1.9 7.7-2.9 1.9 1.1 1.9 2.6 2.5 4.3.4 1.2 1 2.3 1.4 3.3 2 4.8 3.6 9 5.4 13.5a23.29 23.29 0 011.4 3.3 6 6 0 01.2 3.5c-1.8-4.4-3-8.9-4.8-13.3-.9-2.2-2.1-4.3-2.9-6.6s-1.6-4.8-3.3-6.7c-.4.1.1 1.2-.4.9zM64.4 70.7l-.3 2.7c-.4-.8.1-2.2.3-2.7zM48.1 53.7c.2 1 1.1 1.9.8 2.9-.3-.9-.5-1.9-.8-2.9zM76.9 80.7c-.7-.4-1.8-.5-2.2-.9.6.3 1.7.3 2.2.9zM76.2 79.5c-.6-.4-1.6-.2-2-.9.6.4 2 .6 2 .9z"/><path class="prefix__cls-4" d="M109.2 105.4c7.5-3 14.8-6 22.2-9.4.4-.1.8-1.1 1.1-.6-.6 1.1-2 1.4-3 1.8-3.3 1.4-6.7 2.8-10 4.2s-6.7 2.6-10 4.2c-1.1.5-2.3 1.4-3.2 1.3.6-1 1.9-1.1 2.9-1.5zM57.6 55.5c-.4 1.6.3 3.6-.2 5 .3-1.6-.4-3.6.2-5zM62 61.1c-.2.6-1.1.5-1.7.7.3-.6 1.2-.5 1.7-.7zM116.6 104.6c2.2-.6 4.3-1.5 6.4-2.1s4.4-1 6.4-2.4c-4.1 1.1-8.6 2.7-12.5 3.5 4.1-1.4 8.2-3.9 12.3-4.7.5.7.4 1.5.9 2.2a196.06 196.06 0 01-18.8 7.2 1.78 1.78 0 00-.4-1c5.8-2.2 11.7-3.6 17.5-5.8-3.8.6-8.1 2.5-11.8 3.1z"/><path class="prefix__cls-4" d="M116.4 104.7a19 19 0 01-5.7 1.8c1.6-.5 3.9-1.1 5.7-1.8zM44.5 43.2c.3.7 1 1.8.4 2.3.1-.8-.7-1.5-.4-2.3zM111.8 102.8a7.84 7.84 0 01-2.1.9c.2-.6 2-.9 2.1-.9zM121.3 98.6a56.4 56.4 0 01-12 4c3.8-1 8.9-3.1 12-4zM59.9 53.1c-1 0-2.4.8-3.2.7.7-.7 2.5-.8 3.2-.7zM42.9 38.4c.1.6.5 1.1.1 1.6-.4-.4-.6-1.4-.1-1.6zM98.9 83.5a6.46 6.46 0 00-3.1 3.4c-1.4-2.1 2-3.5 3.1-3.4zM62.4 55.2c.5 0 .5 1 .3 1-.1-.3-.5-.6-.3-1zM41.2 33.1a3.59 3.59 0 01-.1 2.5c-.9-.7-.3-2 .1-2.5zM56.5 43.9a11.59 11.59 0 01-.2 4.9c-.6-1.6-.1-3.6.2-4.9zM116.4 98.2c-.4.1-.9.6-1.1.2 1.7-.5 3.3-1.5 5-2.1a.85.85 0 00.3.5c-1.2.8-2.9 1-4.2 1.4zM52.8 34.4c.8 1.9.2 3.9.2 5.8-.8-1.8-.2-4.2-.2-5.8zM51.9 32c.1.7.7 1.3.7 2-.2-.2-.4-.1-.5.1-.1 1.2 0 2.5-.1 3.7-1-1.8-.2-4.2-.1-5.8zM50.8 29.4a25.59 25.59 0 01-.2 6.2c-.6-2 .2-4.1.2-6.2zM43.1 20.9c.9-.4 2.6-1.2 3-.8.1.2 0 1.4-.4 1.2-.2 0 .1-.7-.3-.9-.1.1-.3 0-.4.1-.3.4-.2.7-.3 1.1-.2-.2-.2-.9-.7-.6-.4.5-.3.9-.9 1-.4-.3 0-.6-.3-.9a3 3 0 01-.4 1c-1.3.3-2.6 1.4-3.9 2.2a7.91 7.91 0 014.6-3.4zM114.1 90.9c-.7.1-1.3 1-2 .8a5 5 0 012-.8zM92.3 67.4c-1.9-.1-3.8.3-5.8.3a39 39 0 011.7-4.8c.2.3.3.1.5.3a2.48 2.48 0 00-.7 3 17.33 17.33 0 003.2.3 11.15 11.15 0 013.1.5c-2-.2-4.4-.6-6-.1 1.3.5 3.3.3 4 .5zM115.1 89.4a16.58 16.58 0 01-3.3 1.5q1.5-.75 3.3-1.5zM113.3 89.4c-.6.1-1.2 1.1-1.8.8a2.5 2.5 0 011.8-.8zM49.2 25.1c-.2 2.2-.2 4.4-.5 6.6-.8-2.2.3-4.8.5-6.6z"/><path class="prefix__cls-4" d="M89.8 65.2c-.5-.1-.9-.1-1.4-.2.6-.8 1.2 0 1.4.2zM123.9 92.8c-1.2.3-2.5 1.2-3.7 1.4a84.67 84.67 0 01-2.5-8.6c1.1-.2 2.2-.9 3.2-.8a61.55 61.55 0 002.8 7.1c.1.2-.5.5-.3.7s.6-.2.5.2zM105.1 74.9c-2 1-4.1-.6-6.1-.5a3.55 3.55 0 00-.4-.9c2.1.4 4.3.9 6.5 1.4zM116 86.4a4.67 4.67 0 011-.5c.5 2.2 1.2 4.4 1.7 6.6-.9-1.7-1.3-4.2-2.7-6.1zM98.2 69.2c-1.7-.4-3.8-.1-5.3-1 1.7.3 3.8-.2 5.3 1zM90.7 64.5a5.08 5.08 0 01-1.7-.3c.2-.2.4-.5.6-.5.4.4.7.4 1.1.8zM37.4 10.8c-.1 0-1.2.6-.8.2a5.4 5.4 0 015-1.4c-1.3.5-2.8.8-4.2 1.2zM101.2 60.5c-1.8-.5-3.9.2-5.4-.9 1.7.2 3.9 0 5.4.9zM126.4 73.3c1 .7 1.5 2.6 2.3 4.1a40.24 40.24 0 012.6 6c-.4-.4-.8-.3-1.2-.8-.5-2.9-2.2-7.7-6.2-8.9-.4.7-1.5.6-1.9.4 1.5 0 3.1-1.6 4.4-.8z"/></g></pattern><style>.prefix__cls-1{fill:none}.prefix__cls-3,.prefix__cls-4,.prefix__cls-5{fill:#2c150e;fill-rule:evenodd}.prefix__cls-4,.prefix__cls-5{fill:#fff}.prefix__cls-5{stroke-miterlimit:10;stroke:url(#prefix__Unnamed_Pattern)}</style></defs><path class="prefix__cls-5" d="M177.59 267.31c.1-.2.2 0 .3-.1.3.5 0 .9.2 1.3-.2-.1-.3-.9-.5-1.2zM193.69 273.11c0-.3.4-.6.6-.9.2.1.4 0 .6.4-.4.2-.8.1-1.2.5zM194.59 274.91c.3.2.6 0 .9.3-.3.3-.6.3-.9-.3z" transform="translate(-177.02 -119.8)"/><path d="M170.72 44.43c-2.5 2.6-6 5.65-8.38 8.35-1.2-3.5-3.7-4.3-5.7-5.5-.3-1-1.2-1.9-1.6-2.9 11.8-13.1 23.4-24.3 34.9-29.5 1.26 3.32-.72 6.92 1.2 10.4zm37.64-41.41C131.73 24.31 99.1 127.2 72.84 194.2c1.83-5.05 1.82-5 1-2.67-11.34 34.55-18.42 58-30.43 88.47-2 .28-2.7 7-2.3 8.8-11.93 19.27-13.86 44.95-21.8 66.1-4.08 16-10 31.73-11.49 47.6-.81 6.42 8.73 9.46 10.39 2.8-.1 0-.5.3-.4 0 .78-2.13.43-2.9 2.81-3.7 6.34-15.53 9.74-32.58 14.89-48.7 5.72-1.16 5.22-10.36 7.4-13.8 2.1 3.3 5.25 15.08 5.39 18.75 7.83 7.75 20.18-7.59 21.74-12.71 3.28.6 8.51 5.26 12 3.86.2-5.28 13.95-32.81 5.1-33.2-.5.5-.6.8-1.1.7-.3 1.1-.6 2.1-1 3.2a13.73 13.73 0 01-2-1.3c.6-2.7 1.7-5.4 1.3-8.1-2.12-1.09-14.53-10.71-15.8-6.8 0 1.9-1.46 3.44-1.49 5.4-.21.5-.51-.1-.81.3 0 .4.4.5.4.8a8.78 8.78 0 01-2.1-1.2c.5-1.6 1.2-2.8.9-4.3a1.45 1.45 0 01-.2.7 9.51 9.51 0 00-2-1.5c-1 .5-1.7-.5-2.6.3-.7.6-.9 2.1-2 1.9 8.29-40.81 19.27-81 33.9-120 2.2.2 4.3.5 6.6-1.6.59-4.15-.84-4.34-3.5-6.8 7.5-21 19-41.6 28.2-62.4 1.1-.2 2.2.2 3.3 0 .4-.9 1.5-1 1.5-2.2-.44-1.21-.67-3.08-1.8-4.1a266.63 266.63 0 0132-50.8c2.32 1.67 5.72-1.88 3.9-4.6l29-27.5c.3.9 1.2 1.4 1.3 2.1.6-.8 1.5-.6 2.3-1.5 0-.9.2-1.7.2-2.6 9.39-4.25 19.7-7.54 29.9-7.7 1 3.31 4.34 3.58 5.7-.1 8-.1 16-1 23.8 2.3a10.92 10.92 0 00-.2 3.6c.6.5 1.2 1.3 1.8 1.8 1.1.1 2.4-1.6 2.9-3 11.79 8.37 22.55 10.69 32.3 23a3.75 3.75 0 00-.9 1.9c-.1.2-.2-.7-.4-.3.49 2.66.72 3.49 3.3 2.5.89 3 3.07 6.21 3.1 9.3.51-3.28-1.76-7-2.7-10.2 1.4-1 0-2.4 1.5-3.6a4.89 4.89 0 002 1.6c-.49-11.31-29.38-32.69-40-37.4-18.48-9.17-30-6.79-49.28-4.58zm-126 319a3.72 3.72 0 011.9.9c-1.44 4.47-2.49 10.8-5.7 13.8 1.28-4.94 2.78-9.84 3.78-14.74zm-18.3-10.5a10.6 10.6 0 012.1 1.1c-1.5 5-2.6 10-4.3 14.9a4.53 4.53 0 01-1.5-1.8c.78-4.74 2.62-9.44 3.68-14.24zm17.3-95.4c-10.15 30.15-17.13 61.28-24 92.3.5.7 1.3.5 1.6 1-1.1 7.22-10.52 23.4-3 28-.8 2.1 19 3.79-2.44 14.71-3.94-3.12-1-18.06-7.76-22.71.7-3 1.9-5.9 1.7-8.9-.8-.7-.9-1.9-1.8-2.6 2.28-8 5.11-16 5.5-24.3 1.9-2 4.3-5.7 2.4-8a74.51 74.51 0 004.7-21.6c-.5-.6-.2-1.7-.5-2.6 8.08-27.32 16.71-55.88 26.81-82.8.39-1.2 2.19 0 3.19.1.05 2.86 2.16 5.51 4.3 6.8-4.02 10.06-7.32 20.46-10.72 30.56zm13.7-39.1h0c-2.77-2.32-6.15-.28-8.6-3.5 8.72-22.6 17-45.7 27.91-67.4.75-1.35 2.52 1.28 3.4 1.9.39.7.39 1.9.89 2.8 1.3 2.5 3.3 3.1 4.5 4.1-9.18 20.66-20.52 41.28-28.12 62.06zm63.5-119.4c-13.17 16-22.9 32.31-32.1 50.3-2.46-2.86-3.64-6.7-7.6-3.8a15.07 15.07 0 00-2.3-2.1c10.77-18.74 21.73-39.13 36.6-55.3 2.59 3.17 1.71 8.4 5.38 10.86zm67.2-49.8c-.36 2.41-1.77 4.76-.7 7.4-9.88 1.26-20.33 3.29-29.4 8.2-.1-2-.8-5-2.8-6.2a11.43 11.43 0 00-.7-3.2c11.4-5.8 22.7-9.5 33.9-10a17.5 17.5 0 00.4 3.2 1.87 1.87 0 00-.72.56zm32 7.2c-1.1-.2-1.7 1.3-2.2 2.4-7.9-3-15.9-2.5-23.9-2.2-.05-2.29.53-5.13-1.2-7-.5-1.4.4-3.5-.6-4.5a81.09 81.09 0 0128.8 8.6 7.18 7.18 0 00-.92 2.66zm34.8 28.3h0c-9.84-12.47-20.72-15-32.6-23.3-.4-.9-.2-2.4-.7-3.6.54-1.08 1.08-2 1.6-3 13 5.83 24.11 16.59 33.3 28a16 16 0 01-1.62 1.86z" stroke="#2c150e" stroke-width="2" stroke-miterlimit="10" fill-rule="evenodd" fill="none"/></svg>