<?xml version="1.0" encoding="utf-8"?>
<!-- Generator: Adobe Illustrator 26.0.3, SVG Export Plug-In . SVG Version: 6.00 Build 0)  -->
<svg version="1.1" id="Layer_1" xmlns="http://www.w3.org/2000/svg" xmlns:xlink="http://www.w3.org/1999/xlink" x="0px"
	y="0px" viewBox="0 0 612 792" style="enable-background:new 0 0 612 792;" xml:space="preserve">
	<style type="text/css">
		.st0 {
			fill: none;
		}

		.st1 {
			clip-path: url(#SVGID_00000163043771410875872820000002738346857994289064_);
		}

		.st2 {
			fill-rule: evenodd;
			clip-rule: evenodd;
			fill: #2C150E;
		}

		.st3 {
			fill-rule: evenodd;
			clip-rule: evenodd;
			fill: #FFFFFF;
		}

		.st4 {
			fill-rule: evenodd;
			clip-rule: evenodd;
			fill: #2C150E;
			stroke: url(#Unnamed_Pattern);
			stroke-miterlimit: 10;
		}

		.st5 {
			fill-rule: evenodd;
			clip-rule: evenodd;
			fill: #FFFFFF;
			stroke: url(#Unnamed_Pattern);
			stroke-miterlimit: 10;
		}
	</style>
	<pattern width="531.2" height="454.6" patternUnits="userSpaceOnUse" id="Unnamed_Pattern"
		viewBox="0 -454.6 531.2 454.6" style="overflow:visible;">
		<g>
			<rect y="-454.6" class="st0" width="531.2" height="454.6" />
			<g>
				<defs>
					<polyline id="SVGID_1_" points="531.2,0 531.2,-454.6 0,-454.6 0,0 				" />
				</defs>
				<clipPath id="SVGID_00000165217362908413420540000017033989454098264968_">
					<use xlink:href="#SVGID_1_" style="overflow:visible;" />
				</clipPath>
				<g style="clip-path:url(#SVGID_00000165217362908413420540000017033989454098264968_);">
					<path class="st2" d="M412.5-327.4c1-4.4,1.7-8.8,2-13.3c0.1,4.8-0.3,9.6-1.4,14.4c-0.6,2.4-1.4,4.8-2.6,7
					c-1.3,2.5-3.1,4.4-5.7,6.8c-9.6,8.8-19.1,10.7-28.7,12.7c-9.4,2-18.9,3.1-28.2,1.9c-4.5-0.6-9.2-1.8-13.9-2.8
					c-9.2-2-18.6-2.9-27.9-5.4c-9.1-2.5-18.4-5.3-27.8-6.7c-9.4-1.4-18.3-0.7-28.1-0.5c-4.6,0.1-9.7-0.2-14.1,1
					c-8.6,2.4-22.8,12.8-21.8,22.5c0.7,4.6,2.4,8.9,5,12.7c3.1,4.6,7.3,8.2,11.2,11.7c-7.1-4.6-13.1-12.2-15.4-19
					c-0.8-2.2-1.3-4.5-1.4-6.8c0.1-4.1,2.4-8,6.1-11.7c0.2-0.1,0.1-0.2,0.2-0.3c3.7-4.1,8.4-7.3,13.7-9.1c4.6-1.7,8.8-1.9,13.3-1.9
					c4.4,0,8.8-0.2,13.2-0.3c4.4-0.1,8.9-0.4,13.2,0.1c8.9,1,17.5,3.2,26.2,5.7c12.8,3.7,26.2,5.3,39.3,8.2c4.3,1,8.7,1.7,13.1,2
					c8.7,0.5,17.6-0.7,26.5-2.7c4.6-1,9.1-2.3,13.4-3.9c4.8-1.7,8.9-4.8,13.6-9.1C410-318.6,411.4-322.9,412.5-327.4z" />
					<path class="st2" d="M404.9-379c1.9,1.6,3.5,3.4,4.7,5.5c0,0.5-0.4,0.9-0.7,1.6c-1-0.3-1.9-0.9-2.6-1.6
					c-1.9,1.2-0.1,2.7-1.5,3.9c1.3,2.4,2.4,5,3.2,7.7c0.3,0.7,1.1,1.8,0.2,2.5c0.1-0.6,0-1.3-0.3-1.9c-1.2-2.2-2.7-5.1-3.8-7.4
					c-1.1-0.1-2,1-3,0.3c-0.8-0.5-1-1.9-1.3-2.9c0.3-0.4,0.4,0.5,0.5,0.3c0.2-0.7,0.6-1.4,1.2-1.9c-6.6-7.1-13.9-10.1-20.9-13.2
					s-13.8-6.3-21-9.8c-0.7,1.4-2.4,3.1-3.8,3c-0.8-0.5-1.6-1.4-2.4-1.9c-0.1-1.2,0-2.4,0.3-3.6c-10.2-3.3-20.5-2.4-30.9-2.3
					c-0.8,2.2-4.3,3.7-6.1,2c-0.5-0.5-0.8-1.5-1.4-1.9c-0.8-0.6-3.6,0.2-4.9,0.3c-4.8,0.3-9.7,0.9-14.5,1.8
					c-6.8,1.3-13,3.6-19.5,5.6c0,0.9-0.3,1.7-0.3,2.6c-1,1-2.2,0.8-3,1.5c-0.2-0.8-1.3-1.2-1.7-2.1c-1.9,0.3-3.9,1.6-5.9,3.4
					c0.7-2.1,3.6-3.4,5.2-4c-1.7-2.4-0.8-4.6-1.3-6.9c0.1-0.5,0.3-0.9,0.5-1.3c-0.1-0.8-0.4-1.6-0.8-2.2
					c-14.9,5.1-30,16.4-45.4,29.5c0.5,1,1.7,1.9,2.1,2.9c2.6,1.2,5.9,2,7.4,5.5c3.1-2.7,6.3-5.9,9.6-8.5c3.3-2.6,6.3-5.6,9.6-6.5
					c-6.8,4.5-13,9.8-18.7,15.6c0.6,1,0.7,2.2,0.3,3.3c-2.1,1.9-3.6,2-5.5,1.3c-15.9,15.2-29.8,32.2-41.6,50.8
					c1.1,0.7,1.4,2,1.8,2.9c0.3,0.6,0.6,0.7,0.6,1.2c-0.1,1.2-1.5,1.3-2,2.2c-1.4,0.2-2.8-0.2-4.2,0c-11.9,20.8-26.8,41.4-36.6,62.4
					c1.1,1.1,3,1.6,4,2.9s0.7,2.5,0.5,3.9c-2.9,2.1-5.7,1.9-8.5,1.6c-3.2,6.3-6,12.7-8.8,19.1c-2.8,6.4-6,12.7-8.5,19.2
					c-4.5,12-8.5,24.1-13.2,36.1c-0.4,0.7-0.6,1.6-0.6,2.4c-1,1.7-1.4,3.6-2,5.4s-1.3,3.5-1.9,5.4c-1.1,3.6-1.8,7.3-2.8,10.9
					c-2.1,7.2-4.8,14.2-6.2,21.6c1.3,0.2,1.7-1.3,2.6-1.9c1.2-0.8,2.1,0.2,3.4-0.3c0.9,0.5,1.7,1,2.6,1.5c0.2-0.2,0.3-0.5,0.3-0.7
					c0.4,1.5-0.5,2.8-1.2,4.3c0.8,0.5,1.8,0.9,2.7,1.2c0.1-0.2-0.5-0.4-0.5-0.8c0.4-0.3,0.7,0.3,1-0.3s0.2-1.2,0.4-1.8
					c0.4-0.9,1.2-1.6,1.5-2.4c0.1-0.3-0.1-0.9,0.1-1.2c1.1-1.9,4.2-0.5,6.1,0.1c4.6,1.4,10.4,4.8,14.4,6.7c0.5,2.8-1,5.4-1.7,8.1
					c0.9,0.6,1.8,0.8,2.7,1.3c0.5-1.1,0.9-2.1,1.3-3.2c0.7,0,0.8-0.2,1.5-0.7c1.9,0,3.6,1.2,4.1,3.1c0.3,1.8-0.9,4.6-1.7,6.8
					c-1.9,5.8-4.1,11.5-6.6,17c-0.5,1.2-0.8,2.2-1.3,3.4s-1.5,1.8-1.2,3c-1.2-0.2-2.2,0.4-3.4,0.3c-2.3-0.2-4.6-1.9-6.9-2
					c-4.2,6-9.5,11.4-15.4,15.7c-1.2,0.9-2.9,2.2-4,2.5c-3.9,0.8-8.2,0.9-11.8-3.1c-2.5,1.4-5.1,3.1-7.7,4.7
					c0.9,2.4,1.8,6.6-2.2,7.6c-3.4,0.8-10.1-5.4-9.1-9.9c0.4-1.9,1.8-3.3,3.6-3.9c1.2-0.3,2.1,0.4,3.6,0.8c3.1-1.7,6.1-4.1,9.2-5.8
					c0-2.3-1.4-4.2-2.3-6.3c-1.3-3.4-1.8-7.2-4.5-10.5c-2.6,3.5-2.1,10.2-7.5,13.3c-0.6,0.3-1.4,0.5-2.1,0.5
					c-2.9,6.7-5.2,13.3-7.5,20.1c-1.7,5-3.7,10.1-5.6,15.1c-0.9,2.3-2.3,4.3-3.2,6.6c-0.2,0.4-0.8,1-0.4,1.4c-0.6,0.8-1,1.8-1.3,2.7
					c-0.3,1-0.8,1.9-1.5,2.8c-0.5,0.5-1.6,0.3-2.2,0.8c-0.8,0.7-0.8,2.1-1.4,2.9c-0.2,0.3,0.4,0,0.5,0c-1.2,0.8-0.8,1.7-1.9,2.7
					s-4.8,1.5-6.3,0.9c-1.5-0.5-3.4-1.1-4.6-2.8c-0.7-1.1-1-2.3-0.9-3.6c0.1-0.5,0.6-0.9,0.8-1.5c0.5-1.2,0.8-2.4,1-3.7
					c-0.1-1.1-1.2-1.6-1.2-2.8c2.2-6.7,5.1-13.1,7.3-19.8c2.2-6.7,5.1-13.1,7.1-19.8c2.4-4.3,4.2-9.9,6-15.1c1.6-4.6,3-9.6,4.5-14.3
					c1.5-4.7,3.8-9.3,5.7-14.3c0.8-2.2,1.8-4.7,2.8-7.1s1.9-5.4,3.3-7.1c0.4-0.5,1.2-0.8,1.6-1.3c0.9-1.1,1.1-3.3,1.9-4.7
					c0.6-1,1.4-1.7,2.4-2.2c-0.3-1.3-0.3-2.7,0.1-4c0.2-1,0.5-2,0.9-2.9c0.5-1.1,0.7-1.8,1.9-1.9c0.9-2.3,1.8-4.5,2.7-6.7
					s1.7-4.6,2.8-6.6s3.1-3.4,4.3-5.5c1.2-2.2,2.3-4.4,3.3-6.7c7.1-15.2,12.8-31.6,19.3-46.8c1.8-4.4,3.7-9,5.8-13.4
					s4.1-8.9,6.2-13.3c4.2-8.9,8.3-18.1,13.4-26.6c7.9-13.2,13.9-26.7,22.4-39.9c2.8-4.4,5.3-9,8.3-13.2c2.9-4.2,5.6-8.5,8.4-12.9
					c2.9-4.6,6.8-8.6,10.2-13.1c1.7-2.2,3.2-4.3,5.1-6.6s4.1-4.3,6-6.5s3.9-4.4,6-6.5c4.4-4.4,8.8-8.8,13.4-13.2
					c9.4-7.5,18.1-15,27.3-20.4s18.2-10.3,27.2-13.7c8.8-3.3,17.8-5.8,26.9-7.7c7.9-1.6,15.4-1.8,23.3-1.9c1,0,2.1-0.1,3.1-0.2
					c0.4-0.1,0,0.5,0.4,0.4c3.7-0.1,7.4,0.4,11,1.5c3.6,1.1,7.3,2,10.9,3.1c3.7,1.2,7.3,2.5,10.8,4.1c3.6,1.6,7.3,2.7,10.6,4.6
					c1.8,1,3.6,1.6,5.4,2.5s3.5,2,5.3,3.1s3.6,2,5.4,3.2s3.4,2.6,5.3,3.9c3.7,2.4,7.3,5.1,10.6,8C401.4-382.4,403.1-380.7,404.9-379
					z M108.3-104.3c-0.8-0.5-1.7-0.9-2.7-1.1c-1.4,4.8-3.8,9.5-4.8,14.2c0.4,0.8,1.1,1.4,1.9,1.8C104.9-94.3,106.4-99.3,108.3-104.3
					z M131.9-94c-0.7-0.5-1.6-0.8-2.4-0.9c-1.3,4.9-3.2,9.8-5.1,14.6c1.4,0.1,1.9-1.7,2.5-2.8C129-86.5,130.7-90.1,131.9-94z
					 M136.9-235.6c-0.4-0.9-0.1-1.8-0.6-2.6c-1.3-0.1-3.6-1.3-4.2-0.1c-1.6,3.5-3.4,6.8-4.9,10.3c-4.4,10.4-9.1,20.6-13.6,31
					c-6,13.8-10.8,28-16.3,41.5c0.4,0.9-0.1,2,0.6,2.6c-0.5,2.2-0.2,4.5-0.8,6.6c-1.3,5.2-3,10.2-5.3,15c2.5,2.4-0.7,6-3.2,8
					c-0.1,3.3-0.4,6.6-2.4,9.7c0,1.3,0.4,2.8-0.2,4.1c-0.3,0.6-0.8,0.9-1.1,1.5c-0.7,1.4-1.2,2.9-1.6,4.5c-0.6,1.6-1,3.1-1.6,4.5
					c1.1,0.6,1.3,1.9,2.3,2.6c0.2,3-1.3,5.9-2.2,8.9c2.9,2.1,5,5.1,6,8.5c0.9,2.6,1.4,6.1,4.2,5.8c1.6-1.8,2.2-4.3,3.2-6.3
					c-1.7-1.1-3.6-2.3-4.3-4.3c0.3-2.4,1.3-4.7,2.1-7.2c1.8-5.6,3.8-11.1,6.1-16.5c-0.4-0.5-1.5-0.4-2.1-1c0.7-1.1,1.2-2.4,1.4-3.7
					c0.4-1.3,0.7-2.6,1-3.9c2.1-7.8,4.2-15.4,6.2-23.2c0.6-2.6,1.4-5.2,2.3-7.7c6.9-18,12.3-36.1,20.2-53.8
					c4.5-10.1,8.8-20.5,13.8-30.6C140.3-232.4,137.9-233.6,136.9-235.6z M145.8-239.9c9.9-20.9,24.6-41.4,36.5-62.2
					c-1.6-1-4.2-1.6-5.9-4.1c-0.6-0.9-0.6-2.1-1.1-2.8c-0.7-0.5-1.4-1-2.1-1.4c-1.1-0.8-1.8-1.4-2.4-0.5
					c-6.9,11-13.4,22.3-19.6,33.6c-3,5.5-5.2,11.4-8,16.9c-2.9,5.7-5.8,11.4-8.6,16.9c1.9,2,3.4,1.7,5.5,2S143.9-241,145.8-239.9
					L145.8-239.9z M223.4-367.9c-0.5-0.9-1.8-1.3-2.1-2.4c-6.5,5.4-12.5,11.3-18,17.6c-10.7,12.5-20.2,25-29.4,37.7
					c1,0.6,2,1.3,2.9,2.1c1.8-0.9,3.6-1.5,5.2-0.6c1.6,0.9,2.9,2.8,4.7,4.4c2.9-4.1,5.8-8.4,8.8-12.6c3-4.2,5.9-8.7,9.4-12.7
					c7.2-8.3,14.7-16.6,23.5-25c-2.3-1.4-3.9-3.7-4.5-6.3C223.7-366.4,223.6-367.1,223.4-367.9z M314.7-401.8
					c-0.9-2-0.6-4.4,0.7-6.1c0.1-0.4-0.1-0.8,0.1-1.2c0.3-0.3,0.6-0.5,0.9-0.7c-0.6-1.1-0.3-2.1-0.6-3.2c-14.5,0.5-29.2,4.2-44,10
					c0.5,1,0.8,2.1,0.9,3.2c2.5,1.2,3.6,4.2,3.6,6.2c6.3-2.4,12.7-4.3,19.2-5.7C302.2-400.6,308.5-400.9,314.7-401.8L314.7-401.8z
					 M357-401.9c0.2-1,0.6-1.8,1.2-2.6c-11.9-4.7-24.5-7.6-37.3-8.6c1.4,1,0.1,3.2,0.8,4.5c0.3,0.5,0.9,0.8,1.1,1.3
					c0.3,0.9,0.4,1.8,0.4,2.8c0,1,0,2,0,2.9c10.4-0.3,20.8-0.8,31.1,2.2C354.8-400.6,355.7-402,357-401.9z M402.3-373.6
					c0.8-0.5,1.3-1.2,2.1-1.8c-7-6.6-14.5-12.7-22.5-18.1c-6.8-4.5-14.1-6.9-20.8-9.9l-0.2,0.1c-0.6,0.9-1.2,1.8-1.9,2.8
					c0.7,1.2,0.4,2.7,0.9,3.6c7.2,3.6,14.2,6.5,21.2,9.8C388.1-383.8,395.6-380.8,402.3-373.6L402.3-373.6z" />
					<path class="st2" d="M274.5-233.3c1.9,1.9,3.7,4,5.4,6.1c5.8,7.6,5.8,15.4,2.8,22.7c-1,2.6-2.4,5.1-4.2,7.2
					c-3.6,3.7-7.3,7.1-11.3,10.4c-3.1,2.6-6.6,4.8-10.4,6.5c-3.6,1.6-7,3.2-10.4,4.9c-7,3.3-14.1,6-20.8,11.7
					c-2.7,2.2-5.3,4.6-7.8,7.1c-2.3,2.6-4.1,5.6-5.4,8.8c-1.3,2.8-2.3,5.8-2.9,8.9c-1.2,7.1,0.7,15.2,8.1,21.9
					c0.3-0.5-0.1-1.8,1-2.5c0.4,0,0.7,0.4,0.7,0.8c0.5-0.3,0.7,0.2,1.2,0.5c1,0.4,1.9,1.1,2.5,2c0.1,0.7,0.3,1.4,0.4,2.1
					c5.2,2,10.5,4,15.8,3.6c-0.2-0.6,0-1.2,0.4-1.6c0.6-0.6,1.7-0.6,2.3,0.1c2.3-0.9,4.8-1.6,7.4-2.6c1.5-0.5,3.7-1.2,2.6-3
					c-0.5-0.8-2-1.9-3-1.5s-1.6,1.5-2.4,2.2c-0.1-0.3-0.3-0.5-0.3-0.8c0-0.3-0.5,0.8-0.9,0.4c0-1.9,0.9-3.8,2.5-4.9
					c0.5,0.5-0.4,0.9-0.2,1.3c0.5-0.2,0.9,0.5,0.5,0.9c1.7-0.2,3.6-0.4,4.7,1.6c0.1-0.2-0.3-0.4,0-0.6c1,1.3,0.7,2.5,0.8,3.8
					c1.5,0.8,2.4,2.4,2.4,4.1c-0.2,1.8-2.3,3.5-4.1,3.8c-0.2,0.3,0.7,0.6,0.4,0.9c-1.5,0.7-3.3-2.5-3.8-3.7c1,0.1,1.9,0.6,2.5,1.3
					c1.5-0.4,2.9-1.3,3.7-2.6c-1.7-2.3-3.5-0.6-5.3-0.1c-0.2-1,1.2-1.6,2-1.7c0.1,0,0.3,0,0.4,0c-0.1,0-0.3,0-0.4,0
					c-2.3,0.1-5.3,2.4-7.8,2.4c0,1.6-0.5,4.2-3,3.3c-0.4-0.5-0.8-0.9-1.1-1.5c-2.7,0.3-5.4,0.2-8.1-0.4c-0.3,0-0.4-0.3-0.3-0.5
					c-2.2-0.5-4.4-0.6-6.6-2.2c0.2,0,0.4-0.1,0.6,0.1c-0.2-0.4-1.1-0.5-1.6-0.6c0.1,1.5,0.6,2.9,0.4,4.4c-3.7,1.2-5.9-4.4-6.2-7.2
					c-7.9-6.4-10.7-15.3-9.5-23.1c0.7-3.2,1.7-6.3,3.1-9.2c1.3-3.3,3.1-6.4,5.4-9.1c5.7-6.1,12.7-11.5,18.6-14.5
					c3.4-1.7,7-3,10.4-4.7s6.9-3.2,10.4-4.9c5.5-2.5,10.3-6.3,15.9-11.5c1.7-1.6,3.6-3.1,5.5-5.1c2-2.2,3.5-4.8,4.4-7.6
					c3.6-8.8,1.1-17.2-8.1-26.8c-5.3-5.5-11.3-10.5-17.6-14.8c-4.5-3.1-8.8-5.8-13.2-8.9c-1.5-0.9-2.9-2-4.3-3.1
					c3.3,1.1,6,3.4,9,5.4C256.7-248,265.8-242.2,274.5-233.3z" />
					<path class="st3" d="M226.9-367.4c-0.2-0.5-0.8-0.1-0.7,0.2C226.4-367.2,226.6-367.1,226.9-367.4z" />
					<path class="st3" d="M226.9-362.9l0.8-0.8c-0.6-0.7-0.9-1.5-1-2.3c-0.4,0.1-0.7,0.7-1.1,0.7C226-364.5,226.4-363.7,226.9-362.9z
					" />
					<path class="st3" d="M232-362.6c-0.9-1.5-2.2-2.7-3.8-3.3C228.5-364.9,230.9-361.1,232-362.6z" />
					<path class="st3" d="M171.7-312c0.8,0.3,1.5,0.5,2.3,0.9C173.2-311.8,172.1-313.4,171.7-312z" />
					<path class="st3"
						d="M228.4-361.8c0-0.4,0.5-0.7-0.1-1.2c-0.2,0.2-0.4,0.5-0.7,0.5C227.8-362.2,228.1-361.9,228.4-361.8z" />
					<path class="st3"
						d="M229.6-360.6c0.1-0.2,0.7-0.4,0.6-0.7c-0.3,0-0.6-0.5-1-0.5C229-361.3,229.2-360.8,229.6-360.6z" />
					<path class="st3"
						d="M232.8-360.5c-0.6,0-1.3,0-1.9-0.3l-0.6,0.5C231.1-359.8,232.3-359.4,232.8-360.5z" />
					<path class="st3"
						d="M233-361.6c-0.2-0.2-0.4-0.5-0.6-0.5l-0.2,0.2C232.1-361.6,232.7-361.6,233-361.6z" />
					<path class="st3" d="M273.1-392.4c-0.1-1.2-1.4-3.8,0.6-4.6C271-398.6,271.6-393.3,273.1-392.4z" />
					<path class="st3"
						d="M179.7-308.1c0.9,1.8,2.8,2.8,4.8,2.6c0.4-0.6,0.7-1.2,1.1-1.8C183.7-309,181.8-310.1,179.7-308.1z" />
					<path class="st3" d="M274.2-391.4c-0.2-0.2-0.4-0.5-0.6-0.4C273.8-391.5,274-391.2,274.2-391.4z" />
					<path class="st3"
						d="M185.7-305.4c0.5-0.1,0.9-0.5,1.1-0.9l-0.4-0.4C186.2-306.3,185.8-305.9,185.7-305.4z" />
					<path class="st3" d="M188-303.6c0.3-0.1,0.5-0.7,0.1-0.6C188.4-304,187.6-303.9,188-303.6z" />
					<path class="st3" d="M133.7-248.9c1.1-0.9,2-2.2,2.4-3.6C134.9-251.6,134-250.3,133.7-248.9z" />
					<path class="st3" d="M132.2-245.3c0.8-0.6,1.3-1.4,1.5-2.3C132.9-247.1,132.4-246.2,132.2-245.3z" />
					<path class="st3"
						d="M319.5-410.4c-0.5-1-0.1-1.8-0.7-2.8c-0.1,0.1-0.2,0-0.3,0.1C319.2-412.2,318.1-410,319.5-410.4z" />
					<path class="st3" d="M317.5-407.6c0.5-0.1,1.3,0.5,1.5,0C318.8-407.9,317.6-408.5,317.5-407.6z" />
					<path class="st3"
						d="M316.6-406.3c0.2,0.2,0.6,0.3,0.9,0.1c-0.2-0.2,0-0.4-0.3-0.7C316.9-406.8,316.7-406.6,316.6-406.3z" />
					<path class="st3"
						d="M316-403.8c0.5-0.5,0.9,0.1,1.3-0.1c0.1-0.4,0.1-0.8,0-1.2C316.3-405.6,315.8-404.8,316-403.8z" />
					<path class="st3"
						d="M317.6-401.6c-0.2-0.6,0-1.1-0.3-1.7c-0.4,0.3-0.7,0-1.1,0.3C316.3-402.5,316.9-401.7,317.6-401.6z" />
					<path class="st3" d="M319-402.4c0.3,0.5,1.2,1.3,1.6,0.8c0-0.8-0.1-1.6-0.3-2.4c0-0.8-0.2-1.6-0.4-2.4
					C318.7-405.7,318.3-403.4,319-402.4z" />
					<path class="st3"
						d="M143.8-235.8c0.6-0.4,0.3-1.3,1-1.8c-1.6-0.7-3.3-0.9-4.9-0.6C141.2-237.4,142.7-235.1,143.8-235.8z" />
					<path class="st3" d="M140.4-236.3c-0.3-0.3-1-0.9-1-0.8C139.7-236.8,140-236.1,140.4-236.3z" />
					<path class="st3" d="M142.6-233c-0.5-0.3-0.9-0.8-1.4-0.6C141.7-233.5,142.1-232.8,142.6-233z" />
					<path class="st3"
						d="M145-235.7c1.1,0.3,2.3,0.1,3.3-0.4c-0.8-0.6-1.6-0.9-2.3-1.4C145.5-236.9,145.4-236.3,145-235.7z" />
					<path class="st3"
						d="M148.7-234.7c-0.1-0.1-0.1-0.2-0.1-0.3c-0.5,0.1-0.9,0.3-1.4,0.5C147.7-234.2,148.3-234.3,148.7-234.7z" />
					<path class="st3" d="M109.2-194.6c0.6-0.9,1-1.8,1.3-2.9C109.9-196.6,109.4-195.6,109.2-194.6z" />
					<path class="st3" d="M107.8-191.3c0.5-0.4,0.8-0.9,0.8-1.5C108.2-192.4,107.9-191.8,107.8-191.3z" />
					<path class="st3"
						d="M102.3-178.1c0.4-0.4,0.5-0.9,1-1.4c0.1-0.7,1.1-2.1,0.7-2.2C103.2-180.6,102.7-179.4,102.3-178.1z" />
					<path class="st3"
						d="M102.2-176.3c-0.1-0.1,0-0.3-0.2-0.1c-0.3,0.9-1.2,1.8-1.3,2.8C101.2-174.4,101.8-175.3,102.2-176.3z" />
					<path class="st3" d="M98.2-164.8c-0.1-0.1,0-0.3-0.2-0.1c-1,1.9-1.9,3.8-2.6,5.8c-0.2,0.5-1.2,1.5-0.2,1.7
					C96.1-159.6,97.2-162.4,98.2-164.8z" />
					<path class="st3"
						d="M95.9-155.1c-0.6-1.1-2.5-1.3-3.6-1.5l-0.6,0.5C93.1-155.4,94.8-154.8,95.9-155.1z" />
					<path class="st3" d="M86.4-148.6c0.4,2.1-2.6,4.5,0.3,6.5c2.9-0.6,4.3-4.4,4.6-6.1c0.3,1.6-0.1,3.3-1.2,4.6
					c0.2,0.8,0,1.6,0.2,2.5c1.7-1.5,1.6-3,1.9-5c0.3-2.3,0.5-4.2-0.8-6.2c-0.2-0.4,0-0.7-0.1-1c-0.5,0-0.9-0.6-1.4-0.6
					C89.1-152.2,87.5-150.4,86.4-148.6z" />
					<path class="st3"
						d="M355.1-395.4c0.2,0,0.4,0.2,0.5,0.3c0.1-0.9,0-1.7,0.1-2.6C355.3-397,355.1-396.2,355.1-395.4z" />
					<path class="st3"
						d="M357.9-397.8c0.2-0.2,0.1-0.5,0-0.7l-0.4,0.4C357.7-397.8,357.8-398,357.9-397.8z" />
					<path class="st3" d="M357.1-395.4c0.4-0.3,0.8-0.7,1-1.2C356.9-397.8,356.7-396.2,357.1-395.4z" />
					<path class="st3" d="M94.7-149.6c0.5-1.1-0.9-3.4-2-3.1C92.8-151.6,93.9-150.8,94.7-149.6z" />
					<path class="st3"
						d="M95.3-151.7c-0.1-0.2,0.1-0.4,0.1-0.6c-0.2-0.2-0.5-0.1-0.7-0.1C94.8-152.2,95-151.6,95.3-151.7z" />
					<path class="st3" d="M94-148.4c-0.1,0.4-0.1,0.8-0.1,1.1c0.3-0.5,0.5-1,0.6-1.6c-0.5-0.4-0.5-1.1-1.1-1.2
					C93.8-149.4,93.2-148.5,94-148.4z" />
					<path class="st3"
						d="M85.7-138.7c1.2,0.2,0.7-1.6,0.7-2.5c-0.2,0.2-0.5-0.5-0.7-0.1C85.8-140.4,85.4-139.5,85.7-138.7z" />
					<path class="st3" d="M78.7-134.4c-0.9,1.5-2.2,2.9-1.3,4.5c0.7-0.5,2.2-0.6,2.4-1.2c-0.7-0.5-1.8,0.9-2.2,0.3
					c0.6-0.3,1.2-0.6,1.9-0.8c-0.1-0.4-0.5-0.8-0.3-1.2c2.9,2.2,6.3,3.6,9.9,4.2c0.7,0.2,1.5-0.1,2-0.6
					C86.6-130.4,82.5-132.1,78.7-134.4z" />
					<path class="st3" d="M81.4-135.4c0.5,0.2,1.4-1.1,0.8-1.2C82.3-136.1,81.1-135.8,81.4-135.4z" />
					<path class="st3"
						d="M87-138.9c0.4-0.2,0.7-0.4,1.1-0.7c0.1-0.7,0.1-1.4,0.1-2.1C86.7-141.3,87.1-140,87-138.9z" />
					<path class="st3"
						d="M88.7-140c0.2-0.3,0.4-0.3,0.7-0.5c0.2-0.8-0.1-1.6,0.1-2.4C88.1-142,88.9-141,88.7-140z" />
					<path class="st3"
						d="M94.7-145.9c0.2-0.3,0,0.5,0.3,0.2c0-0.6,0.4-1.3,0.4-1.9C95.1-147.1,94.8-146.5,94.7-145.9z" />
					<path class="st3" d="M82.4-134.9c0.1-0.1,0.2,0.1,0.3,0.2c0.4-0.2,0.2-0.5,0.6-0.7c-0.1-0.1-0.2-0.3-0.2-0.4
					C82.7-135.8,82.4-135.2,82.4-134.9z" />
					<path class="st3"
						d="M77.8-128.8c0.9-0.6,1.9-0.9,2.8-1.5c-1-0.6-2.2,0.4-3.2,0.7C77.8-129.3,77.5-129,77.8-128.8z" />
					<path class="st3"
						d="M83.5-134.3c0.3,0.1,1.1,0.4,1-0.4c-0.2,0-0.5-0.2-0.6-0.4C83.7-134.8,83.1-134.4,83.5-134.3z" />
					<path class="st3" d="M93.7-141.2c0-0.8,0-1.6-0.1-2.4C93.2-142.8,93.3-142,93.7-141.2z" />
					<path class="st3"
						d="M87.5-136.9c0.3-0.4,1.1-0.8,1.2-1.2c-0.5,0.3-0.9,0.3-1.4,0.6C87.5-137.3,87.4-137.1,87.5-136.9z" />
					<path class="st3"
						d="M78.2-128.1c1.2-0.4,2.4-1,3.5-1.7c-1.2,0.1-2.5,1-3.8,1.3C78-128.3,78.1-128.2,78.2-128.1z" />
					<path class="st3"
						d="M76.4-125.6c0.3-0.1,0.6,0,0.9-0.4c-0.2-0.2,0-0.3-0.3-0.5C76.5-126.4,76.5-125.9,76.4-125.6z" />
					<path class="st3" d="M85.4-133.5c0.2-0.2,0.3-0.3,0.5-0.5c-0.2-0.3-0.4-0.2-0.6-0.4c-0.2,0.2-0.3,0.3-0.5,0.5
					C85-133.5,85.2-133.7,85.4-133.5z" />
					<path class="st3" d="M91.1-135.4c0.4-1.2-0.1-2.5,0-3.8C90.5-137.9,91.2-136.6,91.1-135.4z" />
					<path class="st3"
						d="M79.6-127.1c1.3-0.5,2.6-1.2,3.8-2c-1.5-0.3-3.1,1.2-4.6,1.4C79-127.4,79.3-127.2,79.6-127.1z" />
					<path class="st3" d="M75.6-124.3c-0.3,1.1-1.1,2.2-0.9,3.3c0.4,0.8,1.6,0.8,1.4,1.6c0.5-0.1,0.8,0.1,1.1,0.7
					c2.4,0.9,4.7,2.3,7.2,1.3c0.6-1.5,0.9-3.2,0.7-4.9C81.9-121.4,78.4-122.2,75.6-124.3z M78.3-120.8
					C78.3-120.9,78.3-120.9,78.3-120.8c0.4-0.2,0.8-0.1,1,0.2C79.2-119.9,78.1-120.2,78.3-120.8z M81-118.8L81-118.8
					c-0.5-0.1-0.9-0.5-0.8-1s0.5-0.9,1-0.8C82-119.9,81.6-119.2,81-118.8L81-118.8z M82.6-119c-0.8-0.6-0.1-1.8,0.6-0.9c0,0,0,0,0,0
					C83.2-119.5,83-119.1,82.6-119L82.6-119z" />
					<path class="st3"
						d="M86.5-133.1c0.3,0.1,0.7-0.1,0.8-0.5c-0.4-0.2-0.8,0-1,0.4C86.3-133.2,86.4-133.1,86.5-133.1z" />
					<path class="st3" d="M84.7-128.4c-1.2,0.2-2.4,0.6-3.4,1.4C82.4-127.6,83.6-128,84.7-128.4z" />
					<path class="st3"
						d="M87.6-132.7c0.8,0.5,1.8,0.7,2.8,0.6c0.2-0.7,0.9-1.4,0.7-2.2C89.9-133.3,88.6-134.2,87.6-132.7z" />
					<path class="st3" d="M70.8-114.4c0.3,0.5,0.6,1.1,0.9,1.7c0.5-0.6-0.5-1.4-0.5-2c0,0,0.4-0.2-0.1-0.2
					C71.1-114.8,70.9-114.6,70.8-114.4z" />
					<path class="st3" d="M84.2-111.6c-1.2-1.4-3-0.8-4.6-1.3c-2.3-0.8-4.4-1.9-6.4-3.3c-0.4,0-0.7,0.4-1,0.1
					C76.2-112.9,80.1-110.6,84.2-111.6z" />
					<path class="st3"
						d="M75-117.5c0.3-0.2,0.6-0.3,0.9-0.5c-0.3-0.4-0.7,0-1,0.2C75-117.7,75-117.6,75-117.5z" />
					<path class="st3" d="M68.5-109.2c0.4,0.4,0.8,1,1.1,1.1c0.7-0.8,0.4-1.6,0.8-2.4c-0.3-0.2-0.7-1-1.1-1
					C69.1-110.7,68.8-110,68.5-109.2z" />
					<path class="st3" d="M77-117.5c-0.5,0-1,0.2-1.4,0.5C76-116.6,76.9-117.3,77-117.5z" />
					<path class="st3"
						d="M75.4-109.9c0.2-0.2,0.4-0.6,0.7-0.6c-1-0.7-2.1-1.2-3.3-1.5C73.4-111.1,74.2-110,75.4-109.9z" />
					<path class="st3" d="M60.8-88.5c0.3,1.1,0.4,2.2,0.6,3.4c2.8-7,5-14,7.8-21c-0.5-0.1-0.9-1.2-1.3-1
					C65.5-100.9,63.3-94.7,60.8-88.5z" />
					<path class="st3" d="M79.1-116.5c-0.4,0.4-1.2,0.3-1.4,0.8C78.1-115.8,78.9-116.1,79.1-116.5z" />
					<path class="st3" d="M80.2-116.1c-0.6-0.1-1.2,0.4-1.8,0.5C79-114.9,79.9-115.4,80.2-116.1z" />
					<path class="st3" d="M70-104.9c-4.1,11-7.8,22-12.8,32.9c-1,0.9-0.9,1.8-1.7,2.7c0.4,0.6,1,1.1,1.6,1.5
					c4.3-9.2,7.3-18.9,11.3-27.8c-2.5,9.5-6.7,18.9-10.5,28.3c0.5,0.2,1.1,0.5,1.6,0.8c2.8-6.1,5.5-12.2,7.9-18.3s4-12.4,6.1-18.4
					C72.3-103.8,71.2-104.6,70-104.9L70-104.9z" />
					<path class="st3" d="M76.9-109.7c0.2,0.2,0.4,0.1,0.6,0.1c0,0,0-0.1,0-0.1c-0.1-0.2-0.3-0.3-0.5-0.3
					C77-109.9,77-109.8,76.9-109.7z" />
					<path class="st3" d="M77.4-105.8c0.2,0.1,0.5,0.2,0.7,0.1c0-0.4-0.1-0.9-0.3-1.3c-0.3,0.1-0.5-0.3-0.8,0
					C77.2-106.6,77.2-106.2,77.4-105.8z" />
					<path class="st3"
						d="M79.3-105.4c-0.1-0.5-0.2-0.9-0.3-1.4c-0.1,0.1-0.2,0-0.3,0.1C78.9-106.2,78.5-105.1,79.3-105.4z" />
					<path class="st3"
						d="M80.1-105.2c0.7,0,0.7-0.8,1.1-1.3c-0.5-0.4-1.1-0.4-1.6-0.1C79.8-106.2,79.8-105.7,80.1-105.2z" />
					<path class="st3" d="M75.9-94.8c1.1-2.2,0.1-5-0.2-7C74.8-99.5,75.8-97.1,75.9-94.8z" />
					<path class="st3"
						d="M77.1-97.8c0.8-1.4,0.2-3,0-4.5c-0.2-0.1-0.5-0.2-0.7-0.1C76.8-100.9,76.8-99.4,77.1-97.8z" />
					<path class="st3" d="M78.2-100.4c0.4-0.6,0.2-1.3-0.3-1.7C78.1-101.5,78.1-100.9,78.2-100.4z" />
					<path class="st3"
						d="M58.6-77.6c0.3-0.7,0.6-1.4,0.8-2.1c-0.5-1,0-2.9-0.7-3.4C57.6-81.4,58.3-79.5,58.6-77.6z" />
					<path class="st3"
						d="M72.4-87.5c0.7-1.2,0.1-2.5-0.1-3.8c0.1-0.1,0-0.2-0.2,0C71.7-90.1,72.2-88.8,72.4-87.5z" />
					<path class="st3" d="M55.3-69.9c-0.9-0.4-0.6-1.4-0.8-2.1c-0.3,0.3-0.2,0.6-0.4,0.9c0.4,0.6,0.8,1.1,1.3,1.6
					c1.1-2,1.4-4.2,0.9-6.4c-0.1-0.1,0-0.3-0.2-0.1C54.5-74,55.7-71.9,55.3-69.9z" />
					<path class="st3" d="M71.6-85.7c0.1-1,0-2-0.3-3C71-87.7,71.1-86.6,71.6-85.7z" />
					<path class="st3" d="M80.3-90.1c0.7-2,2.1-5.1,0.9-7c-1.8,4.2-3.4,9.2-5.1,13.7c0.7-0.1,1.4-0.4,2.1-0.7
					C78.8-85.9,79.6-87.9,80.3-90.1z" />
					<path class="st3"
						d="M69.4-80.6c0.1-0.4,0.2-0.8,0.4-1.1c-0.3-0.7,0-2.2-0.5-2.3C68.8-83,68.8-81.7,69.4-80.6z" />
					<path class="st3" d="M52.9-67.4c-0.1,0-0.2,0-0.2,0.1c0,0.4-0.5,0.8-0.2,1.3c1.6,1.3,3.3,2.6,4.8,2.8c0.8,0.8,1.8,1.4,2.9,1.6
					C58-63.2,54.9-64.4,52.9-67.4z" />
					<path class="st3" d="M54.8-67.9c0.4-0.1-0.2-0.7-0.4-0.6C54.4-68.3,54.6-68.1,54.8-67.9z" />
					<path class="st3"
						d="M65.6-69.7c0.5-1.9-0.3-3.8-0.1-5.6c-0.1-0.1-0.2-0.2-0.3,0C64.2-73.6,65.3-71.3,65.6-69.7z" />
					<path class="st3" d="M97.6-91.8c0.6-0.4,1.2-0.7,1.9-1c1.5-5.1,3.3-10.1,5.3-15c0.3-0.2-0.5-0.4-0.2-0.6
					c0.9-0.1,0.8-1.4,1.1-2.1c-0.4-0.2-0.8-0.6-1.3-0.4C101.8-104.5,99.8-98.1,97.6-91.8z" />
					<path class="st3" d="M52.9-60.4c0,0.8-0.4,1.9,0.5,2.5c-0.4-1.7,0-3.4-0.2-5.1c-0.1,0.1-0.2-0.1-0.3,0
					C52.9-62.2,52.9-61.2,52.9-60.4z" />
					<path class="st3" d="M50.8-58.2l-0.3,0.3c0.6,0.9,1.5,2.5,2.5,2.3c0.7,0.8,2.4,1.7,3.1,1.5c-0.1-0.6-1-0.7-1.6-1.1
					c-1.8-1.3-3.3-2.8-4.4-4.7c-0.1,0.1-0.2,0.1-0.2,0.2C50-59.1,50.1-58.4,50.8-58.2z" />
					<path class="st3"
						d="M63.2-71.1c0.1,2.1,0.4,4.2,1,6.3c-0.3-2.3-0.6-4.5-0.9-6.8C62.9-71.5,63.2-71.3,63.2-71.1z" />
					<path class="st3" d="M75.8-82.5c0.6-0.4,2-0.2,2.1-1C77.2-83,75.7-83.6,75.8-82.5z" />
					<path class="st3" d="M62-69.6c0.4,1.5-0.1,3.2,0.8,4.5c0-1.6-0.2-3.2-0.4-4.8c0.1-0.1,0-0.2-0.2,0C62.3-69.8,62.2-69.7,62-69.6z
					" />
					<path class="st3" d="M54.1-62.2c0.1,1.7-0.2,3.3,0,5c0.1-0.1,0.3,0.1,0.4,0.3c0.1-1.8,0-3.5-0.2-5.3
					C54.2-62.3,54.1-62.3,54.1-62.2z" />
					<path class="st3" d="M75-80.7c0.7-0.6,2.4-0.4,2.4-1.6C76.6-81.8,75-82.1,75-80.7z" />
					<path class="st3" d="M61.5-65.7c-0.3-0.5,0.1-1.9-0.3-1.9C61.1-67,60.8-65.8,61.5-65.7z" />
					<path class="st3" d="M80.8-84.6c2,2.2,2.3,4.6,4.3,6.6c0.1,0.3-0.2,0.5,0,0.8c0.4,0.6,0.9,0.5,1.3,0.6c-0.8-3.6-2.6-6.9-5-9.6
					C81.1-85.7,80.9-85.2,80.8-84.6z" />
					<path class="st3" d="M55.5-56.3c0.3-0.7,0-1.6,0-2.5c0.1-0.9,0.1-1.8,0-2.8c-0.1,0.1-0.2-0.1-0.3,0
					C55.4-59.9,54.8-58.1,55.5-56.3z" />
					<path class="st3" d="M73.7-77c0.8-0.6,1.9-0.3,2.5-1.3C75.4-78.2,73.6-78,73.7-77z" />
					<path class="st3"
						d="M80.2-83.1c-0.1,0.7-0.4,1.4-0.6,2c1.2,1.7,2.4,2.5,3.7,2.3C82.2-80.2,81.5-82.3,80.2-83.1z" />
					<path class="st3"
						d="M56.5-55.8c0.2-1.7,0.1-3.4,0.2-5.1c-0.1-0.1-0.3-0.2-0.4-0.1C56.5-59.3,56-57.6,56.5-55.8z" />
					<path class="st3" d="M40.1-25.4c0.9,0,0.3,1.3,1.5,1.4c3.1-9.9,7.3-19.8,10-29.8c-0.6,0-1.1-1.3-1.7-1.2
					C47.4-45.1,42.7-35.4,40.1-25.4z" />
					<path class="st3" d="M73-75.4c0.7-0.6,2.2-0.5,2.4-1.4C74.7-76.4,73-76.6,73-75.4z" />
					<path class="st3" d="M47.4-50.9c0-0.3,0.1-0.5,0-0.8C47.2-51.6,47-50.9,47.4-50.9z" />
					<path class="st3" d="M117.6-110.3c-1-0.4-3.8-2.2-4.6-1.7c-0.5,0.3-0.6,1.2-0.6,1.8c6.3,2.1,12.4,4.5,18.4,7.3
					c0.4-0.5,0.5-1.2,0.5-1.8C127.2-106.4,122-108.4,117.6-110.3z" />
					<path class="st3" d="M72.4-73.8c0.8-0.6,2-0.4,2.6-1.4C74.1-75.1,72.5-74.8,72.4-73.8z" />
					<path class="st3" d="M80.1-78.4c-0.3-0.3-0.7-1.4-1.2-1.2C78.8-79,79.7-78.6,80.1-78.4z" />
					<path class="st3" d="M46.5-48.1c0-0.6,0.5-1.1,0.1-1.7C46.4-49.4,46-48.4,46.5-48.1z" />
					<path class="st3" d="M58.2-60.1c-0.1,0.8,0,1.8,0,2.6s-0.5,1.9,0.2,2.5c0.2-0.8,0.3-1.7,0.2-2.5c0-0.9,0.2-2-0.2-2.6
					C58.3-60.2,58.3-60.2,58.2-60.1z" />
					<path class="st3"
						d="M71.9-72.8c-0.6,2.3-1.7,4.6-2.2,6.9c3.2-2,3.7-5.5,4.5-8.2C73.5-73.6,72.7-73.1,71.9-72.8z" />
					<path class="st3" d="M45.7-46c0.4-0.5,0.2-1,0.1-1.5C45.4-47.1,45.4-46.4,45.7-46z" />
					<path class="st3"
						d="M59.6-54.7c0.1-1.6,0.1-3.2,0-4.8c-0.1-0.1-0.2-0.1-0.3,0C59.6-58,58.8-56,59.6-54.7z" />
					<path class="st3" d="M52.4-53.1c-3,9.8-6.7,19.5-10.4,29.2c0.5,0.3,1.1,0,1.6-0.2c1.5-4.9,4-9.8,6-14.7c0.8-0.5,0.8-1.2,1.1-2.1
					c0.5-1.3,0.7-2.1,1.1-3.2c0.9-2.7,1.5-5.6,2.4-8.1C53.6-52.4,53-53,52.4-53.1z" />
					<path class="st3"
						d="M60.5-54.6c-0.1-1.2,0.3-3.3,0.1-4.3c0-0.2,0-0.3-0.3-0.2C60.6-57.6,60.1-56.1,60.5-54.6z" />
					<path class="st3"
						d="M82.2-77.2c0.7,0.1,1.4,0.1,2.1,0.1c-0.4-1.4-1.8-1.1-2.8-1.3C81.7-78,82-77.6,82.2-77.2z" />
					<path class="st3" d="M404.1-373c0.3-0.3,1.4-1.2,1.2-1.7C404.8-374.7,404-373.5,404.1-373z" />
					<path class="st3" d="M61.4-56.2c0.1-0.9,0.1-1.7,0-2.6C61.2-58,61.2-57.1,61.4-56.2z" />
					<path class="st3" d="M43.6-40.6c0.3-0.4,0.6-1.6,0.1-1.5C43.6-41.6,43.3-41.2,43.6-40.6z" />
					<path class="st3"
						d="M401.8-370c0.5,0.2,1,0.5,1.6-0.1c-0.2-0.5-0.7-1-0.9-1.5C401.9-371.1,401.5-370.6,401.8-370z" />
					<path class="st3" d="M125.8-96.1c-5.4-2.4-11-4.3-16.7-5.9c-0.4,0.2-0.2,0.5-0.4,0.7c1.9,1,4.1,1.3,6.3,1.9
					c3.9,1,7.6,2.3,11.3,3.9c0.4,0.2,1,0.8,1.5,0.5C127.5-95.7,126.5-95.8,125.8-96.1z" />
					<path class="st3" d="M97.9-91.4c-1.7,1.2-2,3.6-0.8,5.3c4.4,3.6,9.7,5.4,14.3,7.1c2.4,0.9,4.8,1.9,6.9,2.5
					c1.4,0.4,5.4,1.5,6.7,1s2.1-2.4,2.7-3.6c0.7-1.1,1.2-2.2,1.5-3.4c-1.8,1.8-1.8,5.7-4.8,6.4c-0.6,0-1.2-0.1-1.8-0.2
					c-0.6,0-1.3,0-1.9-0.1c-1.3-0.3-2.5-0.8-3.7-1.5c-2.7-1.1-6-1.5-9.1-2.9c-3.3-1.4-6.3-3.4-8.9-5.9c-0.3-1.8-0.3-3.7,0-5.5
					C98.7-91.8,98.3-91.6,97.9-91.4z" />
					<path class="st3" d="M83.6-74.9c0.9,0.3,3.4,0.1,3.4,1.5c-0.7-0.9-2.1-0.7-3.1-1c0.3,0.6,0.6,1.2,0.8,1.8
					c0.6,0.2,1.2,0.3,1.7,0.3c-0.2-0.2-0.3-0.5,0-0.7c0.7,0,1.1,1.1,1.1,1.5c-0.9,0-1.7-0.6-2.6-0.6c0.4,0.6,0.4,1.1,0.7,1.7
					c0.6,0.1,1.9,0.4,2,0c-0.7-0.6-1.5-0.2-2.2-0.8c1.3-0.2,2.7,0,3.9,0.5c0,0.2-0.3,0.3,0,0.5c0.9,0.2,1.5,0.6,2.3,0.7
					c4,0.3,5.6-5.2,7.3-8c-0.8-0.5-1.6-0.9-2.5-1.3c-0.7,2.2-1.2,8.1-4.9,7.8c-2.1-0.1-4.3-2.5-4.8-4.9c-0.3,0.3-0.5,0-0.8,0.1
					c0.3,0.5,0.9,0.9,0.6,1.3c-1.2-1.5-2.5-2.2-3.8-2.1C83-76.1,83.3-75.5,83.6-74.9z" />
					<path class="st3" d="M107.7-98.2c1.3,0.8,2.7,1.5,4.1,2c0.4-0.3,1.2,0.5,1.4-0.1c-1.5-0.9-3.7-1.4-5.4-2.4
					C107.9-98.5,107.7-98.4,107.7-98.2z" />
					<path class="st3" d="M41.9-35.6c0.4-0.6,0.8-2.1,0.1-2.3C41.5-37.2,41.5-36.3,41.9-35.6z" />
					<path class="st3"
						d="M107.4-97.6c0.1,0.2,0,0.3-0.2,0.5c0.8,0.5,1.8,1,2.6,1.4s1.9,1,2.5,0.6C111-95.8,109-96.7,107.4-97.6z" />
					<path class="st3"
						d="M57.5-47.5c-0.1-1.1,0.1-2.3-0.3-3.4c-0.1,0-0.2,0-0.2,0.1C56.9-49.7,57.1-48.6,57.5-47.5z" />
					<path class="st3" d="M106.8-95.6c1.6,0.9,3.2,1.6,4.9,2.2c0-0.3,0.1-0.5,0.3-0.7c-1.7-0.7-3.3-1.5-4.8-2.5
					C106.9-96.3,107-95.9,106.8-95.6z" />
					<path class="st3"
						d="M58.3-48.6c0.3-0.6,0.6-1.2,0.6-1.9c-0.3,0-0.5-0.2-0.8,0C58.3-49.9,58.2-49.3,58.3-48.6z" />
					<path class="st3" d="M106.5-95c0,0.2,0,0.4-0.2,0.5c1.4,1.1,3.1,1.9,4.8,2.4c0-0.2,0.2-0.4,0.2-0.6
					C109.7-93.1,108.1-94.4,106.5-95z" />
					<path class="st3"
						d="M39.7-32.5c0.4,0.5,0.4,1.3,0.9,1.5c0.3-0.7,0.1-2.3-0.5-2.5C40-33.1,39.7-32.8,39.7-32.5z" />
					<path class="st3" d="M106-93.2c1.5,1,3,1.9,4.7,2.7c0.3-0.2,0.1-0.5,0.3-0.7c-1.6-0.7-3.2-1.8-4.8-2.4
					C106.1-93.5,106-93.4,106-93.2z" />
					<path class="st3" d="M101.6-86.6c-0.2-0.6-0.6-1.2-1.2-1.2C100.6-87.2,101-86.8,101.6-86.6z" />
					<path class="st3" d="M105.6-92.1c0.8,0.5,1.6,1,2.4,1.4c0.8,0.4,1.7,1,2.5,0.8c-1.7-0.7-3.3-1.6-4.8-2.6
					C105.8-92.4,105.6-92.3,105.6-92.1z" />
					<path class="st3"
						d="M38.9-30.7c0.4,0.5,0.5,1.5,1,1.8c0.1-0.9-0.1-1.7-0.5-2.5C39-31.2,39.2-31,38.9-30.7z" />
					<path class="st3"
						d="M55.4-41.3c0.2-0.8,0.3-1.6,0.2-2.4c0-0.7-0.1-2-0.4-2.1C54.6-44.4,55.3-42.8,55.4-41.3z" />
					<path class="st3" d="M59.2-47.1c-3.4,8.3-6.5,16.5-9.8,24.7c-0.1,0.2,0.6,0.1,0.5,0.5c-0.5,0.4-1.2,0.5-1.2,1.2
					c1.5-0.5,2.1-2.3,2.7-4.1c1.5-3.8,2.9-7.6,4.2-11c1.9-5.1,3.6-10,5.2-14.7C59.7-49.7,59.6-48.3,59.2-47.1z" />
					<path class="st3"
						d="M105.1-90.9c1.6,1,3.3,2.1,5,2.1c-1.6-0.9-3.2-1.7-4.9-2.5C105.3-91.2,105.1-91.1,105.1-90.9z" />
					<path class="st3"
						d="M38.1-28.6c0.4,0.5,0.6,1.5,1.3,1.8c-0.2-0.9-0.3-2.1-0.9-2.8C38.5-29.2,38.3-28.9,38.1-28.6z" />
					<path class="st3"
						d="M54.1-37.9c1-1.7,0.3-3.4,0.3-5.1c-0.1-0.1,0-0.3-0.2-0.1C53.3-41.4,54-39.6,54.1-37.9z" />
					<path class="st3" d="M104-88.4c1.6,0.9,3.1,1.5,4.7,2.4c0.3-0.3,0-0.5,0.4-0.8c-1.6-0.8-3.2-1.5-4.9-2.2
					C104.4-88.8,103.9-88.6,104-88.4z" />
					<path class="st3" d="M103.7-85.1c-0.4-0.6-0.8-1.5-1.5-1.5C102.5-86.1,103.1-85.2,103.7-85.1z" />
					<path class="st3"
						d="M86.3-68.5c1.4,0,2.8-0.2,4.2-0.2c-1.5-0.9-3.1-0.8-4.7-1.2C85.9-69.4,86.1-68.9,86.3-68.5z" />
					<path class="st3"
						d="M113.4-94.4c0.8,0.1,1.6,0.9,2.4,0.7c-0.8-0.5-1.6-0.9-2.4-1.2C113.5-94.8,113.2-94.6,113.4-94.4z" />
					<path class="st3" d="M105.9-83.8c-0.5-0.8-0.7-1.9-1.7-1.9C104.5-84.9,105-83.9,105.9-83.8z" />
					<path class="st3"
						d="M113-93.5c0.9,0.1,1.8,1.2,2.7,1c-0.7-0.6-1.5-1.1-2.4-1.5C113.4-93.9,112.7-93.8,113-93.5z" />
					<path class="st3"
						d="M38.3-18.8c-0.2-0.4,0-0.8-0.3-1.2c-1,0-2.2-1.6-2.7-2.4C35.8-21,37-19.2,38.3-18.8z" />
					<path class="st3"
						d="M112.5-92.5c0.9,0.6,2,1,3,1.3c-0.9-0.7-1.8-1.2-2.8-1.6C112.7-92.7,112.6-92.6,112.5-92.5z" />
					<path class="st3" d="M49.9-27.1c0.2-2.1,0.1-4.3-0.3-6.4C48.9-31.4,50-29.2,49.9-27.1z" />
					<path class="st3" d="M74.7-53.4c-0.2-0.8-2.1-1.1-2.6-0.1C72.9-53.7,73.8-53.6,74.7-53.4z" />
					<path class="st3" d="M108.3-82.4c-0.7-0.9-1-2.5-2.1-2.2C106.7-83.8,107.2-82.5,108.3-82.4z" />
					<path class="st3" d="M111.1-88.8C111.1-88.8,111.1-88.8,111.1-88.8c-0.2,0-0.3,0.1-0.3,0.3c1,0.4,2.7,1.5,3.9,1.4
					C113.5-87.9,112.3-88,111.1-88.8z" />
					<path class="st3" d="M71.1-52c0.3,2.2,1.2,4.3,2.8,5.9c0.8,0.8,1.9,0.9,2.8,1.5c0.8-0.4,1.3-1.1,1.4-2c-0.7-0.3-1.4-0.9-2.2-0.1
					c-1.5-0.2-4.1-3.1-2.4-4.1c0.6-0.3,1.1,0.2,1.8,0.7c0.4-0.3,1.5,0.2,1.4-0.2C75.1-51.9,72.9-52.9,71.1-52z" />
					<path class="st3" d="M109.3-85.7c0.4-0.1,0.8,0.5,1.3,0.4c-0.1-0.4,0.3-0.7,0-1c-0.4-0.1-0.8-0.5-1.3-0.4
					C109.5-86.3,109.1-86,109.3-85.7z" />
					<path class="st3" d="M117.4-92.9c-0.2-0.2-0.5-0.3-0.8-0.4C116.7-93,117.2-92.8,117.4-92.9z" />
					<path class="st3" d="M71.1-48.1c-0.1-0.7-0.4-1.4-0.9-2C70.2-49.3,70.5-48.6,71.1-48.1z" />
					<path class="st3" d="M48.2-22.8c0.7-1.8-0.3-4.4-0.4-6.5C47.1-27.2,48-25,48.2-22.8z" />
					<path class="st3" d="M118.7-93.1c0.1,0,0.1,0,0.2,0s0.1,0.1,0.2,0c0-0.5,0.5-1,0.5-1.5c-0.2,0.1-0.4-0.3-0.6,0
					C119-94.1,119-93.6,118.7-93.1z" />
					<path class="st3" d="M120.9-95.9c1.1,0.6,2.2,1.1,3.4,1.4c1.1,0.4,2.3,1.3,3.2,0.8c-0.6-0.8-1.8-1.1-2.9-1.5s-2.3-0.8-3.3-1.3
					c-0.1,0-0.1-0.1-0.2,0C121.2-96.4,121.1-96.1,120.9-95.9z" />
					<path class="st3" d="M117.2-91.7c0-0.3-0.4-0.7-0.7-0.3C116.6-91.7,116.9-91.6,117.2-91.7z" />
					<path class="st3"
						d="M100.1-76.8c-0.1,0.6-0.8,1.2-0.7,1.8c1-0.3,2-0.6,3.1-0.8C101.7-76.3,100.9-76.6,100.1-76.8z" />
					<path class="st3"
						d="M46.4-26.5c0.4,0.9-0.3,3.6,1,3.6c-0.3-1.5-0.1-3.4-0.6-4.6C46.7-27.1,46.6-26.8,46.4-26.5z" />
					<path class="st3" d="M110.3-81.3c-0.8-0.8-1-2.3-2-2.6C108.7-83.1,109.2-81.4,110.3-81.3z" />
					<path class="st3"
						d="M39.9-18c-0.1-0.4,0.2-0.8,0-1.2c-0.3,0-0.6-0.4-0.9-0.3C39.2-19,39-18,39.9-18z" />
					<path class="st3" d="M77.2-52.1c-0.6-0.4-1-1.2-1.6-0.9C76.1-52.7,76.6-52.2,77.2-52.1z" />
					<path class="st3" d="M34.8-13.7c0.3,0.4,0.7,0.7,1.2,0.8c0.3-1.2,0.7-2.3,1.3-3.4c-0.3-0.2-0.6-0.4-0.8-0.7
					C35.8-15.9,35.6-14.8,34.8-13.7z" />
					<path class="st3" d="M45.7-22.9c0.2-0.6,0.2-2.1-0.1-2.2C45.1-24.5,44.9-23.1,45.7-22.9z" />
					<path class="st3" d="M111.3-85c0.4,0.4,0.8,0.3,1.2,0.6c0.4-0.3,0.3-0.6,0.4-0.9c-0.3-0.3-0.7-0.2-1.1-0.5
					C111.4-85.5,111.5-85.3,111.3-85z" />
					<path class="st3" d="M104.4-73.9c-2,0.4-4.7,0.6-6.3,0.9c-0.1,0.5-0.6,0.9-0.6,1.3c3.4-1.3,6.8-1.5,10.2-2.3
					C106.6-74.8,105.7-74.2,104.4-73.9z" />
					<path class="st3" d="M78.3-53.5c3.3-1.8,6.3-4,9.1-5.6c0.2-0.1-0.4-0.3,0-0.5c0.7-0.2,1.8-0.2,2-1.2c0.4-0.2,0.7-0.1,1-0.3
					c3.3-2.7,7-4.4,10.1-7.2C93-64.2,85-58.1,77.8-54C78-54.1,78.2-53.6,78.3-53.5z" />
					<path class="st3" d="M112.2-80.6c-1-0.9-1.2-2.5-2.2-2.6C110.6-82.4,111.1-80.6,112.2-80.6z" />
					<path class="st3"
						d="M110.1-72.9c-0.5-0.3-1.1-0.5-1.6-0.8c-3.8,1.4-7.6,1.2-11.4,2.7C101.3-70.9,105.8-72.7,110.1-72.9z" />
					<path class="st3"
						d="M41.6-17.4c-0.1-0.4,0.1-0.8,0-1.2c-0.4,0.1-0.7-0.3-1.1-0.2C40.5-18.2,40.7-17.2,41.6-17.4z" />
					<path class="st3" d="M100.5-70.7c-1.4,0.7-3.2-0.1-4.4,1C97.5-70.2,99.3-69.4,100.5-70.7z" />
					<path class="st3" d="M37.7-15.7c-0.3,1-0.8,2-1.1,3c0.4,0.4,0.9,0.4,1.3,0.6c0.4-1.1,0.8-2.2,1-3.3
					C38.5-15.2,38.1-15.9,37.7-15.7z" />
					<path class="st3" d="M77.4-49.1c-0.6-0.7-1.2-0.6-1.9-0.8C75.9-49.2,76.7-48.9,77.4-49.1z" />
					<path class="st3" d="M113.6-84.9c0,0.2-0.3,0.5-0.3,0.7c1.8,0.8,3.7,1.3,5.5,2.1c0.2-0.3,0.4-0.6,0.6-0.9
					C117.6-83.7,115.6-84.4,113.6-84.9z" />
					<path class="st3" d="M79.4-51.6c0.7-0.7,1.8-1,2.2-1.7c-0.4-0.1-0.9-0.2-1.3-0.4c-0.5,0.3-1,0.6-1.5,0.9
					C79.1-52.4,79.2-52,79.4-51.6z" />
					<path class="st3" d="M83-54.2c-0.6-0.2-1.6-0.5-2,0.3C81.6-54,82.6-53.1,83-54.2z" />
					<path class="st3" d="M113.7-79.9c-0.7-0.8-1-2.3-1.8-2.5C112.6-81.6,112.9-80.2,113.7-79.9z" />
					<path class="st3"
						d="M42.4-17.4c1.1,0.1,2.1,0.1,3.2-0.1c-1.1-0.4-2.2-0.6-3.4-0.8C42.3-18,42.2-17.7,42.4-17.4z" />
					<path class="st3"
						d="M84.2-54.9c-0.4-0.2-0.8-0.3-1.2-0.5c-0.1,0.2-0.5,0.3-0.3,0.5C83.2-55.1,83.7-54.4,84.2-54.9z" />
					<path class="st3" d="M86.1-56c-0.7-0.5-1.6-0.4-2.2,0.2C84.6-55.5,85.3-55.2,86.1-56z" />
					<path class="st3"
						d="M38.6-11.8c0.3,0.2,0.7,0.3,1.1,0.2c0-1.1,1-2.1,0.6-3.2C39.1-14.8,39.3-12.7,38.6-11.8z" />
					<path class="st3" d="M47.1-20c0.6-0.5,0.6-1.7-0.3-1.2C47.1-20.7,46.8-20.4,47.1-20z" />
					<path class="st3"
						d="M77.9-47.3c0.3-0.2-0.1-0.6,0-0.8c-0.4-0.2-0.9-0.3-1.4-0.3C76.4-47.5,77.1-47.6,77.9-47.3z" />
					<path class="st3" d="M88-57.3c-0.6,0-1.7-0.6-2.1,0.4C86.6-56.8,87.6-56.4,88-57.3z" />
					<path class="st3" d="M115.5-79.1c-0.9-0.9-1.1-2.7-2.3-2.8C113.9-81,114.8-79.4,115.5-79.1z" />
					<path class="st3"
						d="M87.7-58.2c0.8,0.5,1.8,0.3,2.3-0.5C89.2-58.9,88.3-58.8,87.7-58.2C87.7-58.2,87.7-58.2,87.7-58.2z" />
					<path class="st3" d="M126.4-90.4c-0.1-0.6-1.3-1.1-2-1.1C124.5-90.8,125.8-90.4,126.4-90.4z" />
					<path class="st3" d="M91.7-59.6c-0.5-0.3-1.5-0.7-1.8,0.1C90.5-59.4,91.1-59,91.7-59.6z" />
					<path class="st3" d="M93.1-60.7c-0.5,0-1-0.5-1.6,0.1C92-60.4,92.9-60.1,93.1-60.7z" />
					<path class="st3"
						d="M126.1-89.4c-0.6-0.6-1.2-0.5-1.8-1.2l-0.2,0.2C124.6-89.8,125.3-89.5,126.1-89.4z" />
					<path class="st3"
						d="M95.4-62.3c-0.4,0.3-0.4-0.5-0.7-0.5c-0.5,0.6-1.4,0.6-1.6,1.3C94-61.1,94.9-61.5,95.4-62.3z" />
					<path class="st3" d="M125.8-88.4c-0.6-0.6-1.2-0.7-1.9-1.3C123.2-88.8,125.2-88.2,125.8-88.4z" />
					<path class="st3"
						d="M100.9-65.8c1.4-0.9,3-1.8,3.5-3.2c-3.1,2.2-6.5,4.1-9.3,6.2C96.9-62.8,98.8-64.4,100.9-65.8z" />
					<path class="st3" d="M117.4-78.7c-1.1-0.8-1.2-2.5-2.2-2.5C115.9-80.3,116.3-78.4,117.4-78.7z" />
					<path class="st3" d="M122.2-85.7c0.8,0.3,1.5,0.9,2.3,0.9c-0.2-0.8-1.6-0.7-1.8-1.7c0.7-0.2,1.4,0.7,2.1,0.7
					c0.3-0.9-1.4-0.7-1.5-1.7c0.6-0.1,1.2,0.5,1.8,0.7c0.2-0.1,0.1-0.3,0.3-0.4c-0.3-0.8-1.3-0.7-1.9-1.4
					C123-87.7,122.5-86.7,122.2-85.7z" />
					<path class="st3"
						d="M106.7-70.9c1.1,0,2.3-0.2,3.3-0.2s2.3,0.4,3.3-0.4c-2.4-1.6-4.9-0.2-7.4-0.4L106.7-70.9z" />
					<path class="st3" d="M132.2-89.3c2.4-0.9,2.9-2.9,3.5-4.9c0.5-1.4,0.8-2.7,1-3.9c-0.3-0.1-0.6-0.6-0.9-0.3
					C134.4-95.4,133.5-92.3,132.2-89.3z" />
					<path class="st3" d="M98.2-53.6c-2.6,0.2-5.1-0.8-7.6-2.8l-0.5,0.5C92.6-52.7,95.9-52.9,98.2-53.6z" />
					<path class="st3"
						d="M117.8-78.6c0.3,0.2,0.7,0.3,1.1,0.2c-0.9-0.6-1-2.3-1.9-2.1C117.4-79.9,118.4-78.9,117.8-78.6z" />
					<path class="st3" d="M102.8-56.7c5.6-2.9,10.2-9.2,13.7-13.6c-0.6-0.4-1.3-0.6-2.1-0.6c-0.4,0.5-0.6,0.8-0.4,1.2
					c-2.3,1.5-4.2,4.4-5.8,6.1c-3.6,3.7-8.4,5.9-13.5,6.2c-1,0.1-1.7-0.8-2.8,0.4C95.6-54.3,98.7-54.6,102.8-56.7z" />
					<path class="st3"
						d="M107-69.5c1.8-0.6,4.3,0.9,5.7-1.4c-1.9,0.4-3.9,0.2-5.9,0.5C107-70.1,106.8-69.8,107-69.5z" />
					<path class="st3" d="M104.1-62.4c-2,0.9-4.4-0.5-6.2,1.4C99.9-61.7,102.3-60.5,104.1-62.4z" />
					<path class="st3"
						d="M105.6-63.6c-0.9,0.2-1.8,0.3-2.7,0.3c-1.1,0.1-2.5-0.1-3,0.7C101.7-63.1,104.1-62.3,105.6-63.6z" />
					<path class="st3"
						d="M106.7-69c0.1,0.3-0.4,0.6-0.3,0.9c1.5-0.4,3.8,0.8,4.9-1.2C109.7-69,108.2-69.2,106.7-69z" />
					<path class="st3" d="M107.3-65c-1.9,0.7-4.2-0.3-5.9,1.2C103.3-64.3,105.6-63.2,107.3-65z" />
					<path class="st3" d="M120.2-78.1c-0.6-0.6-0.6-1.6-1.3-1.9C119.5-79.4,119.5-77.9,120.2-78.1z" />
					<path class="st3" d="M121.1-81.4c0.2,0.3,0.5,0.1,0.7,0.3c0.2-0.4,0.4-0.7,0.7-1.1c-0.3-0.2-0.6-0.4-0.9-0.1
					C121.5-82,121.3-81.7,121.1-81.4z" />
					<path class="st3"
						d="M107.9-65.4c0.2-0.3,0.9-0.6,0.7-0.9c-1.7,0.8-3.7-0.5-5.2,1.2C104.9-65.3,106.4-65.4,107.9-65.4z" />
					<path class="st3"
						d="M109.8-67.3c-0.4-0.4-1.1,0-2,0s-2.1-0.4-2.5,0.6C106.8-67.1,108.3-66.2,109.8-67.3z" />
					<path class="st3" d="M122.7-80.8c0.5-0.1,0.7-0.9,0.6-1.4C123.1-81.6,122.5-81.2,122.7-80.8z" />
					<path class="st3" d="M122-77.9c-0.4-0.6-0.7-1.8-1.5-1.4C120.9-78.7,121.2-77.5,122-77.9z" />
					<path class="st3" d="M131.4-87.3c0.9-0.7,2.3-0.9,2.3-2.1C133-88.8,131.3-88.5,131.4-87.3z" />
					<path class="st3"
						d="M122.7-78c0.2-0.1,1,0,0.7-0.5c-0.4,0.4-0.8-0.4-1.3-0.2C122.3-78.4,122.5-78.2,122.7-78z" />
					<path class="st3" d="M130.6-85.5c0.8-0.6,2.3-1,2.3-2C132.1-86.8,130.6-86.6,130.6-85.5z" />
					<path class="st3" d="M129.7-83.4c0.9-0.7,2.5-1.1,2.5-2.3C131.2-85.1,129.7-84.7,129.7-83.4z" />
					<path class="st3"
						d="M219.5-116.2c-0.3-0.5,0.2-0.9-0.3-1.3c-0.1,0.1-0.3-0.2-0.4,0.1C219.1-117.1,219.2-116.3,219.5-116.2z" />
					<path class="st3"
						d="M221.4-110.6c-0.1-0.2,0.1-0.4-0.2-0.6L221-111C221.1-110.9,221.3-110.4,221.4-110.6z" />
					<path class="st3"
						d="M241.2-112.1c-0.2-0.4-0.5-0.2-0.8-0.4c-0.2,0.3-0.8,0.6-0.8,0.9C240.2-112.1,240.7-111.9,241.2-112.1z" />
					<path class="st3" d="M242.1-109.5c-0.4-0.3-0.8-0.1-1.2-0.3C241.3-109.2,241.6-109.2,242.1-109.5z" />
					<path class="st3"
						d="M139.4-262.4c3.1-5.6,6.7-11.1,10-16.6s6.5-11.3,9.7-16.7c3.2-5.4,5.7-11.2,9.3-16.7
					c3.6-5.5,7.4-11.1,11.3-16.6c3.9-5.5,8.5-10.9,13.2-16.5c4.7-5.8,9.8-11.2,15.3-16.2c3-2.6,5.8-5.3,8.6-7.9
					c2.8-2.6,5.9-4.9,8.8-7.3c5.6-4.9,11.5-9.4,17.6-13.6c5.6-3.7,11.4-7.1,17.4-10.2c5.7-2.8,11.5-4.6,17.2-6.6
					c2.7-1,5.6-1.7,8.5-2.5s5.8-1.9,8.6-2.4c2.8-0.6,5.6-0.9,8.5-1.3s5.7-1,8.5-1.1c11.3-0.6,22.4,1.1,33.4,4.1c-1.9-1-3.9-1.6-6-2
					c-2-0.4-4.2-0.4-6.1-0.9c-0.7-0.2-1.3-0.6-2-0.8s-1.4-0.3-2.1-0.4c-9.6-1.7-19.5-1.7-29.1,0.2c-5.5,1.1-11.1,3-16.9,4.7
					c-4.2,1.3-8.4,3.1-12.7,4.6c-1.4,0.5-2.9,0.7-4.3,1.1c-2.5,1-4.9,2.1-7.2,3.3c-7.4,3.4-14.6,8.5-22,13.5
					c-5.2,3.4-10.1,7.1-14.7,11.2c-4.8,4.4-9.7,8.8-14.6,13.4c-0.3,0.3-1.2,0.8-1.7,1.3c-4.1,3.8-7.4,8.2-11,12.4
					c-3.5,4.1-7.1,8.4-10.2,12.5s-6.1,8.5-9.1,12.6c-1.6,2.2-3.5,4-4.8,6.2s-2.6,4.3-3.9,6.4c-5.1,8.4-9.8,17.1-14.6,25.4
					c-9.9,17.1-19.2,33.8-26.9,50.9c-3.8,8.5-7.5,17-11.1,25.6c-1.8,4.3-4.1,8.6-5.8,12.8c-4.9,12.1-10.1,24.3-15.4,36.8
					c-0.4,1-0.6,1.2-0.2,1.5c0.8,0.5,1.1-0.5,1.4-1.5c1.9-5.8,4-11.2,6-16.6c3.7-9.9,7.9-18.8,12.2-28.3s8.4-19,12.9-28.4
					c-1.8,7-5.9,13.8-8.5,20.7c5.5-10.7,10.3-21.3,15.1-32c-1,1.1-1.7,2.5-2.2,3.9c-1.8,4-3.2,7.8-5.6,11.7
					C128.6-240.3,133.6-251.6,139.4-262.4z M123.9-227.6c-0.4,0,0.3-0.7,0.3-1C124.5-228.6,123.9-227.9,123.9-227.6L123.9-227.6z" />
					<path class="st3"
						d="M193.9-345.2c-0.4,0.5-1.1,1.2-0.9,1.2c0.6-0.9,1.6-1.8,2.1-2.7C194.7-346.3,194.3-345.8,193.9-345.2z" />
					<path class="st3"
						d="M178.9-325.6c4.3-5.4,8.3-10.8,12.3-16.1C186.7-336.7,182.6-331.3,178.9-325.6z" />
					<path class="st3" d="M180.8-312.4c-0.8-0.5-1.8-0.5-2.6,0C179.1-312.3,179.9-312.3,180.8-312.4z" />
					<path class="st3" d="M181.4-310.2c-1-0.2-1.9-1.4-2.9-0.6c0,0.5,0.1,1.2-0.7,1.3c0.1,0.3-0.2,0.7,0.1,1c0.6-0.4,0.1-0.9,0.8-1.3
					c0.7,0.3,1.5-0.7,2.2-0.3c0.1,0.2-0.6,0.4-0.3,0.4C180.9-310.1,181.4-309.8,181.4-310.2z" />
					<path class="st3" d="M274.2-392.8c0.2-0.1,0.4,0,0.6-0.3c0.1-0.4,0-0.8-0.4-1.1c-0.2,0.8-0.7-0.3-0.9-0.3
					C273.7-393.9,273.9-393.3,274.2-392.8z" />
					<path class="st3" d="M137.2-254.6c1.9-3.8,3.8-7.6,5.9-11.4c1.6-3.1,3.3-6.2,4.6-8.5c0.2-0.4,1.4-2.8,0.8-1.8
					c-0.1,0.2-0.2,0.4-0.3,0.6c-4.4,7.3-9.3,15.3-12.5,22.6L137.2-254.6z" />
					<path class="st3" d="M142-239.2c-0.8-0.2-1.7-0.3-2.5-0.1C140.3-238.9,141.8-239.3,142-239.2z" />
					<path class="st3" d="M147-233.4c-1,0.3-2.3-0.6-3-0.2C144.9-233.1,146-233,147-233.4z" />
					<path class="st3" d="M106.2-187.4c0.7-0.8,1.5-1.9,1.3-2.5C106.9-189.2,106.5-188.3,106.2-187.4z" />
					<path class="st3"
						d="M105.8-185.4c0.2-0.2,0.7-1.2,0.3-0.7c-0.5,0.6-1,1.3-1.3,2C105-184.5,105.5-184.9,105.8-185.4z" />
					<path class="st3" d="M100.2-171.6c-0.9,1.4-1.6,3-2.1,4.7C99-168.4,99.7-170,100.2-171.6z" />
					<path class="st3" d="M95.7-153.6c-0.3-0.7-2.1-0.4-2.2-0.6C94.2-153.9,94.9-153.7,95.7-153.6z" />
					<path class="st3" d="M84.6-139c0.3-1,0.7-3.1-0.3-4.1C84.6-141.7,83.4-140.1,84.6-139z" />
					<path class="st3" d="M82.5-137.9c1.1,2.2,3.9,2.9,5.5,3.1c-0.1-0.3,0.4-1.4-0.1-1.3c-0.5,0.1,0.2,0.9-0.4,1.1s-0.7-0.7-1.2-0.5
					c-0.6-0.6-0.2-1-0.5-1.6c-0.3,0-0.5,0-0.8,0.1c-0.3-0.7-2.3-1.7-2.1-2.7c0.2-0.2,0.3,0.5,0.5,0.3c-0.1-0.6,0.2-1.6-0.1-2
					C83.2-140.1,81.9-139.1,82.5-137.9z" />
					<path class="st3" d="M94.4-143.4c0.1-0.6,0.1-1.2-0.1-1.8C93.7-144.6,94.1-143.6,94.4-143.4z" />
					<path class="st3" d="M92.8-139.9c0-0.6-0.1-1.3-0.2-1.9C92.3-141.3,92.6-140.3,92.8-139.9z" />
					<path class="st3" d="M92.1-138.6c-0.1-0.7,0-1.4-0.1-2C91.5-140.1,91.9-139,92.1-138.6z" />
					<path class="st3" d="M89.1-135.8c-0.1-0.5,0.1-0.9-0.2-1.4C88.8-136.7,88.8-136.2,89.1-135.8z" />
					<path class="st3" d="M78.6-125c-0.7-0.5-1.8,0.1-2.3,0.4C77.1-124.2,78-124.4,78.6-125z" />
					<path class="st3" d="M82.8-123.4c-1.4,0.1-2.9-1.7-4.4-0.6c1,0.7,2.3,1,3.5,0.9c-0.1,0.1-0.3-0.1-0.1-0.2
					C82.1-123.3,82.8-123.2,82.8-123.4z" />
					<path class="st3" d="M85.9-128.1c-1.6,0.6-3.1,1.1-4.7,1.8C82.7-126.3,84.6-127.6,85.9-128.1z" />
					<path class="st3" d="M83.6-126.5c-0.5,0.2-1,0.4-1.5,0.6C82.5-125.6,83.4-126.2,83.6-126.5z" />
					<path class="st3" d="M86.7-126.8c-1.2,0.3-2.4,1-3.7,1.3C84.3-125.3,85.5-126.5,86.7-126.8z" />
					<path class="st3" d="M78.3-116.9c-0.6-0.3-1.3,0.4-1.9,0.5C76.9-115.9,77.9-116.7,78.3-116.9z" />
					<path class="st3" d="M84-115.9c-0.9,0-1.8,1.2-2.7,1.1c-0.2-0.5,0.4-0.4,0.7-0.8c-0.6-0.3-1.2,0.5-1.9,0.6
					C81.3-114.4,83.2-114.1,84-115.9z" />
					<path class="st3"
						d="M59.3-84.8c0.3,1.1,0.5,2.3,0.6,3.5c1.2-1.9,0.9-4.4,0.4-6.2C60.1-86.6,59.7-85.7,59.3-84.8z" />
					<path class="st3" d="M75-92.2c0.3-2,0.2-4-0.4-5.9C74.1-96.2,74.8-93.9,75-92.2z" />
					<path class="st3" d="M74.2-91c0-1.5-0.1-2.9-0.4-4.3C73.8-93.9,73.9-92.5,74.2-91z" />
					<path class="st3" d="M57.1-74c1.3-1.7,0.7-4,0.2-5.6C56.3-77.8,56.9-75.8,57.1-74z" />
					<path class="st3" d="M73.3-90.9c-0.2-0.8,0-2-0.4-2.5C72.9-92.5,73.1-91.6,73.3-90.9z" />
					<path class="st3" d="M70.4-83.4c0.3-1.1,0.3-2.3,0-3.4C69.6-85.8,70.1-84.2,70.4-83.4z" />
					<path class="st3" d="M68.4-78.3c0.2-1.2,0.2-2.4-0.2-3.6C67.6-80.8,68.3-79.1,68.4-78.3z" />
					<path class="st3" d="M67.6-75.9c0.1-1.3,0-2.6-0.4-3.9C66.7-78.6,67.3-76.9,67.6-75.9z" />
					<path class="st3" d="M66.6-72.9c0.3-1.6,0.2-3.2-0.4-4.7C65.8-76.2,66.4-74.2,66.6-72.9z" />
					<path class="st3" d="M67.1-66.4c2.1-5.2,4.2-10.7,6.1-15.9c0.3-0.7,0.5-1.5,0.7-2.2c-1.1,2.5-2.8,4.9-3.2,7.5
					c-0.2,0-0.4,0.1-0.5,0.3c-0.9,2-1.4,4.3-2.2,6.4c-0.8,1.9-2,3.6-1.9,5.6c-0.3,0.3-0.7,0.5-0.2,0.6
					C66.7-64.6,66.8-65.6,67.1-66.4z" />
					<path class="st3" d="M51.5-59.9c-0.4-1.1,0-2.6-0.3-3.5C51.3-62.3,50.3-60.8,51.5-59.9z" />
					<path class="st3" d="M126.4-71.4c-0.4-0.1-0.9,0.2-1.4,0.2c-5.1-2.1-9.7-4.1-15.1-6.1c-3.6-1.3-7.4-3.1-11.3-4.6
					c-2.4-0.9-4.5-1.5-4.4-4.3c0.1-1.6,1.1-3.4,1.3-5.2c0.1-0.6,0-1.2,0.1-1.8c0.6-2.6,1.9-5.4,2.9-8c0.9-2.4,1.9-4.8,2.7-7
					c0.1-0.2,0.4-0.5,0.1-0.7c-2.9,6.5-5.3,13.2-7.3,20c-0.7,2.1-1.7,3.8-1.1,5.8c8.3,3.5,16.6,6.6,24.9,10.5c0.3,0.2,0.7-0.2,1-0.3
					c0.2,0.3,0.1,0.8,0.4,0.8c2.6,0.9,5.1,1.9,7.7,2.9c1.9-1.1,1.9-2.6,2.5-4.3c0.4-1.2,1-2.3,1.4-3.3c2-4.8,3.6-9,5.4-13.5
					c0.6-1.1,1-2.2,1.4-3.3c0.4-1.1,0.5-2.3,0.2-3.5c-1.8,4.4-3,8.9-4.8,13.3c-0.9,2.2-2.1,4.3-2.9,6.6s-1.6,4.8-3.3,6.7
					C126.4-70.6,126.9-71.7,126.4-71.4z" />
					<path class="st3" d="M64.4-70.7c-0.1-0.9-0.2-1.8-0.3-2.7C63.7-72.6,64.2-71.2,64.4-70.7z" />
					<path class="st3" d="M48.1-53.7c0.2-1,1.1-1.9,0.8-2.9C48.6-55.7,48.4-54.7,48.1-53.7z" />
					<path class="st3" d="M76.9-80.7c-0.7,0.4-1.8,0.5-2.2,0.9C75.3-80.1,76.4-80.1,76.9-80.7z" />
					<path class="st3" d="M76.2-79.5c-0.6,0.4-1.6,0.2-2,0.9C74.8-79,76.2-79.2,76.2-79.5z" />
					<path class="st3" d="M109.2-105.4c7.5,3,14.8,6,22.2,9.4c0.4,0.1,0.8,1.1,1.1,0.6c-0.6-1.1-2-1.4-3-1.8c-3.3-1.4-6.7-2.8-10-4.2
					s-6.7-2.6-10-4.2c-1.1-0.5-2.3-1.4-3.2-1.3C106.9-105.9,108.2-105.8,109.2-105.4z" />
					<path class="st3" d="M57.6-55.5c-0.4-1.6,0.3-3.6-0.2-5C57.7-58.9,57-56.9,57.6-55.5z" />
					<path class="st3" d="M62-61.1c-0.2-0.6-1.1-0.5-1.7-0.7C60.6-61.2,61.5-61.3,62-61.1z" />
					<path class="st3" d="M116.6-104.6c2.2,0.6,4.3,1.5,6.4,2.1s4.4,1,6.4,2.4c-4.1-1.1-8.6-2.7-12.5-3.5c4.1,1.4,8.2,3.9,12.3,4.7
					c0.5-0.7,0.4-1.5,0.9-2.2c-6.2-2.9-12.5-5-18.8-7.2c0,0.4-0.2,0.7-0.4,1c5.8,2.2,11.7,3.6,17.5,5.8
					C124.6-102.1,120.3-104,116.6-104.6z" />
					<path class="st3" d="M116.4-104.7c-1.8-0.9-3.7-1.5-5.7-1.8C112.3-106,114.6-105.4,116.4-104.7z" />
					<path class="st3" d="M44.5-43.2c0.3-0.7,1-1.8,0.4-2.3C45-44.7,44.2-44,44.5-43.2z" />
					<path class="st3" d="M111.8-102.8c-0.6-0.4-1.4-0.7-2.1-0.9C109.9-103.1,111.7-102.8,111.8-102.8z" />
					<path class="st3" d="M121.3-98.6c-3.8-1.8-7.9-3.1-12-4C113.1-101.6,118.2-99.5,121.3-98.6z" />
					<path class="st3" d="M59.9-53.1c-1,0-2.4-0.8-3.2-0.7C57.4-53.1,59.2-53,59.9-53.1z" />
					<path class="st3" d="M42.9-38.4C43-39,43.4-39.5,43-40C42.6-39.6,42.4-38.6,42.9-38.4z" />
					<path class="st3" d="M98.9-83.5c-1.4-0.7-2.5-1.9-3.1-3.4C94.4-84.8,97.8-83.4,98.9-83.5z" />
					<path class="st3" d="M62.4-55.2c0.5,0,0.5-1,0.3-1C62.6-55.9,62.2-55.6,62.4-55.2z" />
					<path class="st3" d="M41.2-33.1c0.3-0.8,0.2-1.7-0.1-2.5C40.2-34.9,40.8-33.6,41.2-33.1z" />
					<path class="st3" d="M56.5-43.9c0.3-1.6,0.2-3.3-0.2-4.9C55.7-47.2,56.2-45.2,56.5-43.9z" />
					<path class="st3" d="M116.4-98.2c-0.4-0.1-0.9-0.6-1.1-0.2c1.7,0.5,3.3,1.5,5,2.1c0-0.2,0.2-0.4,0.3-0.5
					C119.4-97.6,117.7-97.8,116.4-98.2z" />
					<path class="st3" d="M52.8-34.4c0.8-1.9,0.2-3.9,0.2-5.8C52.2-38.4,52.8-36,52.8-34.4z" />
					<path class="st3" d="M51.9-32c0.1-0.7,0.7-1.3,0.7-2c-0.2,0.2-0.4,0.1-0.5-0.1c-0.1-1.2,0-2.5-0.1-3.7C51-36,51.8-33.6,51.9-32z
					" />
					<path class="st3" d="M50.8-29.4c0.2-2.1,0.1-4.2-0.2-6.2C50-33.6,50.8-31.5,50.8-29.4z" />
					<path class="st3" d="M43.1-20.9c0.9,0.4,2.6,1.2,3,0.8c0.1-0.2,0-1.4-0.4-1.2c-0.2,0,0.1,0.7-0.3,0.9c-0.1-0.1-0.3,0-0.4-0.1
					c-0.3-0.4-0.2-0.7-0.3-1.1c-0.2,0.2-0.2,0.9-0.7,0.6c-0.4-0.5-0.3-0.9-0.9-1c-0.4,0.3,0,0.6-0.3,0.9c-0.1-0.4-0.2-0.7-0.4-1
					c-1.3-0.3-2.6-1.4-3.9-2.2C39.7-22.3,41.4-21.5,43.1-20.9z" />
					<path class="st3" d="M114.1-90.9c-0.7-0.1-1.3-1-2-0.8C112.7-91.3,113.4-91,114.1-90.9z" />
					<path class="st3" d="M92.3-67.4c-1.9,0.1-3.8-0.3-5.8-0.3c0.5,1.6,1,3.3,1.7,4.8c0.2-0.3,0.3-0.1,0.5-0.3c-0.9-0.7-1.2-2-0.7-3
					c1.1-0.2,2.1-0.3,3.2-0.3c1,0,2.1-0.2,3.1-0.5c-2,0.2-4.4,0.6-6,0.1C89.6-67.4,91.6-67.2,92.3-67.4z" />
					<path class="st3" d="M115.1-89.4c-1-0.6-2.1-1.1-3.3-1.5C112.8-90.4,113.9-89.9,115.1-89.4z" />
					<path class="st3" d="M113.3-89.4c-0.6-0.1-1.2-1.1-1.8-0.8C112-89.7,112.6-89.4,113.3-89.4z" />
					<path class="st3" d="M49.2-25.1c-0.2-2.2-0.2-4.4-0.5-6.6C47.9-29.5,49-26.9,49.2-25.1z" />
					<path class="st3" d="M89.8-65.2c-0.5,0.1-0.9,0.1-1.4,0.2C89-64.2,89.6-65,89.8-65.2z" />
					<path class="st3" d="M123.9-92.8c-1.2-0.3-2.5-1.2-3.7-1.4c-1,2.8-1.8,5.7-2.5,8.6c1.1,0.2,2.2,0.9,3.2,0.8
					c0.8-2.4,1.7-4.8,2.8-7.1c0.1-0.2-0.5-0.5-0.3-0.7C123.6-92.8,124-92.4,123.9-92.8z" />
					<path class="st3"
						d="M105.1-74.9c-2-1-4.1,0.6-6.1,0.5c-0.1,0.3-0.2,0.6-0.4,0.9C100.7-73.9,102.9-74.4,105.1-74.9z" />
					<path class="st3"
						d="M116-86.4c0.3,0.2,0.7,0.4,1,0.5c0.5-2.2,1.2-4.4,1.7-6.6C117.8-90.8,117.4-88.3,116-86.4z" />
					<path class="st3" d="M98.2-69.2c-1.7,0.4-3.8,0.1-5.3,1C94.6-68.5,96.7-68,98.2-69.2z" />
					<path class="st3"
						d="M90.7-64.5c-0.6,0-1.1,0.1-1.7,0.3c0.2,0.2,0.4,0.5,0.6,0.5C90-64.1,90.3-64.1,90.7-64.5z" />
					<path class="st3"
						d="M37.4-10.8c-0.1,0-1.2-0.6-0.8-0.2c1.3,1.3,3.2,1.8,5,1.4C40.3-10.1,38.8-10.4,37.4-10.8z" />
					<path class="st3" d="M101.2-60.5c-1.8,0.5-3.9-0.2-5.4,0.9C97.5-59.8,99.7-59.6,101.2-60.5z" />
					<path class="st3" d="M126.4-73.3c1-0.7,1.5-2.6,2.3-4.1c1-1.9,1.9-3.9,2.6-6c-0.4,0.4-0.8,0.3-1.2,0.8c-0.5,2.9-2.2,7.7-6.2,8.9
					c-0.4-0.7-1.5-0.6-1.9-0.4C123.5-74.1,125.1-72.5,126.4-73.3z" />
				</g>
			</g>
		</g>
	</pattern>
	<g>
		<path class="st4" d="M363.6,155.1c-3.6,4.3-6.8,7.3-10.5,9.1c-3.4,1.6-6.8,2.9-10.4,3.9c-6.8,2-13.7,3.2-20.4,2.7
		c-3.4-0.3-6.8-1-10.1-2c-10.1-2.9-20.3-4.5-30.2-8.2c-6.7-2.5-13.3-4.7-20.2-5.7c-3.3-0.5-6.8-0.1-10.2-0.1s-6.7,0.2-10.2,0.3
		c-3.4,0-6.7,0.2-10.2,1.9c-4,1.9-7.7,5-10.5,9.1c-0.1,0.1,0,0.2-0.1,0.3c-2.9,3.8-4.6,7.6-4.7,11.7c0.1,2.3,0.5,4.6,1.1,6.8
		c1.8,6.8,6.4,14.4,11.9,19c-3-3.5-6.3-7.1-8.6-11.7c-2-3.8-3.3-8.1-3.9-12.7c-0.8-9.7,10.2-20.1,16.8-22.5c3.4-1.2,7.3-0.9,10.9-1
		c7.5-0.2,14.4-0.9,21.6,0.5c7.2,1.4,14.4,4.2,21.4,6.7c7.2,2.5,14.4,3.4,21.5,5.4c3.7,1,7.2,2.2,10.7,2.8
		c7.1,1.2,14.5,0.1,21.7-1.9c7.4-2,14.7-3.8,22.1-12.7c2.1-2.5,3.5-4.3,4.4-6.8c0.9-2.2,1.5-4.6,2-7c0.8-4.7,1.2-9.5,1.1-14.4
		c-0.3,4.5-0.8,8.9-1.5,13.3C368.3,146.5,367.1,150.8,363.6,155.1z" />
		<path class="st4" d="M364.3,95.9c0.6,0.8,1.3,1.3,2,1.6c0.2-0.7,0.6-1.1,0.5-1.6c-1-2.1-2.2-3.9-3.6-5.5c-1.4-1.7-2.7-3.4-4-5
		c-2.6-2.9-5.3-5.6-8.2-8c-1.4-1.3-2.7-2.7-4.1-3.9c-1.3-1.2-2.8-2.1-4.1-3.2c-1.4-1.1-2.7-2.2-4.1-3.1c-1.4-0.9-2.8-1.6-4.2-2.5
		c-2.6-1.8-5.4-3-8.2-4.6c-2.7-1.5-5.5-2.9-8.4-4.1c-2.8-1.1-5.6-2-8.4-3.1c-2.7-1.1-5.6-1.7-8.5-1.5c-0.3,0.1,0-0.6-0.3-0.4
		c-0.8,0.2-1.6,0.2-2.4,0.2c-6.1,0.1-11.8,0.3-17.9,1.9c-7.1,1.8-14,4.4-20.7,7.7C253,64.2,246,69.1,239,74.5
		c-7.1,5.4-13.8,12.9-21,20.4c-3.6,4.5-6.9,8.9-10.3,13.2c-1.6,2.1-3.2,4.3-4.7,6.5s-3.2,4.2-4.6,6.5c-1.4,2.2-2.6,4.3-3.9,6.6
		c-2.6,4.5-5.6,8.5-7.8,13.1c-2.1,4.3-4.2,8.7-6.5,12.9c-2.3,4.2-4.2,8.9-6.4,13.2c-6.5,13.2-11.2,26.7-17.2,39.9
		c-3.9,8.5-7,17.7-10.3,26.6c-1.6,4.5-3.1,8.9-4.8,13.3c-1.6,4.4-3.1,9-4.5,13.5c-5,15.2-9.4,31.6-14.9,46.8
		c-0.7,2.3-1.6,4.5-2.5,6.7c-1,2.1-2.5,3.5-3.3,5.5c-0.8,2-1.5,4.4-2.1,6.6c-0.7,2.2-1.4,4.4-2.1,6.7c-1,0.2-1.1,0.8-1.5,1.9
		c-0.3,0.9-0.6,1.9-0.7,2.9c-0.3,1.3-0.3,2.7-0.1,4c-0.8,0.5-1.4,1.3-1.9,2.2c-0.6,1.4-0.8,3.6-1.5,4.7c-0.3,0.5-0.9,0.8-1.2,1.3
		c-1,1.6-1.7,4.7-2.5,7.1c-0.8,2.4-1.5,4.9-2.2,7.1c-1.4,5-3.2,9.6-4.4,14.3c-1.2,4.7-2.2,9.7-3.5,14.3c-1.4,5.2-2.7,10.8-4.6,15.1
		c-1.5,6.7-3.8,13.1-5.5,19.8c-1.7,6.7-3.9,13.1-5.6,19.8c0,1.2,0.9,1.7,1,2.8c-0.2,1.3-0.4,2.5-0.8,3.7c-0.2,0.6-0.5,1-0.6,1.5
		c-0.1,1.2,0.2,2.5,0.7,3.6c0.9,1.7,2.4,2.3,3.5,2.8c1.1,0.5,4,0,4.8-0.9c0.9-0.9,0.5-1.8,1.4-2.7c-0.1,0-0.5,0.3-0.4,0
		c0.5-0.8,0.4-2.2,1.1-2.9c0.5-0.5,1.3-0.3,1.7-0.8c0.5-0.8,0.9-1.8,1.1-2.8c0.2-1,0.5-1.9,1-2.7c-0.3-0.4,0.2-1,0.3-1.4
		c0.7-2.2,1.8-4.3,2.5-6.6c1.4-5,3-10.1,4.3-15.1c1.7-6.8,3.5-13.5,5.7-20.1c0.6,0,1.1-0.2,1.6-0.5c4.1-3.1,3.8-9.8,5.8-13.3
		c2.1,3.3,2.4,7.2,3.5,10.5c0.5,1.7,1.3,3.3,1.6,5c0.5-0.6,1.1-1.1,1.6-1.6c0.6-0.6,1.3-1.1,2-1.7c0.7-0.9,1.3-1.9,1.9-2.5
		c1.8-1.8,3.9-3.2,5.9-4.6c4.1-2.9,7.3,3.6,4.7,7.9c-2.2,3.5-5.4,5.2-8.3,7.5c-0.8,0.9-1.7,1.7-2.7,2.4c-0.6,0.6-1.1,1.3-1.6,2.1
		c2.4,2.2,5.1,2.1,7.6,1.4c0.9-0.2,2.1-1.6,3.1-2.5c4.6-4.4,8.6-9.7,11.9-15.7c1.8,0.1,3.6,1.8,5.3,2c0.9,0.1,1.7-0.5,2.6-0.3
		c-0.3-1.2,0.5-1.8,0.9-3c0.4-1.2,0.6-2.2,1-3.3c1.9-5.5,3.6-11.2,5.1-17c0.6-2.2,1.5-5,1.3-6.8c-0.4-1.9-1.7-3.1-3.2-3.1
		c-0.5,0.5-0.6,0.8-1.1,0.7c-0.3,1.1-0.6,2.1-1,3.2c-0.7-0.5-1.4-0.7-2-1.3c0.6-2.7,1.7-5.4,1.3-8.1c-3.1-1.9-7.6-5.3-11.1-6.7
		c-1.5-0.6-3.9-2.1-4.7-0.1c-0.2,0.3,0,0.9-0.1,1.2c-0.2,0.8-0.8,1.5-1.1,2.4c-0.2,0.6-0.1,1.2-0.3,1.8c-0.2,0.5-0.5-0.1-0.8,0.3
		c0,0.4,0.4,0.5,0.4,0.8c-0.7-0.3-1.5-0.7-2.1-1.2c0.5-1.6,1.2-2.8,0.9-4.3c0,0.3-0.1,0.5-0.2,0.7c-0.6-0.6-1.3-1.1-2-1.5
		c-1,0.5-1.7-0.5-2.6,0.3c-0.7,0.6-0.9,2.1-2,1.9c1.1-7.4,3.2-14.4,4.8-21.6c0.8-3.6,1.3-7.3,2.2-10.8c0.4-1.8,1-3.5,1.5-5.4
		c0.5-1.8,0.8-3.8,1.5-5.4c0-0.8,0.1-1.7,0.5-2.4c3.6-12,6.6-24.1,10.1-36.1c1.9-6.5,4.4-12.7,6.5-19.2c2.2-6.4,4.3-12.8,6.8-19.1
		c2.2,0.2,4.3,0.5,6.6-1.6c0.1-1.4,0.3-2.7-0.4-3.9c-0.7-1.2-2.2-1.8-3.1-2.9c7.5-21,19-41.6,28.2-62.4c1.1-0.2,2.2,0.2,3.3,0
		c0.4-0.9,1.5-1,1.5-2.2c0-0.4-0.2-0.6-0.4-1.2c-0.3-0.9-0.5-2.2-1.4-2.9c9-18.6,19.8-35.6,32-50.8c1.4,0.7,2.6,0.6,4.2-1.3
		c0.3-1.1,0.2-2.3-0.3-3.3c4.4-5.8,9.2-11.1,14.4-15.6c-2.6,0.9-4.9,3.9-7.4,6.5c-2.5,2.6-5,5.8-7.4,8.5c-1.2-3.5-3.7-4.3-5.7-5.5
		c-0.3-1-1.2-1.9-1.6-2.9c11.8-13.1,23.4-24.3,34.9-29.5c0.3,0.7,0.5,1.5,0.6,2.2c-0.2,0.4-0.3,0.8-0.4,1.3c0.4,2.3-0.3,4.6,1,6.9
		c-1.3,0.6-3.5,1.9-4,4c1.5-1.8,3.1-3.1,4.6-3.4c0.3,0.9,1.2,1.4,1.3,2.1c0.6-0.8,1.5-0.6,2.3-1.5c0-0.9,0.2-1.7,0.2-2.6
		c5-2,9.8-4.3,15-5.6c3.7-0.8,7.4-1.4,11.1-1.8c1-0.1,3.2-0.8,3.8-0.3c0.4,0.4,0.6,1.3,1,1.9c1.3,1.7,4.1,0.2,4.7-2
		c8-0.1,16-1,23.8,2.3c-0.3,1.2-0.3,2.4-0.2,3.6c0.6,0.5,1.2,1.3,1.8,1.8c1.1,0.1,2.4-1.6,2.9-3c5.6,3.5,10.8,6.7,16.2,9.8
		c5.4,3.2,11,6.2,16.1,13.2c-0.4,0.5-0.8,1.1-0.9,1.9c-0.1,0.2-0.2-0.7-0.4-0.3c0.2,1,0.4,2.3,1,2.8c0.8,0.6,1.5-0.4,2.3-0.3
		c0.9,2.3,2,5.2,2.9,7.4c0.2,0.6,0.3,1.3,0.2,1.9c0.7-0.7,0-1.8-0.2-2.5c-0.6-2.7-1.5-5.2-2.5-7.7C364.2,98.5,362.8,97.1,364.3,95.9
		z M151,374.5c0.7,0.1,1.3,0.4,1.9,0.9c-0.9,3.9-2.2,7.5-3.8,11c-0.5,1.1-0.9,2.9-1.9,2.8C148.5,384.3,150,379.4,151,374.5z
		 M132.7,364c0.7,0.3,1.4,0.6,2.1,1.1c-1.5,5-2.6,10-4.3,14.9c-0.6-0.4-1.1-1-1.5-1.8C129.8,373.5,131.6,368.8,132.7,364z
		 M150,268.6c-6.1,17.7-10.2,35.8-15.6,53.8c-0.7,2.5-1.3,5.1-1.7,7.7c-1.5,7.8-3.2,15.4-4.8,23.2c-0.3,1.3-0.5,2.6-0.8,3.9
		c-0.2,1.3-0.6,2.5-1.1,3.7c0.5,0.7,1.3,0.5,1.6,1c-1.8,5.4-3.4,10.9-4.7,16.5c-0.6,2.5-1.4,4.8-1.6,7.2c0.5,2,2,3.3,3.3,4.3
		c-0.8,2.1-1.2,4.6-2.4,6.3c-2.2,0.3-2.6-3.2-3.2-5.8c-0.8-3.4-2.4-6.4-4.6-8.5c0.7-3,1.9-5.9,1.7-8.9c-0.8-0.7-0.9-1.9-1.8-2.6
		c0.5-1.4,0.8-2.9,1.3-4.5c0.3-1.5,0.8-3,1.3-4.5c0.3-0.6,0.7-0.9,0.9-1.5c0.4-1.3,0.1-2.8,0.1-4.1c1.5-3.2,1.8-6.4,1.9-9.7
		c1.9-2,4.3-5.7,2.4-8c1.7-4.8,3.1-9.8,4.1-15c0.4-2.2,0.2-4.5,0.6-6.6c-0.5-0.6-0.2-1.7-0.5-2.6c4.3-13.4,7.9-27.6,12.5-41.5
		c3.5-10.4,7.1-20.6,10.5-31c1.1-3.6,2.6-6.8,3.8-10.3c0.4-1.2,2.2,0,3.2,0.1c0.4,0.8,0.1,1.7,0.5,2.6c0.7,2,2.6,3.2,3.8,4.2
		C156.7,248.1,153.4,258.5,150,268.6z M163.7,229.5C163.7,229.5,163.7,229.5,163.7,229.5L163.7,229.5
		C163.7,229.5,163.7,229.5,163.7,229.5c-1.4-1-2.7-1.2-4.4-1.5c-1.6-0.3-2.8,0-4.2-2c2.2-5.6,4.4-11.2,6.6-16.9
		c2.1-5.5,3.9-11.4,6.2-16.9c4.8-11.3,9.8-22.6,15.1-33.6c0.5-0.9,1-0.3,1.8,0.5c0.6,0.4,1.1,0.8,1.6,1.4c0.4,0.7,0.4,1.9,0.9,2.8
		c1.3,2.5,3.3,3.1,4.5,4.1C182.6,188.1,171.3,208.7,163.7,229.5z M227.2,110.1c-6.8,8.4-12.6,16.7-18.1,25c-2.7,4-4.9,8.5-7.2,12.7
		s-4.6,8.5-6.8,12.6c-1.4-1.6-2.4-3.5-3.6-4.4c-1.2-0.9-2.6-0.3-4,0.6c-0.7-0.8-1.5-1.5-2.3-2.1c7.1-12.7,14.4-25.2,22.7-37.7
		c4.3-6.3,8.9-12.2,13.9-17.6c0.3,1.1,1.2,1.5,1.6,2.4c0.2,0.7,0.3,1.5,0.3,2.3C224.2,106.4,225.4,108.7,227.2,110.1z M294.4,60.3
		c-0.2,0.4,0,0.8-0.1,1.2c-1,1.8-1.3,4.1-0.6,6.2v0c-4.7,0.9-9.6,1.2-14.6,2.5c-5.1,1.4-10,3.3-14.8,5.7c-0.1-2-0.8-5-2.8-6.2
		c-0.1-1.1-0.3-2.2-0.7-3.2c11.4-5.8,22.7-9.5,33.9-10c0.2,1.1,0,2.1,0.4,3.2C294.9,59.8,294.6,60,294.4,60.3z M326.4,67.5
		c-1.1-0.2-1.7,1.3-2.2,2.4c-7.9-3-15.9-2.5-23.9-2.2c0-0.9,0.1-1.9,0-2.9c0-0.9,0-1.9-0.3-2.8c-0.2-0.5-0.7-0.8-0.9-1.3
		c-0.5-1.4,0.4-3.5-0.6-4.5c9.9,1,19.6,3.9,28.8,8.6C326.8,65.7,326.5,66.6,326.4,67.5z M361.2,95.8L361.2,95.8
		c-5.2-7.1-10.9-10.2-16.3-13.5c-5.4-3.3-10.8-6.2-16.3-9.8c-0.4-0.9-0.2-2.4-0.7-3.6c0.5-1,1-1.9,1.5-2.8l0.1-0.2
		c5.2,3,10.8,5.3,16,9.9c6.1,5.5,11.9,11.5,17.3,18.1C362.2,94.6,361.8,95.3,361.2,95.8z" />
		<path class="st4" d="M242.3,215.6c-2.3-2-4.4-4.3-6.9-5.4c1,1.1,2.1,2.2,3.3,3.1c3.4,3.1,6.8,5.8,10.2,8.9
		c4.9,4.3,9.5,9.3,13.6,14.8c7.1,9.6,9,18.1,6.3,26.8c-0.7,2.8-1.9,5.4-3.4,7.6c-1.4,2-2.9,3.5-4.2,5.1c-4.4,5.2-8,9-12.3,11.5
		c-2.7,1.6-5.4,3.2-8,4.9c-2.6,1.7-5.3,3-8,4.7c-4.6,2.9-9.9,8.4-14.4,14.5c-1.8,2.7-3.2,5.7-4.2,9.1c-1.1,2.9-1.9,6-2.4,9.2
		c-0.9,7.8,1.3,16.7,7.3,23.1c0.3,2.8,1.7,4,4.5,2.9c0.2-1.4,0.1,1.5,0,0c0.4,0.1,1.1,0.2,1.2,0.6c-0.1-0.2-0.3-0.1-0.4-0.1
		c1.7,1.6,3.4,1.7,5.1,2.2c0,0.2,0,0.5,0.2,0.5c2,0.6,4.1,0.7,6.2,0.4c0.3,0.5,0.5,1,0.9,1.5c1.9,0.8,2.3-1.8,2.3-3.3
		c1.9,0,4.2-2.2,6-2.4c0.1,0,0.2,0,0.3,0c-0.1,0-0.2,0-0.3,0c-0.6,0.1-1.7,0.7-1.5,1.7c1.4-0.5,2.8-2.1,4.1,0.1
		c-0.7,1.3-1.7,2.3-2.9,2.6c-0.5-0.7-1.2-1.2-1.9-1.3c0.3,1.2,1.8,4.4,2.9,3.7c0.3-0.3-0.4-0.6-0.3-0.9c1.4-0.2,3-2,3.2-3.8
		c0-1.7-0.7-3.2-1.8-4.1c-0.1-1.3,0.2-2.5-0.6-3.8c-0.3,0.2,0.1,0.4,0,0.6c-0.9-2-2.3-1.8-3.6-1.6c0.3-0.4,0-1.2-0.4-0.9
		c-0.1-0.4,0.6-0.8,0.2-1.3c-1.2,1.1-1.9,3-1.9,4.9c0.3,0.4,0.7-0.7,0.7-0.4s0.2,0.6,0.2,0.8c0.6-0.7,1.1-1.8,1.9-2.2
		c0.8-0.4,1.9,0.6,2.3,1.5c0.8,1.8-0.9,2.5-2,3c-2,1-3.9,1.6-5.7,2.6c-0.5-0.6-1.3-0.7-1.8-0.1c-0.3,0.4-0.5,1-0.3,1.6
		c-4.1,0.5-8.2-1.6-12.2-3.6c0-0.7-0.2-1.4-0.3-2.1c-0.5-0.9-1.2-1.6-2-2c-0.4-0.2-0.5-0.8-0.9-0.5c0-0.4-0.2-0.8-0.5-0.8
		c-0.9,0.7-0.5,2-0.8,2.5c-5.7-6.7-7.2-14.8-6.2-21.9c0.5-3.1,1.2-6,2.2-8.9c1-3.2,2.4-6.2,4.1-8.8c1.9-2.5,3.9-4.9,6-7.1
		c5.2-5.7,10.7-8.4,16-11.7c2.6-1.6,5.2-3.2,8-4.9c2.9-1.7,5.6-3.9,8-6.5c3-3.2,5.9-6.7,8.7-10.4c1.4-2.1,2.5-4.5,3.3-7.2
		c2.3-7.3,2.3-15.1-2.2-22.7c-1.3-2.1-2.7-4.2-4.2-6.1C256.1,227.2,249,221.4,242.3,215.6z" />
		<path class="st5" d="M225.6,102.2c0-0.3,0.4-0.7,0.6-0.2C225.9,102.3,225.7,102.2,225.6,102.2z" />
		<path class="st5"
			d="M225.2,104c0.3,0,0.6-0.6,0.8-0.7c0.1,0.9,0.3,1.7,0.8,2.3l-0.6,0.8C225.7,105.7,225.4,104.9,225.2,104z" />
		<path class="st5" d="M227.1,103.5c1.2,0.7,2.3,1.8,3,3.3C229.2,108.3,227.4,104.5,227.1,103.5z" />
		<path class="st5" d="M185.4,158.2c-0.6-0.3-1.2-0.6-1.8-0.9C183.9,156,184.8,157.6,185.4,158.2z" />
		<path class="st5"
			d="M226.7,106.9c0.2,0,0.3-0.2,0.5-0.4c0.5,0.4,0.1,0.8,0.1,1.2C227,107.5,226.8,107.2,226.7,106.9z" />
		<path class="st5"
			d="M227.9,107.7c0.3,0,0.5,0.5,0.8,0.5c0.1,0.2-0.3,0.5-0.5,0.7C227.9,108.6,227.7,108.1,227.9,107.7z" />
		<path class="st5" d="M228.8,109.1l0.4-0.5c0.5,0.2,1,0.3,1.5,0.3C230.3,110,229.3,109.6,228.8,109.1z" />
		<path class="st5" d="M230.1,107.5l0.2-0.2c0.2,0,0.3,0.3,0.5,0.5C230.6,107.9,230.1,107.8,230.1,107.5z" />
		<path class="st5" d="M262.2,72.4c-1.5,0.8-0.6,3.4-0.5,4.6C260.6,76.1,260.1,70.8,262.2,72.4z" />
		<path class="st5"
			d="M194.3,162c-0.3,0.6-0.5,1.2-0.9,1.8c-1.5,0.2-3-0.8-3.7-2.6C191.4,159.3,192.9,160.4,194.3,162z" />
		<path class="st5" d="M262.1,77.7c0.2-0.2,0.3,0.1,0.5,0.4C262.4,78.2,262.2,77.9,262.1,77.7z" />
		<path class="st5" d="M195,162.7l0.3,0.4c-0.2,0.4-0.5,0.8-0.9,0.9C194.4,163.5,194.8,163.1,195,162.7z" />
		<path class="st5" d="M196.3,165.2c0.3-0.1,0.2,0.4-0.1,0.6C195.8,165.5,196.4,165.4,196.3,165.2z" />
		<path class="st5" d="M156.2,216.9c-0.3,1.4-1,2.7-1.8,3.6C154.6,219.1,155.2,217.8,156.2,216.9z" />
		<path class="st5" d="M154.3,221.8c-0.2,0.9-0.6,1.7-1.2,2.3C153.3,223.2,153.7,222.4,154.3,221.8z" />
		<path class="st5"
			d="M296.7,56.4c0.1-0.1,0.2,0,0.2-0.1c0.4,1,0.2,1.9,0.5,2.8C296.4,59.4,297.2,57.2,296.7,56.4z" />
		<path class="st5" d="M297.1,61.8c-0.2,0.5-0.8-0.2-1.2,0C296,60.9,296.9,61.5,297.1,61.8z" />
		<path class="st5"
			d="M295.7,62.6c0.2,0.2,0,0.4,0.2,0.7c-0.2,0.1-0.5,0.1-0.7-0.1C295.3,62.8,295.5,62.6,295.7,62.6z" />
		<path class="st5"
			d="M295.8,64.3c0.1,0.4,0.1,0.8,0,1.2c-0.3,0.2-0.6-0.4-1,0.1C294.6,64.6,295,63.8,295.8,64.3z" />
		<path class="st5"
			d="M294.8,66.3c0.3-0.3,0.6,0,0.9-0.3c0.2,0.6,0.1,1.2,0.2,1.7C295.4,67.7,295,66.9,294.8,66.3z" />
		<path class="st5" d="M297.7,63c0.2,0.8,0.3,1.6,0.3,2.4c0.2,0.8,0.2,1.6,0.2,2.4c-0.3,0.4-1-0.3-1.3-0.8
		C296.5,66,296.8,63.7,297.7,63z" />
		<path class="st5"
			d="M159.1,231.2c1.3-0.2,2.6,0,3.8,0.6c-0.5,0.6-0.3,1.4-0.8,1.8C161.3,234.3,160.1,232,159.1,231.2z" />
		<path class="st5" d="M158.7,232.3c0-0.2,0.6,0.5,0.8,0.8C159.2,233.3,158.9,232.6,158.7,232.3z" />
		<path class="st5" d="M160.1,235.8c0.4-0.2,0.7,0.3,1.1,0.6C160.8,236.6,160.5,235.9,160.1,235.8z" />
		<path class="st5"
			d="M163.8,231.9c0.6,0.6,1.2,0.8,1.8,1.4c-0.8,0.5-1.7,0.6-2.5,0.4C163.3,233.1,163.4,232.5,163.8,231.9z" />
		<path class="st5"
			d="M164.7,234.9c0.3-0.2,0.7-0.4,1.1-0.5c0,0.1,0,0.2,0.1,0.3C165.6,235.1,165.1,235.2,164.7,234.9z" />
		<path class="st5" d="M136.4,271.9c-0.2,1-0.5,2-1,2.9C135.6,273.8,136,272.8,136.4,271.9z" />
		<path class="st5" d="M135,276.6c0,0.6-0.2,1.1-0.6,1.5C134.5,277.6,134.7,277.1,135,276.6z" />
		<path class="st5"
			d="M131.4,287.7c0.3,0.1-0.5,1.6-0.6,2.2c-0.4,0.5-0.5,1-0.8,1.4C130.4,290.1,130.9,288.8,131.4,287.7z" />
		<path class="st5"
			d="M128.8,295.8c0.1-0.9,0.8-1.8,1-2.8c0.2-0.2,0.1,0,0.2,0.1C129.7,294.1,129.3,295,128.8,295.8z" />
		<path class="st5" d="M124.7,312c-0.8-0.2,0-1.2,0.1-1.7c0.5-2,1.2-3.9,2-5.8c0.2-0.2,0.1,0,0.2,0.1
		C126.2,307,125.4,309.8,124.7,312z" />
		<path class="st5" d="M122,313.3l0.4-0.5c0.9,0.2,2.3,0.4,2.8,1.5C124.4,314.6,123,314,122,313.3z" />
		<path class="st5" d="M120.5,315.4c0.4-0.1,0.7,0.6,1.1,0.6c0.1,0.3,0,0.6,0.1,1c0.9,2,0.8,3.9,0.6,6.2c-0.2,2-0.2,3.5-1.5,5
		c-0.2-0.8,0-1.6-0.2-2.5c0.8-1.3,1.2-2.9,1-4.6c-0.2,1.7-1.3,5.5-3.5,6.1c-2.2-2,0.1-4.4-0.2-6.5
		C118.7,319,119.9,317.2,120.5,315.4z" />
		<path class="st5"
			d="M325.4,71.7c-0.1,0.9,0,1.7-0.1,2.6c-0.1-0.1-0.3-0.3-0.4-0.3C324.8,73.2,325,72.4,325.4,71.7z" />
		<path class="st5" d="M326.7,71.3l0.3-0.4c0.1,0.2,0.2,0.5,0,0.7C327,71.4,326.8,71.6,326.7,71.3z" />
		<path class="st5" d="M327.2,72.8c-0.2,0.5-0.4,0.9-0.8,1.2C326.1,73.2,326.3,71.7,327.2,72.8z" />
		<path class="st5" d="M122.7,316.7c0.8-0.2,1.9,2.1,1.5,3.1C123.7,318.7,122.9,317.8,122.7,316.7z" />
		<path class="st5"
			d="M124.3,317c0.2,0,0.4-0.1,0.5,0.1c0,0.2-0.2,0.4-0.1,0.6C124.5,317.8,124.4,317.2,124.3,317z" />
		<path class="st5" d="M123.3,319.4c0.4,0.1,0.5,0.9,0.8,1.2c-0.1,0.6-0.2,1.1-0.4,1.6c0-0.4,0-0.8,0-1.1
		C123.1,320.9,123.6,320,123.3,319.4z" />
		<path class="st5"
			d="M117.3,328.1c0.2-0.3,0.4,0.3,0.5,0.1c0,0.8,0.4,2.7-0.5,2.5C117.1,329.9,117.4,329,117.3,328.1z" />
		<path class="st5" d="M121.4,340c-0.4,0.5-1,0.8-1.5,0.6c-2.8-0.5-5.4-2-7.6-4.2c-0.1,0.4,0.2,0.8,0.3,1.2c-0.5,0.2-1,0.5-1.4,0.8
		c0.3,0.6,1.2-0.7,1.7-0.3c-0.1,0.7-1.3,0.8-1.8,1.2c-0.7-1.6,0.3-3,1-4.5C114.9,337.4,118.1,339.1,121.4,340z" />
		<path class="st5" d="M114.7,332.8c0.5,0.1-0.3,1.5-0.7,1.2C113.8,333.6,114.7,333.3,114.7,332.8z" />
		<path class="st5"
			d="M119.3,327.6c0,0.7,0,1.4-0.1,2.1c-0.3,0.3-0.5,0.5-0.8,0.7C118.4,329.4,118.1,328.1,119.3,327.6z" />
		<path class="st5"
			d="M120.2,326.5c-0.2,0.8,0.1,1.6-0.1,2.4c-0.2,0.1-0.3,0.1-0.5,0.5C119.8,328.4,119.2,327.4,120.2,326.5z" />
		<path class="st5"
			d="M124.8,321.8c0,0.7-0.3,1.3-0.3,1.9c-0.2,0.3-0.1-0.5-0.2-0.2C124.4,322.9,124.6,322.3,124.8,321.8z" />
		<path class="st5" d="M115.3,333.6c0,0.2,0.1,0.3,0.2,0.4c-0.3,0.2-0.2,0.5-0.5,0.7c-0.1-0.1-0.2-0.2-0.2-0.2
		C114.8,334.2,115.1,333.7,115.3,333.6z" />
		<path class="st5"
			d="M111,339.9c0.8-0.3,1.6-1.3,2.4-0.7c-0.7,0.5-1.4,0.8-2.1,1.5C111.1,340.4,111.2,340.2,111,339.9z" />
		<path class="st5"
			d="M116,334.4c0.1,0.2,0.3,0.3,0.5,0.4c0.1,0.7-0.5,0.5-0.8,0.4C115.4,335,115.8,334.6,116,334.4z" />
		<path class="st5" d="M123.4,325.8c0.1,0.8,0.1,1.6,0.1,2.4C123.2,327.4,123.1,326.6,123.4,325.8z" />
		<path class="st5"
			d="M118.6,331.9c0.4-0.3,0.7-0.3,1.1-0.6c-0.1,0.4-0.6,0.8-0.9,1.2C118.6,332.3,118.7,332.1,118.6,331.9z" />
		<path class="st5"
			d="M111.4,341c1-0.3,2-1.3,2.9-1.3c-0.9,0.7-1.8,1.2-2.7,1.7C111.5,341.2,111.4,341.1,111.4,341z" />
		<path class="st5"
			d="M110.6,343c0.2,0.2,0.1,0.3,0.2,0.5c-0.2,0.3-0.5,0.2-0.7,0.4C110.3,343.5,110.3,343,110.6,343z" />
		<path class="st5" d="M116.7,335.6c0.1-0.1,0.3-0.3,0.4-0.5c0.2,0.1,0.3,0.1,0.5,0.4c-0.1,0.1-0.3,0.3-0.4,0.5
		C117,335.7,116.8,335.9,116.7,335.6z" />
		<path class="st5" d="M121.5,330.3c-0.1,1.2,0.3,2.5,0,3.8C121.6,332.8,121,331.5,121.5,330.3z" />
		<path class="st5"
			d="M112,341.8c1.2-0.2,2.4-1.8,3.6-1.4c-0.9,0.8-1.9,1.5-3,2C112.4,342.2,112.2,342,112,341.8z" />
		<path class="st5" d="M117,347.2c0.1,1.6-0.1,3.3-0.5,4.9c-1.9,1-3.7-0.4-5.6-1.3c-0.2-0.6-0.4-0.8-0.8-0.7c0.1-0.9-0.8-0.8-1.1-1.6
		c-0.1-1.1,0.4-2.2,0.7-3.3C111.7,347.2,114.4,348,117,347.2z M112.3,348.8c-0.1-0.3-0.4-0.4-0.7-0.3c0,0,0,0-0.1,0
		C111.5,349.2,112.3,349.6,112.3,348.8z M113.7,350.6c0.5-0.4,0.8-1.1,0.2-1.8c-0.4-0.1-0.7,0.3-0.8,0.8
		C113.1,350.1,113.3,350.6,113.7,350.6L113.7,350.6L113.7,350.6z M114.9,350.4c0.3-0.1,0.5-0.5,0.5-0.9c0,0,0,0,0,0
		C114.9,348.6,114.3,349.8,114.9,350.4L114.9,350.4z" />
		<path class="st5"
			d="M117.7,336.2c0.2-0.4,0.5-0.5,0.8-0.4c-0.1,0.3-0.3,0.6-0.6,0.5C117.9,336.3,117.8,336.2,117.7,336.2z" />
		<path class="st5" d="M114,342.4c0.8-0.8,1.7-1.3,2.6-1.4C115.7,341.4,114.8,341.9,114,342.4z" />
		<path class="st5"
			d="M121.5,335.2c0.1,0.7-0.3,1.4-0.5,2.2c-0.7,0.1-1.5-0.1-2.1-0.6C119.6,335.2,120.6,336.1,121.5,335.2z" />
		<path class="st5" d="M106.1,354.4c0.4,0,0.1,0.3,0.1,0.2c0,0.6,0.8,1.4,0.4,2c-0.2-0.6-0.4-1.1-0.7-1.7
		C106,354.8,106.1,354.6,106.1,354.4z" />
		<path class="st5" d="M107,353.4c0.2,0.2,0.5-0.1,0.8-0.1c1.5,1.4,3.2,2.5,4.9,3.3c1.2,0.5,2.6-0.1,3.5,1.3
		C113,358.8,110,356.5,107,353.4z" />
		<path class="st5"
			d="M109,351.6c0.3-0.1,0.5-0.5,0.8-0.2c-0.2,0.2-0.5,0.4-0.7,0.5C109.1,351.8,109.1,351.7,109,351.6z" />
		<path class="st5" d="M97.1,389.6c0.3,0,8.2-31,8.5-30.7c-0.3,0.8-0.1,1.6-0.6,2.4c-0.3-0.1-0.6-0.8-0.9-1.1
		C104.3,359.5,96.9,390.4,97.1,389.6z" />
		<path class="st5" d="M109.6,352.4c0.3-0.3,0.7-0.5,1.1-0.5C110.5,352.1,109.9,352.9,109.6,352.4z" />
		<path class="st5"
			d="M107.4,357.4c0.9,0.3,1.8,0.8,2.5,1.5c-0.2,0-0.4,0.4-0.5,0.6C108.5,359.4,107.8,358.3,107.4,357.4z" />
		<path class="st5" d="M103.5,362.3c0.4-0.2,0.7,0.9,1,1c-2.1,7-3.9,14-6,21c-0.1-1.1-0.2-2.3-0.4-3.4
		C100.1,374.7,101.8,368.5,103.5,362.3z" />
		<path class="st5" d="M111.2,353.7c0.1-0.5,0.8-0.5,1.1-0.8C112.1,353.3,111.5,353.6,111.2,353.7z" />
		<path class="st5" d="M111.8,353.9c0.5-0.1,0.9-0.6,1.4-0.5C112.9,354,112.2,354.5,111.8,353.9z" />
		<path class="st5" d="M105.3,364.4c0.9,0.4,1.7,1.2,2.6,1.8c-1.6,6-2.9,12.3-4.7,18.4s-3.9,12.1-6.1,18.3c-0.4-0.3-0.8-0.5-1.2-0.8
		c2.9-9.4,6.2-18.8,8.1-28.3c-3,8.9-5.4,18.6-8.7,27.8c-0.5-0.4-0.9-0.9-1.2-1.5c0.6-0.9,0.6-1.8,1.3-2.7
		C99.2,386.5,102.1,375.5,105.3,364.4L105.3,364.4z" />
		<path class="st5" d="M110.6,359.4c0.2-0.1,0.3,0.1,0.4,0.3c0,0,0,0.1,0,0.1c-0.1,0-0.3,0.1-0.4-0.1
		C110.7,359.6,110.7,359.5,110.6,359.4z" />
		<path class="st5" d="M110.7,362.4c0.2-0.3,0.4,0.1,0.6,0c0.1,0.4,0.2,0.9,0.2,1.3c-0.2,0.1-0.4,0-0.6-0.1
		C110.8,363.2,110.8,362.8,110.7,362.4z" />
		<path class="st5"
			d="M111.9,362.8c0.1-0.1,0.2,0,0.2-0.1c0.1,0.5,0.2,0.9,0.3,1.4C111.8,364.3,112.1,363.2,111.9,362.8z" />
		<path class="st5"
			d="M112.7,362.8c0.4-0.3,0.9-0.3,1.2,0.1c-0.3,0.5-0.3,1.3-0.8,1.3C112.8,363.7,112.8,363.3,112.7,362.8z" />
		<path class="st5" d="M109.6,367.7c0.3,2,1.1,4.8,0.2,7C109.7,372.3,108.9,369.9,109.6,367.7z" />
		<path class="st5" d="M110.2,367c0.2-0.1,0.4,0,0.6,0.1c0.1,1.5,0.7,3,0,4.5C110.5,370.1,110.5,368.5,110.2,367z" />
		<path class="st5" d="M111.4,367.3c0.4,0.4,0.5,1.2,0.2,1.7C111.5,368.5,111.5,367.9,111.4,367.3z" />
		<path class="st5"
			d="M96.5,386.3c0.5,0.5,0.1,2.4,0.6,3.4c-0.2,0.7-0.4,1.5-0.6,2.1C96.2,389.9,95.7,388,96.5,386.3z" />
		<path class="st5" d="M107,378.1c0.1-0.2,0.2-0.1,0.1,0c0.1,1.3,0.6,2.6,0,3.8C107,380.6,106.6,379.3,107,378.1z" />
		<path class="st5" d="M94.4,393.4c0.2-0.2,0.1,0,0.2,0.1c0.4,2.2,0.2,4.4-0.7,6.4c-0.4-0.5-0.7-1-1-1.6c0.2-0.3,0.1-0.6,0.3-0.9
		c0.2,0.7-0.1,1.6,0.6,2.1C94.2,397.5,93.3,395.4,94.4,393.4z" />
		<path class="st5" d="M106.2,380.7c0.3,1,0.4,2,0.3,3C106.1,382.8,106,381.7,106.2,380.7z" />
		<path class="st5" d="M111.6,385.3c-0.5,0.3-1.1,0.5-1.6,0.7c1.3-4.5,2.5-9.5,3.9-13.7c1,1.9-0.2,5.1-0.7,7
		C112.6,381.5,112,383.5,111.6,385.3z" />
		<path class="st5"
			d="M104.6,385.3c0.4,0.1,0.2,1.6,0.4,2.3c-0.1,0.4-0.2,0.7-0.3,1.1C104.3,387.7,104.3,386.5,104.6,385.3z" />
		<path class="st5" d="M97.6,407.7c-0.9-0.2-1.6-0.7-2.2-1.6c-1.1-0.2-2.4-1.5-3.7-2.8c-0.2-0.5,0.2-0.9,0.2-1.3
		c0.1-0.1,0.1-0.1,0.2-0.1C93.6,405.1,96,406.2,97.6,407.7z" />
		<path class="st5" d="M93.2,400.9c0.1-0.1,0.6,0.5,0.3,0.6C93.4,401.3,93.2,401.1,93.2,400.9z" />
		<path class="st5"
			d="M101.5,394.1c0.1-0.2,0.2-0.1,0.2,0c-0.1,1.9,0.5,3.8,0.1,5.6C101.6,398.1,100.8,395.8,101.5,394.1z" />
		<path class="st5" d="M131.8,358.5c0.3-0.2,0.6,0.2,1,0.4c-0.2,0.7-0.2,2-0.9,2.1c-0.2,0.2,0.4,0.4,0.2,0.6c-1.6,4.9-2.9,9.9-4.1,15
		c-0.5,0.2-1,0.6-1.4,1C128.2,371.3,129.8,364.9,131.8,358.5z" />
		<path class="st5"
			d="M92.1,406.4c0.1-0.1,0.2,0.1,0.2,0c0.2,1.7-0.1,3.4,0.2,5.1c-0.7-0.5-0.4-1.7-0.4-2.5S92.1,407.2,92.1,406.4z" />
		<path class="st5" d="M89.7,409.7c0.1-0.1,0.1-0.2,0.2-0.2c0.9,1.8,2,3.4,3.4,4.7c0.5,0.4,1.1,0.5,1.3,1.1c-0.6,0.2-1.9-0.7-2.4-1.5
		c-0.8,0.2-1.5-1.4-1.9-2.3l0.3-0.3C89.9,411,89.9,410.3,89.7,409.7z" />
		<path class="st5"
			d="M100.1,397.8c0.2,2.3,0.5,4.5,0.7,6.8c-0.4-2-0.7-4.1-0.8-6.3C100,398.1,99.7,397.9,100.1,397.8z" />
		<path class="st5" d="M111.3,385.9c-0.1,0.8-1.1,0.6-1.6,1C109.6,385.8,110.8,386.4,111.3,385.9z" />
		<path class="st5" d="M99.2,399.5c0.1-0.2,0.2-0.1,0.1,0c0.2,1.6,0.3,3.2,0.3,4.8c-0.6-1.2-0.3-3-0.6-4.5
		C99.2,399.7,99.3,399.6,99.2,399.5z" />
		<path class="st5" d="M93.1,407.1c0.1,1.8,0.2,3.5,0.1,5.3c-0.1-0.1-0.2-0.4-0.3-0.3c-0.1-1.7,0.1-3.3,0-5
		C93,407.1,93.1,407.1,93.1,407.1z" />
		<path class="st5" d="M111,387.1c0,1.1-1.3,1-1.8,1.6C109.1,387.4,110.3,387.6,111,387.1z" />
		<path class="st5" d="M98.5,401.8c0.3,0,0,1.4,0.2,1.9C98.1,403.6,98.4,402.4,98.5,401.8z" />
		<path class="st5" d="M114.1,383.3c1.9,2.7,3.2,6,3.9,9.6c-0.3-0.2-0.7,0-1-0.6c-0.1-0.3,0.1-0.5,0-0.8c-1.6-2-1.8-4.4-3.3-6.6
		C113.6,384.3,113.8,383.7,114.1,383.3z" />
		<path class="st5" d="M93.8,407.8c0.1-0.1,0.2,0.1,0.2,0c0.1,0.9,0.1,1.8,0,2.8c0,0.9,0.2,1.9,0,2.5C93.6,411.3,94,409.5,93.8,407.8
		z" />
		<path class="st5" d="M110,391.1c-0.4,1-1.3,0.8-1.9,1.3C108.1,391.5,109.4,391.2,110,391.1z" />
		<path class="st5"
			d="M115.4,390.6c-1,0.2-1.9-0.6-2.8-2.3c0.2-0.6,0.4-1.3,0.5-2C114.1,387.1,114.7,389.3,115.4,390.6z" />
		<path class="st5"
			d="M94.7,408.4c0.1-0.1,0.2,0,0.3,0.1c-0.1,1.7,0.1,3.4-0.1,5.1C94.5,411.8,94.8,410.1,94.7,408.4z" />
		<path class="st5" d="M89.8,414.4c0.5-0.1,0.9,1.2,1.3,1.2c-2.1,10-5.4,19.8-7.7,29.8c-0.9-0.1-0.5-1.4-1.2-1.4
		C84.2,434.1,87.9,424.3,89.8,414.4z" />
		<path class="st5" d="M109.4,392.5c-0.2,0.9-1.3,0.8-1.8,1.4C107.6,392.8,108.9,393.1,109.4,392.5z" />
		<path class="st5" d="M87.9,417.6c0.1,0.3,0,0.5,0,0.8C87.5,418.5,87.7,417.9,87.9,417.6z" />
		<path class="st5" d="M152.4,364.7c0,0.6-0.1,1.3-0.4,1.8c-4.6-2.8-9.3-5.2-14.2-7.3c0-0.5,0.1-1.5,0.4-1.8c0.7-0.6,2.8,1.2,3.6,1.7
		C145.3,361.1,149.3,363,152.4,364.7z" />
		<path class="st5" d="M109.1,394.2c-0.4,1-1.3,0.8-2,1.4C107.2,394.7,108.4,394.3,109.1,394.2z" />
		<path class="st5" d="M112.1,389.8c0.4-0.2,0.7,0.9,0.9,1.2C112.7,390.8,112,390.4,112.1,389.8z" />
		<path class="st5" d="M87.3,419.6c0.2,0.6-0.1,1.1-0.1,1.7C86.7,421,87.1,420.1,87.3,419.6z" />
		<path class="st5" d="M96.3,409.2c0.3,0.6,0.2,1.7,0.2,2.6c0.1,0.8,0,1.7-0.1,2.5c-0.5-0.6-0.2-1.6-0.2-2.5c0-0.8-0.1-1.8,0-2.6
		C96.2,409.2,96.3,409.2,96.3,409.2z" />
		<path class="st5"
			d="M108.5,395.3c-0.6,2.7-1.1,6.2-3.5,8.2c0.4-2.3,1.3-4.6,1.7-6.9C107.3,396.3,107.9,395.9,108.5,395.3z" />
		<path class="st5" d="M86.6,422c0.1,0.5,0.3,1-0.1,1.5C86.3,423,86.3,422.4,86.6,422z" />
		<path class="st5" d="M97,409.9c0.1-0.1,0.2-0.1,0.2,0c0.1,1.6,0.1,3.2,0,4.8C96.6,413.4,97.3,411.4,97,409.9z" />
		<path class="st5"
			d="M97.8,410.3c0.2-0.1,0.2,0,0.2,0.2c0.2,1.1-0.2,3.1-0.1,4.3C97.6,413.3,98,411.8,97.8,410.3z" />
		<path class="st5"
			d="M114.1,391c0.8,0.2,1.8-0.1,2.2,1.3c-0.5,0-1.1,0-1.6-0.1C114.5,391.8,114.3,391.4,114.1,391z" />
		<path class="st5" d="M363.6,94.7c0.2,0.6-0.7,1.4-0.9,1.7C362.5,95.9,363.2,94.7,363.6,94.7z" />
		<path class="st5" d="M98.6,410.6c0.1,0.9,0.1,1.7,0,2.6C98.5,412.3,98.5,411.4,98.6,410.6z" />
		<path class="st5" d="M85,427.3c0.4-0.1,0.2,1.1,0,1.5C84.7,428.3,84.9,427.8,85,427.3z" />
		<path class="st5"
			d="M361.4,97.8c0.1,0.5,0.5,1,0.7,1.5c-0.4,0.6-0.8,0.3-1.2,0.1C360.6,98.8,360.9,98.3,361.4,97.8z" />
		<path class="st5" d="M149.8,374.5c-0.4,0.3-0.8-0.3-1.2-0.5c-2.8-1.6-5.7-2.9-8.7-3.9c-1.7-0.6-3.4-0.8-4.9-1.9
		c0.2-0.2,0.1-0.5,0.3-0.7c4.4,1.5,8.7,3.5,12.8,5.9C148.8,373.7,149.5,373.7,149.8,374.5z" />
		<path class="st5" d="M127.7,377.5c-0.2,1.8-0.2,3.7,0,5.5c2,2.5,4.3,4.4,6.9,5.9c2.3,1.4,4.9,1.8,7,2.9c0.9,0.6,1.9,1.1,2.9,1.5
		c0.5,0.1,1,0.1,1.5,0.1c0.5,0.1,0.9,0.2,1.4,0.2c2.3-0.7,2.2-4.6,3.7-6.4c-0.3,1.2-0.6,2.4-1.2,3.4c-0.5,1.2-1.1,3.1-2.1,3.6
		c-1,0.5-4.1-0.6-5.1-1c-1.6-0.7-3.5-1.6-5.3-2.5c-3.5-1.7-7.6-3.5-11-7.1c-1-1.7-0.7-4,0.6-5.3C127,377.8,127.4,377.6,127.7,377.5z
		" />
		<path class="st5" d="M114.9,392.8c1-0.1,2,0.6,2.9,2.1c0.3-0.4-0.2-0.9-0.4-1.3c0.2-0.1,0.4,0.2,0.6-0.1c0.4,2.4,2.1,4.8,3.7,4.9
		c2.9,0.3,3.3-5.6,3.8-7.8c0.7,0.3,1.3,0.8,1.9,1.3c-1.3,2.8-2.5,8.3-5.6,8c-0.6-0.1-1.1-0.5-1.8-0.7c-0.2-0.2,0-0.3,0-0.5
		c-1-0.5-2-0.6-3-0.5c0.6,0.6,1.1,0.2,1.7,0.8c-0.1,0.4-1.1,0.1-1.5,0c-0.2-0.6-0.3-1.1-0.6-1.7c0.7,0,1.3,0.5,2,0.6
		c0-0.5-0.3-1.5-0.8-1.5c-0.3,0.2-0.1,0.5,0,0.7c-0.5,0-0.9-0.1-1.3-0.3c-0.2-0.6-0.4-1.2-0.6-1.8c0.8,0.3,1.9,0.1,2.4,1
		c0-1.4-1.9-1.2-2.7-1.5C115.5,394,115.2,393.4,114.9,392.8z" />
		<path class="st5" d="M134.4,370.7c1.3,1,3,1.5,4.2,2.4c-0.2,0.5-0.8-0.2-1.1,0.1c-1.1-0.5-2.1-1.2-3.1-2
		C134.3,371,134.4,370.9,134.4,370.7z" />
		<path class="st5" d="M83.7,431.5c0.5,0.2,0.3,1.6-0.1,2.3C83.3,433.1,83.3,432.2,83.7,431.5z" />
		<path class="st5" d="M137.9,374.3c-0.5,0.4-1.3-0.2-1.9-0.6c-0.6-0.4-1.4-0.9-2-1.4c0.1-0.2,0.2-0.3,0.1-0.5
		C135.3,372.7,136.9,373.6,137.9,374.3z" />
		<path class="st5"
			d="M95.2,418.5c0.1-0.1,0.1-0.1,0.2-0.1c0.3,1.2,0.2,2.3,0.2,3.4C95.3,420.8,95.2,419.7,95.2,418.5z" />
		<path class="st5" d="M133.9,372.8c1.2,1,2.4,1.8,3.7,2.5c-0.1,0.2-0.2,0.5-0.2,0.7c-1.3-0.5-2.6-1.3-3.8-2.2
		C133.8,373.5,133.7,373.2,133.9,372.8z" />
		<path class="st5"
			d="M96.1,418.9c0.2-0.1,0.4,0.1,0.6,0c-0.1,0.7-0.2,1.3-0.5,1.9C96.2,420.1,96.2,419.5,96.1,418.9z" />
		<path class="st5" d="M137.1,376.7c0,0.2-0.1,0.4-0.1,0.6c-1.4-0.5-2.6-1.3-3.7-2.4c0.1-0.1,0.2-0.3,0.1-0.5
		C134.6,375,135.9,376.3,137.1,376.7z" />
		<path class="st5"
			d="M82.2,436c0.5,0.2,0.6,1.8,0.4,2.5c-0.4-0.2-0.3-1.1-0.7-1.5C81.9,436.6,82.1,436.3,82.2,436z" />
		<path class="st5" d="M133,375.8c1.3,0.6,2.5,1.7,3.7,2.4c-0.1,0.2,0,0.5-0.2,0.7c-1.3-0.8-2.5-1.7-3.6-2.7
		C133,376,133.1,375.9,133,375.8z" />
		<path class="st5" d="M128.6,381.6c0.5,0,0.8,0.6,0.9,1.2C129.1,382.6,128.8,382.2,128.6,381.6z" />
		<path class="st5" d="M132.7,376.9c1.2,1,2.4,1.9,3.7,2.6c-0.6,0.2-1.3-0.4-1.9-0.8c-0.6-0.4-1.3-0.9-1.9-1.4
		C132.7,377.2,132.8,377,132.7,376.9z" />
		<path class="st5"
			d="M81.7,438c0.3,0.8,0.5,1.6,0.4,2.5c-0.4-0.3-0.4-1.2-0.8-1.8C81.5,438.5,81.4,438.2,81.7,438z" />
		<path class="st5" d="M93.9,423.6c0.2,0.2,0.3,1.4,0.3,2.1c0.1,0.8,0,1.6-0.1,2.4C94,426.6,93.4,425,93.9,423.6z" />
		<path class="st5" d="M98.2,418.9c-1.2,4.7-2.5,9.6-4,14.7c-1,3.4-2.1,7.2-3.2,11c-0.5,1.7-1,3.6-2.1,4.1c0-0.7,0.5-0.9,0.9-1.2
		c0.1-0.4-0.5-0.3-0.4-0.5c2.5-8.2,4.9-16.4,7.5-24.7C97.3,421.2,97.3,419.7,98.2,418.9z" />
		<path class="st5"
			d="M132.4,378.1c1.3,0.8,2.6,1.6,3.8,2.5c-1.3,0-2.6-1.1-3.9-2.1C132.3,378.4,132.5,378.2,132.4,378.1z" />
		<path class="st5" d="M81,439.9c0.5,0.6,0.6,1.9,0.7,2.8c-0.5-0.3-0.6-1.2-1-1.8C80.9,440.6,81,440.2,81,439.9z" />
		<path class="st5" d="M93,426.3c0.2-0.2,0.1,0,0.2,0.1c0,1.7,0.6,3.5-0.2,5.1C93,429.8,92.4,428,93,426.3z" />
		<path class="st5" d="M131.6,380.4c1.2,0.8,2.5,1.4,3.7,2.2c-0.2,0.3-0.1,0.5-0.3,0.8c-1.2-0.9-2.4-1.5-3.6-2.4
		C131.4,380.8,131.7,380.6,131.6,380.4z" />
		<path class="st5" d="M130.1,382.7c0.6,0,0.8,0.9,1.2,1.5C130.7,384.2,130.3,383.4,130.1,382.7z" />
		<path class="st5"
			d="M117.4,399.5c1.2,0.4,2.4,0.3,3.6,1.2c-1.1,0.1-2.1,0.2-3.2,0.2C117.6,400.5,117.5,400,117.4,399.5z" />
		<path class="st5"
			d="M138.7,374.5c0.7,0.3,1.3,0.7,1.9,1.2c-0.6,0.2-1.3-0.6-1.9-0.7C138.5,374.8,138.8,374.7,138.7,374.5z" />
		<path class="st5" d="M131.6,383.7c0.8,0,0.9,1.1,1.3,1.9C132.2,385.5,131.8,384.5,131.6,383.7z" />
		<path class="st5"
			d="M138.6,375.4c0.7,0.4,1.3,0.9,1.9,1.5c-0.7,0.2-1.4-0.9-2.1-1C138.2,375.6,138.7,375.5,138.6,375.4z" />
		<path class="st5"
			d="M78.6,447.1c0.4,0.8,1.3,2.3,2.1,2.4c0.2,0.4,0.1,0.8,0.2,1.2C79.8,450.2,78.9,448.4,78.6,447.1z" />
		<path class="st5"
			d="M138.1,376.6c0.8,0.4,1.5,1,2.2,1.6c-0.8-0.3-1.6-0.8-2.3-1.3C138.1,376.8,138.2,376.7,138.1,376.6z" />
		<path class="st5" d="M89.5,436c0.4,2.1,0.5,4.2,0.3,6.4C89.8,440.2,89,438.1,89.5,436z" />
		<path class="st5" d="M133.1,384.8c0.9-0.3,1.1,1.4,1.6,2.2C133.9,386.9,133.5,385.7,133.1,384.8z" />
		<path class="st5"
			d="M139.7,382.3c-1,0.2-2.3-0.9-3-1.4c0-0.2,0.1-0.3,0.3-0.3c0,0,0,0,0,0C137.8,381.4,138.8,381.5,139.7,382.3z" />
		<path class="st5" d="M135.6,382.7c0.3-0.1,0.6,0.3,1,0.4c0.2,0.3-0.1,0.6,0,1c-0.3,0.1-0.6-0.5-1-0.4
		C135.4,383.4,135.7,383.1,135.6,382.7z" />
		<path class="st5" d="M141.2,376.2c0.2,0.1,0.4,0.2,0.6,0.4C141.6,376.6,141.2,376.4,141.2,376.2z" />
		<path class="st5" d="M88.1,440.1c0.1,2.1,0.9,4.7,0.3,6.5C88.3,444.4,87.6,442.2,88.1,440.1z" />
		<path class="st5" d="M143,374.8c0.2-0.3,0.3,0.1,0.4,0c0,0.5-0.3,1-0.4,1.5c0,0.1-0.1,0-0.1,0c0,0-0.1,0-0.1,0
		C143,375.8,143,375.3,143,374.8z" />
		<path class="st5" d="M144.7,372.8c0-0.1,0.1,0,0.1,0c0.8,0.5,1.7,0.9,2.5,1.3c0.9,0.4,1.8,0.7,2.2,1.5c-0.7,0.5-1.7-0.3-2.5-0.8
		c-0.9-0.3-1.8-0.8-2.6-1.4C144.6,373.3,144.7,373.1,144.7,372.8z" />
		<path class="st5" d="M141,377.4c0.2-0.4,0.6,0,0.5,0.3C141.4,377.8,141.1,377.7,141,377.4z" />
		<path class="st5"
			d="M130.2,393.6c-0.8,0.2-1.6,0.5-2.4,0.8c-0.1-0.6,0.5-1.2,0.6-1.8C129.1,392.8,129.7,393.1,130.2,393.6z" />
		<path class="st5"
			d="M87.4,441.9c0.4,1.2,0.2,3.1,0.5,4.6c-1,0-0.5-2.6-0.8-3.6C87.2,442.6,87.3,442.3,87.4,441.9z" />
		<path class="st5" d="M134.8,385.5c0.8,0.3,0.9,1.8,1.5,2.6C135.5,388,135.1,386.3,134.8,385.5z" />
		<path class="st5"
			d="M81.4,449.9c0.2-0.1,0.4,0.3,0.7,0.3c0.1,0.4-0.1,0.8,0,1.2C81.4,451.4,81.5,450.4,81.4,449.9z" />
		<path class="st5" d="M79.4,452.5c0.2,0.3,0.4,0.5,0.6,0.7c-0.4,1.1-0.8,2.2-1,3.4c-0.4-0.1-0.7-0.4-0.9-0.8
		C78.8,454.7,78.9,453.6,79.4,452.5z" />
		<path class="st5" d="M86.4,444.3c0.2,0.1,0.3,1.6,0.1,2.2C85.9,446.3,86.1,445,86.4,444.3z" />
		<path class="st5" d="M137.4,383.6c0.3,0.3,0.6,0.2,0.8,0.5c-0.1,0.3-0.1,0.6-0.3,0.9c-0.3-0.4-0.6-0.2-0.9-0.6
		C137.2,384.1,137.1,383.9,137.4,383.6z" />
		<path class="st5" d="M128.2,396.8c1-0.7,2-0.8,2.9-0.6c1.1-0.2,2.1-0.5,3.2-0.8c-0.9-0.8-1.5-0.2-2.5,0c-1.5,0.4-3.6,0.6-4.8,0.9
		c0,0.5-0.4,0.9-0.5,1.3c0.4-0.2,0.7-0.3,1.1-0.5C127.8,397.1,128,397,128.2,396.8z" />
		<path class="st5" d="M136,386.2c0.8,0.1,0.9,1.8,1.7,2.6C136.9,388.8,136.5,387,136,386.2z" />
		<path class="st5" d="M132.4,397.2c1.2-0.3,2.5-0.6,3.7-0.6c-0.4-0.3-0.8-0.5-1.3-0.8c-1,0.5-1.9,0.8-2.9,1
		C132.1,396.9,132.3,397,132.4,397.2z" />
		<path class="st5"
			d="M82.5,450.5c0.3-0.1,0.6,0.3,0.8,0.2c0.1,0.4-0.1,0.8,0,1.2C82.7,452.3,82.5,451.2,82.5,450.5z" />
		<path class="st5" d="M81.3,454.1c-0.2,1.1-0.4,2.2-0.8,3.3c-0.3-0.2-0.7-0.2-1-0.6c0.3-1,0.6-2,0.8-3
		C80.7,453.5,81,454.2,81.3,454.1z" />
		<path class="st5" d="M143.4,386.5c-0.2,0.3-0.3,0.6-0.5,0.9c-1.4-0.9-2.8-1.3-4.2-2.1c0-0.2,0.2-0.5,0.2-0.7
		C140.4,385.1,141.9,385.7,143.4,386.5z" />
		<path class="st5" d="M137.5,387c0.6,0.3,0.8,1.8,1.4,2.5C138.3,389.2,138.1,387.8,137.5,387z" />
		<path class="st5"
			d="M83.8,451.1c0.9,0.1,1.8,0.4,2.6,0.8c-0.8,0.2-1.6,0.3-2.5,0.1C83.8,451.7,83.9,451.4,83.8,451.1z" />
		<path class="st5"
			d="M82.4,454.6c0.3,1.1-0.5,2.1-0.5,3.2c-0.3,0.1-0.6,0-0.9-0.2C81.6,456.7,81.4,454.7,82.4,454.6z" />
		<path class="st5" d="M87.4,448.3c0.6-0.5,0.7,0.6,0.2,1.2C87.4,449,87.6,448.7,87.4,448.3z" />
		<path class="st5" d="M138.6,387.5c0.9,0.1,1.1,1.9,1.7,2.8C139.7,390,139.1,388.4,138.6,387.5z" />
		<path class="st5" d="M147.2,377.9c0.5,0,1.5,0.5,1.5,1.1C148.3,379,147.2,378.6,147.2,377.9z" />
		<path class="st5" d="M146.9,379l0.2-0.2c0.5,0.7,0.9,0.5,1.4,1.2C147.9,380,147.3,379.6,146.9,379z" />
		<path class="st5" d="M146.8,379.8c0.5,0.6,1,0.6,1.4,1.3C147.8,381.2,146.2,380.6,146.8,379.8z" />
		<path class="st5" d="M140.1,388.2c0.8,0,0.8,1.7,1.7,2.5C141,391,140.6,389.1,140.1,388.2z" />
		<path class="st5" d="M146.5,380.8c0.4,0.7,1.2,0.6,1.4,1.4c-0.1,0.1-0.1,0.3-0.2,0.4c-0.5-0.1-0.9-0.8-1.4-0.7
		c0.1,1,1.4,0.8,1.2,1.7c-0.6,0-1.1-0.9-1.6-0.7c0.2,0.9,1.2,0.9,1.4,1.7c-0.6,0.1-1.2-0.5-1.8-0.9
		C145.7,382.7,146,381.7,146.5,380.8z" />
		<path class="st5"
			d="M132.9,397.6c1.9,0.2,3.9-1.2,5.7,0.4c-0.8,0.8-1.7,0.4-2.5,0.4s-1.7,0.2-2.5,0.2L132.9,397.6z" />
		<path class="st5" d="M156,371c0.2-0.3,0.4,0.2,0.7,0.3c-0.2,1.1-0.4,2.5-0.8,3.9c-0.5,2-0.9,4-2.7,4.9
		C154.1,377.1,154.9,374,156,371z" />
		<path class="st5" d="M122.4,414.2c-0.1,0.1-0.3,0.2-0.5,0.3c-0.1,0.1-0.1,0.2-0.2,0.2c1.7,1.8,3.7,1.6,5.3,1
		C125.4,416,123.9,415.4,122.4,414.2z" />
		<path class="st5"
			d="M141.5,388.9c0.7-0.1,0.8,1.5,1.5,2.1c-0.3,0-0.6,0-0.9-0.2C142.5,390.5,141.8,389.5,141.5,388.9z" />
		<path class="st5" d="M139.4,398.5c-0.3,0.5-0.5,0.8-0.3,1.2c-1.8,1.5-3.2,4.4-4.5,6.1c-2.6,3.4-6,5.5-9.6,6.1
		c-0.1,0.1-0.3,0.2-0.4,0.3c-0.4,0.5-0.8,0.9-1.3,1.3c2.3,1.6,4.5,1.1,7.1-0.7c4.3-2.9,7.9-9.2,10.5-13.6
		C140.5,398.7,140,398.5,139.4,398.5z" />
		<path class="st5"
			d="M133.6,399c1.5-0.3,3.1-0.1,4.6-0.5c-1.1,2.3-3,0.8-4.4,1.4C133.6,399.6,133.7,399.3,133.6,399z" />
		<path class="st5"
			d="M133.8,400.4c0,0.3,0,0.5,0,0.8c1.1-0.1,2.5,0.6,3.2-1.1C136,400.4,134.9,400.3,133.8,400.4z" />
		<path class="st5" d="M142.9,389.4c0.6,0.3,0.6,1.3,1,1.9C143.4,391.5,143.4,390,142.9,389.4z" />
		<path class="st5" d="M145,387.1c0.2-0.2,0.5-0.1,0.7,0.1c-0.2,0.4-0.3,0.7-0.5,1.1c-0.2-0.2-0.4,0-0.5-0.3
		C144.8,387.7,144.9,387.4,145,387.1z" />
		<path class="st5" d="M146.4,387.3c0.1,0.4-0.1,1.2-0.5,1.4C145.7,388.2,146.2,387.8,146.4,387.3z" />
		<path class="st5" d="M144.1,390.2c0.6-0.4,0.9,0.8,1.2,1.4C144.7,391.9,144.5,390.7,144.1,390.2z" />
		<path class="st5" d="M154.4,379.9c0,1.2-1.1,1.4-1.8,2.1C152.5,380.9,153.8,380.6,154.4,379.9z" />
		<path class="st5"
			d="M145.5,390.7c0.3-0.2,0.6,0.7,1,0.2c0.2,0.5-0.4,0.4-0.6,0.5C145.7,391.2,145.6,391,145.5,390.7z" />
		<path class="st5" d="M153.7,381.9c0,1-1.2,1.4-1.8,2C151.9,382.8,153.1,382.6,153.7,381.9z" />
		<path class="st5" d="M153.2,383.7c0,1.2-1.2,1.6-1.9,2.3C151.2,384.7,152.4,384.3,153.2,383.7z" />
		<path class="st5"
			d="M219.9,352c0.1-0.2,0.2,0,0.3-0.1c0.3,0.5,0,0.9,0.2,1.3C220.2,353.1,220.1,352.3,219.9,352z" />
		<path class="st5"
			d="M236,357.8c0-0.3,0.4-0.6,0.6-0.9c0.2,0.1,0.4,0,0.6,0.4C236.8,357.5,236.4,357.4,236,357.8z" />
		<path class="st5" d="M236.9,359.6c0.3,0.2,0.6,0,0.9,0.3C237.5,360.2,237.2,360.2,236.9,359.6z" />
		<path class="st5" d="M147.1,240.6c1.8-3.9,2.9-7.7,4.3-11.7c0.4-1.4,0.9-2.7,1.7-3.9c-3.7,10.7-7.4,21.3-11.7,32
		c2-6.9,5.2-13.7,6.5-20.7c-3.5,9.4-6.7,18.9-9.9,28.4c-3.3,9.5-6.5,18.4-9.4,28.3c-1.5,5.4-3.2,10.8-4.6,16.6c-0.2,1-0.5,2-1.1,1.5
		c-0.4-0.3-0.2-0.5,0.1-1.5c4.1-12.5,8.1-24.6,11.9-36.8c1.3-4.2,3-8.4,4.4-12.8c2.8-8.6,5.6-17.2,8.5-25.6
		c6-17.1,13.1-33.8,20.7-50.9c3.7-8.3,7.3-17,11.2-25.4c1-2.1,2-4.2,3-6.4c1-2.2,2.4-4.1,3.7-6.2c2.3-4.1,4.6-8.5,7-12.6
		c2.4-4.1,5.2-8.4,7.9-12.5c2.8-4.2,5.3-8.6,8.5-12.4c0.4-0.5,1.1-1,1.3-1.3c3.7-4.6,7.6-9,11.2-13.4c3.6-4.1,7.4-7.8,11.4-11.2
		c5.7-5,11.3-10.2,16.9-13.5c1.8-1.2,3.7-2.3,5.5-3.3c1.1-0.5,2.2-0.6,3.3-1.1c3.3-1.5,6.5-3.4,9.8-4.6c4.4-1.7,8.8-3.6,13-4.7
		c7.4-1.9,15-2,22.4-0.2c0.5,0.1,1.1,0.3,1.6,0.4c0.5,0.2,1,0.6,1.5,0.8c1.5,0.5,3.1,0.6,4.7,0.9c1.6,0.4,3.2,1,4.6,2
		c-8.5-3-17-4.7-25.7-4.1c-2.2,0.2-4.3,0.7-6.6,1.1c-2.2,0.4-4.4,0.7-6.6,1.3c-2.2,0.6-4.4,1.6-6.6,2.4c-2.2,0.8-4.4,1.6-6.5,2.5
		c-4.4,2-8.9,3.8-13.3,6.6c-4.6,3.1-9.1,6.4-13.4,10.2c-4.7,4.2-9.2,8.8-13.5,13.7c-2.2,2.4-4.6,4.7-6.8,7.3s-4.3,5.3-6.6,7.9
		c-4.2,5-8.2,10.5-11.8,16.2c-3.6,5.6-7.2,11-10.2,16.5c-3,5.5-5.9,11.1-8.7,16.6c-2.8,5.5-4.7,11.2-7.2,16.7
		c-2.5,5.4-4.9,11.2-7.5,16.7c-2.6,5.5-5.3,11-7.7,16.6C154.2,217.9,150.4,229.1,147.1,240.6z M146.8,241.8c0-0.3,0.4-1,0.2-1.1
		C147,241.1,146.5,241.8,146.8,241.8L146.8,241.8z" />
		<path class="st5"
			d="M201.7,122.7c-0.4,0.9-1.2,1.8-1.6,2.7c-0.2,0,0.4-0.8,0.7-1.2C201,123.7,201.3,123.2,201.7,122.7z" />
		<path class="st5" d="M198.6,127.6c-3.1,5.4-6.2,10.8-9.5,16.1C192,138.1,195.2,132.7,198.6,127.6z" />
		<path class="st5" d="M188.6,157c0.6-0.5,1.4-0.5,2,0C189.9,157.1,189.3,157.1,188.6,157z" />
		<path class="st5" d="M190.5,159.6c-0.3,0,0.3-0.2,0.2-0.4c-0.5-0.4-1.1,0.5-1.7,0.3c-0.5,0.4-0.2,0.9-0.6,1.3c-0.2-0.4,0-0.7-0.1-1
		c0.6-0.1,0.5-0.7,0.5-1.3c0.8-0.7,1.5,0.5,2.2,0.6C191.1,159.7,190.6,159.3,190.5,159.6z" />
		<path class="st5" d="M262.2,74.9c0.1,0,0.5,1.1,0.7,0.3c0.3,0.3,0.4,0.7,0.3,1.1c-0.2,0.3-0.3,0.2-0.5,0.3
		C262.4,76.1,262.2,75.5,262.2,74.9z" />
		<path class="st5" d="M155.9,216.2c2.5-7.3,6.2-15.3,9.7-22.6c0-0.2,0.1-0.4,0.2-0.6c0.5-0.9-0.4,1.4-0.6,1.8
		c-1,2.3-2.3,5.5-3.5,8.5c-1.6,3.8-3.1,7.6-4.6,11.4L155.9,216.2z" />
		<path class="st5" d="M158.8,230.1c0.6-0.2,1.3-0.2,1.9,0.1C160.6,230.1,159.4,230.5,158.8,230.1z" />
		<path class="st5" d="M162.3,235.8c0.6-0.4,1.5,0.4,2.3,0.2C163.8,236.4,163,236.3,162.3,235.8z" />
		<path class="st5" d="M134.1,279.5c0.2,0.5-0.4,1.7-1,2.5C133.3,281.1,133.7,280.2,134.1,279.5z" />
		<path class="st5"
			d="M132,285.3c0.2-0.7,0.6-1.4,1-2c0.3-0.4-0.1,0.5-0.2,0.7C132.6,284.5,132.2,284.9,132,285.3z" />
		<path class="st5" d="M126.9,302.5c0.4-1.6,0.9-3.2,1.6-4.7C128.1,299.4,127.6,301,126.9,302.5z" />
		<path class="st5" d="M123.3,315.1c0,0.2,1.5-0.1,1.7,0.6C124.5,315.7,123.9,315.5,123.3,315.1z" />
		<path class="st5" d="M116.3,326.4c0.8,1,0.5,3.1,0.2,4.1C115.5,329.3,116.5,327.7,116.3,326.4z" />
		<path class="st5" d="M115.6,328c0.2,0.4-0.1,1.4,0.1,2c-0.2,0.2-0.3-0.5-0.4-0.3c-0.2,1,1.4,2,1.6,2.7c0.2-0.1,0.4-0.1,0.6-0.1
		c0.2,0.5-0.1,1,0.4,1.6c0.4-0.2,0.5,0.7,0.9,0.5c0.4-0.2-0.1-1,0.3-1.1c0.4-0.1,0,1,0.1,1.3c-1.2-0.2-3.4-0.9-4.2-3.1
		C114.4,330.3,115.4,329.3,115.6,328z" />
		<path class="st5" d="M123.9,324.3c0.1,0.6,0.1,1.2,0.1,1.8C123.8,325.8,123.5,324.8,123.9,324.3z" />
		<path class="st5" d="M122.7,327.6c0.1,0.6,0.1,1.3,0.1,1.9C122.7,329.2,122.4,328.1,122.7,327.6z" />
		<path class="st5" d="M122.1,328.8c0.1,0.7,0,1.4,0.1,2C122.1,330.4,121.8,329.4,122.1,328.8z" />
		<path class="st5" d="M119.8,332.3c0.2,0.5,0.1,0.9,0.1,1.4C119.8,333.2,119.7,332.7,119.8,332.3z" />
		<path class="st5" d="M110.1,344.8c0.3-0.2,1.2-0.8,1.7-0.4C111.4,345.1,110.7,345.2,110.1,344.8z" />
		<path class="st5" d="M114.3,346c-0.2,0.1,0,0.3,0.1,0.2c-0.9,0.1-1.9-0.2-2.7-0.9c1.2-1.1,2.3,0.7,3.4,0.6
		C115.1,346.2,114.5,346.1,114.3,346z" />
		<path class="st5" d="M113.9,343.1c1.2-0.7,2.4-1.3,3.6-1.8C116.5,341.8,115,343.1,113.9,343.1z" />
		<path class="st5" d="M114.6,343.5c0.4-0.2,0.8-0.3,1.1-0.6C115.6,343.2,114.9,343.8,114.6,343.5z" />
		<path class="st5" d="M115.3,343.9c0.9-0.3,1.9-1,2.8-1.3C117.2,343,116.2,344.1,115.3,343.9z" />
		<path class="st5" d="M110.1,353c0.5-0.2,1-0.9,1.5-0.5C111.4,352.7,110.6,353.5,110.1,353z" />
		<path class="st5" d="M113,354.4c0.5-0.1,1-0.9,1.4-0.6c-0.2,0.4-0.7,0.3-0.5,0.8c0.7,0.1,1.4-1.1,2.1-1.1
		C115.4,355.3,113.9,355,113,354.4z" />
		<path class="st5"
			d="M97.9,381.9c0.4,1.8,0.6,4.2-0.3,6.2c-0.1-1.2-0.3-2.3-0.5-3.5C97.3,383.7,97.6,382.8,97.9,381.9z" />
		<path class="st5" d="M108.8,371.3c0.5,1.9,0.6,3.9,0.3,5.9C108.9,375.5,108.4,373.2,108.8,371.3z" />
		<path class="st5" d="M108.2,374c0.2,1.4,0.3,2.9,0.3,4.3C108.2,376.9,108.2,375.5,108.2,374z" />
		<path class="st5" d="M95.5,389.8c0.4,1.6,0.9,3.9-0.1,5.6C95.1,393.6,94.7,391.7,95.5,389.8z" />
		<path class="st5" d="M107.5,376.1c0.3,0.5,0.2,1.7,0.3,2.5C107.6,377.8,107.5,376.9,107.5,376.1z" />
		<path class="st5" d="M105.6,382.6c0.2,1.1,0.2,2.3,0,3.4C105.3,385.2,104.9,383.7,105.6,382.6z" />
		<path class="st5" d="M103.9,387.6c0.3,1.2,0.3,2.4,0.1,3.6C103.9,390.3,103.4,388.7,103.9,387.6z" />
		<path class="st5" d="M103.1,389.6c0.3,1.3,0.4,2.6,0.3,3.9C103.1,392.5,102.7,390.8,103.1,389.6z" />
		<path class="st5" d="M102.4,391.8c0.4,1.5,0.5,3.1,0.3,4.7C102.5,395.2,102,393.2,102.4,391.8z" />
		<path class="st5" d="M102.1,405.3c-0.4-0.2-0.1-0.3,0.1-0.6c-0.1-2,0.9-3.7,1.4-5.6c0.7-2.1,1-4.4,1.7-6.4c0.1-0.2,0.2-0.3,0.4-0.3
		c0.3-2.5,1.6-5,2.5-7.5c-0.2,0.8-0.3,1.5-0.6,2.2c-1.4,5.2-3.1,10.6-4.7,15.9C102.8,403.8,102.7,404.8,102.1,405.3z" />
		<path class="st5" d="M90.8,406c0.3,0.8,0,2.3,0.2,3.5C90.1,408.6,90.9,407.1,90.8,406z" />
		<path class="st5" d="M149.2,398.6c1.3-1.9,2-4.4,2.6-6.7c0.6-2.3,1.5-4.4,2.3-6.6c1.4-4.4,2.3-8.9,3.7-13.3
		c0.2,1.2,0.1,2.4-0.2,3.5c-0.3,1.1-0.7,2.3-1.1,3.3c-1.4,4.5-2.6,8.7-4.2,13.5c-0.3,1-0.8,2.2-1.1,3.3c-0.5,1.8-0.4,3.2-1.9,4.3
		c-2-1-4-2-5.9-2.9c-0.2,0-0.1-0.5-0.3-0.8c-0.2,0.1-0.5,0.4-0.8,0.3c-6.4-3.9-12.8-6.9-19.2-10.5c-0.5-2,0.3-3.7,0.8-5.8
		c1.6-6.8,3.4-13.5,5.6-20c0.3,0.2,0,0.6-0.1,0.7c-0.6,2.2-1.4,4.6-2.1,7c-0.8,2.6-1.8,5.4-2.2,8c-0.1,0.6,0,1.1-0.1,1.8
		c-0.2,1.8-0.9,3.7-1,5.2c-0.1,2.8,1.5,3.3,3.4,4.3c3,1.5,5.9,3.2,8.7,4.6c4.1,2,7.7,4,11.6,6.1c0.3,0.1,0.7-0.2,1-0.2
		C149.1,397.7,148.7,398.8,149.2,398.6z" />
		<path class="st5" d="M100.7,396c0,0.9,0.1,1.8,0.2,2.7C100.8,398.2,100.4,396.9,100.7,396z" />
		<path class="st5" d="M89,412.8c0.2,1-0.4,1.9-0.6,2.9C88.6,414.7,88.8,413.8,89,412.8z" />
		<path class="st5" d="M108.8,389.7c0.3-0.4,1.2-0.5,1.7-0.9C110.2,389.3,109.4,389.3,108.8,389.7z" />
		<path class="st5" d="M108.5,390.8c0.3-0.7,1.1-0.5,1.5-0.9C110,390.2,108.9,390.5,108.5,390.8z" />
		<path class="st5" d="M133.1,362.6c0.7-0.1,1.6,0.7,2.5,1.3c2.5,1.6,5.2,2.8,7.7,4.2s5.2,2.8,7.7,4.2c0.8,0.4,1.8,0.7,2.3,1.8
		c-0.2,0.5-0.5-0.4-0.8-0.6c-5.7-3.4-11.3-6.4-17.1-9.4C134.7,363.7,133.7,363.5,133.1,362.6z" />
		<path class="st5" d="M95.6,408.9c0.3,1.4-0.2,3.4,0.1,5C95.2,412.6,95.8,410.6,95.6,408.9z" />
		<path class="st5" d="M97.8,407.6c0.4,0.2,1.1,0.1,1.3,0.7C98.7,408.1,98,408.2,97.8,407.6z" />
		<path class="st5" d="M150.3,367.8c-4.5-2.2-9-3.6-13.5-5.8c0.2-0.3,0.3-0.6,0.3-1c4.8,2.2,9.7,4.3,14.5,7.2
		c-0.4,0.7-0.3,1.5-0.7,2.2c-3.2-0.9-6.3-3.3-9.5-4.7c3,0.9,6.4,2.4,9.6,3.5c-1.5-1.4-3.3-1.8-4.9-2.4c-1.6-0.6-3.2-1.5-4.9-2.1
		C144,365.4,147.3,367.3,150.3,367.8z" />
		<path class="st5" d="M136.6,362.9c1.5,0.3,3,0.9,4.4,1.8C139.6,364,137.8,363.4,136.6,362.9z" />
		<path class="st5" d="M86,423.9c0.5,0.5-0.1,1.6-0.3,2.3C85.4,425.4,86,424.7,86,423.9z" />
		<path class="st5" d="M135.8,365.8c0.6,0.1,1.1,0.4,1.6,0.9C137.4,366.6,136,366.3,135.8,365.8z" />
		<path class="st5" d="M135.5,366.8c3.2,0.9,6.3,2.2,9.2,4C142.4,369.9,138.4,367.8,135.5,366.8z" />
		<path class="st5" d="M95.1,415.6c0.6-0.2,1.7,0.7,2.4,0.7C96.9,416.4,95.6,416.3,95.1,415.6z" />
		<path class="st5" d="M84.4,429.4c0.3,0.6,0,1.1-0.1,1.6C84,430.8,84.1,429.8,84.4,429.4z" />
		<path class="st5" d="M125.1,382.6c0.5,1.4,1.3,2.6,2.4,3.4C126.7,386.1,124,384.7,125.1,382.6z" />
		<path class="st5" d="M99.6,413.2c0.2,0.1,0.1,1-0.2,1C99.2,413.9,99.6,413.5,99.6,413.2z" />
		<path class="st5" d="M83,433.8c0.3,0.8,0.3,1.7,0.1,2.5C82.8,435.8,82.3,434.5,83,433.8z" />
		<path class="st5" d="M94.6,420.6c0.3,1.6,0.4,3.3,0.2,4.9C94.6,424.2,94.2,422.2,94.6,420.6z" />
		<path class="st5" d="M144.2,372.6c-0.1,0.2-0.2,0.4-0.2,0.5c-1.3-0.6-2.6-1.6-3.9-2.1c0.1-0.3,0.5,0.1,0.9,0.2
		C142,371.6,143.3,371.8,144.2,372.6z" />
		<path class="st5" d="M92.1,429.2c0,1.9,0.4,3.9-0.1,5.8C92,433.4,91.5,431.1,92.1,429.2z" />
		<path class="st5" d="M91.3,431.6c0.1,1.2,0,2.4,0.1,3.7c0.1,0.2,0.3,0.3,0.4,0.1c0,0.7-0.5,1.3-0.5,2
		C91.2,435.8,90.6,433.4,91.3,431.6z" />
		<path class="st5" d="M90.3,433.8c0.3,2.1,0.3,4.1,0.2,6.2C90.5,437.9,89.8,435.8,90.3,433.8z" />
		<path class="st5" d="M81,445.2c1,0.8,2,1.9,3,2.2c0.2,0.3,0.3,0.6,0.3,1c0.2-0.3-0.1-0.6,0.2-0.9c0.5,0.1,0.4,0.5,0.7,1
		c0.3,0.3,0.4-0.4,0.5-0.6c0.1,0.4,0,0.7,0.3,1.1c0.1,0.1,0.2,0,0.3,0.1c0.3-0.2,0-0.9,0.2-0.9c0.3-0.2,0.4,1,0.3,1.2
		c-0.3,0.4-1.6-0.5-2.3-0.8C83.2,447.9,81.9,447.1,81,445.2z" />
		<path class="st5" d="M137.7,377.7c0.5-0.2,1,0.7,1.5,0.8C138.7,378.4,138.2,378.1,137.7,377.7z" />
		<path class="st5"
			d="M119,405.1c-0.1-0.6-0.1-1.2,0.1-1.8c0.6-0.2,1.3-0.2,2-0.3c0-0.1,0.1-0.1,0.1-0.2c-0.7,0-1.3,0-1.9-0.3
		c0.7-0.4,1.7-0.4,2.4-0.5c0,0,0-0.1,0.1-0.1c-1.3,0-2.6-0.3-3.9-0.3c0.3,1.2,0.6,2.3,0.9,3.5C118.9,405.1,119,405.1,119,405.1z" />
		<path class="st5" d="M137.4,378.5c0.9,0.4,1.7,0.9,2.5,1.5C139.1,379.6,138.2,379.1,137.4,378.5z" />
		<path class="st5" d="M137.2,379.2c0.5-0.2,0.9,0.7,1.4,0.8C138.1,380,137.6,379.7,137.2,379.2z" />
		<path class="st5" d="M88.9,437.8c0.2,2.2,0.2,4.4,0.4,6.6C89,442.5,88.3,439.9,88.9,437.8z" />
		<path class="st5" d="M146.4,376.8c-0.1,0.2,0.3,0.5,0.2,0.7c-0.8,2.3-1.5,4.7-2.2,7.1c-0.8,0.1-1.7-0.5-2.5-0.8
		c0.5-2.9,1.2-5.8,1.9-8.6c1,0.2,1.9,1.2,2.8,1.4C146.9,377,146.5,376.6,146.4,376.8z" />
		<path class="st5"
			d="M127.2,395.8c0.2-0.2,0.3-0.5,0.3-0.9c1.5,0.1,3.2-1.5,4.7-0.5C130.6,395.1,128.9,395.5,127.2,395.8z" />
		<path class="st5"
			d="M142.8,376.9c-0.4,2.2-1,4.4-1.3,6.6c-0.3-0.1-0.5-0.3-0.8-0.5C141.8,381.1,142.1,378.6,142.8,376.9z" />
		<path class="st5"
			d="M83.4,459.7c-1.4,0.5-2.8,0-3.9-1.4c-0.3-0.4,0.5,0.2,0.6,0.2C81.2,459.1,82.4,459.3,83.4,459.7z" />
		<path class="st5" d="M145.3,395.2c0.3-0.2,1.1-0.2,1.5,0.4c3-1.2,4.4-6,4.7-8.9c0.3-0.4,0.6-0.3,0.9-0.8c-0.5,2.1-1.2,4.1-2,6
		c-0.6,1.5-1,3.5-1.7,4.1C147.7,396.9,146.5,395.3,145.3,395.2z" />
	</g>
</svg>