<svg xmlns="http://www.w3.org/2000/svg" viewBox="0 0 202.64 92.73">
  <defs>
    <style>
      .prefix__cls-1 {
        fill: transparent
      }
    </style>
  </defs>
  <g id="prefix__Layer_2" data-name="Layer 2">
    <g id="prefix__Layer_1-2" data-name="Layer 1">
      <path class="prefix__cls-1"
        d="M87.86 2h-9v32.19h7c-.31-5.61-.6-10.9-.9-16.2l2-.27 6.06 16.56 1.32-.28q3.06-8.31 6.13-16.62l1.69.42c-.29 5.42-.58 10.83-.88 16.27h7.33V1.46l-9 .54-4.85 16.07-2.29.06zm46.66 32.3V18.73c1.13.64 1.77.78 1.89 1.11 1.22 3.25 2.32 6.54 3.52 9.8 2 5.42 3.49 6 8.71 4.17V1.46l-7.39 1a17.63 17.63 0 01.55 3.16c-.15 2.57-.42 5.13-.64 7.69-1.24-2.08-2.85-4-3.63-6.28-1.95-5.54-4.16-6.67-10.23-4.8v32zM57.73 22c6.24-.57 8.35 1.51 7.92 7-.48 6.23-.23 6.43 6.43 4.83-.33-1.89-.66-3.8-1-5.71-.36-2.09-.87-4.16-1-6.27-.12-1.71-.34-3.76.42-5.14 3.13-5.64.73-12.49-5.48-13.93a57.85 57.85 0 00-11.4-1.16A3.72 3.72 0 0051 4.1c-.19 9.87-.12 19.75-.12 30.05h7.53c-.27-4.25-.41-8.01-.68-12.15zm106.5-19.9c-3.13 11.33-6 21.66-8.86 32.07H163c-.08-4.82 4.54-11.38 7.15-9.93 2.42 1.35 3 6 4.68 10h6.43a47.39 47.39 0 01-2.35-5.69c-2.1-7.82-4-15.71-6.17-23.49a5 5 0 00-3.25-2.81 20.46 20.46 0 00-5.26-.11zm-104 58c-3.12 11.35-6 21.67-8.83 32.06H59c-.09-4.8 4.58-11.39 7.15-9.92 2.42 1.38 3 6 4.64 10h6.46a49.47 49.47 0 01-2.36-5.71c-2.09-7.81-4-15.7-6.16-23.48a5 5 0 00-3.26-2.8 20.46 20.46 0 00-5.25-.11zm52.22.43c-1.79-.31-3.34-1-4.66-.67-1.09.25-2.73 1.62-2.75 2.53-.2 9.71-.13 19.43-.13 29.1 5.63 2 6.53 1.13 6.34-4.5-.08-2.17 1.32-4.39 2-6.59 1.3 1.55 2.67 3 3.86 4.68a10.16 10.16 0 011.17 2.74c1.81 5.31 3.16 5.9 8.47 3.59-2.57-5-5.4-9.86-7.57-15a8.08 8.08 0 01.44-6.28c1.89-3.37 4.59-6.28 7.47-10-4.05-.43-7.54-2.65-9 3.18-.57 2.29-2.73 4.18-4.16 6.25l-1.49-.56zM39.76 18.3c0-2.59 3.06-6.3-3-5.44C36 13 34.62 11 34.27 9.7c-.15-.51 1.64-2.08 2.72-2.29a33.75 33.75 0 016.22-.11c-1-5.21-9.35-6.75-14.9-3.59V33.4c4.39.27 8.69.28 12.92.84 4.9.65 5-2 4.71-5.41-4.27-.93-10.1 4.27-11.79-3-1.3-5.63.25-7.16 5.61-7.53zm114.55 42.08v31.07c4.47.24 8.64.15 12.7.78 4.8.74 5.14-1.79 5-5.37-12.45 1.43-13.67 1.9-10.86-10.19l4.54-.29c.27-1.86.52-3.53.58-3.88-2.76-1.79-6-2.94-5.95-4 .12-7.11 6.6-.08 9-4.76-.66-.77-1.66-3-2.89-3.15-3.95-.5-8.08-.21-12.12-.21zM97.5 65.83c.28-4.62-1.92-5.66-5.8-5.42-8.84.54-11 2.73-10.94 11.42a97.27 97.27 0 01-.27 10c-.44 4.92 2 8.12 6.2 9.64a27.91 27.91 0 008.78 1.13c6.29.15 6.57-.47 3.37-6.66-.85.32-1.74.68-2.64 1-6.89 2.51-10.11.29-10.21-7v-2.49C86 65.53 86 65.53 97.5 65.83zM8.44 33.89h5.41c0-7.44.13-14.18-.06-20.9C13.68 9 15 7.16 19.26 7.44c1.13.08 2.36-1.39 3.55-2.14-1.3-1-2.54-2.61-3.9-2.72-4.79-.37-9.63 0-14.41-.36C1.83 2 0 2.58 0 5.16 0 6 2.64 7.32 4.15 7.45c2.23.2 4.37-.43 4.32 3-.1 7.74-.03 15.47-.03 23.44zm30.7 31.71v26.55h5.7c0-7 .13-13.84-.05-20.69-.1-4 .77-6.42 5.5-6 1.1.1 2.34-1.4 3.52-2.17-1.14-.94-2.23-2.62-3.43-2.7A149.57 149.57 0 0034 60.25c-1.1 0-2.14 1.92-3.21 3 1 .8 1.83 2 2.93 2.3 1.52.35 3.28.05 5.42.05zm163.5-36.5h-2.33c-7.17.63-7.42.41-7.42-6.57V0c-3 1.7-6.79 2.83-6.8 4 0 9.68.65 19.36 1.12 29.18 10.5 2.73 14.06 1.97 15.43-4.08zM138.89 58c-3 1.7-6.8 2.83-6.8 4 0 9.68.65 19.36 1.16 30 2.92 0 6.49-.62 9.74.15 4.78 1.13 5.28-1.26 5.58-5.16l-2.74.25c-6.41.53-6.94.06-6.94-6.17zm-24.38-23.78C117 34 121 37 121.2 31.48c.31-9.58.09-19.19.09-29.43l-6.78-.41z" />
      <path
        d="M87.86 2l4.61 16.15 2.29-.06L99.57 2l9-.54v32.65h-7.33c.3-5.44.59-10.85.88-16.27l-1.69-.42Q97.4 25.73 94.34 34l-1.28.24L87 17.72 85 18c.3 5.3.59 10.59.9 16.2h-7V2zM134.52 34.28h-7.22v-32c6.07-1.87 8.28-.74 10.23 4.8.78 2.24 2.39 4.2 3.63 6.28.22-2.56.49-5.12.64-7.69a17.63 17.63 0 00-.55-3.16l7.39-1v32.3c-5.22 1.87-6.72 1.25-8.71-4.17-1.2-3.26-2.3-6.55-3.52-9.8-.12-.33-.76-.47-1.89-1.11zM57.73 22c.22 4.1.41 7.86.64 12.11h-7.53c0-10.3-.07-20.18.12-30a3.72 3.72 0 012.66-2.48A57.85 57.85 0 0165 2.79c6.21 1.44 8.61 8.29 5.48 13.93-.76 1.38-.54 3.43-.42 5.14.15 2.11.66 4.18 1 6.27.33 1.91.66 3.82 1 5.71-6.66 1.6-6.91 1.4-6.43-4.83.45-5.46-1.63-7.54-7.9-7.01zM55.8 11.73c2.45 2.27 3.7 4.36 5.2 4.51 3 .3 5.4-1.9 4.71-4.88-.46-1.79-2.89-3.59-4.81-4.36-.75-.26-2.61 2.36-5.1 4.73zM164.23 2.14a20.46 20.46 0 015.27.13 5 5 0 013.25 2.81c2.21 7.78 4.07 15.67 6.17 23.49a47.39 47.39 0 002.35 5.69h-6.43c-1.7-3.95-2.26-8.63-4.68-10-2.61-1.45-7.23 5.11-7.15 9.93h-7.64c2.88-10.39 5.73-20.72 8.86-32.05zM60.22 60.14a20.46 20.46 0 015.27.13 5 5 0 013.26 2.8c2.21 7.78 4.07 15.67 6.16 23.48a49.47 49.47 0 002.36 5.71h-6.46c-1.67-3.94-2.22-8.6-4.64-10S58.93 87.4 59 92.2h-7.61c2.86-10.39 5.71-20.71 8.83-32.06zM112.44 60.57V69l1.52.54c1.43-2.07 3.59-4 4.16-6.25 1.46-5.83 4.95-3.61 9-3.18-2.88 3.77-5.58 6.68-7.47 10a8.08 8.08 0 00-.44 6.28c2.17 5.15 5 10 7.57 15-5.31 2.31-6.66 1.72-8.47-3.59a10.16 10.16 0 00-1.17-2.74c-1.19-1.63-2.56-3.13-3.86-4.68-.72 2.2-2.12 4.42-2 6.59.19 5.63-.71 6.49-6.34 4.5 0-9.67-.07-19.39.13-29.1 0-.91 1.66-2.28 2.75-2.53 1.28-.25 2.83.42 4.62.73zM39.76 18.3c-5.36.37-6.91 1.9-5.61 7.53 1.69 7.27 7.52 2.07 11.79 3 .26 3.4.19 6.06-4.71 5.41-4.23-.56-8.53-.57-12.92-.84V3.71c5.55-3.16 14-1.62 14.9 3.59a33.75 33.75 0 00-6.21.11c-1.08.21-2.87 1.78-2.72 2.29.34 1.3 1.72 3.3 2.5 3.16 6.04-.86 3 2.85 2.98 5.44zM154.31 60.38c4 0 8.17-.29 12.21.18 1.23.14 2.23 2.38 2.89 3.15-2.45 4.68-8.93-2.35-9 4.76 0 1.09 3.19 2.24 5.95 4-.06.35-.31 2-.58 3.88l-4.54.29c-2.81 12.09-1.59 11.62 10.86 10.19.1 3.58-.24 6.11-5 5.37-4.06-.63-8.23-.54-12.7-.78zM97.5 65.83C86 65.53 86 65.53 86 77.4v2.49c.1 7.31 3.32 9.53 10.21 7 .9-.33 1.79-.69 2.64-1 3.2 6.19 2.92 6.81-3.37 6.66a27.91 27.91 0 01-8.78-1.13c-4.25-1.52-6.64-4.72-6.2-9.64a97.27 97.27 0 00.27-10C80.65 63.14 82.86 61 91.7 60.41c3.88-.24 6.08.8 5.8 5.42zM8.44 33.89c0-8-.07-15.7 0-23.43 0-3.44-2.09-2.81-4.32-3C2.64 7.32 0 6 0 5.16 0 2.58 1.83 2 4.5 2.22c4.78.4 9.62 0 14.41.36 1.36.11 2.6 1.77 3.9 2.72-1.19.75-2.42 2.22-3.55 2.14C15 7.16 13.68 9 13.79 13c.19 6.72.06 13.46.06 20.9zM39.14 65.6c-2.19 0-3.9.3-5.44-.1-1.1-.29-2-1.5-2.93-2.3 1.07-1 2.11-2.91 3.21-3a149.57 149.57 0 0116.4.32c1.2.08 2.29 1.76 3.43 2.7-1.18.77-2.42 2.27-3.52 2.17-4.73-.4-5.6 2-5.5 6 .18 6.85.05 13.72.05 20.69h-5.7zM202.64 29.1c-1.37 6-4.93 6.81-15.43 4-.47-9.82-1.13-19.5-1.12-29.18 0-1.14 3.78-2.27 6.8-4v22.62c0 7 .25 7.2 7.42 6.57.63-.05 1.26-.01 2.33-.01zM138.89 58v23c0 6.23.53 6.7 6.94 6.17l2.74-.25c-.3 3.9-.8 6.29-5.58 5.16-3.25-.77-6.82-.15-9.74-.15-.51-10.64-1.17-20.32-1.16-30 0-1.1 3.77-2.23 6.8-3.93zM114.51 34.22V1.64l6.78.41c0 10.24.22 19.85-.09 29.43-.2 5.52-4.2 2.52-6.69 2.74z" />
      <path class="prefix__cls-1"
        d="M55.8 11.73c2.49-2.37 4.35-5 5.1-4.7 1.92.74 4.35 2.54 4.76 4.33.69 3-1.68 5.18-4.71 4.88-1.45-.15-2.7-2.24-5.15-4.51z" />
    </g>
  </g>
</svg>