<svg id="Layer_1" data-name="Layer 1" xmlns="http://www.w3.org/2000/svg" viewBox="0 0 18.74 12.35">
  <g>
    <path d="M24.52,2501.69l-.4.17-.7.29,0,0a.45.45,0,0,1-.46,0l-.32-.2a.9.9,0,0,1-.23-.21l.49-.2v0l-.4.1-.13,0a.27.27,0,0,1-.21,0l-.31-.23-.39-.31,0-.05c0-.06,0-.11,0-.12l.26,0h1.75a1.93,1.93,0,0,0-.13-.21l-.34-.42h0a1.24,1.24,0,0,1,0-.33.3.3,0,0,1,.17-.25.62.62,0,0,1,.26-.09h.11a.28.28,0,0,0,.25-.23s0-.07,0-.12h-.17a1.22,1.22,0,0,1-.27,0,.39.39,0,0,1-.3-.13.34.34,0,0,1,0-.12.4.4,0,0,1,0-.32v0a1.17,1.17,0,0,1,.19-.49l.11-.16a.88.88,0,0,1,.34-.24l.31-.11.79-.18h0c.2,0,.39,0,.45-.23,0,0-.07-.06-.11-.07l-.6-.15a.91.91,0,0,1-.37-.18.26.26,0,0,1-.11-.24.11.11,0,0,1,0-.08,1.38,1.38,0,0,1,.29-.3.23.23,0,0,0,.08-.17.36.36,0,0,1,.09-.24.39.39,0,0,0,.06-.11.73.73,0,0,1,.34-.2,1.62,1.62,0,0,1,.44-.07,2.82,2.82,0,0,1,.58,0,.94.94,0,0,1,.52.23.57.57,0,0,1,.12.18.34.34,0,0,1,0,.18c0,.09,0,.13.14.14a.73.73,0,0,1,.43.23.21.21,0,0,1,.06.17s0,0,0,.08a.17.17,0,0,1,0,.07.47.47,0,0,1-.39.3l-.38.05a.32.32,0,0,0-.26.22h0a.52.52,0,0,0,.21.14,2.64,2.64,0,0,0,.56.11.73.73,0,0,1,.29.07l.13.05a.48.48,0,0,1,.25.42c0,.13,0,.26,0,.39a1,1,0,0,1-.06.34,3,3,0,0,1-.15.31c-.05.09-.09.18-.13.27a.14.14,0,0,0,0,.06c0,.09,0,.11.09.11h.54a2.79,2.79,0,0,1,.4.07.53.53,0,0,1,.29.18.3.3,0,0,1,0,.41,1.38,1.38,0,0,1-.34.3l-.36.22s-.05,0-.09.08l.1,0a1.89,1.89,0,0,0,.88,0h0a.29.29,0,0,0,.28.06.28.28,0,0,0-.06-.08,1,1,0,0,1-.23-.47,1,1,0,0,1,0-.3.88.88,0,0,1,.07-.23c.1-.34.5-.35.78-.42h0l.72.12s.08,0,.12,0a.48.48,0,0,0-.08-.16.66.66,0,0,1-.09-.19.37.37,0,0,1,.07-.31.7.7,0,0,0,.14-.21h0a.33.33,0,0,0-.13-.17.34.34,0,0,1-.14-.28c0-.15.1-.24-.14-.49h0l-.38-.18a.59.59,0,0,1-.26-.26.33.33,0,0,1,0-.13.76.76,0,0,1,.06-.34.88.88,0,0,0,0-.15,2.53,2.53,0,0,1,.21-.44l.16-.3a5.9,5.9,0,0,1,.56-.9h0a3,3,0,0,1,.91-.29l.54-.1c.14,0,.26-.09.39-.14s0,0,0,0l.07-.11a.12.12,0,0,1,.09-.08.06.06,0,0,0,.06-.06,2.62,2.62,0,0,0,0-.28c0-.08,0-.1-.13-.14h0c-.12-.15-.27-.25-.23-.41a.21.21,0,0,0,0-.08c0-.06,0-.08.06-.11s.15,0,.24,0a2.64,2.64,0,0,0,0-.29h0a.56.56,0,0,1,.33-.37,2,2,0,0,1,.32-.11,1.47,1.47,0,0,1,.36,0,1.84,1.84,0,0,0,.33,0H34a1.86,1.86,0,0,0,.33,0,1.56,1.56,0,0,1,.43.08.63.63,0,0,1,.35.31.6.6,0,0,1,.1.4v.09a.31.31,0,0,0,.08.24.2.2,0,0,1,.06.12.34.34,0,0,1-.06.2.62.62,0,0,1-.3.18.25.25,0,0,0-.19.22.16.16,0,0,0,0,.13.38.38,0,0,1,0,.16,2.24,2.24,0,0,0,.57.25,4.53,4.53,0,0,1,.6.26l.33.17a.87.87,0,0,1,.28.26.29.29,0,0,1,0,.14c0,.09,0,.17,0,.28a.06.06,0,0,0,0,0,8.08,8.08,0,0,1-.09.86.67.67,0,0,0,0,.2.07.07,0,0,1,0,.06l0,.32s0,0,0,.06l.05,0c.07.07.07.12,0,.21l-.15.25a.47.47,0,0,0,.12.09.42.42,0,0,1,.18.29h0c-.08.07-.18.11-.26.17h0c0,.11-.12.21-.08.34s0,.14,0,.21a.28.28,0,0,1,0,.09c0,.09-.08.19-.18.22a1.32,1.32,0,0,0-.2.12h0a.72.72,0,0,0-.06.33,2.09,2.09,0,0,1,0,.25,1.33,1.33,0,0,1,0,.4v0a.66.66,0,0,1-.1.44l-.07.15c.53,0,1,0,1.56,0v-.23h-.16a.54.54,0,0,1-.34-.16.27.27,0,0,1,0-.22,1.17,1.17,0,0,1,.16-.36s0,0,0-.06a.24.24,0,0,1,.29-.14h.1c.2,0,.41,0,.61,0h.64l.65,0a.47.47,0,0,1,.17,0s.05.05.07.09a.19.19,0,0,1,0,.08,1.89,1.89,0,0,1,0,.41,1.16,1.16,0,0,1,0,.18h0c0,.11,0,.21,0,.32a.08.08,0,0,1,0,0l.28,0h.23a.34.34,0,0,1,.14,0s0,.05.05.09l-.12.12-.48.41-.15.11a.28.28,0,0,1-.23.06l-.31-.05h0l-.45.28h0a1.17,1.17,0,0,1-.37,0l-1.5-.39-.39-.08.13.1.74.49.48.31.12.08c.11.08.09.15,0,.21a2.42,2.42,0,0,1-.36.18l-.42.19a.44.44,0,0,1-.47,0l-.63-.47c-.14-.11-.3-.21-.45-.32l-.54-.39h0l.15.16.5.54.45.46a1.54,1.54,0,0,1,.17.19.24.24,0,0,1,.05.1.38.38,0,0,1-.24.14l-.82.22-.73.18a.34.34,0,0,1-.36-.15c-.19-.28-.4-.55-.6-.83l-.37-.53h0l.68,1.49a.23.23,0,0,1-.22.16l-.45,0-.8.05-1.06.05h-.19a.21.21,0,0,1-.18-.21c0-.5,0-1,0-1.51a1.49,1.49,0,0,0,0-.21c0,.1,0,.19,0,.29l-.06.46c0,.16-.06.32-.08.47s-.05.35-.07.53-.06.18-.27.24h0c-.25,0-.51-.06-.76-.09l-.57-.06-.55-.07-.37,0-.24,0c-.09,0-.1-.08,0-.17l.18-.37.32-.61.22-.41h0a1.17,1.17,0,0,1-.57.57.1.1,0,0,0-.05.08,1.21,1.21,0,0,1-.33.77h0c-.19.12-.36,0-.54,0l-1-.31-.45-.16c-.06,0-.07-.07-.1-.13l.08-.1.53-.49.57-.54a.34.34,0,0,0,.08-.09,3.83,3.83,0,0,0-.51.39l-.06,0c-.3.16-.56.38-.84.56a.82.82,0,0,1-.25.12.51.51,0,0,1-.21,0l-.22-.11-.28-.13-.38-.17-.1-.08c-.06-.06-.05-.11,0-.15l.59-.35.32-.18.07-.05Z" transform="translate(-21.36 -2491.78)"/>
    <polygon class="cls-1" points="4.61 4.64 4.63 4.25 4.63 4.12 4.65 3.86 4.64 3.76 4.62 3.71 4.63 3.63 4.67 3.61 4.71 3.27 4.68 3.23 4.67 3.18 4.71 3.12 4.73 2.88 4.77 2.3 4.78 2.2 4.81 2.13 4.85 2.18 4.76 3.13 4.79 3.16 4.81 3.22 4.72 3.61 4.73 3.63 4.74 3.69 4.74 3.74 4.66 4.64 4.61 4.64"/>
    <polygon class="cls-1" points="8.94 4.51 8.75 4 8.76 3.91 8.71 3.86 8.56 3.45 8.56 3.41 8.52 3.41 8.48 3.36 8.34 3.01 8.36 2.98 8.32 2.96 8.25 2.95 8 2.44 7.78 2.09 7.79 2.06 7.77 2.06 7.73 2.05 7.33 1.52 6.92 1.08 6.56 0.73 6.28 0.46 6.23 0.42 6.38 0.6 7.21 1.46 7.34 1.63 7.69 2.07 7.69 2.14 8.03 2.41 7.8 2.21 8.2 2.94 8.17 2.99 8.21 3.02 8.27 3.04 8.42 3.4 8.41 3.48 8.47 3.49 8.63 3.92 8.6 3.99 8.68 4.01 8.88 4.53 8.94 4.51"/>
  </g>
</svg>
