<?xml version="1.0" encoding="utf-8"?>
<!-- Generator: Adobe Illustrator 26.0.3, SVG Export Plug-In . SVG Version: 6.00 Build 0)  -->
<svg className='fishwatchlogo' version="1.1" id="Layer_1" xmlns="http://www.w3.org/2000/svg" xmlns:xlink="http://www.w3.org/1999/xlink" x="0px" y="0px"
	 height='5rem' width='20rem' viewBox="0 0 450 250" style="enable-background:new 0 0 469.6 275.9;" xml:space="preserve">
<style type="text/css">
	.st0{fill:#384BA0;}
	.st1{font-family:'ArialMT';}
	.st2{font-size:72px;}
	.st3{fill:#00B7EB;}
	.st4{letter-spacing:-4;}
	.st5{letter-spacing:-5;}
	.st6{letter-spacing:-2;}
	.st7{fill:#3D4DA1;}
	.st8{font-size:41px;}
	.st9{letter-spacing:-1;}
	.st10{letter-spacing:-3;}
	.st11{letter-spacing:1;}
</style>
<text transform="matrix(1 0 0 1 41.4317 110.33)" className="st0 st1 st2">FISH</text>
<text transform="matrix(1 0 0 1 206.0392 110.3298)" className="st3 st1 st2 st4">W</text>
<text transform="matrix(1 0 0 1 266.6519 110.3295)" className="st3 st1 st2 st5">A</text>
<text transform="matrix(1 0 0 1 305.7892 110.329)" className="st3 st1 st2 st6">T</text>
<text transform="matrix(1 0 0 1 348.269 110.3288)" className="st3 st1 st2">CH</text>
<text transform="matrix(1 0 0 1 39.8417 153.33)" className="st7 st1 st8 st9">U</text>
<text transform="matrix(1 0 0 1 65.2617 153.33)" className="st7 st1 st8">.S. SEAFOOD </text>
<text transform="matrix(1 0 0 1 335.1135 154.3151)" className="st7 st1 st8 st10">F</text>
<text transform="matrix(1 0 0 1 354.9175 154.3144)" className="st7 st1 st8">A</text>
<text transform="matrix(1 0 0 1 380.0387 154.3161)" className="st7 st1 st8 st11">C</text>
<text transform="matrix(1 0 0 1 408.424 154.3139)" className="st7 st1 st8">T</text>
<text transform="matrix(1 0 0 1 430.6136 154.3288)" className="st7 st1 st8">S</text>
</svg>
