<svg xmlns="http://www.w3.org/2000/svg" viewBox="0 -100 497.47 435.13">
    <defs>
        <style>
            .cls-1 {
                fill: #fff;
            }
        </style>
    </defs>
    <g id="Layer_2" data-name="Layer 2">
        <g id="Layer_1-2" data-name="Layer 1">
            <path class="cls-1"
                d="M146.76,174.52c2.56-1.25,5.22-2.32,7.66-3.77,14.22-8.43,29.63-13.73,45.64-17.4a57.46,57.46,0,0,1,7.32-.77l.39,1.07c-24.09,11.37-44.51,26.94-58.49,49.87a6.76,6.76,0,0,0,3.71-2.68c8-10.85,16.26-21.59,27.93-28.89,5.69-3.56,11.75-6.53,17.44-10.07,15.63-9.73,32.55-9.54,49.88-7,1.8.26,3.71-.2,5.57-.33l.12-1.92c-7-1.21-13.85-3-20.85-3.54-25.42-2.07-49.18,3.84-71.38,16.16-5.11,2.83-9.91,6.23-14.86,9.37l-13,7.72,1.06,1.5ZM136.17,354.81c-3.28-1.87-6.48-3.9-9.89-5.5-1-.45-3.43-.55-2.2,2.17l-9.42-4.67.35-.68,3.57,1.11a53.34,53.34,0,0,0-21.92-7.86c2.79,4.07,6.41,6.39,11,8,4,1.43,8.52,3.2,10.34,8.66l-7-2.29c.9,1.74,1.33,2.57,1.75,3.4l-1,.89-5.69-5.7c-2.28.44-6.18,0-7.92,1.77-3.32,3.32-4.64-.17-6.67-1-.86-.33-1.35-1.59-1.53-1.81-1,1-1.91,2.65-2.79,2.64-4.4,0-8.8-.49-13.38-.81l-2.31,3.73c-.36-1.93-.6-3.24-.84-4.56l-1.14-.26c-1.33,2.27-2.21,5.08-4.1,6.68s-4.89,2.11-7.39,3.11a.7.7,0,0,0-.3.27c-2,2.89-4,5.83-6.14,8.67a45.85,45.85,0,0,1-3.36,3.63l-.62-.55c.19-.81.39-1.63.34-1.45l-9.13,8.42-1.12-1.11,10.09-14.3-.86-.59c-7.11,6.36-10.5,16.19-18.46,21.77l-1.13-1,39.21-53.39a5,5,0,0,0-2.88,1.78c-12,13.62-23.84,27.42-36.08,40.84C17,386.41,7.54,398.51,2.78,413.52c-1.67,5.29-2.17,11-2.77,16.54-.17,1.61,1.21,3.37,1.88,5.07A34.66,34.66,0,0,0,5.38,431c4.4-7.1,7.92-14.91,13.15-21.33C35,389.56,51.9,369.76,77.83,361.21c6.16-2,12.34-4.46,19.15-1.64a29.27,29.27,0,0,0,10.16,1.86A93.34,93.34,0,0,1,133,365.66c20.25,6.46,41.21,11.41,57.73,26.14.66.59,1.89.55,3,.82a8.63,8.63,0,0,0,.1-1.72,9.56,9.56,0,0,0-.64-2,60.87,60.87,0,0,0-15.6-21.06c-7.26-6.2-15.87-9.72-24.63-13.1-12.57-4.84-24.95-10.16-37.52-15-9.09-3.51-18.37-6.55-27.55-9.85-2.51-.9-4.33-1.8-2.7-5.36,4.63-10.11,9.41-20.21,13-30.7,6-17.38,11.14-35.07,16.74-52.6a77.19,77.19,0,0,1,3.36-7.65c-6.2,21.1-9.5,42.65-11.66,64.39-.35,3.51.67,7.15,1.06,10.76,1.39-3.84,1.79-8,4-10.46,4-4.44,6.33,1.41,8.37,2.45-.27-7.85-.79-16-.75-24.19,0-8.35.48-16.71,1-25.06.39-6.55.85-13.12,1.82-19.6.43-2.91,2.74-5.53,3.18-8.43.8-5.29,4.57-8.07,7.16-10.92-.82,7.89-2,16.15-2.44,24.44-.5,8.47-.35,17-.49,25.46a38.49,38.49,0,0,0,1-6.34c1.15-7.82,2.09-8.21,8-3.54.09.07.27,0,.67.06a12.39,12.39,0,0,0-.16-2.31c-3.79-14-2.34-27.83,1.63-41.5.89-3.1,1.87-6.51,3.87-8.9,5.56-6.67,11.86-12.65,19.77-16.63,2.09-1.05,4-2.45,6-3.69-4.42,1.12-8.81,2.49-12.27,5.09-9.73,7.32-19.09,15.13-28.58,22.77a30.16,30.16,0,0,0-4.91,4.28q-7.48,9.42-14.61,19.11c-3,4.12-5.78,8.45-8.66,12.68l1.39.45c0,2,.58,4.1,0,5.89-.84,2.67-3,5-3.62,7.64-1.58,6.47-2.61,13.08-3.89,19.63-.32,1.62-.72,3.22-1.14,4.81-1.11,4.23-2.26,8.44-3.36,12.67-1.47,5.66-2.69,11.4-4.42,17-1.5,4.82-5.51,8.64-5.53,14.15,0,4.08-.52,8.16-.81,12.24l1.55.11c.22-1.29.15-2.74.75-3.81s2-2.13,2.74-2a140.54,140.54,0,0,1,16.62,4.52c10,3.7,20,7.81,29.85,11.92,4.91,2,9.65,4.47,14.47,6.72Zm88.5-271.26c-2.84,2.36-4.68,4.91-7,5.6a31.06,31.06,0,0,1-10.69.71C201.61,89.5,196.34,88.15,191,88c-19.85-.76-38.42,4.17-55.89,13.39C113.05,113,96.05,130.11,82.75,151c-4.79,7.53-9.54,15.09-14,22.84-2.4,4.21-4.05,8.84-6,13.28l.85.4,9.68-14.49,1.44.62c4,9.85,1.34,19.69-.8,29.59a6.49,6.49,0,0,0,1.58-2.46c3.11-8.51,6.32-17,9.23-25.57a116.69,116.69,0,0,1,26.45-42.89c10.64-11.19,23.84-19.41,37.31-27,12.62-7.07,26.58-9.43,40.72-11a39,39,0,0,1,6.27.32c-18.1,7.21-36.14,13.69-51.59,25.74-15.25,11.91-28,25.92-37.58,42.74a51.81,51.81,0,0,0,6.23-6.43c4.47-4.92,4.5-4.89,7.24-4.46l-1.12,4.8a59.65,59.65,0,0,0,11.23-9,7.25,7.25,0,0,0,2.11-5c-.35-4,1.05-6.39,4.63-7.33l5.83,8.18,2.26-5.79,1.09.41v4.61a18.56,18.56,0,0,0,3.07-1.66c4.61-3.86,5.82-9.08,6.06-14.81.06-1.44,1.4-2.83,2.15-4.24a28,28,0,0,1,2.46,3.57c1,2.12,1.82,4.36,2.71,6.56l.75-1.09,7.42,1.32.36-5.57,1-.09,2.5,3.11c.68-1.05,1.28-2.59,1.74-2.55,1.1.1,2.15.93,3.2,1.47.56-3.13,1-6.62,1.87-10,.4-1.52,1.42-3.66,2.61-4,2.85-.85,6-.82,9-1.14l.05.66-3.36.57c-2.19,5,1.94,7.48,4.48,9.36,1.9,1.4,5.76.14,9.08,0-.09-.47-.1.25.17.84,1,2.14,4.74,3,7.23,1.55,2.81-1.62,1-3-.23-4.55-.85-1.09-1.31-2.5-2.51-4.89l16.65,6,.31-1.07a229.43,229.43,0,0,0-38.07-11.46c2.13-.76,4.11-.71,6-1s3.81-1.45,5.74-1.51c11.87-.39,23.11,3.11,34.43,6a52.93,52.93,0,0,1,11.2,4c9.78,5,19.37,10.37,30.12,16.17-10.2-11.13-23.31-15.21-35.7-20.21.33-1.78.7-3.2.84-4.65.56-5.93,3-7.19,8.44-4.37a27,27,0,0,0-2.36,3.68c-2,4.61-1.11,7,3.72,7.64,3.1.39,6.42-.68,9.57-1.39.46-.11.6-1.84.79-2.83.38-2,.2-4.25,1.19-5.81.88-1.4,3-2,4.59-3a35.48,35.48,0,0,1,1.18,5.1c.2,2.28-.35,4.69.14,6.89.55,2.51,1.81,4.24,5,2,1.74-1.21,4.26-1.3,6.43-1.9,3.63-2.84,1.14-9.92,7.67-11.95.29-.09.22-1.06.48-1.53.6-1.1,1.3-2.16,2.11-3.48v10.42c0,1.31-.43,3,.19,3.82.5.69,2.32.42,3.28.54-1.81,2.3-3.95,4.38-5.33,6.87-4.28,7.8-3.93,16.43-3.55,24.91.13,2.73,1.73,5.42,2.82,8.06.83,2,2.05,3.8,2.82,5.79a3.54,3.54,0,0,1-.15,3,3.63,3.63,0,0,1-2.94,1.21c-5.25-1-10.44-2.36-15.7-3.28-6.14-1.07-12.33-1.79-18.51-2.67l-.08.66,13.37,2-5.55,10.55.4.25,4.87-5.24c4.2,2.53,5.32,6.41,2.65,10-2.45,3.29-4.94,6.72-8.05,9.32-7.84,6.58-14.37,15.06-25,17.85a7.46,7.46,0,0,0,4.08-.44c6.26-3.4,12.83-6.42,18.54-10.6,8.92-6.52,14.82-15.8,20-25.4,1.27-2.35,2.43-3.24,5.12-2.32a81.3,81.3,0,0,0,8.87,2c-.54-3.44-1.06-5.79,3.11-5.59,6.69.32,13.41.08,19.68.08-4.46-.36-9.37-.84-14.3-1.13-5.71-.34-9.32-3.35-11.59-8.43-3.44-7.68-4.46-15.72-2.24-23.73,1-3.56,3.55-7,6.22-9.72,5.64-5.7,13.36-5.22,20.36-4.46,4.32.48,9.54,2.8,12.16,6,2.76,3.44,4.17,2.77,6.86,1.16a7.85,7.85,0,0,1,2.58-.48c-.51,1.25-.9,2.19-1.43,3.5,8.86-1.84,8.73-1.54,16.27,1.86,6.41,2.88,13.48,4.38,19.69,7.6,5.38,2.78,11.36,3.89,16.58,7.33,3.69,2.43,9,2.45,13.55,3.52,2.41.56,4.83,1,7.22,1.63,2.21.57,4.37,1.3,7.57,2.26-25,.15-48.91-5.26-72.57,1.93,16.9,4.31,30.79,14,45.25,22.59l-.35,1.17-2.64.91,4.35,2.24-.13.43-3.81-.63-.07.34,19.37,8.39c-10-14.43-26.53-19.56-41.63-28.84,4.78-1.25,8.53-2.47,12.38-3.2,13.67-2.57,27.45-1.83,41.18-.87,11.79.82,23.65,1.56,35.29,3.5,13.66,2.29,27.11,5.87,40.66,8.83,2.46.54,5,.79,7.47,1.17l.2-1.14c-1.54-.49-3.05-1.09-4.61-1.47-15.9-3.82-31.84-7.48-47.7-11.46-13.33-3.34-26.81-6.32-39.77-10.78-11-3.78-22.75-6.11-32.31-13.3-15.57-11.69-31-23.6-45.24-34.52,2.06-10.7,4.65-19.9,5.46-29.25,1.73-20-4.1-38.93-9.51-57.84C323.17,3.74,321.24,2,319.92,0L318.7.64l6.39,25.46-1.07,1c-2.58-4.45-6.07-5.8-11.16-2.93,1-2.57,1.53-4,1.95-5.14-2-2.7-3.82-5.11-5.12-6.85-.9,1.59-1.5,4.05-2.92,4.71-1.09.5-3.43-1.05-4.85-2.15-2.41-1.89-4.54-4.14-6.79-6.23,1.59,4.41,2.72,9.14,8.74,9.67-4.85,1.56-6.12,4.47-4.18,9.22-3.34-3.8-6.82-5.51-12-2.38l2-5.6-7.61-4.15a4.93,4.93,0,0,0,1.18,2.17c1,1.61,2,3.28,2.93,4.93-2,.64-3.93,1.88-5.86,1.8-3.37-.12-6.71-1.05-9.44-1.53l2.48,5.65-8.56,2c4.38,4.54,4.2,6.12-1.61,7.59l4.54,1.33-5,3.06c.41,2.09.78,3.91,1.35,6.79-4.2-2.55-7.32-6.46-12.61-2.29l1.65-5.55c-5.64,1.42-11.21-4.08-16.45,1.12l1,5.51c-3.47-3.54-6.93-4.71-11.62-1.45.25-2.13.38-3.25.53-4.51l-26.06-9.38L203,38.41a37.67,37.67,0,0,1-6.11,1.32c-10,.46-20.09.39-30.09,1.19-8.9.71-17.76,2.11-26.56,3.61-6.26,1.06-12.41,2.79-18.61,4.22,3.38.09,6.52-1.24,9.71-1.38,11.12-.49,22.29-1.29,33.36-.62,14.38.87,28.68,3,43,4.64,4.9.56,9.78,1.22,9.78,7.91h3.89c.75-2.1,1.47-4.14,2.36-6.68,3.82,3.8,3.67,10.66,10.71,10.38l-5.28,2.86,1.24,5.75-.73.83c-3.37-5.3-7.55-6.15-12.63-3.1,1-1.88,2-3.76,3.42-6.53-4.33-1.36-8.31-2.51-12.21-3.86a61.41,61.41,0,0,0-26-3.24c-10.37,1-20.68,2.71-31,3.81-19.81,2.1-39.64,4-58.57,5.87,1.54.08,4,0,6.46.39,3.63.51,4.61,2.89,2.48,5.85a8.39,8.39,0,0,1-2.71,2.46C90.47,78.58,82.09,83,73.73,87.39l-6.68,3.53c3.8-.51,7.34-1.51,11-2,1.2-.16,3.42.77,3.69,1.65a5,5,0,0,1-1.2,4.23,135.72,135.72,0,0,1-10.76,9c-3.73,2.83-7.66,5.41-11.5,8.1a233.57,233.57,0,0,0,21.86-12c7.18-4.26,14.11-9.06,21.66-12.55a264.44,264.44,0,0,1,28.76-11,166.33,166.33,0,0,1,24.36-6c8.51-1.41,17.21-1.72,25.83-2.42,4-.33,8.38-1.62,11.78-.34,3.72,1.41,7,.77,10.54,1,3.32.21,6.61,1,10,1.51-1.58,4.54-4,5.77-7.61,5.24-5.57-.81-11.19-1.8-16.78-1.76-18.79.15-36.73,4.73-54.2,11.37A192.94,192.94,0,0,0,93.26,107c-11.61,8-22.67,16.9-33.84,25.56-2,1.56-3.41,3.9-5.09,5.87l.83.75c4.06-4.2,7.21-9.57,14.09-10.74A32.44,32.44,0,0,1,66.7,138c-3.66,8-7.56,16-11.36,23.94,4.47-5.13,7.76-10.94,12.09-15.84,7.17-8.11,15-15.7,22.57-23.42a158.7,158.7,0,0,1,45.31-31.85c11.91-5.66,25-6.48,37.66-8.55a57.45,57.45,0,0,1,16.46-.1c7.61,1,15.06,2.34,22.31-2.23l-1.19-3.2L214.68,75C217.14,78.26,217,84.85,224.67,83.55Zm-108.62,117c-9.09,1.17-29,23.33-30.07,32.2Zm230.08-68.76c.2,3.19-3,6.53,1,8.62a8.53,8.53,0,0,0,7.11-.07c3.19-1.9,3.08-5.35,1-9.76.38,2.36.57,3.56.89,5.57-1.88-1.5-3-2.78-4.36-3.39S348.6,132.18,346.13,131.79ZM74.39,340.32l1.19-.11c2-5.49,1.38-11-2.59-15.1Zm-3.73-19.4.3-.27v-9.72l-1.46.13Q70.07,316,70.66,320.92Z" />
            <path
                d="M224.67,83.55c-7.69,1.3-7.53-5.29-10-8.6l-4.13,1.75,1.19,3.2c-7.25,4.57-14.7,3.21-22.31,2.23a57.45,57.45,0,0,0-16.46.1c-12.7,2.07-25.75,2.89-37.66,8.55A158.7,158.7,0,0,0,90,122.63c-7.61,7.72-15.4,15.31-22.57,23.42-4.33,4.9-7.62,10.71-12.09,15.84,3.8-8,7.7-15.91,11.36-23.94a32.44,32.44,0,0,0,2.55-9.54c-6.88,1.17-10,6.54-14.09,10.74l-.83-.75c1.68-2,3.08-4.31,5.09-5.87C70.59,123.87,81.65,115,93.26,107a192.94,192.94,0,0,1,41.22-22.13c17.47-6.64,35.41-11.22,54.2-11.37,5.59,0,11.21,1,16.78,1.76,3.62.53,6-.7,7.61-5.24-3.44-.54-6.73-1.3-10-1.51-3.51-.22-6.82.42-10.54-1-3.4-1.28-7.82,0-11.78.34-8.62.7-17.32,1-25.83,2.42a166.33,166.33,0,0,0-24.36,6,264.44,264.44,0,0,0-28.76,11c-7.55,3.49-14.48,8.29-21.66,12.55a233.57,233.57,0,0,1-21.86,12c3.84-2.69,7.77-5.27,11.5-8.1a135.72,135.72,0,0,0,10.76-9,5,5,0,0,0,1.2-4.23C81.42,89.72,79.2,88.79,78,89c-3.61.46-7.15,1.46-11,2l6.68-3.53C82.09,83,90.47,78.58,98.8,74.09a8.39,8.39,0,0,0,2.71-2.46c2.13-3,1.15-5.34-2.48-5.85-2.43-.34,32.3-4.16,52.11-6.26,10.36-1.1,20.67-2.82,31-3.81a61.41,61.41,0,0,1,26,3.24c3.9,1.35,7.88,2.5,12.21,3.86C219,65.58,218,67.46,217,69.34c5.08-3,9.26-2.2,12.63,3.1.25-.27.49-.55.73-.83-.4-1.87-.81-3.75-1.24-5.75L234.4,63c-7,.28-6.89-6.58-10.71-10.38-.89,2.54-1.61,4.58-2.36,6.68h-3.89c0-6.69-4.88-7.35-9.78-7.91-14.33-1.63-28.63-3.77-43-4.64-13.39-.81-21.53-.19-33.36.62a334.63,334.63,0,0,0-37.47,4.69c12.09-2,27.79-4.55,46.37-7.53,21.15-3.4,22.85-3.31,26.56-3.61,10-.8,20.06-.73,30.09-1.19A37.67,37.67,0,0,0,203,38.41l-2.36-5.92,26.06,9.38c-.15,1.26-.28,2.38-.53,4.51,4.69-3.26,8.15-2.09,11.62,1.45l-1-5.51c5.24-5.2,10.81.3,16.45-1.12-.5,1.68-.86,2.92-1.65,5.55,5.29-4.17,8.41-.26,12.61,2.29-.57-2.88-.94-4.7-1.35-6.79l5-3.06-4.54-1.34c5.81-1.46,6-3,1.61-7.58l8.56-2-2.48-5.65c2.73.48,6.07,1.41,9.44,1.53,1.93.08,3.91-1.16,5.86-1.8-1-1.65-1.91-3.32-2.93-4.93a4.93,4.93,0,0,1-1.18-2.17l7.61,4.15-2,5.6c5.14-3.13,8.62-1.42,12,2.38-1.94-4.75-.67-7.66,4.18-9.22-6-.53-7.15-5.26-8.74-9.67,2.25,2.09,4.38,4.34,6.79,6.23,1.42,1.1,3.76,2.65,4.85,2.15,1.42-.66,2-3.12,2.92-4.71,1.3,1.74,3.11,4.15,5.12,6.85-.42,1.11-1,2.57-1.95,5.14C318,21.3,321.44,22.65,324,27.1l1.07-1L318.7.64,319.92,0c1.32,2,3.25,3.74,3.87,5.89C329.2,24.8,335,43.76,333.3,63.73c-.81,9.35-3.4,18.55-5.46,29.25,14.28,10.92,29.67,22.83,45.24,34.52,9.56,7.19,21.33,9.52,32.31,13.3,13,4.46,26.44,7.44,39.77,10.78,15.86,4,31.8,7.64,47.7,11.46,1.56.38,3.07,1,4.61,1.47l-.2,1.14c-2.49-.38-5-.63-7.47-1.17-13.55-3-27-6.54-40.66-8.83-11.64-1.94-23.5-2.68-35.29-3.5-13.73-1-27.51-1.7-41.18.87-3.85.73-7.6,1.95-12.38,3.2,15.1,9.28,31.59,14.41,41.63,28.84l-19.37-8.39.07-.34,3.81.63.13-.43-4.35-2.24,2.64-.91c.12-.39.23-.78.35-1.17-14.46-8.58-28.35-18.28-45.25-22.59,23.66-7.19,47.58-1.78,72.57-1.93-3.2-1-5.36-1.69-7.57-2.26-2.39-.62-4.81-1.07-7.22-1.63-4.57-1.07-9.86-1.09-13.55-3.52C379,136.84,373,135.73,367.6,133c-6.21-3.22-13.28-4.72-19.69-7.6-7.54-3.4-7.41-3.7-16.27-1.86.53-1.31.92-2.25,1.43-3.5a7.85,7.85,0,0,0-2.58.48c-2.69,1.61-4.1,2.28-6.86-1.16-2.62-3.25-7.84-5.57-12.16-6-7-.76-14.72-1.24-20.36,4.46-2.67,2.7-5.23,6.16-6.22,9.72-2.22,8-1.2,16.05,2.24,23.73,2.27,5.08,5.88,8.09,11.59,8.43,4.93.29,9.84.77,14.3,1.13-6.27,0-13,.24-19.68-.08-4.17-.2-3.65,2.15-3.11,5.59a81.3,81.3,0,0,1-8.87-2c-2.69-.92-3.85,0-5.12,2.32-5.21,9.6-11.11,18.88-20,25.4-5.71,4.18-12.28,7.2-18.54,10.6a7.46,7.46,0,0,1-4.08.44c10.66-2.79,17.19-11.27,25-17.85,3.11-2.6,5.6-6,8.05-9.32,2.67-3.57,1.55-7.45-2.65-10l-4.87,5.24-.4-.25,5.55-10.55-13.37-2,.08-.66c6.18.88,12.37,1.6,18.51,2.67,5.26.92,10.45,2.31,15.7,3.28a3.63,3.63,0,0,0,2.94-1.21,3.54,3.54,0,0,0,.15-3c-.77-2-2-3.81-2.82-5.79-1.09-2.64-2.69-5.33-2.82-8.06-.38-8.48-.73-17.11,3.55-24.91,1.38-2.49,3.52-4.57,5.33-6.87-1-.12-2.78.15-3.28-.54-.62-.87-.19-2.51-.19-3.82V99c-.81,1.32-1.51,2.38-2.11,3.48-.26.47-.19,1.44-.48,1.53-6.53,2-4,9.11-7.67,11.95-2.17.6-4.69.69-6.43,1.9-3.17,2.2-4.43.47-5-2-.49-2.2.06-4.61-.14-6.89a35.48,35.48,0,0,0-1.18-5.1c-1.58,1-3.71,1.59-4.59,3-1,1.56-.81,3.85-1.19,5.81-.19,1-.33,2.72-.79,2.83-3.15.71-6.47,1.78-9.57,1.39-4.83-.61-5.76-3-3.72-7.64a27,27,0,0,1,2.36-3.68c-5.39-2.82-7.88-1.56-8.44,4.37-.14,1.45-.51,2.87-.84,4.65,12.39,5,25.5,9.08,35.7,20.21-10.75-5.8-20.34-11.17-30.12-16.17a52.93,52.93,0,0,0-11.2-4c-11.32-2.86-22.56-6.36-34.43-6-1.93.06-3.8,1.18-5.74,1.51s-3.89.28-6,1a229.43,229.43,0,0,1,38.07,11.46l-.31,1.07-16.65-6c1.2,2.39,1.66,3.8,2.51,4.89,1.21,1.56,3,2.93.23,4.55-2.49,1.43-6.25.59-7.23-1.55-.27-.59-.26-1.31-.17-.84-3.32.09-7.18,1.35-9.08,0-2.54-1.87-6.67-4.34-4.48-9.36l3.36-.57-.05-.66c-3,.32-6.12.29-9,1.14-1.19.36-2.21,2.5-2.61,4-.88,3.36-1.31,6.85-1.87,10-1.05-.54-2.1-1.37-3.21-1.47-.45,0-1,1.5-1.73,2.55l-2.5-3.11-1,.09-.36,5.57L163,131.63l-.75,1.09c-.89-2.2-1.68-4.44-2.71-6.56a28,28,0,0,0-2.46-3.57c-.75,1.41-2.09,2.8-2.15,4.24-.24,5.73-1.45,11-6.06,14.81a18.56,18.56,0,0,1-3.07,1.66v-4.61l-1.09-.41-2.26,5.79c-1-1.42-2-2.84-3-4.27l-2.79-3.91a5.74,5.74,0,0,0-3.47,2.06,7.18,7.18,0,0,0-1.16,5.27,5.88,5.88,0,0,1-1.2,3.84,9.25,9.25,0,0,1-.91,1.14,27.93,27.93,0,0,1-3.18,3,62.21,62.21,0,0,1-8,5.95c.38-1.61.75-3.22,1.12-4.8-2.74-.43-2.77-.46-7.24,4.46a51.81,51.81,0,0,1-6.23,6.43c9.6-16.82,22.33-30.83,37.58-42.74,15.45-12.05,33.49-18.53,51.59-25.74a39,39,0,0,0-6.27-.32c-14.14,1.53-28.1,3.89-40.72,11-13.47,7.54-26.67,15.76-37.31,27a116.69,116.69,0,0,0-26.45,42.89c-2.91,8.58-6.12,17.06-9.23,25.57a6.49,6.49,0,0,1-1.58,2.46c2.14-9.9,4.79-19.74.8-29.59l-1.44-.62L63.6,187.56l-.85-.4c2-4.44,3.64-9.07,6-13.28,4.42-7.75,9.17-15.31,14-22.84,13.3-20.93,30.3-38,52.38-49.7C152.6,92.12,171.17,87.19,191,88c5.32.2,10.59,1.55,15.91,1.91a31.06,31.06,0,0,0,10.69-.71C220,88.46,221.83,85.91,224.67,83.55Zm14.68-28.46-.3.73,5.77,4.07-3.24,5.23.67.73,6.17-2.77,5.78,5.43L255,68c-.51-2-1-4-1.52-5.94l4.81-2.78c.07-.41.15-.83.23-1.24-8.27,1.94-6.55-6.4-10.76-9.63L246,55.48Zm82.14-17.5c-7.61,1.2-8.06-5.77-11.72-9.82-.85,4.63-1.41,8.83-7.75,6.56,0,.45.05.9.07,1.34l4.19,3.07-3.2,5.83c5.33-3.2,9.53-1.92,13.68,3.23C314,42.11,316.32,39.46,321.49,37.59Zm-27.77,2.17.45-1.54c-8.27,2.43-7.43-5.39-11.12-8.93-.74,2.83-1.32,5-1.9,7.24l-6.26-.61,4.85,4.17-2,5.28.23,1.48c4.78-4.42,8-1.09,11.88,2-.4-3-.64-4.82-.88-6.6Zm-.65,25.72.21,1.37c5.07-5,9.13-2.36,13.5,2.32-.57-3.44-.87-5.31-1.17-7.13l4.84-2.72c-6.33-.06-7.68-5.31-10.28-9.71-.9,2.56-1.59,4.55-2.31,6.63l-6.37-.44,4.85,4.34Zm14.75,20.57L314,84.87,319.25,89l.79-.81c-.45-1.94-.91-3.87-1.37-5.86l4.77-2.85c-7.11.44-6.84-6.29-10-10.07-.69,2.63-1.23,4.66-1.82,6.88h-6.1l4.71,4.25C309.6,82.09,309,83.45,307.82,86.05Zm-28-17.14.7-1.12-1.22-5.72,5-2.59.3-1.18c-7.26,1.38-7.62-5-10.71-9.21l-2,7.31-6.27-.63L270.54,60,266.85,66l.41,1.18C272.26,62,276.33,63.47,279.84,68.91ZM323.4,48.55c-.58,2.26-1.14,4.5-1.7,6.69l-5.64-.33c4.45,2.72,4.78,6.25,2,11.45l7.52-4.63c1.14,1.66,2.29,3.33,3.29,4.8.52-2.67,1-4.94,1.38-7.23a2.33,2.33,0,0,0-.1-1.58C328,54.73,325.82,51.8,323.4,48.55ZM287.23,69.34c-.62,2.6-1.13,4.77-1.66,7H279.8c2.11,2.3,6,3.32,3.59,6.74,5.85,2.54,10.15.36,14.35-4.57C289.7,80.49,291.27,72.4,287.23,69.34Zm-15.17,9.23c-8,1.61-6.84-6.3-10.73-9.67-.55,2.85-1,5.16-1.47,7.6h-4.72c2.7,1.69,2.65,6.15,7.22,5.89C265.94,82.18,269.07,81.85,272.06,78.57Zm-34.85-5.31c-.59,2.61-1.09,4.8-1.57,6.9H230c4.57,4.85,8.66,5.37,16.39,1.92C239.74,82.56,240.48,76.51,237.21,73.26Zm90.25,28.37.41-1.09c-11.19-3.53-22.36-7.16-34.34-7.38Zm-36.92-8.16.14-1.76-23.9-1.81-.11,1.39Zm70.76,60.17,24.28-4.45C377.93,148.15,369.62,149.51,361.3,153.64ZM216.48,109.29l12,1.53C219,105.87,219,105.87,216.48,109.29Zm46.57-7.69c3.09-.33,3.89-1.7,2.91-5.84C265,97.63,264.09,99.5,263.05,101.6Z" />
            <path
                d="M136.17,354.81l9.74.68c-4.82-2.25-9.56-4.68-14.47-6.72-9.89-4.11-19.8-8.22-29.85-11.92A140.54,140.54,0,0,0,85,332.33c-.76-.17-2.22,1-2.74,2s-.53,2.52-.75,3.81L79.93,338c.29-4.08.79-8.16.81-12.24,0-5.51,4-9.33,5.53-14.15,1.73-5.57,3-11.31,4.42-17,1.1-4.23,2.25-8.44,3.36-12.67.42-1.59.82-3.19,1.14-4.81,1.28-6.55,2.31-13.16,3.89-19.63.65-2.68,2.78-5,3.62-7.64.57-1.79,0-3.92,0-5.89l-1.39-.45c2.88-4.23,5.62-8.56,8.66-12.68q7.13-9.68,14.61-19.11a30.16,30.16,0,0,1,4.91-4.28c9.49-7.64,18.85-15.45,28.58-22.77,3.46-2.6,7.85-4,12.27-5.09-2,1.24-3.89,2.64-6,3.69-7.91,4-14.21,10-19.77,16.63-2,2.39-3,5.8-3.87,8.9-4,13.67-5.42,27.49-1.63,41.5a12.39,12.39,0,0,1,.16,2.31c-.4,0-.58,0-.67-.06-5.95-4.67-6.89-4.28-8,3.54a38.49,38.49,0,0,1-1,6.34c.14-8.49,0-17,.49-25.46.48-8.29,1.62-16.55,2.44-24.44-2.59,2.85-6.36,5.63-7.16,10.92-.44,2.9-2.75,5.52-3.18,8.43-1,6.48-1.43,13.05-1.82,19.6-.5,8.35-1,16.71-1,25.06,0,8.17.48,16.34.75,24.19-2-1-4.36-6.89-8.37-2.45-2.23,2.48-2.63,6.62-4,10.46-.39-3.61-1.41-7.25-1.06-10.76,2.16-21.74,5.46-43.29,11.66-64.39a77.19,77.19,0,0,0-3.36,7.65c-5.6,17.53-10.73,35.22-16.74,52.6-3.63,10.49-8.41,20.59-13,30.7-1.63,3.56.19,4.46,2.7,5.36,9.18,3.3,18.46,6.34,27.55,9.85,12.57,4.84,24.95,10.16,37.52,15,8.76,3.38,17.37,6.9,24.63,13.1a60.87,60.87,0,0,1,15.6,21.06,9.56,9.56,0,0,1,.64,2,8.63,8.63,0,0,1-.1,1.72c-1.08-.27-2.31-.23-3-.82-16.52-14.73-37.48-19.68-57.73-26.14a93.34,93.34,0,0,0-25.85-4.23A29.27,29.27,0,0,1,97,359.57c-6.81-2.82-13-.4-19.15,1.64C51.9,369.76,35,389.56,18.53,409.69,13.3,416.11,9.78,423.92,5.38,431a34.66,34.66,0,0,1-3.49,4.11c-.67-1.7-2-3.46-1.88-5.07.6-5.55,1.1-11.25,2.77-16.54,4.76-15,14.22-27.11,24.7-38.61,12.24-13.42,24.06-27.22,36.08-40.84a5,5,0,0,1,2.88-1.78L27.23,385.68l1.13,1c8-5.58,11.35-15.41,18.46-21.77l.86.59-10.09,14.3,1.12,1.11,9.13-8.42c0-.18-.15.64-.34,1.45l.62.55a45.85,45.85,0,0,0,3.36-3.63c2.12-2.84,4.1-5.78,6.14-8.67a.7.7,0,0,1,.3-.27c2.5-1,5.44-1.47,7.39-3.11s2.77-4.41,4.1-6.68l1.14.26c.24,1.32.48,2.63.84,4.56l2.31-3.73c4.58.32,9,.78,13.38.81.88,0,1.77-1.63,2.79-2.64.18.22.67,1.48,1.53,1.81,2,.79,3.35,4.28,6.67,1,1.74-1.74,5.64-1.33,7.92-1.77l5.69,5.7,1-.89c-.42-.83-.85-1.66-1.75-3.4l7,2.29c-1.82-5.46-6.35-7.23-10.34-8.66-4.55-1.63-8.17-3.95-11-8a53.34,53.34,0,0,1,21.92,7.86L115,346.13l-.35.68,9.42,4.67-.16-.12,3.48,3.45-5.76-1.39-.4,1.25,28.87,10.27.43-.94c-1.33-.9-2.66-1.82-4-2.7-3.43-2.22-6.87-4.41-10.3-6.61Z" />
            <path
                d="M146.84,174.6c4.95-3.14,9.75-6.54,14.86-9.37,22.2-12.32,46-18.23,71.38-16.16,7,.58,13.9,2.33,20.85,3.54l-.12,1.92c-1.86.13-3.77.59-5.57.33-17.33-2.52-34.25-2.71-49.88,7-5.69,3.54-11.75,6.51-17.44,10.07-11.67,7.3-19.88,18-27.93,28.89a6.76,6.76,0,0,1-3.71,2.68c14-22.93,34.4-38.5,58.49-49.87l-.39-1.07a57.46,57.46,0,0,0-7.32.77c-16,3.67-31.42,9-45.64,17.4-2.44,1.45-5.1,2.52-7.66,3.77Z" />
            <path d="M116.05,200.55,86,232.75C87.09,223.88,107,201.72,116.05,200.55Z" />
            <path
                d="M346.13,131.79c2.47.39,4.19.35,5.63,1s2.48,1.89,4.36,3.39c-.32-2-.51-3.21-.89-5.57,2,4.41,2.16,7.86-1,9.76a8.53,8.53,0,0,1-7.11.07C343.1,138.32,346.33,135,346.13,131.79Z" />
            <path d="M74.39,340.32,73,325.11c4,4.14,4.64,9.61,2.59,15.1Z" />
            <path
                d="M127.05,349.82c-1.42-2.63,1-2.7,2-2.31,3.51,1.35,6.85,3.16,10.25,4.79l0-.12c-2.11-.26-4.24-.39-6.32-.8s-4.13-1.1-6.19-1.66Z" />
            <path d="M146.76,174.52,135,183.82l-1.06-1.5,13-7.72Z" />
            <path d="M70.66,320.92q-.59-4.92-1.16-9.86l1.46-.13v9.72Z" />
            <path class="cls-1"
                d="M239.35,55.09l6.62.39,1.75-7.11c4.21,3.23,2.49,11.57,10.76,9.63-.08.41-.16.83-.23,1.24L253.44,62c.49,1.91,1,3.92,1.52,5.94l-.76.55-5.78-5.43-6.17,2.77-.67-.73,3.24-5.23-5.77-4.07Z" />
            <path class="cls-1"
                d="M321.49,37.59c-5.17,1.87-7.5,4.52-4.73,10.21-4.15-5.15-8.35-6.43-13.68-3.23l3.2-5.83-4.19-3.07c0-.44,0-.89-.07-1.34,6.34,2.27,6.9-1.93,7.75-6.56C313.43,31.82,313.88,38.79,321.49,37.59Z" />
            <path class="cls-1"
                d="M293.72,39.76,289,42.29c.24,1.78.48,3.63.88,6.6-3.87-3.13-7.1-6.46-11.88-2l-.23-1.48,2-5.28-4.85-4.17,6.26.61c.58-2.23,1.16-4.41,1.9-7.24,3.69,3.54,2.85,11.36,11.12,8.93Z" />
            <path class="cls-1"
                d="M293.07,65.48l3.27-5.34-4.85-4.34,6.37.44c.72-2.08,1.41-4.07,2.31-6.63,2.6,4.4,3.95,9.65,10.28,9.71L305.61,62c.3,1.82.6,3.69,1.17,7.13-4.37-4.68-8.43-7.36-13.5-2.32Z" />
            <path class="cls-1"
                d="M307.82,86.05c1.17-2.6,1.78-4,2.45-5.47l-4.71-4.25h6.1c.59-2.22,1.13-4.25,1.82-6.88,3.12,3.78,2.85,10.51,10,10.07l-4.77,2.85c.46,2,.92,3.92,1.37,5.86l-.79.81L314,84.87Z" />
            <path class="cls-1"
                d="M279.84,68.91c-3.51-5.44-7.58-6.88-12.58-1.78L266.85,66,270.54,60l-4.87-4.27,6.27.63,2-7.31c3.09,4.22,3.45,10.59,10.71,9.21l-.3,1.18-5,2.59,1.22,5.72Z" />
            <path class="cls-1"
                d="M323.4,48.55c2.42,3.25,4.64,6.18,6.77,9.17a2.33,2.33,0,0,1,.1,1.58c-.4,2.29-.86,4.56-1.38,7.23-1-1.47-2.15-3.14-3.29-4.8l-7.52,4.63c2.76-5.2,2.43-8.73-2-11.45l5.64.33C322.26,53.05,322.82,50.81,323.4,48.55Z" />
            <path class="cls-1"
                d="M287.23,69.34c4,3.06,2.47,11.15,10.51,9.21-4.2,4.93-8.5,7.11-14.35,4.57,2.41-3.42-1.48-4.44-3.59-6.74h5.77C286.1,74.11,286.61,71.94,287.23,69.34Z" />
            <path class="cls-1"
                d="M272.06,78.57c-3,3.28-6.12,3.61-9.7,3.82-4.57.26-4.52-4.2-7.22-5.89h4.72c.47-2.44.92-4.75,1.47-7.6C265.22,72.27,264.08,80.18,272.06,78.57Z" />
            <path class="cls-1"
                d="M237.21,73.26c3.27,3.25,2.53,9.3,9.21,8.82C238.69,85.53,234.6,85,230,80.16h5.61C236.12,78.06,236.62,75.87,237.21,73.26Z" />
            <path class="cls-1" d="M327.46,101.63l-33.93-8.47c12,.22,23.15,3.85,34.34,7.38Z" />
            <path class="cls-1" d="M290.54,93.47l-23.87-2.18.11-1.39,23.9,1.81Z" />
            <path class="cls-1" d="M361.3,153.64c8.32-4.13,16.63-5.49,24.28-4.45Z" />
            <path class="cls-1" d="M216.48,109.29c2.55-3.42,2.55-3.42,12,1.53Z" />
            <path class="cls-1" d="M263.05,101.6c1-2.1,2-4,2.91-5.84C266.94,99.9,266.14,101.27,263.05,101.6Z" />
            <path class="cls-1"
                d="M126.88,349.72c2.06.56,4.1,1.25,6.19,1.66s4.21.54,6.32.8c3.58,1.95,7.17,3.9,10.74,5.87,1.41.78,2.79,1.61,4.19,2.42l-.37,1-29.51-8.22.31-1.28,5.84,1Z" />
        </g>
    </g>
</svg>