<svg xmlns="http://www.w3.org/2000/svg" viewBox="0 0 478.25 500.85">
  <g id="crank__Layer_2" data-name="Layer 2">
    <g id="crank__Layer_1-2" data-name="Layer 1">
      <path className="crank__cls-1"
        d="M130.3 96.44l24.34-16c15.08 31.72 57.62 14.27 49.83-18.24l28.93-3.33c-.63 34 44.74 40.27 52.08 6.81a157.8 157.8 0 0127.12 10c-1.72 5.79-3.39 11.33-2.36 17.3a4.74 4.74 0 01-1.46 4.6q-19.47 19.68-38.9 39.42c-23.39 23.75-46.85 47.42-70.13 71.29-18.68 18.38-22.74 50.12-9.34 72.92 19 33.58 64.46 38.37 89.19 10.24q46.71-51 93.53-102c18.94-22.84 10.59-6.63 32.73-15.68q4.72 14.28 9.39 28.4c-29.75 7.72-28.52 50.87 2.19 55.35 3 .5 3.26.53 3 3.91-.75 8.84-1.25 17.72-3.31 26.37-31.21-6.58-46.35 34.62-17.06 52.53L384.71 366c-25.23-21.42-57.3 10.63-37.52 39.06L323 421.2c-13.93-30.26-55.72-17.15-50.12 17.29-3.25 1.71-23.77 4.14-28.72 3.34-.06-31.73-41.58-40.91-52.41-5.66l-27.16-10.09c14-28.39-20.52-57.35-44.53-29.71l-20.45-21.53c24.54-19.56 4.61-61.19-27.85-47.11l-9.44-28.52c31.75-7.6 27.28-55.13-5.78-55.47l3.26-29.87c31.15 6.49 47.52-34.31 18-52.57 5-8.46 10-17 15.13-25.81C118.39 157 150 124.71 130.3 96.44z" />
      <path
        d="M238.28 302.14c-23.58.07-44.9-19.85-47.54-44-2.49-18.26 3.28-33.22 15.64-45.79Q275.49 142 344.58 71.72c33-27.13 71.89-102 119.31-58.38 44.11 51.57-34.43 95.56-61.82 133.57-43.23 46.88-86.13 94.1-129.51 140.83-9.28 9.61-20.68 14.12-34.28 14.4zm.6-16c44.11-.17 43.91-70.84-.12-70.91-44.28.93-44.27 70.21.12 70.93zM404.41 46.38c.07 40.06 57.52 38.72 57.55.12-.68-39.67-57.05-40.73-57.55-.12z" />
      <path className="crank__cls-2"
        d="M238.88 286.16c-44.4-.72-44.4-70-.11-70.91 44.02.08 44.23 70.75.11 70.91zM404.41 47.64c.51-40.64 56.87-39.55 57.59.12-.08 38.6-57.52 39.93-57.59-.12z" />
      <path className="crank__cls-1"
        d="M131.49 96.82l24.35-16c15.08 31.72 57.62 14.27 49.82-18.24l28.94-3.34c-.63 34 44.74 40.28 52.08 6.82a158 158 0 0127.11 10c-1.71 5.79-3.39 11.33-2.35 17.3a4.79 4.79 0 01-1.46 4.6q-19.49 19.68-38.9 39.42c-23.39 23.75-46.86 47.42-70.13 71.29-18.68 18.38-22.74 50.12-9.34 72.92 19 33.58 64.46 38.37 89.18 10.24q46.72-51 93.53-102c18.95-22.84 10.6-6.63 32.74-15.69q4.72 14.29 9.39 28.41c-29.76 7.72-28.52 50.87 2.19 55.35 3 .5 3.26.53 3 3.91-.76 8.84-1.26 17.72-3.32 26.37-31.21-6.58-46.34 34.62-17.06 52.53l-15.39 25.7C360.67 345 328.6 377 348.38 405.43l-24.22 16.15c-13.93-30.26-55.73-17.15-50.12 17.29-3.25 1.71-23.77 4.14-28.72 3.34-.07-31.73-41.58-40.92-52.41-5.66l-27.16-10.09c14-28.39-20.52-57.35-44.54-29.71l-20.4-21.53c24.54-19.56 4.61-61.22-27.81-47.11-3.12-9.45-6.25-18.91-9.43-28.52 31.74-7.6 27.28-55.13-5.78-55.47L61 214.25c31.14 6.49 47.52-34.31 18-52.57 5-8.46 10-17 15.14-25.81 25.44 21.51 57.05-10.78 37.35-39.05z" />
      <path
        d="M239.48 302.52c-23.59.07-44.91-19.85-47.54-44-2.49-18.26 3.27-33.22 15.63-45.79q69.12-70.29 138.21-140.6c33-27.13 71.89-102 119.3-58.38 44.09 51.57-34.42 95.56-61.82 133.56-43.26 46.86-86.13 94.08-129.51 140.81-9.28 9.61-20.67 14.12-34.27 14.4zm.59-16c44.12-.17 43.91-70.84-.11-70.91-44.29.93-44.27 70.21.11 70.93zM405.6 46.76c.08 40.06 57.52 38.72 57.55.12-.68-39.67-57.04-40.73-57.55-.12z" />
      <path className="crank__cls-2"
        d="M240.07 286.54c-44.39-.73-44.39-70-.11-70.91 44.04.08 44.22 70.74.11 70.91zM395.69 44.43c.64-50.25 74.16-48.88 75 .15 0 47.69-74.89 49.42-75-.15z" />
      <path className="crank__cls-1"
        d="M313.7 74.77c-14 28.38 20.52 57.34 44.53 29.7L378.64 126c-24.54 19.55-4.61 61.19 27.85 47.1l9.44 28.52c-31.75 7.61-27.28 55.13 5.78 55.47L418.45 287c-31.15-6.49-47.52 34.32-18 52.57-5 8.47-10 17-15.13 25.81-25.5-21.5-57.1 10.78-37.41 39.06l-24.34 16c-15.08-31.71-57.63-14.26-49.83 18.24L244.85 442c.63-34-44.74-40.28-52.08-6.81a159.49 159.49 0 01-27.12-10c1.72-5.79 3.39-11.33 2.36-17.31a4.74 4.74 0 011.46-4.6q19.47-19.68 38.9-39.42c23.39-23.74 46.85-47.41 70.13-71.29 18.68-18.37 22.74-50.11 9.34-72.91-19-33.59-64.46-38.37-89.19-10.25q-46.71 51-93.53 102c-18.94 22.84-10.59 6.63-32.73 15.68q-4.73-14.3-9.39-28.41c29.75-7.72 28.52-50.87-2.19-55.34-3-.5-3.26-.53-3-3.92.75-8.84 1.25-17.72 3.31-26.36 31.21 6.57 46.35-34.63 17.06-52.53 5.06-8.44 10.13-16.92 15.4-25.7 25.23 21.41 57.3-10.63 37.52-39.07" />
      <path
        d="M240 198.71c23.58-.08 44.9 19.84 47.54 44C290 261 284.23 276 271.87 288.52q-69.1 70.29-138.2 140.61c-33 27.13-71.89 102-119.31 58.37-44.09-51.56 34.43-95.56 61.82-133.56 43.23-46.88 86.13-94.1 129.51-140.84 9.31-9.6 20.68-14.1 34.31-14.39zm-.6 16c-44.11.18-43.91 70.85.12 70.91 44.25-.94 44.24-70.22-.15-70.94zM73.84 454.46c-.07-40-57.52-38.72-57.55-.12.71 39.66 57.05 40.74 57.55.12z" />
      <path className="crank__cls-2"
        d="M239.37 214.68c44.4.73 44.4 70 .11 70.91-44.02-.07-44.22-70.74-.11-70.91zM73.84 453.21c-.51 40.62-56.87 39.54-57.55-.12.04-38.61 57.48-39.93 57.55.12z" />
      <path className="crank__cls-1"
        d="M312.5 74.39c-14 28.38 20.52 57.34 44.54 29.7l20.4 21.54c-24.54 19.55-4.61 61.19 27.86 47.11 3.12 9.45 6.25 18.9 9.43 28.51-31.74 7.61-27.28 55.13 5.78 55.47l-3.26 29.87c-31.14-6.49-47.52 34.32-17.95 52.57-5 8.47-10 17-15.14 25.81-25.49-21.5-57.1 10.78-37.4 39.06l-24.35 16c-15.08-31.71-57.62-14.26-49.82 18.24l-28.94 3.34c.63-34-44.74-40.28-52.08-6.81a158.85 158.85 0 01-27.11-10c1.71-5.79 3.39-11.33 2.35-17.31a4.79 4.79 0 011.46-4.6q19.48-19.67 38.9-39.42c23.39-23.74 46.86-47.41 70.13-71.29 18.7-18.34 22.7-50.08 9.34-72.88-19-33.59-64.46-38.37-89.18-10.25q-46.72 51-93.53 102c-19 22.84-10.6 6.63-32.74 15.68l-9.39-28.41c29.76-7.72 28.52-50.87-2.19-55.34-3-.5-3.26-.53-3-3.92.76-8.83 1.26-17.72 3.32-26.36 31.21 6.57 46.34-34.63 17.06-52.53l15.39-25.7c25.24 21.41 57.31-10.63 37.53-39.07" />
      <path
        d="M238.77 198.33c23.59-.08 44.91 19.84 47.54 44 2.49 18.27-3.27 33.22-15.63 45.79q-69.12 70.31-138.21 140.61c-33 27.13-71.89 102-119.3 58.37-44.09-51.54 34.42-95.54 61.83-133.54 43.23-46.88 86.13-94.1 129.51-140.84 9.27-9.6 20.66-14.11 34.26-14.39zm-.59 16c-44.12.18-43.91 70.85.11 70.91 44.29-.94 44.27-70.24-.11-70.94zM72.65 454.08C72.57 414 15.13 415.36 15.1 454c.68 39.64 57.04 40.7 57.55.08z" />
      <path className="crank__cls-2"
        d="M238.18 214.3c44.39.73 44.39 70 .11 70.92-44.03-.08-44.22-70.75-.11-70.92zM72.65 452.83c-.51 40.62-56.88 39.55-57.55-.12.03-38.6 57.48-39.93 57.55.12z" />
      <path className="crank__cls-2" d="M7.64 454.11c.64-50.25 74.15-48.88 75 .15-.01 47.74-74.9 49.44-75-.15z" />
    </g>
  </g>
</svg>