<svg xmlns="http://www.w3.org/2000/svg" viewBox="0 0 287.61 246.99">
  <defs>
    <linearGradient id="RPMgauge__Orange_Yellow" data-name="Orange, Yellow" x1="58.27" y1="82.25" x2="125.36" y2="82.25"
      gradientUnits="userSpaceOnUse">
      <stop offset="0" stop-color="#fff33b" />
      <stop offset=".04" stop-color="#fee72e" />
      <stop offset=".12" stop-color="#fed51b" />
      <stop offset=".2" stop-color="#fdca10" />
      <stop offset=".28" stop-color="#fdc70c" />
      <stop offset=".67" stop-color="#f3903f" />
      <stop offset=".89" stop-color="#ed683c" />
      <stop offset="1" stop-color="#e93e3a" />
    </linearGradient>

  </defs>
  <g id="RPMgauge__Layer_2" data-name="Layer 2">
    <g id="RPMgauge__Layer_1-2" data-name="Layer 1">
      <path stroke-miterlimit="10" fill="#fff" stroke-width="6" stroke="url(#RPMgauge__Orange_Yellow)"
        d="M122.78 134.48L60.85 30.01" />
      <path
        d="M199.5 60.62a108.45 108.45 0 00-148.72-1.28c-40.11 37.13-44.3 94.37-20 134.75a.86.86 0 001.17.3l20.75-12.08a.85.85 0 00.31-1.18L52 179.29a.87.87 0 00-1.17-.3l-13.48 7.73a.87.87 0 01-1.24-.43l-7.54-18.61 4.2-1.68c-.38-1.44-.73-3-1.14-4.41l-3.55.93a.87.87 0 01-1.08-.73c-.82-6.49-1.6-12.63-2.41-19-.06-.51.34-1 .85-.64h15.21a2.46 2.46 0 00.69-1.19v-3a.85.85 0 00-.86-.85H25.23a.86.86 0 01-.86-.93c.54-6.83.89-13.42 2.8-19.81a.9.9 0 011.07-.59l1.87.49.12-.37v0a5.41 5.41 0 01.16-1.08 21.86 21.86 0 01.34-2.56l-1.9-.52a.86.86 0 01-.57-1.17L36 92a.88.88 0 011.24-.42l13.42 7.77a.86.86 0 001.17-.3L53 97a.85.85 0 00-.32-1.16L39.17 88a.88.88 0 01-.26-1.29c4.16-5.38 8.17-10.59 12.52-16.23a.88.88 0 011.32-.07l.9 1H54c.69-.66 1.36-1.34 2-2a5.73 5.73 0 01.44-.52l-1-1a.87.87 0 01.07-1.31L71.4 54.24a.87.87 0 011.28.25l7.8 13.39a.86.86 0 001.19.3l2-1.24a.86.86 0 00.3-1.16l-7.7-13.41a.87.87 0 01.42-1.25l18.62-7.72a.87.87 0 011.17.57l1 .64c1.07-.38 2.06-.83 3.07-1.19 0-.15-.08-.33-.14-.54a.86.86 0 01.73-1.07l20.17-2.6a.86.86 0 011 .85v15.25a.85.85 0 00.86.86h2.28a.86.86 0 00.86-.86V40a.87.87 0 011-.86l19.87 2.52a.88.88 0 01.73 1.09l-.32 1.25h.1a19.86 19.86 0 013.52 1.51l.18.09.49-1.81a.87.87 0 011.17-.57l18.62 7.65a.86.86 0 01.43 1.23l-7.7 13.41a.87.87 0 00.32 1.18l2 1.13a.85.85 0 001.17-.31l7.77-13.4a.87.87 0 011.28-.25l16.29 12.49a.88.88 0 01.07 1.33l-2 1.9v.16a5.12 5.12 0 011.42 1 4.59 4.59 0 011 1.41c.69-.69 1.37-1.38 2.07-2.1a.88.88 0 011.31.08l12.41 16.07a.87.87 0 01-.26 1.29l-13.41 7.75a.86.86 0 00-.31 1.18l1.16 2a.86.86 0 001.17.31l13.23-7.57a.87.87 0 011.22.38c1.35 2.82 2.72 5.51 3.87 8.28 1.38 3.3 2.58 6.69 3.89 10.2a.87.87 0 01-.59 1.15l-3.16.85c.44 1.25.81 2.51 1.16 3.78l.13.08 3.09-.82a.86.86 0 011.08.72c.91 6.85 1.78 13.5 2.69 20.43a.87.87 0 01-.85 1H208.2a.85.85 0 00-.86.85v3s.43.86.9.11h15.34c.53.75.92 1.22.85 1.73-.91 6.76-1.78 13.19-2.67 19.81a.88.88 0 01-1.09.72l-3.61-1c-.08.19-.17.37-.27.56a23.43 23.43 0 00-1.3 3.25l4.12 1.16a.87.87 0 01.56 1.17c-2.68 6.29-5.24 12.27-7.87 18.44a.86.86 0 01-1.23.41l-13.35-7.71a.86.86 0 00-1.16.29l-1.23 2.05a.86.86 0 00.31 1.19l20.77 11.88a.86.86 0 001.16-.29c24.05-38.33 21.83-96.15-18.07-134.21z"
        fill="none" stroke="#000" stroke-width=".75" stroke-miterlimit="10" />
      <path
        d="M56.1 178.26s34.82-17.53 47.35-22.85c8.5-3.61 16.9-7.51 25.32-11.32a9.15 9.15 0 004.81-5.71 14.24 14.24 0 00-3.2-14.28c-3.69-3.83-8.56-4.73-12.54-1.91-3.68 2.6-7.22 5.45-10.67 8.43zm64.76-36.67a7.49 7.49 0 01-7.32-6.24 8 8 0 013.9-8.13c5.42-3.27 11.43 1.42 11.27 6.83a7.55 7.55 0 01-7.85 7.54z"
        fill="#ed1c24" stroke="#ed1c24" stroke-miterlimit="10" /><text className={styled.RPMgauge__cls4}
        transform="translate(0 208.49)">0</text><text transform="translate(95.01 194.97)" font-size="29" fill="#231f20"
        font-family="Arvo">RPM</text><text className={styled.RPMgauge__cls4} transform="translate(107.21 24.36)">60</text><text
        className={styled.RPMgauge__cls4} transform="translate(225.23 204.5)">120</text>
    </g>
  </g>
</svg>