<svg xmlns="http://www.w3.org/2000/svg" width='50rem' viewBox="0 0 1006.03 166.4" fill='rgba(black,.2)'>
  <defs>
    <style>
      .cls-1, .cls-2 {
        fill: #fff;
      }

      .cls-2 {
        font-size: 39px;
        font-family: Rockwell-Regular, Rockwell;
      }

      .cls-3 {
        letter-spacing: -0.03em;
      }

      .cls-4 {
        letter-spacing: -0.06em;
      }

      .cls-5 {
        letter-spacing: -0.06em;
      }

      .cls-6 {
        letter-spacing: -0.04em;
      }

      .cls-7 {
        font-size: 20px;
      }
    </style>
  </defs>
  <g id="Layer_2" data-name="Layer 2">
    <g id="Layer_1-2" data-name="Layer 1">
      <g>
        <g>
          <path d="M26.11,20.3h3.5c.3,1.71.73,3.41.87,5.13.59,7.84-2,15.08-4.4,22.33-1.39,4.12-2.81,8.23-4.32,12.66,2.53-.53,4.67-1.09,6.84-1.4,6.65-1,13.3-2.37,20-2.57,12.9-.41,25.83.09,38.73-.17,8.75-.18,17.53,1.06,26.28-.82,2.43-.52,4.61-.78,6.4-2.66,1-1.07,2.2-2.35,3.53-2.69,3.44-.87,6-6.77,10.5-1.93,0,.06.16,0,.24.07q10.28,3.33,20.54,6.65c.51.16,1.29.31,1.62.05,1.78-1.41,3.08-.42,4.44.66a7.21,7.21,0,0,0,2.21,1.56c5.36,1.45,10.75,2.78,16.13,4.14l22.21,5.59c5.7,1.45,11.41,2.89,17.11,4.37,2.15.55,3.38,0,4.44-2.19,4.68-9.82,9.44-19.62,14.54-29.23,3.89-7.35,12.44-11.39,21.43-5.77a9.1,9.1,0,0,1,4.7,8.43c-.06,11.41,0,22.83,0,34.25,0,.94.11,1.88.19,3.14,1.15-.45,1.92-.7,2.65-1.05l18-8.54Q322.12,52.4,359.8,34.57a2.78,2.78,0,0,0,1.86-3c-.06-3.75,0-7.49,0-11.24h3c.06,2.74.15,5.49.16,8.24,0,3.68,0,3.68,3.71,3.68H1003c.76,0,1.52.14,2.87.27-2.6,2.06-4.66,3.72-6.74,5.34q-27,21-54,42.05c-1.34,1-1.4,1.64-.07,2.83,10.57,9.5,21,19.14,31.59,28.64,6.69,6,13.53,11.84,20.28,17.76,2.89,2.53,5.75,5.1,9.1,8.06-1.33.11-2,.21-2.59.2-3.58,0-7.16-.16-10.74-.15-19.66,0-39.31.16-59,.17q-106.23,0-212.46,0c-22.74,0-45.49-.16-68.23-.16-20.32,0-40.65.16-61,.17q-96.62,0-193.23,0-15.61,0-31.23-.21c-2.21,0-3,.69-2.84,2.88a41.83,41.83,0,0,1,0,7c-.08.88-1,2.26-1.68,2.4-1.54.31-1.45-1.14-1.44-2.24,0-3.25-.07-6.5.09-9.74.06-1.45-.37-2.14-1.73-2.52-2.39-.66-4.78-1.38-7.13-2.17q-6.81-2.28-13.57-4.67-12.07-4.25-24.12-8.53c-7-2.49-14-5-21-7.52-6.78-2.39-13.75-4.31-20.32-7.18a28.16,28.16,0,0,0-23.24-.09c1.38,2.77,1.83,5.51-.78,7.7a5.55,5.55,0,0,1-6,1.08c-3.25-1.33-3.76-3.9-3.4-7.13a11.81,11.81,0,0,0-2.08,0q-7.95,1.5-15.88,3.08c-3,.6-3.42.3-3.45-2.93,0-1.67.35-3.53-2.36-3.35-.28,0-.57-.7-.94-1-.75-.55-1.55-1.44-2.35-1.45-2.82,0-5.65.28-8.48.37q-28,.85-56,1.66c-1.62,0-2.31.44-2.46,2.25-.09,1.07-1.26,2.08-2,3.07-.89,1.18-2.37,2.19-2.67,3.49-.87,3.72-2.08,7.18-5,9.78-1,.87-2.33,1.26-3.41,2a4.28,4.28,0,0,0-1.64,1.88,7.36,7.36,0,0,0,0,2.73c.17,2.06-.66,3.11-2.83,3.16-.74,0-1.46.7-2.22.82a78.72,78.72,0,0,1-7.93,1c-.37,0-1-1.37-1.18-2.17-.26-1.38-.06-2.86-.36-4.22-.17-.71-1-1.83-1.54-1.81-3.28.1-6.55.46-10.07.75,1.66,4.78.7,8.89-2.48,12.24-1.5,1.58-1.45,2.43-.25,4.09a15.73,15.73,0,0,1-.44,18.81A15.29,15.29,0,0,1,84.13,165a15.46,15.46,0,0,1-1.24-27.47c1.32-.78,1.83-1.15,1.09-2.79a16.43,16.43,0,0,1-1.18-5.54c-.11-1.51-.55-2.08-2.07-2-3.25.21-6.49.37-9.74.43-1.12,0-2.67,0-3.3-.61A104,104,0,0,1,59,116.94c-.68-.93,0-2.93.21-4.41.11-.77.93-1.53.85-2.23-.36-3.21-.88-6.4-1.49-9.58a2.07,2.07,0,0,0-1.39-1.31c-3.61-.49-7.23-.94-10.86-1.2-5.48-.39-11-.61-16.44-.92-4.52-.26-9.73-4.5-10.5-8.86-.53-3-.55-6.12-.95-9.17-.08-.65-.82-1.21-1.26-1.81-.48.5-1.23.93-1.39,1.52a26.39,26.39,0,0,0-1.2,5.79c-.48,10.63-2.15,21-6.88,30.65a31,31,0,0,1-2.22,3.4l-.5-.29,4.36-19.6-.9-.61c-1.1,1.32-2.13,2.72-3.33,3.93a6.79,6.79,0,0,1-2.13.94,8.3,8.3,0,0,1-.72-2.27c0-3.5,1.2-6.63,2.74-9.74C7.61,85.93,10,80.55,12.3,75.44,8.69,75,5.34,74.63,2,74.05A2.21,2.21,0,0,1,.09,71.12c.37-1.64.78-3.21,3-2.76,3.43.7,6.85,1.47,10.47,2.25,3-2,3.88-5.52,4.3-9.33.21-1.8.91-3.53,1.28-5.31q1.79-8.67,3.49-17.34C23.81,32.53,25,26.41,26.11,20.3ZM268,98.83c-1.14,2-.91,2.65,1.66,3.53s5.28,1.44,7.85,2.35c5.6,2,11.12,4.2,16.73,6.18,5,1.76,10.08,3.28,15.1,5,5.78,2,11.54,4,17.3,6.1,6.39,2.28,12.75,4.6,19.13,6.9,4.12,1.48,8.25,3,12.38,4.4,1.06.36,2.18.54,3.35.81V35.72l-98,46.56.13,1a21.53,21.53,0,0,0,2.57,1c3.84,1,7.72,1.9,11.54,3a4,4,0,0,1,3,5.25,26.76,26.76,0,0,1-2,4.43l4.58,2.26c-.11.38-.23.76-.34,1.15Zm96.82,34.09.69.19c10.12-16.36,12.64-34.51,12.17-53.4C377.29,64.17,370.22,40,364.82,37Zm-210-75.48c-5.61-2-11.32-4.2-17.07-6.23-4.43-1.57-4.42-1.5-4.27,3.16,0,1.36.23,2.46,1.84,2.76,5.53,1,11,2.11,16.59,3.13C153.78,60.62,154.93,59.94,154.77,57.44Zm-26.05-6.33-.8-.35-4.17,3.47.33.85c1.39,0,3.15.5,4-.16C128.87,54.37,128.57,52.43,128.72,51.11Z"/>
          <path class="cls-1" d="M364.82,132.92V37c5.4,3,12.47,27.16,12.86,42.7.47,18.89-2.05,37-12.17,53.4Z"/>
          <path class="cls-1" d="M154.77,57.44c.16,2.5-1,3.18-2.91,2.82-5.54-1-11.06-2.1-16.59-3.13-1.61-.3-1.79-1.4-1.84-2.76-.15-4.66-.16-4.73,4.27-3.16C143.45,53.24,149.16,55.39,154.77,57.44Z"/>
          <path class="cls-1" d="M128.72,51.11c-.15,1.32.15,3.26-.59,3.81-.9.66-2.66.16-4,.16l-.33-.85,4.17-3.47Z"/>
        </g>
        <text class="cls-2"><tspan class="cls-3" x="383.61" y="68.5">F</tspan><tspan class="cls-4" x="406.27" y="68.5">r</tspan><tspan x="421.6" y="68.5">ee shipping on o</tspan><tspan class="cls-5" x="745.83" y="68.5">r</tspan><tspan x="761.16" y="68.5">de</tspan><tspan class="cls-6" x="811.72" y="68.5">r</tspan><tspan x="827.83" y="68.5">s over </tspan><tspan x="383.61" y="115.3">$100 ! </tspan><tspan class="cls-7" x="508.21" y="115.3">Satisfaction guaranteed.</tspan></text>
      </g>
    </g>
  </g>
</svg>
